<svg width="20" height="20" viewBox="0 0 20 20" fill="none" xmlns="http://www.w3.org/2000/svg">
<path opacity="0.5" d="M14.3626 3.89196C14.3626 3.89196 13.559 4.24588 12.939 3.92483C12.4542 3.67382 13.9242 4.15189 13.304 2.57575C13.0708 1.98321 13.0678 1.5371 12.6464 1.08289C12.2491 0.654649 11.4047 0.441471 11.4047 0.441471C11.4047 0.441471 12.2691 0.2191 12.8289 0.408352C13.7823 0.730635 13.669 2.60611 14.5459 3.21707C15.0064 3.53797 15.5684 3.36087 15.5684 3.36087C15.5684 3.36087 16.0399 3.89399 15.7873 3.85859C14.764 3.71514 14.3626 3.89196 14.3626 3.89196Z" fill="#427B38"/>
<path opacity="0.6" d="M17.196 10.0572C17.196 10.0572 15.0926 17.1078 10.7167 18.2442C9.28457 18.6161 4.39811 18.3605 1.97821 18.8926C2.27713 17.161 10.5707 16.708 12.4126 12.2179C14.0843 9.27725 11.0865 4.57109 14.4416 3.80334C17.7967 3.03559 17.196 10.0572 17.196 10.0572Z" fill="#FF4141"/>
<path d="M12.1404 0.0695176C12.1948 0.082324 12.2527 0.086263 12.3038 0.107935C13.0392 0.419424 13.6409 0.892875 14.0446 1.59333C14.216 1.88828 14.3804 2.18388 14.5518 2.47883C14.7119 2.75914 14.9664 2.94882 15.2332 3.111C15.316 3.1604 15.4557 3.12831 15.5686 3.11294C15.6512 3.10106 15.7305 3.05385 15.8137 3.03195C15.8532 3.0219 15.8968 3.03215 15.9368 3.03417C15.9337 3.07721 15.9434 3.12692 15.9229 3.15802C15.8795 3.23115 15.8194 3.2944 15.7598 3.36972C15.9082 3.40738 16.0528 3.44182 16.1954 3.47717C16.6171 3.58092 16.8973 3.8623 17.1036 4.22531C17.4487 4.83139 17.5634 5.50213 17.6116 6.18256C17.7333 7.92235 17.5691 9.62857 16.9829 11.2802C16.608 12.336 16.0324 13.269 15.3186 14.1207C14.5974 14.9781 13.7658 15.7124 12.8731 16.3853C12.2045 16.8907 11.5017 17.3352 10.7216 17.6542C10.2152 17.8626 9.68479 17.9834 9.15168 18.098C8.12998 18.3174 7.10249 18.4682 6.05326 18.4421C5.56008 18.4311 5.06758 18.4273 4.57437 18.4384C4.03711 18.4494 3.49892 18.4803 2.97935 18.6478C2.67538 18.7449 2.3757 18.8573 2.0733 18.9635C2.02446 18.9801 1.97289 18.9905 1.92019 19.0039C1.80661 19.0343 1.70514 19.0202 1.62012 18.9325C1.61107 18.9119 1.60202 18.8914 1.59297 18.8708C1.5837 18.7057 1.66497 18.5742 1.75305 18.4471C2.03206 18.0494 2.38339 17.7327 2.79116 17.4722C3.35281 17.1119 3.93394 16.7848 4.56689 16.5698C4.99424 16.4258 5.42858 16.3031 5.86384 16.1826C6.8318 15.9133 7.79275 15.6225 8.69335 15.1669C9.98685 14.5113 11.1099 13.6462 11.9522 12.4485C12.5209 11.6386 12.796 10.7275 12.8425 9.73547C12.8761 9.06321 12.7593 8.41546 12.6368 7.7604C12.5249 7.1571 12.4303 6.54865 12.3497 5.9389C12.2624 5.2806 12.4364 4.68878 12.8639 4.17911C12.8957 4.14055 12.9305 4.10314 12.9708 4.05596C12.8657 4.03356 12.7715 4.01372 12.6764 3.99182C12.611 3.97646 12.5472 3.94811 12.553 3.86705C12.5579 3.78393 12.6236 3.77219 12.6919 3.76662C12.8988 3.754 13.0944 3.70466 13.2878 3.61703C13.4884 3.52375 13.5391 3.38369 13.5221 3.16789C13.509 2.99948 13.4698 2.83277 13.4182 2.67146C13.2865 2.25599 13.0996 1.86483 12.8202 1.52423C12.6486 1.31766 12.4409 1.15647 12.1912 1.05542C11.9505 0.957841 11.7179 0.834561 11.4523 0.819085C11.4294 0.816918 11.3918 0.76479 11.3941 0.736784C11.3991 0.58738 11.5007 0.491087 11.604 0.403914C11.6999 0.322398 11.8083 0.252564 11.909 0.176312C11.987 0.137073 12.0647 0.102845 12.1404 0.0695176ZM1.95632 18.7034C2.02652 18.6799 2.10058 18.6595 2.16806 18.6298C2.88336 18.3246 3.62526 18.1352 4.41137 18.1349C5.16341 18.1348 5.91546 18.1348 6.66798 18.1247C7.4986 18.1146 8.30926 17.9538 9.12287 17.7942C10.1881 17.585 11.1749 17.1921 12.0785 16.588C13.0286 15.9512 13.901 15.221 14.6803 14.3847C15.4628 13.5445 16.1288 12.623 16.5511 11.5416C17.0782 10.1883 17.3334 8.78295 17.3366 7.32671C17.337 6.48503 17.3018 5.65661 17.0456 4.84209C16.8215 4.13366 16.3469 3.70483 15.6168 3.62161C15.4136 3.59825 15.1977 3.56822 15.0017 3.60549C14.6108 3.67708 14.2226 3.77692 13.8434 3.89731C13.5669 3.98474 13.2796 4.06961 13.0848 4.31486C12.7442 4.74456 12.5616 5.22244 12.6417 5.77592C12.741 6.45592 12.8514 7.13348 12.9689 7.81038C13.0621 8.34343 13.1616 8.86876 13.155 9.41383C13.1455 10.3012 12.9715 11.1482 12.5809 11.941C12.282 12.5486 11.8658 13.0729 11.3946 13.5552C10.3818 14.5876 9.19351 15.349 7.8385 15.8428C7.17826 16.0845 6.50039 16.2751 5.83156 16.4863C5.36698 16.6345 4.89153 16.758 4.43485 16.9297C3.82118 17.1608 3.25865 17.4969 2.72013 17.8764C2.41028 18.0987 2.15508 18.373 1.95632 18.7034ZM11.6297 0.645274C11.8482 0.725658 12.0493 0.794108 12.2478 0.873479C12.5476 0.994139 12.7989 1.18767 12.9942 1.44265C13.3282 1.87943 13.5627 2.36741 13.6724 2.91034C13.7024 3.06152 13.7171 3.21694 13.7378 3.35258C13.9785 3.3226 14.2224 3.28877 14.467 3.26199C14.4932 3.2603 14.5231 3.28392 14.5517 3.29341C14.5162 3.32375 14.4881 3.32634 14.4599 3.32893C14.2112 3.3575 13.9578 3.38081 13.7364 3.51021C13.5541 3.61748 13.3838 3.74645 13.2163 3.85949C13.2113 3.85924 13.2252 3.86296 13.2333 3.85935C13.5462 3.76573 13.8547 3.65682 14.1716 3.5835C14.5168 3.50257 14.8705 3.45721 15.2221 3.39067C15.3504 3.36604 15.5074 3.43426 15.5985 3.28621C15.229 3.30665 15.227 3.30755 15.0521 3.19322C14.7334 2.98522 14.4533 2.74302 14.2704 2.39425C14.1215 2.11149 13.9459 1.84044 13.7774 1.56874C13.3867 0.931216 12.809 0.523263 12.124 0.226382C11.9664 0.362025 11.7986 0.502172 11.6297 0.645274Z" fill="black"/>
<path d="M10.969 16.7896C9.90518 17.2459 9.04399 17.4805 8.15955 17.6345C7.91221 17.6772 7.67049 17.7493 7.42563 17.8032C7.39928 17.8099 7.36502 17.7931 7.33619 17.7886C7.35258 17.7593 7.36174 17.7136 7.38423 17.7037C7.57462 17.637 7.76434 17.5633 7.95992 17.5139C8.56803 17.3589 9.18109 17.2263 9.78672 17.0601C10.4166 16.8882 11.0036 16.6076 11.5707 16.2817C12.1768 15.9338 12.7635 15.5527 13.286 15.0871C14.6255 13.8984 15.6242 12.4625 16.294 10.801C16.4583 10.3925 16.5932 9.97249 16.7172 9.54989C16.7731 9.36088 16.7657 9.15561 16.793 8.95711C16.8011 8.89223 16.781 8.78576 16.8848 8.79403C16.9806 8.80089 16.9398 8.90228 16.944 8.96176C16.9746 9.41931 16.867 9.8568 16.714 10.2799C16.2583 11.5405 15.6327 12.709 14.7983 13.7586C14.0459 14.7057 13.1659 15.5129 12.1302 16.1383C11.6747 16.4126 11.2056 16.656 10.969 16.7896Z" fill="black"/>
<path d="M14.3453 4.36344C14.2145 4.399 14.0827 4.43249 13.9517 4.47306C13.4691 4.61935 13.1633 5.01164 13.1805 5.52174C13.1921 5.89196 13.2838 6.24414 13.3622 6.59966C13.417 6.84048 13.4314 7.0893 13.4569 7.33567C13.4602 7.371 13.4234 7.40931 13.4077 7.44567C13.3923 7.41074 13.3639 7.37415 13.3626 7.33793C13.3457 6.97247 13.2266 6.62995 13.1257 6.28433C13.0204 5.92343 12.9729 5.54939 13.0534 5.17782C13.1273 4.84106 13.3361 4.59452 13.6458 4.43847C13.8274 4.34623 14.0135 4.26426 14.226 4.28106C14.2669 4.28514 14.3071 4.30425 14.3465 4.3163C14.3458 4.33133 14.346 4.34841 14.3453 4.36344Z" fill="black"/>
<path d="M6.98934 17.7923C6.96205 17.8191 6.94133 17.8552 6.9234 17.8533C6.74129 17.8501 6.55829 17.8448 6.37642 17.8366C6.36348 17.8349 6.33854 17.8116 6.33877 17.8065C6.34561 17.7888 6.36201 17.7595 6.37495 17.7612C6.55343 17.7562 6.73168 17.7562 6.90993 17.7561C6.92696 17.756 6.94918 17.7732 6.98934 17.7923Z" fill="black"/>
<path d="M13.5118 8.56531C13.506 8.36916 13.4981 8.196 13.4964 8.02014C13.4973 8.0001 13.5194 7.97811 13.5323 7.95768C13.5507 7.97167 13.5861 7.98551 13.5874 7.99964C13.5842 8.17525 13.578 8.34971 13.5698 8.52506C13.5693 8.53508 13.5378 8.54654 13.5118 8.56531Z" fill="black"/>
<path d="M13.2905 1.25585C13.3323 1.28408 13.3865 1.3019 13.4157 1.34054C13.5648 1.53492 13.7169 1.73046 13.8474 1.93796C13.933 2.07689 13.9836 2.23614 14.0496 2.38614C14.0412 2.39475 14.0319 2.40131 14.0255 2.40902C14.0051 2.39593 13.9754 2.3894 13.9643 2.36976C13.9179 2.29207 13.8714 2.21439 13.8332 2.1331C13.699 1.83401 13.538 1.55164 13.2891 1.3301C13.2804 1.32163 13.2752 1.30429 13.2678 1.29287C13.2773 1.2813 13.2839 1.26857 13.2905 1.25585Z" fill="black"/>
<path d="M12.7313 0.778116C12.8568 0.857798 12.9668 0.924646 13.0777 0.993549C13.0752 1.00447 13.0715 1.01835 13.069 1.02927C13.042 1.0289 13.0095 1.0383 12.9859 1.02907C12.8741 0.98021 12.7435 0.861093 12.7313 0.778116Z" fill="black"/>
</svg>
