<svg width="16" height="20" viewBox="0 0 16 20" fill="none" xmlns="http://www.w3.org/2000/svg">
<path opacity="0.4" d="M6.13444 19.0429L3.46843 19.8046C-2.6253 15.2343 0.675469 5.20507 3.08757 0.761719C7.89991 7.55561 6.61057 13.0871 6.1005 14.5412C6.1112 14.5193 6.12251 14.4965 6.13444 14.4726C7.0485 12.6445 12.3551 10.1562 14.8942 9.1406C14.7672 10.0293 14.2086 12.3398 12.9899 14.4726C11.7711 16.6054 7.91178 18.4082 6.13444 19.0429Z" fill="#427B38"/>
<path d="M15.4236 8.69326C15.2468 8.96457 14.9642 9.05316 14.7041 9.18693C14.2722 9.42734 13.8284 9.64445 13.3746 9.83739C12.8158 10.0445 12.2678 10.2809 11.7325 10.5456C11.3022 10.766 10.8418 10.9163 10.3974 11.1004C9.77972 11.3434 9.20295 11.6846 8.68811 12.1116C8.16559 12.5264 7.68074 12.9892 7.23952 13.4941C7.08543 13.6977 6.90172 13.8756 6.69489 14.0216C6.70008 13.9749 6.70895 13.9287 6.72143 13.8835C7.264 12.7131 7.58348 11.4465 7.66257 10.1524C7.68804 9.89042 7.68341 9.62628 7.64879 9.36542C7.53309 8.71651 7.45136 8.06226 7.27905 7.42198C7.13066 6.86962 6.91982 6.33706 6.65087 5.83519C6.1984 4.98812 5.61982 4.22868 5.09021 3.43501C4.92882 3.25798 4.78651 3.06352 4.66577 2.85501C4.4657 2.34979 4.17104 1.8945 3.95269 1.39843C3.8679 1.22589 3.81195 1.03991 3.78719 0.848277C3.75506 0.617199 3.74019 0.383928 3.74272 0.150513C3.74596 0.123883 3.74135 0.0968636 3.72948 0.0729629C3.71761 0.0490623 3.69903 0.0293838 3.67615 0.0164818C3.65326 0.00357987 3.62714 -0.00194977 3.60117 0.000610625C3.57519 0.00317102 3.55057 0.0137032 3.53048 0.0308401C3.50007 0.0452856 3.47454 0.0687571 3.45719 0.0982381C3.43985 0.127719 3.43146 0.161863 3.43313 0.196281C3.45546 0.643612 3.28971 1.05277 3.18787 1.47489C3.16992 1.5999 3.13197 1.72099 3.07555 1.83324C2.80796 2.25823 2.59054 2.7145 2.42789 3.1924C2.29072 3.60704 2.06994 3.98461 1.92349 4.39641C1.70948 4.99824 1.52777 5.61254 1.27898 6.20102C1.01997 6.82605 0.797633 7.4665 0.613169 8.11891C0.412992 8.80785 0.276891 9.51229 0.124219 10.2129C0.0449209 10.5768 0.0778386 10.9489 0.0320814 11.3135C-0.0127349 11.7873 -0.0105912 12.2645 0.0384797 12.7379C0.105826 13.4447 0.276002 14.1372 0.543315 14.7921C0.861093 15.5506 1.24501 16.278 1.69037 16.9653C2.05311 17.5221 2.45735 18.049 2.89945 18.5414C3.24336 18.9548 3.61318 19.3421 3.80487 19.8656C3.81188 19.8991 3.82859 19.9297 3.8528 19.9533C3.87702 19.9769 3.90761 19.9925 3.94056 19.9979C3.9735 20.0033 4.00727 19.9983 4.03743 19.9836C4.06759 19.969 4.09272 19.9452 4.10954 19.9156C4.21349 19.638 4.44023 19.4802 4.62327 19.2742C5.01336 18.8352 5.56789 18.8227 6.05127 18.627C6.07928 18.6221 6.10785 18.6217 6.13598 18.6258C6.66388 18.6064 7.1902 18.5656 7.71496 18.5033C7.84583 18.4876 7.97693 18.4842 8.10807 18.4579C8.72595 18.3339 9.28081 18.0376 9.85543 17.7957C10.1833 17.6511 10.4955 17.4713 10.7867 17.2594C11.6985 16.6209 12.5443 15.9316 13.1473 14.9506C13.4692 14.4012 13.7556 13.8306 14.0046 13.2425C14.3561 12.4602 14.5989 11.6299 14.9952 10.8651C15.1895 10.4429 15.3431 10.0021 15.454 9.54916C15.5041 9.33121 15.5934 9.12478 15.7171 8.94049C15.7366 8.92259 15.7523 8.90078 15.7633 8.8764C15.7743 8.85202 15.7803 8.82559 15.781 8.79873C15.7817 8.77187 15.7771 8.74514 15.7673 8.7202C15.7576 8.69525 15.7431 8.67261 15.7245 8.65367C15.7027 8.63476 15.6773 8.62071 15.65 8.61242C15.6226 8.60413 15.5939 8.60177 15.5656 8.60549C15.5373 8.60921 15.5101 8.61893 15.4856 8.63404C15.4612 8.64915 15.44 8.66931 15.4236 8.69326ZM4.08109 18.5673C4.01802 18.5489 4.0334 18.4903 4.04913 18.4464C4.08744 18.2753 4.09754 18.0988 4.07901 17.9243C4.09291 17.3702 4.18272 16.8233 4.22011 16.2711C4.25135 15.8097 4.32535 15.3458 4.38495 14.8837C4.41511 14.6499 4.4092 14.4176 4.42114 14.185C4.44967 13.252 4.39797 12.3182 4.26665 11.3945C4.17116 10.6025 3.96336 9.83223 3.88583 9.03755C3.82165 8.3796 3.81004 7.72046 3.79067 7.06104C3.78782 6.96392 3.79229 6.86642 3.78615 6.76957C3.74496 6.24407 3.81259 5.71556 3.98457 5.21892C4.00194 5.17416 4.01339 5.1272 4.01861 5.0793C4.01986 5.06531 4.01687 5.05127 4.01005 5.0391C4.00324 5.02694 3.99293 5.01723 3.98054 5.01132C3.96816 5.00541 3.9543 5.00359 3.94086 5.0061C3.92743 5.00861 3.91508 5.01534 3.90551 5.02535C3.86835 5.06926 3.83736 5.11831 3.81344 5.17107C3.63406 5.5125 3.53025 5.89047 3.50943 6.27797C3.51191 6.67661 3.51767 7.07472 3.54111 7.4729C3.55692 7.74162 3.55776 8.0115 3.55852 8.28088C3.58359 8.86327 3.64986 9.44301 3.7568 10.0155C3.8458 10.6297 3.9828 11.2347 4.0528 11.8532C4.17565 12.8934 4.19257 13.9439 4.10329 14.9877C4.03759 15.7227 3.86847 16.4478 3.89657 17.1924C3.88769 17.3083 3.87203 17.4235 3.84967 17.5375C3.81177 17.9999 3.80747 18.4645 3.83682 18.9274C3.82841 19.0096 3.8103 19.0905 3.78289 19.1682C3.54869 18.9241 3.33509 18.66 3.14437 18.3787C2.88709 18.0427 2.61119 17.7238 2.34145 17.4001C2.01807 16.9817 1.73001 16.5357 1.48042 16.0669C1.23807 15.6718 1.0277 15.257 0.851431 14.8265C0.628105 14.2695 0.465592 13.6887 0.366879 13.0948C0.300477 12.6461 0.274062 12.1921 0.287965 11.7385C0.303068 10.9703 0.394153 10.2056 0.55981 9.45634C0.722646 8.74675 0.910318 8.04616 1.13562 7.35562C1.20441 7.11255 1.29312 6.87592 1.40079 6.64828C1.55513 6.3042 1.68782 5.95027 1.79805 5.5887C2.02725 4.86869 2.29934 4.16389 2.61278 3.47829C2.77578 3.1621 2.83538 2.79671 3.00724 2.47978C3.09187 2.29503 3.187 2.11555 3.29211 1.94228C3.39498 1.80113 3.4538 1.63119 3.46079 1.45493C3.4577 1.36609 3.48539 1.27901 3.53894 1.20923C3.56249 1.22469 3.58262 1.24506 3.59805 1.26903C3.79037 1.86333 4.15101 2.37471 4.3793 2.95325C4.50236 3.21528 4.65825 3.45962 4.84297 3.68004C5.14652 4.08904 5.42851 4.51433 5.74722 4.91228C5.94848 5.18214 6.12008 5.47408 6.25889 5.78277C6.3439 5.95593 6.42931 6.12979 6.52819 6.29466C6.81676 6.77574 6.92187 7.3221 7.07031 7.85414C7.22797 8.43492 7.32906 9.03039 7.37207 9.63176C7.39991 10.2937 7.33541 10.9564 7.18054 11.5996C7.01915 12.3494 6.78307 13.0801 6.47602 13.7802C6.33683 14.1096 6.20965 14.445 6.09186 14.7832C5.84071 15.4243 5.52855 16.0384 5.15993 16.6164C4.96009 16.9343 4.78113 17.2656 4.62423 17.6081C4.49701 17.911 4.29789 18.1773 4.18449 18.489C4.18065 18.5133 4.16768 18.5352 4.14835 18.5499C4.12902 18.5645 4.10487 18.5708 4.08109 18.5673ZM14.9982 10.0053C14.7024 10.8669 14.2787 11.6725 13.9692 12.5305C13.6302 13.5624 13.129 14.5302 12.4856 15.3954C12.2204 15.7381 11.9145 16.0452 11.575 16.3095C11.2799 16.5359 10.9838 16.7619 10.692 16.9932C10.224 17.3219 9.71893 17.5908 9.18786 17.7941C8.8343 17.9557 8.46651 18.0821 8.08951 18.1715C7.84751 18.2284 7.5977 18.2028 7.35964 18.2592C6.97667 18.3501 6.58863 18.2822 6.20468 18.3237C6.06328 18.3308 5.9242 18.3635 5.7938 18.4202C5.47858 18.583 5.12476 18.5879 4.78984 18.7334C4.90963 18.4484 5.11031 18.2072 5.36562 18.0414C6.20686 17.3639 7.09011 16.7435 8.00977 16.1841C8.57493 15.8646 9.08989 15.4665 9.64903 15.1399C10.1661 14.8379 10.6735 14.5195 11.1619 14.1708C11.379 14.0158 11.5832 13.8414 11.79 13.6716C11.9086 13.5741 12.0092 13.4554 12.0867 13.3212C12.1993 13.1296 12.3288 12.9491 12.4735 12.7818C12.5229 12.7243 12.6068 12.6313 12.5047 12.5576C12.4851 12.5434 12.4628 12.5337 12.4393 12.5292C12.4158 12.5247 12.3916 12.5254 12.3684 12.5314C12.3452 12.5374 12.3235 12.5484 12.3048 12.5638C12.2861 12.5791 12.2708 12.5984 12.26 12.6204C12.1885 12.7229 12.0906 12.8081 12.0304 12.9163C11.811 13.2808 11.5172 13.5918 11.1693 13.8278C10.6159 14.2376 10.0204 14.5771 9.43832 14.9388C9.16328 15.1097 8.88963 15.2808 8.62412 15.4683C8.32121 15.6822 7.99788 15.8662 7.67938 16.056C6.85639 16.5551 6.0712 17.1174 5.33049 17.738C5.02913 17.9582 4.77616 18.2412 4.58799 18.5685C4.56817 18.6291 4.53438 18.684 4.48951 18.7283C4.44464 18.7726 4.39002 18.8051 4.33031 18.823C4.39585 18.5816 4.49025 18.3495 4.61135 18.132C5.07731 17.267 5.61174 16.4424 6.0539 15.5639C6.2091 15.2308 6.38484 14.9084 6.58005 14.5984C6.70104 14.4245 6.83821 14.2631 6.98962 14.1165C7.25347 13.852 7.5073 13.5767 7.76102 13.3017C7.88136 13.151 8.01964 13.0165 8.1726 12.9013C8.4634 12.7132 8.65555 12.412 8.94564 12.2195C9.60084 11.7797 10.3073 11.4266 11.0483 11.1685C11.2775 11.0778 11.5009 10.9722 11.7171 10.8525C12.091 10.6677 12.4789 10.5125 12.8622 10.348C13.3761 10.1275 13.8926 9.91311 14.405 9.689C14.5174 9.63785 14.623 9.57229 14.7194 9.4939C14.858 9.38867 15.0119 9.30676 15.1754 9.25121C15.1645 9.51201 15.1043 9.76812 14.9982 10.0053Z" fill="black"/>
</svg>
