<svg width="11" height="13" viewBox="0 0 11 13" fill="none" xmlns="http://www.w3.org/2000/svg">
<path d="M6.71874 0C3.94831 1.59627 4.28124 6.09374 4.28124 6.09374C4.28124 6.09374 3.0625 5.68749 3.0625 3.85938C1.60846 4.70252 0.625 6.3231 0.625 8.12499C0.625 10.8174 2.80761 13 5.50001 13C8.1924 13 10.375 10.8174 10.375 8.12499C10.375 4.16407 6.71874 3.35156 6.71874 0ZM5.92822 11.3202C4.9486 11.5645 3.95643 10.9683 3.71213 9.98866C3.4679 9.00905 4.06403 8.01682 5.0437 7.77258C7.4088 7.1829 7.7052 5.8529 7.7052 5.8529C7.7052 5.8529 8.88459 10.5831 5.92822 11.3202Z" fill="#5AACB8"/>
</svg>
