<svg width="20" height="21" viewBox="0 0 20 21" fill="none" xmlns="http://www.w3.org/2000/svg">
<path d="M6.875 17.375C7.22018 17.375 7.5 17.0952 7.5 16.75C7.5 16.4048 7.22018 16.125 6.875 16.125C6.52982 16.125 6.25 16.4048 6.25 16.75C6.25 17.0952 6.52982 17.375 6.875 17.375Z" stroke="white" stroke-width="1.5" stroke-linecap="round" stroke-linejoin="round"/>
<path d="M15.625 17.375C15.9702 17.375 16.25 17.0952 16.25 16.75C16.25 16.4048 15.9702 16.125 15.625 16.125C15.2798 16.125 15 16.4048 15 16.75C15 17.0952 15.2798 17.375 15.625 17.375Z" stroke="white" stroke-width="1.5" stroke-linecap="round" stroke-linejoin="round"/>
<path d="M1.875 3.625H4.375L6.25 14.25H16.25" stroke="white" stroke-width="1.5" stroke-linecap="round" stroke-linejoin="round"/>
<path d="M6.25 11.75H15.9937C16.066 11.7501 16.1361 11.725 16.192 11.6793C16.2479 11.6335 16.2862 11.5697 16.3004 11.4988L17.4254 5.87383C17.4345 5.82847 17.4334 5.78166 17.4222 5.73678C17.4109 5.69191 17.3899 5.65008 17.3606 5.61431C17.3312 5.57855 17.2943 5.54974 17.2525 5.52997C17.2107 5.5102 17.165 5.49997 17.1187 5.5H5" stroke="white" stroke-width="1.5" stroke-linecap="round" stroke-linejoin="round"/>
</svg>
