<svg width="11" height="12" viewBox="0 0 11 12" fill="none" xmlns="http://www.w3.org/2000/svg">
<path d="M7.44608 1.13973C6.95198 0.60627 6.26186 0.3125 5.50014 0.3125C4.73436 0.3125 4.04196 0.604492 3.55014 1.13465C3.053 1.67064 2.81077 2.3991 2.86765 3.1857C2.98038 4.73758 4.1613 6 5.50014 6C6.83899 6 8.01788 4.73783 8.13239 3.18621C8.19003 2.40672 7.94628 1.67979 7.44608 1.13973ZM9.96889 11.6875H1.0314C0.914411 11.689 0.79856 11.6644 0.692269 11.6156C0.585978 11.5667 0.491921 11.4947 0.416942 11.4049C0.251903 11.2076 0.18538 10.9382 0.234637 10.6658C0.448934 9.47699 1.11772 8.47838 2.1689 7.77734C3.10276 7.15502 4.28571 6.8125 5.50014 6.8125C6.71458 6.8125 7.89753 7.15527 8.83139 7.77734C9.88257 8.47812 10.5514 9.47674 10.7657 10.6655C10.8149 10.938 10.7484 11.2074 10.5833 11.4046C10.5084 11.4945 10.4143 11.5665 10.3081 11.6154C10.2018 11.6644 10.0859 11.689 9.96889 11.6875Z" fill="#515257"/>
</svg>
