<svg width="101" height="65" viewBox="0 0 101 65" fill="none" xmlns="http://www.w3.org/2000/svg">
<path d="M79.3769 25.4455C79.4009 25.9497 79.4009 26.2379 79.4009 26.3098C79.4009 26.6459 79.3045 27.0781 79.1115 27.5823C78.9425 28.0865 78.7255 28.3266 78.4601 28.3266C78.1947 28.3266 77.4467 28.2787 77.1572 28.2787C76.6989 28.2787 75.8304 28.3266 74.5999 28.3986C73.3695 28.4708 72.4045 28.5188 71.7048 28.5188C71.6807 28.5188 71.4878 28.5428 71.1258 28.5907C70.764 28.6147 70.4745 28.6387 70.2572 28.6387C69.6059 28.6387 69.2682 28.4948 69.2682 28.2066L69.3888 27.3184C69.3888 27.0781 69.413 26.7179 69.4371 26.2379C69.4854 25.7576 69.5095 25.3975 69.5095 25.1334C69.5095 25.1094 69.4371 24.7733 69.2682 24.125C69.1235 23.4766 69.051 22.9726 69.051 22.6124C69.051 21.9162 69.3405 21.5561 69.8954 21.5561C70.1126 21.5561 70.6675 21.628 70.8363 21.628C71.1499 21.628 71.2948 21.5079 71.2948 21.292C71.2948 21.1238 69.6542 21.0518 66.3972 21.0518C65.6735 21.0518 65.3115 21.1478 65.3115 21.3159C65.3115 21.604 66.6385 21.5321 66.6385 22.7325C66.6385 23.2365 66.5902 23.981 66.4696 24.9652C66.3731 25.9497 66.3249 26.694 66.3249 27.1982C66.3249 27.4863 66.3731 27.9185 66.4455 28.4948C66.518 29.0228 66.5662 29.4551 66.5662 29.7192C66.5662 29.8872 66.5421 30.2954 66.5421 30.4154C66.5421 30.4394 66.5662 30.7757 66.6385 31.4239C66.7109 32.072 66.759 32.7923 66.8316 33.6086C66.9039 34.401 66.928 35.0252 66.928 35.4334C66.928 36.994 65.77 35.7216 65.77 36.7538C65.77 36.898 65.9389 36.994 66.2526 37.0419C66.6144 37.0179 67.1693 36.994 67.9171 36.994C68.2791 36.994 68.8341 36.994 69.5818 37.0179C70.3298 37.0419 70.8846 37.0419 71.2465 37.0419C71.6325 37.0419 71.9461 36.85 71.9461 36.6819C71.9461 36.5858 71.5842 36.4897 70.8363 36.3698C70.1126 36.2537 69.7508 36.1096 69.7508 35.9416C69.7508 35.5815 69.6542 34.8171 69.4613 33.6406C69.2923 32.4442 69.1959 31.776 69.1959 31.656C69.1959 31.0556 69.1717 30.0272 69.1717 29.7391C69.1717 29.2629 69.2682 29.2629 69.7025 29.2629C69.9196 29.2629 70.4021 29.3109 71.1499 29.3831C71.8979 29.451 72.4045 29.4992 72.6218 29.4992C72.8387 29.4992 73.4902 29.451 74.5757 29.3831C75.6856 29.2869 76.3369 29.239 76.53 29.239C77.7604 29.239 78.5324 29.2629 78.8942 29.335L78.9907 30.3393C79.0632 30.8397 79.0874 31.2478 79.0874 31.5119C79.0874 31.8 79.1838 32.4203 79.3528 33.3566C79.5457 34.289 79.6423 34.9571 79.6423 35.3654C79.6423 36.2537 79.1355 36.4658 77.9775 36.4658C77.857 36.4658 77.5191 36.4418 77.4226 36.4418C77.1331 36.4418 76.9884 36.5137 76.9884 36.6579C76.9884 36.85 77.2055 37.0179 77.495 37.0179C77.5916 37.0179 78.0981 37.0179 79.0391 36.994H81.3311C81.7894 36.994 82.4166 37.0179 82.5373 37.0179C82.9956 37.0179 83.0439 36.994 83.0439 36.7299C83.0439 36.4658 81.4757 36.994 81.4757 35.4334C81.4757 35.0252 81.4998 34.401 81.5722 33.6086C81.6447 32.8165 81.6929 32.0961 81.7652 31.4479C81.8375 30.7997 81.8616 30.4633 81.8616 30.4394C81.8616 30.0312 81.8858 29.4791 81.9583 28.7829C82.0306 28.0625 82.0789 27.5342 82.0789 27.1982C82.0789 26.694 82.0306 25.9497 81.9101 24.9892C81.8135 23.981 81.7652 23.2608 81.7652 22.7565C81.7652 21.5079 82.9956 21.5321 82.9956 21.3399C82.9956 21.0758 82.682 20.9317 82.0306 20.9317C81.6687 20.9317 80.8726 21.0039 80.6795 21.0039L78.9907 21.0279C78.2429 21.0039 77.688 21.0039 77.3262 21.0039C77.0126 21.0039 76.7954 21.268 76.7954 21.4839C76.6989 21.748 78.7012 21.7001 78.8942 21.9402C79.2079 22.2523 79.3769 22.9485 79.3769 24.0289V25.4455ZM67.4106 23.6208C67.4106 24.365 67.4347 24.9173 67.483 25.2773L67.6517 26.2858C67.7725 26.838 67.8206 27.2701 67.8206 27.6304C67.8206 27.9425 67.7966 28.3986 67.7242 29.0228C67.676 29.6232 67.6517 30.0793 67.6517 30.3914C67.6517 30.7515 67.7725 31.6158 67.7725 31.9761C67.7725 32.2883 67.6276 32.9845 67.6035 33.1525C67.5793 32.6963 67.4588 31.8319 67.2898 30.5595C67.121 29.2869 67.0486 28.2547 67.0486 27.5102C67.0486 27.1502 67.0727 26.526 67.1452 25.6376C67.2176 24.7493 67.2417 23.957 67.2417 23.2848C67.2417 22.7565 67.2176 22.3723 67.1452 22.1082C67.3139 22.2762 67.4106 22.7805 67.4106 23.6208ZM80.7761 27.7984C80.7761 27.5823 80.8003 27.2222 80.8727 26.7421C80.9449 26.2858 80.969 25.9257 80.969 25.7096C80.969 25.4934 80.9449 25.1814 80.9208 24.7493C80.8967 24.317 80.8727 23.981 80.8727 23.7648C80.8727 23.1646 80.9932 22.6604 81.2103 22.2762C81.0898 22.7325 81.0415 23.2848 81.0415 23.933C81.0415 24.341 81.0898 24.9413 81.1862 25.7336C81.3068 26.526 81.3552 27.1022 81.3552 27.5102C81.3552 28.0146 81.2827 28.7347 81.1621 29.6232C81.0415 30.5116 80.9932 31.0636 80.969 31.3277C80.9208 30.1994 80.7761 28.8308 80.7761 27.7984ZM68.7616 24.6772V25.4934C68.7856 25.8777 68.7856 26.1417 68.7856 26.2858C68.7856 26.454 68.7616 27.0302 68.7133 27.9665C68.6892 28.9269 68.6651 29.4551 68.6409 29.527C68.4479 28.0865 68.3514 25.9738 68.3514 23.1646C68.3514 22.8765 68.3755 22.6364 68.4479 22.4684C68.6651 23.1646 68.7616 23.6688 68.7616 24.0049V24.6772ZM80.2212 35.6494C79.9077 33.7768 79.7628 31.856 79.7628 29.8632C80.0765 30.3434 80.2212 32.2642 80.2212 35.6494ZM68.5445 30.0553C68.5687 30.2715 68.6409 31.1838 68.7133 32.8404C68.8097 34.473 68.9063 35.4094 68.9787 35.6494C68.6892 35.2893 68.5445 34.5209 68.5445 33.3445V30.0553ZM67.7725 34.9532C67.7725 35.1933 67.7242 35.4094 67.6517 35.5774C67.676 35.4574 67.676 35.2654 67.676 35.0013C67.676 34.6651 67.676 34.449 67.6517 34.305C67.7242 34.6651 67.7725 34.8812 67.7725 34.9292V34.9532ZM83.8612 36.994C85.3811 36.97 88.2762 37.4021 88.2279 36.898C88.2279 36.6339 88.1314 36.4897 87.9143 36.4897C87.7455 36.4897 87.2388 36.5137 87.0458 36.5137C86.3703 36.5137 86.3221 35.9135 87.2147 33.9208C87.673 32.9364 87.9384 32.3602 87.9867 32.216L88.3727 30.9677C89.1688 30.8716 89.965 30.8236 90.8094 30.8236C92.5223 30.8236 94.1388 30.8476 95.6346 30.8956L95.924 31.904L96.1894 32.8165C96.31 33.2246 96.7926 34.257 97.0096 35.0492C97.1304 35.4574 97.1785 35.8415 97.1785 36.2496C97.1785 36.4178 97.0337 36.5137 96.7685 36.5859C96.5031 36.6339 96.3823 36.6819 96.3823 36.7538C96.3823 37.0179 96.5031 37.138 96.7201 37.138C96.8408 37.138 97.2026 37.114 97.8299 37.066C98.4571 37.0179 99.0845 36.994 99.7117 36.994C100.435 36.994 100.797 36.85 100.797 36.562C100.797 36.3457 100.677 36.2496 100.435 36.2496C100.315 36.2496 100.049 36.2978 99.9771 36.2978C98.7466 32.6164 97.7093 29.7192 96.8408 27.6304C96.5272 26.838 95.9964 25.8536 95.2726 24.7253C94.573 23.5728 94.0904 22.7565 93.8734 22.3002C93.6803 21.9162 93.3908 21.5321 93.029 21.1238C92.667 20.7157 92.4018 20.4996 92.2087 20.4996C91.8469 20.4996 91.292 21.1238 90.568 22.3964C89.8444 23.6688 89.3859 24.6532 89.1688 25.3975C89.0964 25.6856 88.9276 26.1177 88.7105 26.67C88.4933 27.2222 88.3246 27.6544 88.2521 27.9185L87.6489 29.9353C87.4076 30.8236 87.2147 31.4918 87.0698 31.948C86.8527 32.5924 86.4668 33.4526 85.936 34.505C85.4294 35.5774 85.0193 36.1537 84.7056 36.2256C84.0302 36.4178 83.3063 36.3938 83.3063 36.7538C83.3063 36.922 83.4994 36.994 83.8612 36.994ZM89.5067 27.1742L89.9167 25.9497L90.3509 24.9173C90.737 23.981 91.123 23.2848 91.6779 22.5884C93.5114 26.3098 94.5248 28.3986 94.6935 28.8069C94.7902 29.0709 95.2243 29.6232 95.3209 29.9113C93.4149 29.8872 91.9433 29.8632 90.9058 29.8632C90.2304 29.8632 89.4825 29.9113 88.6381 29.9833C88.8551 29.191 89.0483 28.5907 89.1688 28.2066L89.5067 27.1742ZM95.4173 28.4948C94.7419 27.6064 94.0422 26.2858 93.6322 25.3975L92.8841 23.6208C92.5946 22.9005 92.3775 22.3482 92.2087 21.9882C92.5706 22.3002 93.0531 22.9726 93.6803 24.0529C94.3317 25.1334 94.7178 25.9738 94.8624 26.5979C94.9589 27.006 95.1761 27.5582 95.538 28.2547C95.9 28.9509 96.141 29.4791 96.2618 29.8392C96.1894 29.6472 95.9 29.191 95.4173 28.4948ZM96.31 27.8224C96.4064 28.0865 96.6236 28.5188 96.9855 29.167C97.3475 29.7911 97.5645 30.2954 97.6611 30.6555C97.6611 30.6795 97.7093 31.0156 97.8299 31.712C97.7093 31.2078 97.3232 30.3914 96.6718 29.239C96.0446 28.0625 95.6586 27.1742 95.4897 26.5739C95.4173 26.2858 95.2243 25.7575 94.9107 25.0134C95.4415 25.8777 95.9 26.814 96.31 27.8224ZM96.9614 32.7923C96.9614 32.7682 96.4547 30.5116 96.4064 30.1513C97.1544 31.712 97.5885 33.2246 97.7093 34.7371C97.6611 34.5692 97.5163 34.257 97.2991 33.8007C97.0821 33.3445 96.9614 33.0084 96.9614 32.7923Z" fill="white"/>
<path d="M53.2838 27.2287C52.9702 25.9561 52.8013 25.1878 52.8013 24.9718C52.8738 23.1711 54.0076 22.1146 55.4067 21.6104C56.396 21.2263 57.0473 21.1302 57.7468 21.0342C58.8566 20.9142 59.9423 20.842 60.9797 20.842C61.3897 20.842 61.9205 20.8902 62.5236 20.9862C63.1267 21.0822 63.5851 21.1302 63.8987 21.1302C64.1399 21.1302 64.2605 21.2023 64.2605 21.3703C64.2605 21.9225 63.7539 21.8266 63.2956 21.9705C63.1026 22.5467 63.0062 23.1711 63.0062 23.8673C63.0062 24.2274 63.0543 24.8037 63.1508 25.5721C63.2231 26.3162 63.2713 26.8924 63.2713 27.3007C63.2713 27.5888 63.2231 28.0209 63.1508 28.5971C63.0784 29.1493 63.0302 29.5816 63.0302 29.8457C63.0302 30.0137 63.0543 30.4219 63.0543 30.5419C63.0543 30.566 63.0302 30.902 62.9577 31.5502C62.8854 32.1986 62.8372 32.9188 62.7648 33.7352C62.6923 34.5275 62.6683 35.1517 62.6683 35.5598C62.6683 36.088 62.9336 36.3521 63.4885 36.3521C63.6092 36.3521 63.8987 36.3282 63.9951 36.3282C64.3088 36.3282 64.4778 36.4482 64.4778 36.6643C64.4778 36.9044 64.1158 37.0244 63.368 37.0244C63.0784 37.0244 62.5718 37.0004 61.8481 36.9524C61.1244 36.9284 60.6177 36.9044 60.3041 36.9044C59.894 36.9044 58.9774 37.0004 58.6878 37.0004C58.4706 36.9764 58.3742 36.8324 58.3742 36.5443C58.3742 36.4482 58.4706 36.4001 58.6637 36.4001C58.7842 36.4001 59.2668 36.4241 59.4597 36.4241C60.2558 36.4241 60.6418 35.8719 60.6418 34.7916C60.6418 34.5275 60.6177 34.2154 60.5936 33.8551C60.5453 33.4951 60.5212 33.2788 60.5212 33.2309C60.5212 32.8229 60.4248 31.6224 60.2558 29.6535C58.7842 29.7736 57.9881 29.8457 57.8917 29.8457C57.1197 29.8457 56.396 30.6139 56.0341 31.6463C55.4793 33.1829 54.9244 34.2874 54.0317 35.4158C53.0908 36.5443 51.764 37.1685 50.1958 37.1685C50.0753 37.1685 50.0029 37.0965 50.0029 36.9524C50.0029 36.7844 50.1717 36.6883 50.4853 36.6162C51.8123 36.4001 53.2356 34.8876 54.7554 32.1264C54.8278 31.9825 55.0208 31.6944 55.2862 31.2863L55.9857 30.1339C56.1789 29.7975 56.2752 29.5816 56.2752 29.4855C56.396 29.4375 53.5975 28.9332 53.2838 27.2287ZM59.122 21.8505C58.8325 21.8505 57.9398 21.7546 57.5781 21.7546C56.7819 21.7546 56.1789 22.2587 55.9616 23.003C55.7447 23.7473 55.6721 24.1314 55.6481 24.5875C55.5998 25.2839 56.0341 28.7413 57.9158 28.8133C58.2052 28.8372 58.6154 28.8372 59.122 28.8133C59.6287 28.7893 59.9663 28.7412 60.1835 28.6692C60.0869 27.4927 60.0387 26.6283 60.0387 26.1003C60.0387 25.8122 60.0628 25.4519 60.0869 25.0438C60.0869 24.9718 60.0869 24.7077 60.1112 24.2274C60.1353 23.7473 60.1594 23.2911 60.2077 22.8831C60.2317 22.4508 60.3041 22.1146 60.4248 21.8505C60.3282 21.8505 60.0146 21.8266 59.894 21.8266C59.6769 21.8266 59.2909 21.8505 59.122 21.8505ZM60.8348 25.692C60.8348 26.0763 60.8831 26.7245 61.0038 27.6608C61.1002 28.5971 61.1966 29.1733 61.2932 29.4375C61.3174 29.3175 61.3415 28.9814 61.3415 28.4051C61.3415 25.3799 61.2692 23.3631 61.1485 22.3787C60.9312 23.2671 60.8348 23.7714 60.8348 23.9393V25.692ZM62.1618 24.1075C62.1618 24.9478 62.1618 26.1722 62.1376 27.7328C62.1134 29.2935 62.1134 30.4939 62.1134 31.2863C62.1134 31.3822 62.1376 31.6944 62.1376 31.7904C62.4029 29.5336 62.5477 28.141 62.5477 27.6127C62.5477 27.2046 62.4994 26.6283 62.4029 25.8362C62.2823 25.0438 62.2341 24.4435 62.2341 24.0355C62.2341 23.6272 62.2582 23.1951 62.3305 22.7629C62.21 23.0749 62.1618 23.5072 62.1618 24.1075ZM55.2621 22.6428C54.8519 23.0749 54.6349 23.8194 54.6349 24.8996C54.6349 26.2202 54.7795 27.0606 55.0932 27.4687C54.9726 26.7725 54.9244 26.1482 54.9244 25.5961C54.9244 24.3476 55.1413 23.2671 55.5998 22.3787C55.4793 22.4508 55.3586 22.5467 55.2621 22.6428ZM53.887 24.9478C53.887 24.2515 54.2247 23.5072 54.2971 23.1951C53.7905 23.6032 53.5492 24.0835 53.5492 24.5875C53.5492 24.8996 53.6216 25.4039 53.7905 26.052C53.9351 26.7004 54.08 27.1565 54.2005 27.3967C54.2005 27.3247 54.1524 26.9406 54.0559 26.2442C53.9351 25.524 53.887 25.0917 53.887 24.9478ZM61.1966 34.9836C61.1966 34.5035 61.2207 33.7832 61.2932 32.8468C61.3415 31.9104 61.3656 31.2863 61.3656 30.974C61.3656 30.566 61.3174 30.2778 61.2449 30.0616C61.1726 30.5179 61.1485 31.4062 61.1243 32.7508C61.1002 34.0712 61.0761 35.0557 61.0278 35.6559C61.1485 35.4878 61.1966 35.2717 61.1966 34.9836Z" fill="white"/>
<path fill-rule="evenodd" clip-rule="evenodd" d="M3.98763 31.6638C3.98763 31.7837 4.08414 32.452 4.25303 33.6484C4.44604 34.8249 4.54255 35.5892 4.54255 35.9494C4.54255 36.1174 4.90434 36.2615 5.62815 36.3775C6.37609 36.4975 6.73788 36.5936 6.73788 36.6896C6.73788 36.8577 6.42434 37.0498 6.03831 37.0498C5.67641 37.0498 5.12148 37.0498 4.37366 37.0258C3.62572 37.0018 3.07081 37.0018 2.70901 37.0018C1.96119 37.0018 1.40626 37.0258 1.04436 37.0498C0.73082 37.0018 0.561933 36.9057 0.561933 36.7617C0.561933 35.7292 1.71992 37.0018 1.71992 35.4412C1.71992 35.033 1.69568 34.4088 1.62341 33.6165C1.55102 32.8002 1.50277 32.0799 1.43039 31.4316C1.35801 30.7834 1.33389 30.4473 1.33389 30.4232C1.33389 30.3032 1.35801 29.895 1.35801 29.7269C1.35801 29.4628 1.30976 29.0307 1.23738 28.5025C1.16499 27.9262 1.11674 27.494 1.11674 27.206C1.11674 26.7018 1.165 25.9576 1.2615 24.9732C1.38214 23.9888 1.43039 23.2445 1.43039 22.7404C1.43039 21.5398 0.103516 21.612 0.103516 21.3237C0.103516 21.1558 0.465313 21.0597 1.18912 21.0597C2.56204 21.0597 3.64752 21.0725 4.44427 21.0998C4.52584 21.0962 4.6239 21.0939 4.75095 21.088C5.03549 21.0748 5.46469 21.0439 6.02935 20.9949C6.59412 20.9462 7.29435 20.8792 7.86898 20.8292C8.4436 20.7791 8.8926 20.7456 9.21964 20.7258C9.5469 20.7059 9.75209 20.6996 9.95286 20.7037C10.1536 20.7078 10.35 20.7224 10.6886 20.7741C11.0273 20.8258 11.5083 20.9147 11.9242 20.9625C12.1762 20.9914 12.4045 21.0053 12.6117 21.0129C12.9273 21.015 13.3177 21.0208 13.7825 21.0357L15.4713 21.0117C15.6643 21.0117 16.4605 20.9397 16.8223 20.9397C17.4737 20.9397 17.7873 21.0837 17.7873 21.3478C17.7873 21.5398 16.5569 21.5158 16.5569 22.7644C16.5569 23.2685 16.6052 23.9888 16.7017 24.9973C16.8223 25.9576 16.8706 26.7018 16.8706 27.206C16.8706 27.5421 16.8223 28.0703 16.7499 28.7906C16.6775 29.4868 16.6534 30.0391 16.6534 30.4473C16.6534 30.4713 16.6294 30.8074 16.5569 31.4556C16.4845 32.1039 16.4364 32.8241 16.3639 33.6165C16.2915 34.4088 16.2675 35.033 16.2675 35.4412C16.2675 37.0018 17.8356 36.4735 17.8356 36.7375C17.8356 37.0018 17.7873 37.0258 17.329 37.0258C17.2083 37.0258 16.581 37.0018 16.1226 37.0018H13.8308C12.8899 37.0258 12.3833 37.0258 12.2868 37.0258C11.9972 37.0258 11.7801 36.8577 11.7801 36.6656C11.7801 36.5215 11.9249 36.4495 12.2144 36.4495C12.3109 36.4495 12.6487 36.4735 12.7692 36.4735C13.9273 36.4735 14.4339 36.2615 14.4339 35.3731C14.4339 34.9649 14.3373 34.2967 14.1444 33.3643C13.9755 32.428 13.879 31.8077 13.879 31.5196C13.879 31.2556 13.8549 30.8474 13.7825 30.3473L13.686 29.3428C13.7713 28.4579 13.7877 28.5444 13.9032 27.5902C13.968 27.0545 14.1927 26.6538 14.1927 26.3176C14.1927 26.2456 14.1927 25.9576 14.1684 25.4534V24.0368C14.1684 23.0241 14.0201 22.3489 13.7432 22.0112C13.7133 22.0012 13.6826 21.9772 13.643 21.9545C13.5556 21.9046 13.4253 21.8612 13.2469 21.8262C13.0683 21.7911 12.8419 21.7644 12.522 21.7293L12.3915 21.7151L12.2654 21.7015C12.0015 21.6734 11.7159 21.6443 11.4984 21.6245C11.2074 21.598 11.0382 21.5883 10.7835 21.5968C10.5287 21.6052 10.1883 21.6318 9.70838 21.6663C9.22849 21.7007 8.60938 21.743 8.15341 21.763C7.69743 21.7828 7.4048 21.7801 6.98601 21.754C6.56711 21.7281 6.02215 21.6783 5.63579 21.6434C5.24954 21.6083 5.02188 21.5879 4.88055 21.5775C4.78493 21.5703 4.72893 21.5676 4.65876 21.5643C4.12265 21.5765 3.84287 21.936 3.84287 22.6203C3.84287 22.9805 3.91525 23.4846 4.06001 24.1329C4.2289 24.7812 4.30128 25.1172 4.30128 25.1412C4.30128 25.4053 4.27715 25.7655 4.2289 26.2456C4.20477 26.7258 4.18064 27.086 4.18064 27.326L4.06001 28.2144C4.06001 29.639 3.98763 30.1166 3.98763 31.6638ZM15.5678 27.8063C15.5678 27.5902 15.5919 27.23 15.6643 26.7498C15.7367 26.2936 15.7607 25.9335 15.7607 25.7174C15.7607 25.5014 15.7367 25.1892 15.7126 24.757C15.6884 24.3248 15.6643 23.9888 15.6643 23.7727C15.6643 23.1725 15.7848 22.6683 16.0021 22.2842C15.8815 22.7404 15.8332 23.2925 15.8332 23.9408C15.8332 24.349 15.8815 24.9491 15.9778 25.7415C16.0986 26.5337 16.1467 27.11 16.1467 27.5181C16.1467 28.0223 16.0745 28.7426 15.9537 29.6309C15.8332 30.5192 15.7848 31.0714 15.7607 31.3355C15.7126 30.2072 15.5678 28.8387 15.5678 27.8063ZM15.0129 35.6573C14.6992 33.7845 14.5545 31.8638 14.5545 29.871C14.8681 30.3512 15.0129 32.272 15.0129 35.6573ZM2.20234 23.6286C2.20234 24.373 2.22647 24.9251 2.27472 25.2853L2.44361 26.2936C2.56425 26.8459 2.6125 27.2781 2.6125 27.6382C2.6125 27.9503 2.58837 28.4065 2.51599 29.0307C2.46774 29.6309 2.44361 30.0871 2.44361 30.3992C2.44361 30.7594 2.56425 31.6237 2.56425 31.9838C2.56425 32.2959 2.41948 32.9923 2.39536 33.1603C2.37123 32.704 2.2506 31.8398 2.08171 30.5673C1.91293 29.2947 1.84044 28.2624 1.84044 27.5181C1.84044 27.158 1.86457 26.5337 1.93706 25.6454C2.00933 24.757 2.03346 23.9648 2.03346 23.2925C2.03346 22.7644 2.00933 22.3802 1.93706 22.1161C2.10584 22.2842 2.20234 22.7884 2.20234 23.6286ZM3.55345 24.685V25.5014C3.57758 25.8855 3.57758 26.1496 3.57758 26.2936C3.57758 26.4617 3.55345 27.038 3.50509 27.9744C3.48096 28.9346 3.45683 29.4628 3.43271 29.5349C3.2398 28.0943 3.1433 25.9816 3.1433 23.1726C3.1433 22.8843 3.16742 22.6443 3.23981 22.4762C3.45684 23.1726 3.55345 23.6767 3.55345 24.0128V24.685ZM3.33631 30.0631C3.36044 30.2792 3.43271 31.1916 3.50509 32.8481C3.60171 34.4807 3.69811 35.4172 3.7706 35.6573C3.48096 35.2971 3.33631 34.5288 3.33631 33.3523V30.0631ZM2.56425 34.961C2.56425 35.2011 2.51599 35.4172 2.44361 35.5852C2.46774 35.4652 2.46774 35.2731 2.46774 35.009C2.46774 34.6728 2.46774 34.4567 2.44361 34.3127C2.51599 34.6728 2.56425 34.8889 2.56425 34.9369V34.961Z" fill="white"/>
<path d="M23.9771 21.3493C22.5778 21.8056 21.3957 22.6939 20.4065 24.0144C19.4416 25.335 18.959 26.7515 18.959 28.2641C18.959 30.7371 19.6829 32.7297 21.1544 34.2424C21.275 34.4104 21.8299 35.0346 22.1916 35.3948C22.3606 35.5628 22.5536 35.683 22.7224 35.779C23.3739 36.139 24.2181 36.5233 25.2556 36.9074C26.2931 37.2916 27.089 37.4837 27.6439 37.4837C28.1988 37.4837 29.0672 37.3155 30.2253 37.0034C31.3832 36.6913 32.2758 36.2592 32.8789 35.731C33.2892 35.3709 33.7233 34.7465 34.1335 33.8341C35.0502 31.7694 35.5085 29.9927 35.5085 28.5282C35.5085 27.0875 35.1225 25.671 34.3746 24.2785C34.1576 23.8943 33.5545 23.2942 33.265 22.958C32.6618 22.2617 31.8899 21.6614 30.9007 21.2053C29.9358 20.7491 28.9467 20.509 27.9575 20.509C27.3061 20.509 26.51 20.6771 25.9552 20.7971C25.4487 20.9172 24.3871 21.2534 23.9771 21.3493ZM27.451 36.5473C26.8961 36.5473 26.2446 36.4032 25.4728 36.139C24.7007 35.8509 24.0976 35.5149 23.6876 35.1307C23.3497 34.8187 23.1085 34.2664 22.9397 33.4741C22.9397 33.4501 22.8673 32.9458 22.7465 31.9615C22.6984 31.4813 22.457 30.8331 22.457 30.3528C22.457 29.6566 22.6984 28.6721 22.6984 27.9039C22.6984 27.7118 22.626 27.2316 22.626 27.0396C22.626 25.623 23.0844 24.3506 24.0012 23.2221C24.942 22.0937 26.0517 21.5175 27.3544 21.5175C28.6572 21.5175 29.767 22.1417 30.6837 23.3661C31.6245 24.5905 32.0828 25.8631 32.0828 27.1836C32.0828 27.3757 32.0104 27.856 32.0104 28.0479C32.0104 28.8163 32.2517 29.8005 32.2517 30.497C32.2517 30.9771 32.0104 31.6254 31.9622 32.1055C31.8416 33.09 31.7691 33.594 31.7691 33.6182C31.6968 33.9543 31.5522 34.3624 31.3591 34.8187C31.1661 35.2748 30.9732 35.5868 30.8042 35.731C30.587 35.8749 30.0563 36.0431 29.2121 36.2592C28.3677 36.4512 27.7646 36.5473 27.451 36.5473ZM21.7575 33.594C21.3232 32.7057 21.1062 31.7214 21.1062 30.6169C21.1062 26.6313 21.9265 23.9904 23.5427 22.6699C22.7465 23.5583 22.3606 24.3747 22.3606 25.0948C22.3606 25.287 22.2883 25.5991 22.1435 26.0551C21.9989 26.4874 21.9265 26.7995 21.9265 26.9916C21.9265 27.1836 21.9989 27.6398 21.9989 27.832C21.9989 28.216 21.9747 28.6963 21.9022 29.2484C21.8299 29.8005 21.8057 30.2088 21.8057 30.4249C21.8057 31.9855 22.0711 33.402 22.626 34.6265C22.216 34.3145 21.9265 33.9543 21.7575 33.594ZM32.4206 24.9748C32.8306 26.1272 33.1202 27.1836 33.265 28.1201C33.4338 29.0564 33.5061 30.1848 33.5061 31.5053C33.5061 32.3456 33.3373 33.1619 33.0238 33.9063C32.7101 34.6505 32.2758 35.1307 31.7691 35.3948C32.5171 34.0263 32.903 32.4176 32.903 30.569C32.903 30.3528 32.8789 29.9447 32.8065 29.3925C32.7343 28.8402 32.7101 28.36 32.7101 27.9759C32.7101 27.7837 32.7825 27.3278 32.7825 27.1356C32.7825 26.9676 32.6376 26.3432 32.3481 25.2389C32.3481 25.0228 32.324 24.8306 32.2517 24.6627L32.4206 24.9748ZM34.1092 25.8631C34.423 26.5593 34.5676 27.4477 34.5676 28.4802C34.5676 29.1764 34.4712 29.9687 34.2541 30.857C34.2541 28.8642 33.8681 26.8234 33.096 24.7107C32.9996 24.5186 32.5894 23.9183 32.3723 23.4621C32.4448 23.6062 32.7343 23.9664 33.1925 24.5426C33.6751 25.1188 33.9887 25.5511 34.1092 25.8631ZM20.3342 30.3049C20.3342 30.7851 20.3824 31.2412 20.4547 31.6734C20.0447 30.7131 19.8275 29.7286 19.8275 28.7443C19.8275 27.1596 20.3824 25.671 21.4681 24.2785C20.7201 25.8152 20.3342 27.832 20.3342 30.3049ZM31.0696 22.3579C31.2143 22.5737 31.3591 22.8859 31.5281 23.2942C31.2627 22.8859 30.9007 22.5018 30.4424 22.1176C30.7319 22.1657 30.949 22.2377 31.0696 22.3579Z" fill="white"/>
<path fill-rule="evenodd" clip-rule="evenodd" d="M44.8028 29.6774C44.9717 31.6461 45.0682 32.8466 45.0682 33.2548C45.0682 33.3028 45.0924 33.5189 45.1406 33.8789C45.1647 34.2391 45.1889 34.5512 45.1889 34.8154C45.1889 35.8957 44.8028 36.448 44.0068 36.448C43.8138 36.448 43.3313 36.424 43.2106 36.424C43.0176 36.424 42.9212 36.472 42.9212 36.568C42.9212 36.856 43.0176 37.0002 43.2348 37.0241C43.5243 37.0241 44.441 36.9282 44.8511 36.9282C45.1647 36.9282 45.6714 36.9522 46.3951 36.9762C47.1188 37.0241 47.6254 37.0481 47.915 37.0481C48.6628 37.0481 49.0247 36.9282 49.0247 36.6881C49.0247 36.472 48.8557 36.3519 48.5422 36.3519C48.4456 36.3519 48.1561 36.3759 48.0355 36.3759C47.4807 36.3759 47.2153 36.1118 47.2153 35.5837C47.2153 35.1755 47.2395 34.5512 47.3118 33.759C47.3842 32.9426 47.4324 32.2223 47.5048 31.5741C47.5772 30.9259 47.6013 30.5898 47.6013 30.5658C47.6013 30.4456 47.5772 30.0375 47.5772 29.8695C47.5772 29.6053 47.6254 29.1733 47.6979 28.621C47.7702 28.0448 47.8184 27.6126 47.8184 27.3245C47.8184 26.9164 47.7702 26.3402 47.6979 25.5959C47.6013 24.8275 47.5531 24.2513 47.5531 23.8912C47.5531 23.1949 47.6495 22.5707 47.8425 21.9945C48.3009 21.8504 48.8075 21.9465 48.8075 21.3942C48.8075 21.2261 48.6869 21.1542 48.4457 21.1542C48.1321 21.1542 47.6736 21.1062 47.0706 21.0102C46.4674 20.9141 45.9368 20.8661 45.5266 20.8661C44.4893 20.8661 43.4036 20.9381 42.294 21.0581C41.5943 21.1542 40.9577 21.2906 39.9538 21.6343C35.9246 23.0143 40.2829 28.4503 38.2192 32.2159C36.7046 34.9796 36.0486 36.1993 34.7247 36.4317C34.408 36.4872 34.2422 36.5996 34.2422 36.7677C34.2422 36.9118 34.3146 36.9838 34.4351 36.9838C36.0033 36.9838 37.3447 36.3712 38.2709 35.2311C39.1781 34.1145 38.952 33.2754 39.4978 31.7358C39.8513 30.7388 40.1483 28.795 39.9436 26.9729C39.6625 24.4726 39.8393 21.7784 42.1251 21.7784C42.487 21.7784 43.3795 21.8744 43.669 21.8744C43.8379 21.8744 44.2238 21.8504 44.441 21.8504C44.5617 21.8504 44.8752 21.8744 44.9717 21.8744C44.8511 22.1385 44.7787 22.4747 44.7546 22.9069C44.7064 23.3151 44.6823 23.7712 44.6581 24.2513C44.634 24.7316 44.634 24.9956 44.634 25.0676C44.6098 25.4758 44.5857 25.8359 44.5857 26.1241C44.5857 27.4633 44.7874 29.1089 44.8028 29.6774ZM39.2352 27.0811C39.2352 24.949 39.144 23.7391 38.9464 23.4368C38.9464 24.6918 39.0376 25.9015 39.2352 27.0811ZM45.3819 25.7159C45.3819 26.1001 45.4301 26.7483 45.5508 27.6847C45.6471 28.621 45.7438 29.1972 45.8401 29.4613C45.8644 29.3413 45.8885 29.0052 45.8885 28.4289C45.8885 25.4038 45.816 23.387 45.6955 22.4027C45.4784 23.291 45.3819 23.7952 45.3819 23.9633V25.7159ZM46.7087 24.1313C46.7087 24.9716 46.7087 26.196 46.6846 27.7567C46.6604 29.3173 46.6604 30.5178 46.6604 31.3101C46.6604 31.406 46.6846 31.7182 46.6846 31.8142C46.95 29.5573 47.0947 28.1648 47.0947 27.6366C47.0947 27.2285 47.0464 26.6522 46.9499 25.8599C46.8293 25.0676 46.7811 24.4674 46.7811 24.0593C46.7811 23.6511 46.8052 23.2189 46.8776 22.7868C46.7569 23.099 46.7087 23.5311 46.7087 24.1313ZM45.7438 35.0074C45.7438 34.5273 45.7679 33.807 45.8401 32.8706C45.8885 31.9343 45.9126 31.3101 45.9126 30.9979C45.9126 30.5898 45.8644 30.3017 45.792 30.0856C45.7196 30.5418 45.6955 31.4301 45.6714 32.7745C45.6471 34.095 45.6231 35.0795 45.5749 35.6796C45.6955 35.5117 45.7438 35.2956 45.7438 35.0074Z" fill="white"/>
<path fill-rule="evenodd" clip-rule="evenodd" d="M77.2773 42.3674L77.2782 45.3259L77.2865 48.4172L77.2728 51.9402C69.1464 51.8788 61.0458 51.5964 52.9437 51.065C52.4985 51.0359 52.0952 50.9724 51.7078 50.9114C51.3964 50.8624 51.0952 50.815 50.7906 50.7883C49.905 50.7109 49.7057 50.7975 49.4381 50.9137C49.2631 50.9897 49.0588 51.0784 48.6138 51.1422C48.4683 51.4105 48.4288 51.5417 48.4101 51.6038C48.4009 51.6342 48.3968 51.6481 48.3876 51.6533C48.3799 51.6577 48.3688 51.6561 48.3483 51.6531C48.2958 51.6455 48.1816 51.6289 47.907 51.6825C47.8496 51.8083 47.8242 51.8877 47.806 51.9443C47.7929 51.9852 47.7837 52.0141 47.7689 52.04C47.7332 52.1025 47.6655 52.1469 47.4339 52.2985C47.398 52.322 47.3582 52.3481 47.3139 52.3772C47.0994 52.663 46.7151 52.9564 46.3015 53.272C46.0929 53.4313 45.8769 53.5962 45.6715 53.7686C26.6241 69.7642 18.2062 61.4662 3.46993 45.512C4.71867 44.6944 70.0169 42.566 77.2773 42.3674ZM98.4315 51.7056C98.425 53.1947 80.2481 52.1752 79.3074 51.9722C78.7327 51.7866 78.8197 50.3523 78.8845 49.2854C78.9054 48.9394 78.9241 48.6321 78.9171 48.4185C78.9039 48.0185 78.8862 47.6253 78.8687 47.2347C78.8273 46.3124 78.7865 45.4047 78.8071 44.4564C78.4871 43.8128 78.4207 43.2998 78.6226 42.492C82.3472 41.7698 93.9019 42.0062 98.1674 42.2287C98.685 43.6003 99.3113 50.6292 98.4315 51.7056ZM0.554438 44.0245C0.253263 45.6988 1.91157 47.129 3.14737 48.1948C3.53279 48.5272 3.87712 48.8242 4.10808 49.082C5.15605 49.9394 6.03503 50.8918 6.91666 51.9912C22.7293 71.7112 33.3205 64.0994 42.0388 57.8337C45.5621 55.3014 48.7796 52.9891 51.9122 52.7895C52.1913 52.7885 52.7894 52.7824 53.6238 52.774C59.2426 52.7172 75.5767 52.5522 77.3487 53.0909C78.7743 52.8639 82.3031 53.0772 86.1662 53.3108C92.2035 53.6758 99.0575 54.0901 99.9768 52.9502L99.9105 51.562C99.496 50.9964 99.9509 44.8994 100.112 43.1266C100.153 42.8733 100.203 42.6312 100.25 42.4028C100.492 41.2386 100.66 40.4277 99.2117 40.2762C93.49 40.4855 84.0156 40.6099 73.1233 40.7529C44.9617 41.1227 7.32172 41.6169 0.554438 44.0245Z" fill="white"/>
<path d="M83.2642 45.2276C82.1908 47.2569 82.2542 47.8689 84.055 48.7623C86.0766 48.7742 87.1911 48.2712 86.627 45.7952C85.5468 44.8122 84.9114 44.8827 83.2642 45.2276Z" fill="white"/>
<path d="M94.2203 46.6555C92.7913 45.9529 90.8055 46.065 91.6661 48.1922C91.8947 48.7572 92.5016 49.2396 93.209 49.1012C94.4021 48.8674 94.2995 47.5459 94.2203 46.6555Z" fill="white"/>
<path fill-rule="evenodd" clip-rule="evenodd" d="M58.1258 11.1358C58.6901 12.1653 58.4193 13.1518 57.6204 14.0587L58.1258 11.1358ZM40.9836 14.2786C40.7153 13.8551 40.2146 13.4896 40.1522 12.6845C41.001 13.0755 40.9578 13.2356 40.9836 14.2786ZM60.9848 11.6492C62.8633 11.6624 64.9657 14.287 65.5756 15.3936C64.4628 14.8079 64.077 14.4777 62.9555 13.6749C62.1948 13.13 61.0906 12.709 60.9848 11.6492ZM53.1915 12.5845C53.4087 11.7525 53.5615 11.3968 53.8973 10.6299C54.2726 9.77257 54.1127 9.53973 55.09 9.10082C55.3016 10.955 54.312 12.0854 53.1915 12.5845ZM48.7556 11.7688C48.3966 10.6762 48.5297 9.21481 49.0192 8.41078C49.5704 9.05246 49.6576 10.2625 49.2499 11.2193C48.88 12.0871 48.9705 11.6113 48.7556 11.7688ZM40.5158 10.8175C41.0269 9.83469 41.9776 9.37044 43.1898 9.17891L43.6735 11.5089C43.0107 10.9603 41.7332 10.9591 40.5158 10.8175ZM43.9824 9.68534C45.2886 10.5853 45.503 12.3883 45.0652 13.2376C44.5368 12.5437 44.1338 10.6088 43.9824 9.68534ZM59.07 9.36372C59.539 8.43116 60.5183 8.57357 61.4858 8.68647C60.8112 9.11172 60.0408 9.32143 59.07 9.36372ZM38.7044 8.39536C37.8629 8.18797 38.1257 7.6855 37.7134 6.67166C38.3336 7.12356 38.7004 7.64255 38.7044 8.39536ZM55.7058 6.95615C55.4369 6.53101 55.1644 7.67218 55.4288 5.939L55.8001 5.09884C55.819 4.98242 55.8889 4.96943 56.0315 4.91832L55.7058 6.95615ZM49.7314 2.64236C49.9664 3.35685 50.0863 3.59354 50.0025 4.40705C49.8784 5.61012 49.307 5.68248 49.0517 5.78645L49.7314 2.64236ZM43.9871 6.02116C43.7196 5.04685 43.3444 3.58319 43.5946 2.46151C44.4002 3.00924 44.5664 4.30318 44.4467 5.09014C44.2972 6.07293 44.3541 5.61265 43.9871 6.02116ZM48.2185 7.0718L45.7814 7.39517C46.0746 6.49961 45.9718 6.42946 46.8896 6.38474C47.535 5.37122 47.5707 3.55874 45.7771 4.38634C44.8503 5.24368 46.3653 6.09144 44.8015 7.13227C44.2556 5.66222 46.3737 1.68061 42.9563 0.777563C42.6682 1.47751 42.8133 1.74581 42.8427 2.61846L42.9142 3.66018L43.2535 5.39721C43.5438 8.61157 43.6621 7.91856 42.7097 8.41596C41.9921 8.79066 40.7892 9.45624 40.2817 9.64712C40.437 8.20482 42.7152 7.14262 40.5839 6.69016C39.4821 7.44055 40.2436 7.90656 39.6508 8.60541C39.5587 9.31648 39.3401 7.82263 38.934 7.16333C38.416 6.32207 37.6458 5.08838 36.7393 5.7761C37.2996 7.17357 39.0251 10.3471 38.3388 11.6562C37.9523 12.3937 37.3888 13.5309 36.7928 14.1198L36.8792 15.6382L37.4207 15.2139C37.5906 14.1931 38.1151 12.7183 39.0028 12.1466C39.333 12.559 40.9468 15.6898 41.3578 16.6289C42.4259 15.9963 42.0284 14.942 41.6564 13.8914C41.3092 12.9105 40.7055 12.4368 40.4699 11.5237C43.2798 11.658 41.3709 12.2412 42.9563 13.218C43.623 12.8342 43.7611 12.7997 43.8604 11.8846L44.9077 15.4641C47.1079 15.0159 45.3585 10.004 44.6656 8.54329C45.739 8.13334 46.9424 7.79102 48.2134 7.86922L48.1225 13.7179C49.7108 13.5247 49.9388 10.177 50.1588 8.51971C51.7592 9.23189 50.7358 9.7718 50.7441 11.265C51.5743 11.4227 51.9212 11.3503 52.5781 11.0716C52.3235 9.33608 51.3968 9.0279 50.8852 7.86261C52.2157 7.7778 53.1563 7.89224 54.2285 8.49295L51.7742 14.3824C51.2983 15.5246 53.8796 13.2699 54.5211 12.3137C55.9311 10.8364 55.5758 11.1286 55.797 8.9171C58.272 9.41032 57.6578 11.009 57.1732 13.1179C57.1191 14.1785 56.8321 15.6344 57.4546 16.4984C58.6848 15.9553 58.9272 12.8368 59.0796 10.5585C60.0102 10.9655 59.8351 11.2333 60.2861 12.1308C60.9876 13.5268 65.3837 16.5261 66.688 16.5437C66.6662 14.7327 64.6505 13.1372 63.3615 11.9658C62.3594 11.0553 61.0671 10.8131 59.9099 10.3424L60.3069 10.0185C61.358 9.34842 64.3134 9.18673 65.3908 9.44248C65.3276 7.24505 60.8737 7.4758 59.2934 8.14215C58.3107 8.55639 58.2074 9.56044 56.9413 8.39448L58.8239 6.96716L59.0316 5.46991C57.7897 5.39215 58.325 5.24203 57.7672 5.9336L57.5417 7.19758L56.1479 7.51545C56.61 6.42207 56.94 2.154 55.4764 2.2007C55.06 4.3696 54.7839 5.67785 54.2756 7.53417L49.8224 6.89668L50.3846 5.08023C50.5035 3.94335 50.5639 3.25012 50.3836 2.103C50.0578 0.0310303 49.6314 0.503863 49.1186 0.395264C48.8706 2.77409 48.4339 4.84309 48.2185 7.0718Z" fill="white"/>
<path fill-rule="evenodd" clip-rule="evenodd" d="M5.2113 59.2321C4.13803 61.2611 4.20133 61.8733 6.00204 62.7665C8.02353 62.7785 9.13798 62.2755 8.57389 59.7995C7.49387 58.8165 6.8584 58.887 5.2113 59.2321Z" fill="white"/>
</svg>
