<svg width="190" height="122" viewBox="0 0 190 122" fill="none" xmlns="http://www.w3.org/2000/svg">
<path d="M149.135 47.7596C149.18 48.706 149.18 49.2468 149.18 49.3818C149.18 50.0127 148.999 50.8239 148.637 51.7701C148.32 52.7165 147.912 53.1672 147.414 53.1672C146.916 53.1672 145.512 53.0772 144.969 53.0772C144.109 53.0772 142.479 53.1672 140.169 53.3024C137.86 53.4378 136.048 53.5279 134.735 53.5279C134.69 53.5279 134.328 53.573 133.648 53.6629C132.969 53.708 132.426 53.753 132.018 53.753C130.796 53.753 130.162 53.4828 130.162 52.942L130.388 51.2748C130.388 50.8239 130.433 50.1477 130.479 49.2468C130.569 48.3453 130.615 47.6695 130.615 47.1737C130.615 47.1287 130.479 46.498 130.162 45.2812C129.89 44.0642 129.754 43.1182 129.754 42.442C129.754 41.1353 130.297 40.4595 131.339 40.4595C131.747 40.4595 132.788 40.5945 133.105 40.5945C133.694 40.5945 133.965 40.3689 133.965 39.9638C133.965 39.6481 130.886 39.5129 124.773 39.5129C123.415 39.5129 122.735 39.6931 122.735 40.0086C122.735 40.5494 125.226 40.4144 125.226 42.6675C125.226 43.6135 125.135 45.0108 124.909 46.8581C124.728 48.706 124.637 50.1029 124.637 51.0492C124.637 51.59 124.728 52.4012 124.864 53.4828C125 54.4739 125.09 55.2853 125.09 55.781C125.09 56.0963 125.045 56.8624 125.045 57.0877C125.045 57.1328 125.09 57.7639 125.226 58.9805C125.362 60.1971 125.452 61.5489 125.588 63.0811C125.724 64.5683 125.769 65.7398 125.769 66.5062C125.769 69.4353 123.596 67.047 123.596 68.9844C123.596 69.255 123.913 69.4353 124.502 69.5252C125.181 69.4801 126.222 69.4353 127.626 69.4353C128.305 69.4353 129.347 69.4353 130.75 69.4801C132.154 69.5252 133.196 69.5252 133.875 69.5252C134.599 69.5252 135.188 69.1649 135.188 68.8494C135.188 68.6692 134.509 68.4887 133.105 68.2636C131.747 68.0457 131.067 67.7753 131.067 67.46C131.067 66.784 130.886 65.3493 130.524 63.1411C130.207 60.8956 130.026 59.6414 130.026 59.4163C130.026 58.2892 129.981 56.359 129.981 55.8184C129.981 54.9245 130.162 54.9245 130.977 54.9245C131.384 54.9245 132.29 55.0147 133.694 55.1501C135.097 55.2776 136.048 55.368 136.456 55.368C136.863 55.368 138.086 55.2776 140.124 55.1501C142.207 54.9696 143.429 54.8797 143.792 54.8797C146.101 54.8797 147.55 54.9245 148.229 55.0599L148.41 56.9449C148.546 57.884 148.592 58.65 148.592 59.1457C148.592 59.6865 148.772 60.8508 149.09 62.6081C149.452 64.3581 149.633 65.6121 149.633 66.3784C149.633 68.0457 148.682 68.4438 146.508 68.4438C146.282 68.4438 145.648 68.3988 145.467 68.3988C144.923 68.3988 144.652 68.5338 144.652 68.8044C144.652 69.1649 145.059 69.4801 145.603 69.4801C145.784 69.4801 146.735 69.4801 148.501 69.4353H152.803C153.663 69.4353 154.84 69.4801 155.067 69.4801C155.927 69.4801 156.018 69.4353 156.018 68.9396C156.018 68.4438 153.074 69.4353 153.074 66.5062C153.074 65.7398 153.12 64.5683 153.255 63.0811C153.391 61.5944 153.482 60.2422 153.618 59.0256C153.753 57.809 153.799 57.1776 153.799 57.1328C153.799 56.3667 153.844 55.3303 153.98 54.0236C154.116 52.6714 154.206 51.68 154.206 51.0492C154.206 50.1029 154.116 48.706 153.89 46.9031C153.708 45.0108 153.618 43.659 153.618 42.7126C153.618 40.3689 155.927 40.4144 155.927 40.0537C155.927 39.5579 155.338 39.2875 154.116 39.2875C153.437 39.2875 151.942 39.423 151.58 39.423L148.41 39.468C147.007 39.423 145.965 39.423 145.286 39.423C144.697 39.423 144.29 39.9187 144.29 40.3239C144.109 40.8196 147.867 40.7297 148.229 41.1803C148.818 41.7662 149.135 43.0729 149.135 45.1007V47.7596ZM126.675 44.3348C126.675 45.7316 126.72 46.7681 126.811 47.4439L127.128 49.3367C127.354 50.3732 127.445 51.1842 127.445 51.8604C127.445 52.4463 127.4 53.3024 127.264 54.4739C127.173 55.6007 127.128 56.4568 127.128 57.0427C127.128 57.7184 127.354 59.3408 127.354 60.017C127.354 60.6029 127.082 61.9096 127.037 62.2251C126.992 61.3688 126.766 59.7464 126.448 57.3581C126.132 54.9696 125.996 53.0322 125.996 51.6349C125.996 50.9591 126.041 49.7876 126.177 48.1201C126.313 46.4529 126.358 44.9657 126.358 43.7041C126.358 42.7126 126.313 41.9913 126.177 41.4958C126.494 41.8111 126.675 42.7577 126.675 44.3348ZM151.761 52.1757C151.761 51.7701 151.807 51.0943 151.942 50.1932C152.078 49.3367 152.123 48.6609 152.123 48.2553C152.123 47.8495 152.078 47.2639 152.033 46.4529C151.987 45.6415 151.942 45.0108 151.942 44.605C151.942 43.4785 152.169 42.5321 152.576 41.8111C152.35 42.6675 152.259 43.7041 152.259 44.9206C152.259 45.6866 152.35 46.8132 152.531 48.3004C152.757 49.7876 152.848 50.869 152.848 51.6349C152.848 52.5815 152.712 53.9331 152.486 55.6007C152.259 57.2682 152.169 58.3043 152.123 58.8C152.033 56.6823 151.761 54.1135 151.761 52.1757ZM129.211 46.3175V47.8495C129.256 48.5708 129.256 49.0663 129.256 49.3367C129.256 49.6524 129.211 50.734 129.12 52.4914C129.075 54.2938 129.03 55.2853 128.984 55.4203C128.622 52.7165 128.441 48.7511 128.441 43.4785C128.441 42.9377 128.486 42.4871 128.622 42.1718C129.03 43.4785 129.211 44.4249 129.211 45.0556V46.3175ZM150.72 66.9116C150.131 63.3968 149.859 59.7915 149.859 56.0512C150.448 56.9525 150.72 60.5578 150.72 66.9116ZM128.803 56.4117C128.849 56.8175 128.984 58.5298 129.12 61.6392C129.301 64.7035 129.483 66.4611 129.618 66.9116C129.075 66.2356 128.803 64.7935 128.803 62.5854V56.4117ZM127.354 65.6048C127.354 66.0555 127.264 66.4611 127.128 66.7764C127.173 66.5512 127.173 66.1907 127.173 65.695C127.173 65.0641 127.173 64.6585 127.128 64.3883C127.264 65.0641 127.354 65.4697 127.354 65.5598V65.6048ZM157.552 69.4353C160.404 69.3902 165.838 70.2012 165.748 69.255C165.748 68.7593 165.567 68.4887 165.159 68.4887C164.842 68.4887 163.891 68.5338 163.529 68.5338C162.261 68.5338 162.171 67.4073 163.846 63.667C164.706 61.8195 165.204 60.7379 165.295 60.4673L166.019 58.1242C167.514 57.944 169.008 57.8538 170.593 57.8538C173.808 57.8538 176.842 57.8989 179.649 57.989L180.193 59.8816L180.691 61.5944C180.917 62.3603 181.823 64.2981 182.23 65.7849C182.457 66.5512 182.547 67.2721 182.547 68.038C182.547 68.3537 182.276 68.5338 181.778 68.6692C181.279 68.7593 181.053 68.8494 181.053 68.9844C181.053 69.4801 181.279 69.7055 181.687 69.7055C181.913 69.7055 182.592 69.6604 183.77 69.5703C184.947 69.4801 186.125 69.4353 187.302 69.4353C188.66 69.4353 189.339 69.1649 189.339 68.6243C189.339 68.2185 189.113 68.038 188.66 68.038C188.434 68.038 187.936 68.1286 187.8 68.1286C185.49 61.2187 183.543 55.781 181.913 51.8604C181.325 50.3732 180.328 48.5255 178.97 46.4078C177.657 44.2446 176.751 42.7126 176.344 41.8561C175.981 41.1353 175.438 40.4144 174.759 39.6481C174.079 38.8822 173.582 38.4766 173.219 38.4766C172.54 38.4766 171.499 39.6481 170.14 42.0366C168.782 44.4249 167.921 46.2724 167.514 47.6695C167.378 48.2103 167.061 49.0213 166.653 50.0578C166.246 51.0943 165.929 51.9055 165.793 52.4012L164.661 56.1866C164.208 57.8538 163.846 59.1081 163.574 59.9643C163.166 61.1737 162.442 62.7882 161.446 64.7635C160.495 66.7764 159.725 67.858 159.137 67.993C157.869 68.3537 156.51 68.3086 156.51 68.9844C156.51 69.3001 156.873 69.4353 157.552 69.4353ZM168.148 51.0042L168.917 48.706L169.732 46.7681C170.457 45.0108 171.181 43.7041 172.223 42.3969C175.664 49.3818 177.566 53.3024 177.883 54.0687C178.064 54.5642 178.879 55.6007 179.061 56.1415C175.483 56.0963 172.721 56.0512 170.774 56.0512C169.506 56.0512 168.102 56.1415 166.518 56.2767C166.925 54.7895 167.287 53.6629 167.514 52.942L168.148 51.0042ZM179.242 53.4828C177.974 51.8154 176.661 49.3367 175.891 47.6695L174.487 44.3348C173.944 42.9828 173.536 41.9463 173.219 41.2705C173.898 41.8561 174.804 43.1182 175.981 45.1458C177.204 47.1737 177.929 48.7511 178.2 49.9226C178.381 50.6885 178.789 51.725 179.468 53.0322C180.148 54.3389 180.6 55.3303 180.827 56.0061C180.691 55.6458 180.148 54.7895 179.242 53.4828ZM180.917 52.2208C181.098 52.7165 181.506 53.5279 182.185 54.7445C182.864 55.916 183.272 56.8624 183.453 57.5384C183.453 57.5835 183.543 58.2142 183.77 59.5213C183.543 58.5749 182.819 57.0427 181.596 54.8797C180.419 52.6714 179.694 51.0042 179.378 49.8775C179.242 49.3367 178.879 48.3453 178.291 46.9486C179.287 48.5708 180.148 50.3282 180.917 52.2208ZM182.14 61.5489C182.14 61.5038 181.189 57.2682 181.098 56.592C182.502 59.5213 183.317 62.3603 183.543 65.1993C183.453 64.884 183.181 64.2981 182.774 63.4417C182.366 62.5854 182.14 61.9545 182.14 61.5489Z" fill="white"/>
<path d="M100.159 51.1064C99.5703 48.7179 99.2534 47.2757 99.2534 46.8703C99.3894 43.4906 101.517 41.5077 104.143 40.5613C106 39.8404 107.223 39.6599 108.536 39.4799C110.619 39.2546 112.656 39.1191 114.604 39.1191C115.373 39.1191 116.369 39.2095 117.501 39.3898C118.633 39.5698 119.494 39.6599 120.082 39.6599C120.535 39.6599 120.761 39.7953 120.761 40.1106C120.761 41.1471 119.81 40.9671 118.95 41.2373C118.588 42.3186 118.407 43.4906 118.407 44.7973C118.407 45.4733 118.497 46.5549 118.679 47.997C118.814 49.3937 118.905 50.4752 118.905 51.2416C118.905 51.7824 118.814 52.5934 118.679 53.6747C118.543 54.7113 118.452 55.5227 118.452 56.0184C118.452 56.3337 118.497 57.0998 118.497 57.3251C118.497 57.3702 118.452 58.0009 118.316 59.2175C118.18 60.4345 118.09 61.7863 117.954 63.3185C117.818 64.8057 117.773 65.9772 117.773 66.7432C117.773 67.7346 118.271 68.2303 119.312 68.2303C119.539 68.2303 120.082 68.1855 120.263 68.1855C120.852 68.1855 121.169 68.4106 121.169 68.8162C121.169 69.2669 120.49 69.4922 119.086 69.4922C118.543 69.4922 117.592 69.4471 116.234 69.357C114.875 69.3119 113.924 69.2669 113.335 69.2669C112.566 69.2669 110.845 69.4471 110.302 69.4471C109.894 69.4021 109.713 69.1319 109.713 68.5911C109.713 68.4106 109.894 68.3205 110.257 68.3205C110.483 68.3205 111.388 68.3655 111.751 68.3655C113.245 68.3655 113.969 67.329 113.969 65.3014C113.969 64.8057 113.924 64.2199 113.879 63.5437C113.788 62.8679 113.743 62.4621 113.743 62.3721C113.743 61.6062 113.562 59.3531 113.245 55.6577C110.483 55.883 108.988 56.0184 108.808 56.0184C107.359 56.0184 106 57.4601 105.321 59.398C104.28 62.282 103.238 64.3551 101.563 66.473C99.7967 68.5911 97.3064 69.7626 94.363 69.7626C94.1368 69.7626 94.001 69.6276 94.001 69.357C94.001 69.0417 94.3177 68.8613 94.9064 68.7261C97.397 68.3205 100.068 65.4815 102.921 60.2991C103.057 60.0289 103.419 59.4881 103.917 58.7222L105.23 56.5592C105.593 55.9279 105.774 55.5227 105.774 55.3422C106 55.2521 100.748 54.3057 100.159 51.1064ZM111.117 41.0119C110.573 41.0119 108.898 40.8319 108.219 40.8319C106.725 40.8319 105.593 41.7781 105.185 43.1751C104.778 44.5722 104.642 45.293 104.596 46.1491C104.506 47.4562 105.321 53.9453 108.853 54.0805C109.396 54.1254 110.166 54.1254 111.117 54.0805C112.068 54.0355 112.701 53.9453 113.109 53.8101C112.928 51.6019 112.837 49.9795 112.837 48.9885C112.837 48.4477 112.883 47.7715 112.928 47.0055C112.928 46.8704 112.928 46.3746 112.973 45.4733C113.019 44.5722 113.064 43.7159 113.154 42.95C113.2 42.1386 113.335 41.5077 113.562 41.0119C113.381 41.0119 112.792 40.9671 112.566 40.9671C112.158 40.9671 111.434 41.0119 111.117 41.0119ZM114.332 48.2221C114.332 48.9434 114.422 50.16 114.649 51.9174C114.83 53.6748 115.011 54.7563 115.192 55.2521C115.237 55.0269 115.283 54.396 115.283 53.3144C115.283 47.6363 115.147 43.8509 114.92 42.0034C114.513 43.6708 114.332 44.6172 114.332 44.9325V48.2221ZM116.822 45.2482C116.822 46.8253 116.822 49.1235 116.777 52.0526C116.731 54.9819 116.731 57.235 116.731 58.7222C116.731 58.9022 116.777 59.4881 116.777 59.6684C117.275 55.4325 117.546 52.8187 117.546 51.8272C117.546 51.0611 117.456 49.9795 117.275 48.4927C117.048 47.0055 116.958 45.8789 116.958 45.113C116.958 44.3466 117.003 43.5356 117.139 42.7244C116.913 43.3101 116.822 44.1215 116.822 45.2482ZM103.872 42.4991C103.102 43.3101 102.695 44.7074 102.695 46.7349C102.695 49.2136 102.966 50.7909 103.555 51.5568C103.329 50.2501 103.238 49.0784 103.238 48.0421C103.238 45.6988 103.645 43.6708 104.506 42.0034C104.28 42.1386 104.053 42.3186 103.872 42.4991ZM101.291 46.8253C101.291 45.5184 101.925 44.1215 102.061 43.5356C101.11 44.3016 100.657 45.2031 100.657 46.1491C100.657 46.7349 100.793 47.6813 101.11 48.8979C101.381 50.1149 101.653 50.971 101.88 51.4216C101.88 51.2866 101.789 50.5656 101.608 49.2587C101.381 47.9069 101.291 47.0955 101.291 46.8253ZM115.011 65.6618C115.011 64.7606 115.056 63.4087 115.192 61.6511C115.283 59.8937 115.328 58.7222 115.328 58.1361C115.328 57.3702 115.237 56.8294 115.101 56.4236C114.966 57.2801 114.92 58.9473 114.875 61.471C114.83 63.9492 114.784 65.7972 114.694 66.9236C114.92 66.6082 115.011 66.2026 115.011 65.6618Z" fill="white"/>
<path fill-rule="evenodd" clip-rule="evenodd" d="M7.63393 59.4307C7.63393 59.6559 7.81507 60.9103 8.13206 63.1557C8.49434 65.364 8.67548 66.7985 8.67548 67.4745C8.67548 67.7899 9.35453 68.0603 10.7131 68.278C12.1169 68.5033 12.7959 68.6836 12.7959 68.8639C12.7959 69.1793 12.2075 69.5399 11.4829 69.5399C10.8036 69.5399 9.76209 69.5398 8.35848 69.4948C6.95466 69.4497 5.91313 69.4497 5.23407 69.4497C3.83046 69.4497 2.78891 69.4948 2.10964 69.5399C1.52115 69.4497 1.20416 69.2695 1.20416 68.9991C1.20416 67.0612 3.37761 69.4497 3.37761 66.5206C3.37761 65.7545 3.33211 64.583 3.19647 63.0958C3.06061 61.5637 2.97004 60.2117 2.83419 58.995C2.69834 57.7784 2.65306 57.1474 2.65306 57.1024C2.65306 56.877 2.69834 56.1109 2.69834 55.7954C2.69834 55.2997 2.60777 54.4887 2.47192 53.4973C2.33606 52.4157 2.2455 51.6045 2.2455 51.0639C2.2455 50.1175 2.33607 48.7206 2.5172 46.8731C2.74363 45.0254 2.83419 43.6284 2.83419 42.6822C2.83419 40.4289 0.34375 40.5643 0.34375 40.0233C0.34375 39.708 1.02282 39.5277 2.38135 39.5277C4.9582 39.5277 6.99558 39.5517 8.49101 39.603C8.6441 39.5962 8.82816 39.5918 9.06663 39.5809C9.60069 39.5561 10.4063 39.498 11.4661 39.4062C12.5261 39.3146 13.8404 39.1889 14.9189 39.0951C15.9974 39.001 16.8402 38.9381 17.454 38.9009C18.0683 38.8637 18.4534 38.8517 18.8302 38.8596C19.207 38.8672 19.5755 38.8945 20.2112 38.9917C20.8468 39.0886 21.7496 39.2555 22.5302 39.3452C23.0032 39.3996 23.4318 39.4256 23.8206 39.4399C24.4131 39.4438 25.1457 39.4548 26.0182 39.4827L29.1879 39.4376C29.5502 39.4376 31.0446 39.3024 31.7236 39.3024C32.9463 39.3024 33.5348 39.5728 33.5348 40.0685C33.5348 40.4289 31.2255 40.3838 31.2255 42.7272C31.2255 43.6734 31.316 45.0254 31.4972 46.9182C31.7236 48.7207 31.8142 50.1175 31.8142 51.0639C31.8142 51.6946 31.7236 52.6861 31.5878 54.0381C31.4519 55.3448 31.4066 56.3813 31.4066 57.1474C31.4066 57.1925 31.3615 57.8234 31.2255 59.04C31.0896 60.2568 30.9993 61.6086 30.8632 63.0958C30.7273 64.583 30.6823 65.7545 30.6823 66.5206C30.6823 69.4497 33.6256 68.4583 33.6256 68.9538C33.6256 69.4497 33.5348 69.4948 32.6746 69.4948C32.4482 69.4948 31.2708 69.4497 30.4104 69.4497H26.1087C24.3429 69.4948 23.3919 69.4948 23.2108 69.4948C22.6673 69.4948 22.2598 69.1793 22.2598 68.8188C22.2598 68.5484 22.5315 68.4132 23.0749 68.4132C23.256 68.4132 23.89 68.4583 24.1162 68.4583C26.2899 68.4583 27.2409 68.0603 27.2409 66.3929C27.2409 65.6267 27.0595 64.3725 26.6975 62.6226C26.3805 60.8652 26.1993 59.7009 26.1993 59.1601C26.1993 58.6646 26.154 57.8985 26.0182 56.9597L25.837 55.0744C25.9972 53.4135 26.0279 53.5758 26.2446 51.785C26.3663 50.7794 26.788 50.0274 26.788 49.3964C26.788 49.2612 26.788 48.7206 26.7425 47.7743V45.1155C26.7425 43.2147 26.4642 41.9475 25.9444 41.3136C25.8884 41.2948 25.8306 41.2498 25.7562 41.2072C25.5923 41.1135 25.3476 41.0321 25.0128 40.9663C24.6777 40.9004 24.2527 40.8504 23.6524 40.7844L23.4073 40.7578L23.1707 40.7323C22.6754 40.6796 22.1393 40.625 21.7311 40.5878C21.1848 40.538 20.8674 40.5198 20.3892 40.5357C19.911 40.5516 19.272 40.6015 18.3713 40.6662C17.4706 40.7309 16.3086 40.8103 15.4528 40.8477C14.5969 40.8849 14.0477 40.8799 13.2617 40.8309C12.4754 40.7822 11.4526 40.6887 10.7274 40.6232C10.0024 40.5574 9.57514 40.5192 9.30988 40.4996C9.1304 40.4861 9.02529 40.481 8.89359 40.4748C7.88736 40.4977 7.36222 41.1725 7.36222 42.4568C7.36222 43.1328 7.49808 44.079 7.76979 45.2958C8.08678 46.5126 8.22263 47.1433 8.22263 47.1884C8.22263 47.6841 8.17734 48.3601 8.08677 49.2612C8.04149 50.1626 7.99621 50.8386 7.99621 51.289L7.76979 52.9565C7.76979 55.6305 7.63393 56.5268 7.63393 59.4307ZM29.369 52.1906C29.369 51.785 29.4143 51.109 29.5502 50.2076C29.686 49.3514 29.7311 48.6754 29.7311 48.2698C29.7311 47.8644 29.686 47.2785 29.6407 46.4673C29.5955 45.6561 29.5502 45.0254 29.5502 44.6198C29.5502 43.4934 29.7764 42.547 30.1841 41.8259C29.9577 42.6822 29.8672 43.7185 29.8672 44.9353C29.8672 45.7014 29.9577 46.8279 30.1387 48.3151C30.3653 49.802 30.4556 50.8836 30.4556 51.6495C30.4556 52.5959 30.32 53.9479 30.0934 55.6152C29.8672 57.2824 29.7764 58.319 29.7311 58.8147C29.6407 56.6968 29.369 54.1282 29.369 52.1906ZM28.3275 66.9262C27.7388 63.4112 27.4671 59.8061 27.4671 56.0658C28.0558 56.9672 28.3275 60.5723 28.3275 66.9262ZM4.28309 44.3494C4.28309 45.7465 4.32837 46.7828 4.41894 47.4588L4.73593 49.3514C4.96235 50.3879 5.05292 51.1991 5.05292 51.8751C5.05292 52.4607 5.00764 53.317 4.87178 54.4887C4.78121 55.6152 4.73593 56.4714 4.73593 57.0573C4.73593 57.7333 4.96236 59.3555 4.96236 60.0315C4.96236 60.6171 4.69065 61.9243 4.64536 62.2395C4.60008 61.3833 4.37366 59.7611 4.05667 57.3728C3.73988 54.9842 3.60382 53.0466 3.60382 51.6495C3.60382 50.9738 3.64911 49.802 3.78517 48.1348C3.92082 46.4673 3.9661 44.9803 3.9661 43.7185C3.9661 42.7272 3.92082 42.0062 3.78517 41.5104C4.10195 41.8259 4.28309 42.7723 4.28309 44.3494ZM6.81902 46.3321V47.8644C6.8643 48.5855 6.86431 49.081 6.86431 49.3514C6.86431 49.6668 6.81902 50.7484 6.72824 52.506C6.68296 54.3083 6.63767 55.2997 6.59239 55.4349C6.23032 52.7311 6.04918 48.7657 6.04918 43.4934C6.04918 42.9524 6.09447 42.5019 6.23032 42.1864C6.63768 43.4934 6.81902 44.4395 6.81902 45.0705V46.3321ZM6.41146 56.4264C6.45674 56.832 6.59239 58.5445 6.72824 61.6537C6.90959 64.718 7.09052 66.4755 7.22658 66.9262C6.68296 66.2502 6.41146 64.8081 6.41146 62.6001V56.4264ZM4.96236 65.6193C4.96236 66.07 4.87178 66.4755 4.73593 66.791C4.78121 66.5657 4.78122 66.2052 4.78122 65.7094C4.78122 65.0785 4.78121 64.6729 4.73593 64.4025C4.87178 65.0785 4.96236 65.4841 4.96236 65.5742V65.6193Z" fill="white"/>
<path d="M45.152 40.0713C42.5256 40.9277 40.3069 42.595 38.4504 45.0734C36.6393 47.5521 35.7334 50.2108 35.7334 53.0497C35.7334 57.6914 37.0921 61.4315 39.8541 64.2706C40.0803 64.5859 41.1218 65.7574 41.8008 66.4336C42.118 66.7489 42.4803 66.9744 42.7971 67.1547C44.0199 67.8305 45.6044 68.5517 47.5517 69.2726C49.4989 69.9937 50.9928 70.3542 52.0343 70.3542C53.0758 70.3542 54.7058 70.0385 56.8793 69.4529C59.0527 68.867 60.7279 68.056 61.86 67.0646C62.63 66.3888 63.4449 65.2168 64.2147 63.5043C65.9355 59.629 66.7956 56.2943 66.7956 53.5455C66.7956 50.8415 66.0711 48.1828 64.6673 45.5691C64.26 44.8481 63.1281 43.7216 62.5848 43.0907C61.4525 41.7838 60.0036 40.6571 58.1471 39.8011C56.336 38.9448 54.4796 38.4941 52.623 38.4941C51.4004 38.4941 49.906 38.8096 48.8647 39.0347C47.914 39.2603 45.9216 39.8912 45.152 40.0713ZM51.6723 68.5968C50.6308 68.5968 49.4079 68.3262 47.9593 67.8305C46.5102 67.2897 45.3782 66.659 44.6086 65.9379C43.9744 65.3522 43.5218 64.3157 43.2048 62.8285C43.2048 62.7835 43.069 61.8371 42.8424 59.9896C42.752 59.0882 42.299 57.8716 42.299 56.9701C42.299 55.6634 42.752 53.8157 42.752 52.3737C42.752 52.0132 42.6161 51.1119 42.6161 50.7516C42.6161 48.0927 43.4765 45.7046 45.1973 43.5864C46.9631 41.4685 49.0459 40.3869 51.4909 40.3869C53.9362 40.3869 56.0192 41.5584 57.7397 43.8566C59.5055 46.1548 60.3657 48.5433 60.3657 51.0218C60.3657 51.3823 60.2299 52.2838 60.2299 52.6439C60.2299 54.0863 60.6829 55.9336 60.6829 57.2407C60.6829 58.1418 60.2298 59.3586 60.1395 60.2597C59.9131 62.1077 59.777 63.0536 59.777 63.0991C59.6414 63.7299 59.3699 64.4958 59.0074 65.3522C58.6452 66.2083 58.2831 66.794 57.9659 67.0646C57.5584 67.3348 56.5622 67.6504 54.9777 68.056C53.3928 68.4163 52.2609 68.5968 51.6723 68.5968ZM40.986 63.0536C40.1709 61.3864 39.7636 59.5389 39.7636 57.4658C39.7636 49.9852 41.3032 45.0283 44.3367 42.5499C42.8424 44.2174 42.118 45.7496 42.118 47.1012C42.118 47.4619 41.9822 48.0478 41.7105 48.9036C41.439 49.715 41.3032 50.3009 41.3032 50.6614C41.3032 51.0218 41.439 51.878 41.439 52.2388C41.439 52.9596 41.3937 53.8609 41.2577 54.8973C41.1218 55.9336 41.0765 56.6999 41.0765 57.1055C41.0765 60.0346 41.5746 62.6933 42.6161 64.9915C41.8465 64.4058 41.3032 63.7298 40.986 63.0536ZM60.9998 46.8761C61.7694 49.039 62.3129 51.0218 62.5848 52.7796C62.9015 54.5369 63.0372 56.6549 63.0372 59.1333C63.0372 60.7104 62.7204 62.2427 62.1319 63.6397C61.5432 65.0366 60.728 65.9379 59.777 66.4336C61.181 63.865 61.9053 60.8456 61.9053 57.3759C61.9053 56.9701 61.86 56.2042 61.7242 55.1677C61.5885 54.1311 61.5432 53.2298 61.5432 52.5089C61.5432 52.1482 61.6791 51.2924 61.6791 50.9316C61.6791 50.6164 61.4072 49.4444 60.8638 47.3718C60.8638 46.9662 60.8185 46.6055 60.6829 46.2902L60.9998 46.8761ZM64.1692 48.5433C64.7581 49.85 65.0296 51.5175 65.0296 53.4553C65.0296 54.7621 64.8487 56.2492 64.4411 57.9165C64.4411 54.1762 63.7166 50.3458 62.2676 46.3803C62.0866 46.0198 61.3166 44.8932 60.9091 44.0369C61.0451 44.3073 61.5885 44.9833 62.4487 46.0649C63.3543 47.1463 63.943 47.9577 64.1692 48.5433ZM38.3145 56.8802C38.3145 57.7815 38.4051 58.6376 38.5407 59.4488C37.7711 57.6463 37.3636 55.7986 37.3636 53.9511C37.3636 50.9767 38.4051 48.1828 40.4428 45.5691C39.0388 48.4534 38.3145 52.2388 38.3145 56.8802ZM58.464 41.9643C58.7357 42.3694 59.0074 42.9553 59.3246 43.7216C58.8265 42.9553 58.1471 42.2344 57.2869 41.5134C57.8303 41.6035 58.2378 41.7387 58.464 41.9643Z" fill="white"/>
<path fill-rule="evenodd" clip-rule="evenodd" d="M84.2395 55.7022C84.5565 59.3974 84.7376 61.6505 84.7376 62.4166C84.7376 62.5068 84.7829 62.9124 84.8735 63.5882C84.9187 64.2642 84.964 64.85 84.964 65.3458C84.964 67.3735 84.2395 68.4101 82.7454 68.4101C82.3831 68.4101 81.4775 68.365 81.2511 68.365C80.8888 68.365 80.7079 68.4551 80.7079 68.6354C80.7079 69.176 80.8888 69.4466 81.2963 69.4914C81.8397 69.4914 83.5603 69.3114 84.3301 69.3114C84.9188 69.3114 85.8697 69.3564 87.228 69.4015C88.5864 69.4914 89.5372 69.5365 90.0808 69.5365C91.4843 69.5365 92.1635 69.3114 92.1635 68.8607C92.1635 68.4551 91.8464 68.2298 91.2579 68.2298C91.0768 68.2298 90.5334 68.2749 90.307 68.2749C89.2657 68.2749 88.7676 67.7791 88.7676 66.7879C88.7676 66.0217 88.8128 64.85 88.9487 63.363C89.0845 61.8308 89.1749 60.4788 89.311 59.2622C89.4468 58.0456 89.4921 57.4147 89.4921 57.3696C89.4921 57.1441 89.4468 56.3782 89.4468 56.0627C89.4468 55.567 89.5372 54.756 89.6732 53.7195C89.8091 52.6379 89.8994 51.8267 89.8994 51.2861C89.8994 50.52 89.8091 49.4386 89.6732 48.0415C89.4921 46.5994 89.4015 45.5178 89.4015 44.842C89.4015 43.5351 89.5824 42.3636 89.9447 41.282C90.8051 41.0116 91.756 41.1918 91.756 40.1553C91.756 39.8399 91.5296 39.7049 91.0768 39.7049C90.4883 39.7049 89.6277 39.6147 88.4959 39.4345C87.3638 39.2542 86.3678 39.1641 85.598 39.1641C83.6511 39.1641 81.6133 39.2993 79.5305 39.5244C78.2173 39.7049 77.0225 39.9608 75.1383 40.606C67.5757 43.1961 75.7559 53.399 71.8825 60.4668C69.0397 65.654 67.8085 67.9433 65.3236 68.3795C64.7291 68.4837 64.418 68.6947 64.418 69.0102C64.418 69.2806 64.5538 69.4158 64.78 69.4158C67.7234 69.4158 70.2412 68.266 71.9796 66.1261C73.6822 64.0304 73.2578 62.4553 74.2823 59.5657C74.9458 57.6944 75.5033 54.0461 75.119 50.626C74.5914 45.9331 74.9233 40.8764 79.2136 40.8764C79.8928 40.8764 81.568 41.0566 82.1114 41.0566C82.4284 41.0566 83.1527 41.0116 83.5603 41.0116C83.7869 41.0116 84.3754 41.0566 84.5565 41.0566C84.3301 41.5524 84.1942 42.1833 84.1489 42.9945C84.0586 43.7606 84.0133 44.6167 83.9678 45.5178C83.9225 46.4193 83.9225 46.9149 83.9225 47.0501C83.8773 47.8162 83.832 48.492 83.832 49.033C83.832 51.5466 84.2104 54.6353 84.2395 55.7022ZM73.7894 50.8292C73.7894 46.8274 73.6182 44.5565 73.2475 43.9891C73.2475 46.3447 73.4186 48.6152 73.7894 50.8292ZM85.3263 48.2668C85.3263 48.9879 85.4169 50.2045 85.6433 51.9621C85.8242 53.7195 86.0055 54.8008 86.1864 55.2966C86.2319 55.0714 86.2772 54.4405 86.2772 53.3589C86.2772 47.681 86.1412 43.8956 85.915 42.0481C85.5074 43.7154 85.3263 44.6617 85.3263 44.9772V48.2668ZM87.8166 45.2927C87.8166 46.8698 87.8166 49.168 87.7714 52.0973C87.7261 55.0264 87.7261 57.2795 87.7261 58.7667C87.7261 58.9467 87.7714 59.5326 87.7714 59.7129C88.2695 55.4768 88.5411 52.8632 88.5411 51.8717C88.5411 51.1058 88.4506 50.0242 88.2695 48.537C88.043 47.0501 87.9525 45.9234 87.9525 45.1575C87.9525 44.3913 87.9978 43.5802 88.1336 42.7692C87.9072 43.355 87.8166 44.166 87.8166 45.2927ZM86.0055 65.7063C86.0055 64.8052 86.0508 63.4532 86.1864 61.6956C86.2772 59.9382 86.3225 58.7667 86.3225 58.1806C86.3225 57.4147 86.2319 56.8739 86.0961 56.4683C85.9602 57.3246 85.915 58.9918 85.8697 61.5153C85.8242 63.9938 85.7791 65.8415 85.6885 66.9679C85.915 66.6527 86.0055 66.2471 86.0055 65.7063Z" fill="white"/>
<path fill-rule="evenodd" clip-rule="evenodd" d="M145.194 79.5206L145.196 85.0735L145.212 90.8757L145.186 97.488C129.933 97.3729 114.729 96.8428 99.522 95.8454C98.6863 95.7907 97.9295 95.6716 97.2023 95.5571C96.6178 95.4652 96.0525 95.3762 95.4807 95.3261C93.8186 95.1808 93.4445 95.3432 92.9423 95.5613C92.6137 95.704 92.2302 95.8706 91.3951 95.9903C91.1221 96.4939 91.0479 96.7402 91.0127 96.8567C90.9956 96.9138 90.9877 96.9397 90.9705 96.9496C90.9562 96.9578 90.9353 96.9548 90.8968 96.9492C90.7982 96.9349 90.584 96.9038 90.0686 97.0043C89.9608 97.2404 89.913 97.3896 89.879 97.4957C89.8544 97.5725 89.837 97.6268 89.8093 97.6753C89.7424 97.7926 89.6152 97.8759 89.1805 98.1606C89.1131 98.2047 89.0384 98.2537 88.9554 98.3083C88.5528 98.8446 87.8313 99.3953 87.0552 99.9878C86.6636 100.287 86.2582 100.596 85.8727 100.92C50.1221 130.942 34.3224 115.368 6.66353 85.4228C9.00731 83.8883 131.567 79.8933 145.194 79.5206ZM184.899 97.0477C184.887 99.8426 150.77 97.9292 149.005 97.5482C147.926 97.1997 148.089 94.5076 148.211 92.5051C148.25 91.8558 148.285 91.279 148.272 90.8782C148.247 90.1273 148.214 89.3893 148.181 88.6562C148.104 86.925 148.027 85.2213 148.066 83.4416C147.465 82.2335 147.34 81.2708 147.719 79.7544C154.71 78.3989 176.397 78.8427 184.403 79.2603C185.375 81.8347 186.55 95.0273 184.899 97.0477ZM1.19137 82.6308C0.626091 85.7734 3.73861 88.4578 6.0581 90.4582C6.78151 91.0821 7.42779 91.6395 7.86128 92.1235C9.82825 93.7326 11.478 95.5202 13.1328 97.5837C42.8119 134.597 62.6907 120.31 79.0543 108.55C85.6674 103.797 91.7063 99.4567 97.586 99.0821C98.1097 99.0802 99.2323 99.0689 100.798 99.053C111.345 98.9465 142.002 98.6367 145.328 99.6479C148.004 99.2217 154.627 99.6222 161.878 100.061C173.21 100.746 186.074 101.523 187.8 99.3837L187.675 96.7781C186.897 95.7166 187.751 84.273 188.053 80.9456C188.13 80.4701 188.224 80.0158 188.313 79.5871C188.766 77.4021 189.081 75.88 186.364 75.5957C175.624 75.9885 157.842 76.222 137.398 76.4904C84.5403 77.1845 13.893 78.1121 1.19137 82.6308Z" fill="white"/>
<path d="M156.431 84.8891C154.417 88.6978 154.536 89.8466 157.916 91.5233C161.71 91.5457 163.802 90.6016 162.743 85.9543C160.715 84.1093 159.523 84.2416 156.431 84.8891Z" fill="white"/>
<path d="M176.995 87.5691C174.313 86.2504 170.586 86.4608 172.201 90.4533C172.63 91.5138 173.769 92.4193 175.097 92.1594C177.336 91.7205 177.144 89.2403 176.995 87.5691Z" fill="white"/>
<path fill-rule="evenodd" clip-rule="evenodd" d="M109.247 20.9013C110.306 22.8336 109.798 24.6852 108.299 26.3874L109.247 20.9013ZM77.0728 26.8C76.5692 26.0052 75.6295 25.3193 75.5123 23.8081C77.1054 24.542 77.0244 24.8426 77.0728 26.8ZM114.613 21.8649C118.139 21.8897 122.085 26.816 123.23 28.8929C121.141 27.7936 120.417 27.1738 118.312 25.667C116.884 24.6443 114.812 23.8542 114.613 21.8649ZM99.9861 23.6204C100.394 22.0588 100.681 21.3913 101.311 19.9518C102.015 18.3427 101.715 17.9057 103.549 17.0818C103.947 20.5621 102.089 22.6837 99.9861 23.6204ZM91.6602 22.0894C90.9863 20.0387 91.2362 17.2958 92.155 15.7867C93.1895 16.9911 93.3532 19.2622 92.5879 21.058C91.8937 22.6868 92.0636 21.7938 91.6602 22.0894ZM76.1947 20.3039C77.154 18.4593 78.9384 17.5879 81.2136 17.2284L82.1216 21.6017C80.8775 20.572 78.4797 20.5697 76.1947 20.3039ZM82.7013 18.1789C85.1529 19.8681 85.5553 23.2522 84.7335 24.8463C83.7418 23.5439 82.9855 19.9121 82.7013 18.1789ZM111.02 17.5753C111.9 15.8249 113.738 16.0922 115.554 16.3041C114.288 17.1023 112.842 17.4959 111.02 17.5753ZM72.7949 15.7578C71.2155 15.3685 71.7087 14.4254 70.9349 12.5225C72.099 13.3707 72.7874 14.3448 72.7949 15.7578ZM104.705 13.0565C104.2 12.2585 103.689 14.4004 104.185 11.1473L104.882 9.57044C104.918 9.35193 105.049 9.32754 105.317 9.23162L104.705 13.0565ZM93.4917 4.95982C93.9327 6.30085 94.1579 6.74511 94.0005 8.27199C93.7676 10.5301 92.6951 10.6659 92.2159 10.861L93.4917 4.95982ZM82.7101 11.3016C82.208 9.47286 81.5038 6.72568 81.9735 4.62038C83.4855 5.64843 83.7973 8.07705 83.5728 9.55411C83.2921 11.3987 83.3989 10.5348 82.7101 11.3016ZM90.6521 13.2735L86.0779 13.8805C86.6282 12.1996 86.4352 12.0679 88.1579 11.984C89.3692 10.0817 89.4363 6.67979 86.0698 8.23313C84.3303 9.84229 87.1737 11.4335 84.2387 13.387C83.214 10.6279 87.1895 3.15468 80.7753 1.45973C80.2346 2.77348 80.5069 3.27707 80.5622 4.91496L80.6964 6.87018L81.3333 10.1305C81.8781 16.1636 82.1002 14.8628 80.3125 15.7964C78.9656 16.4997 76.7078 17.7489 75.7554 18.1072C76.0468 15.4001 80.3229 13.4065 76.3225 12.5572C74.2545 13.9657 75.6839 14.8403 74.5711 16.152C74.3983 17.4866 73.988 14.6828 73.2259 13.4453C72.2535 11.8663 70.8079 9.5508 69.1064 10.8416C70.1582 13.4645 73.3968 19.421 72.1087 21.8781C71.3831 23.2623 70.3256 25.3968 69.207 26.5022L69.369 29.3521L70.3854 28.5556C70.7043 26.6396 71.6887 23.8716 73.3549 22.7984C73.9747 23.5726 77.0036 29.4488 77.7751 31.2114C79.7799 30.0242 79.0337 28.0454 78.3355 26.0734C77.6839 24.2323 76.5508 23.3432 76.1085 21.6294C81.3825 21.8814 77.7996 22.976 80.7753 24.8095C82.0267 24.089 82.2859 24.0243 82.4722 22.3069L84.438 29.0253C88.5676 28.1841 85.284 18.777 83.9836 16.0354C85.9982 15.266 88.257 14.6235 90.6425 14.7702L90.472 25.7478C93.4531 25.3852 93.881 19.1018 94.294 15.9912C97.2977 17.3278 95.3768 18.3412 95.3924 21.1438C96.9506 21.4398 97.6018 21.304 98.8347 20.7808C98.3569 17.5234 96.6176 16.945 95.6573 14.7578C98.1546 14.5986 99.92 14.8134 101.932 15.9409L97.3259 26.995C96.4327 29.1387 101.278 24.9069 102.482 23.1123C105.128 20.3394 104.461 20.8879 104.876 16.737C109.522 17.6627 108.369 20.6634 107.459 24.6216C107.358 26.6123 106.819 29.3449 107.988 30.9666C110.297 29.9473 110.752 24.094 111.038 19.8179C112.784 20.5817 112.456 21.0843 113.302 22.7689C114.619 25.3891 122.87 31.0185 125.318 31.0516C125.277 27.6524 121.494 24.6577 119.074 22.4592C117.194 20.7502 114.768 20.2956 112.596 19.4123L113.341 18.8043C115.314 17.5466 120.861 17.2431 122.883 17.7231C122.765 13.5987 114.405 14.0318 111.439 15.2825C109.594 16.06 109.4 17.9445 107.024 15.7561L110.558 13.0771L110.947 10.2669C108.617 10.121 109.621 9.83919 108.574 11.1372L108.151 13.5096L105.535 14.1062C106.402 12.054 107.022 4.0432 104.275 4.13085C103.493 8.20171 102.975 10.6572 102.021 14.1414L93.6625 12.9448L94.7177 9.53551C94.9408 7.40168 95.0542 6.10054 94.7158 3.94749C94.1043 0.0585496 93.3039 0.94602 92.3415 0.742188C91.876 5.20706 91.0563 9.09042 90.6521 13.2735Z" fill="white"/>
<path fill-rule="evenodd" clip-rule="evenodd" d="M9.92941 111.175C7.91496 114.983 8.03378 116.132 11.4136 117.808C15.2077 117.831 17.2995 116.887 16.2407 112.24C14.2136 110.395 13.0209 110.527 9.92941 111.175Z" fill="white"/>
</svg>
