<svg width="12" height="18" viewBox="0 0 12 18" fill="none" xmlns="http://www.w3.org/2000/svg">
<path d="M6 0.729126C3.0625 0.729126 0.6875 3.10413 0.6875 6.04163C0.6875 8.10413 1.9375 10.2916 3.375 12.9166C4.1875 14.3541 5 15.8541 5.6875 17.4166C5.75 17.5416 5.875 17.6041 6 17.6041C6.125 17.6041 6.25 17.5416 6.3125 17.4166C7 15.8541 7.8125 14.3541 8.625 12.9166C10.0625 10.3541 11.3125 8.10413 11.3125 6.04163C11.3125 3.10413 8.9375 0.729126 6 0.729126ZM6 7.91663C4.9375 7.91663 4.125 7.10413 4.125 6.04163C4.125 4.97913 4.9375 4.16663 6 4.16663C7.0625 4.16663 7.875 4.97913 7.875 6.04163C7.875 7.10413 7.0625 7.91663 6 7.91663Z" fill="#5AACB8"/>
</svg>
