<svg width="63" height="90" viewBox="0 0 63 90" fill="none" xmlns="http://www.w3.org/2000/svg">
<path d="M25.2551 0.527123C12.6735 2.77384 2.78788 13.1088 0.541161 25.6904C-1.70556 37.8227 3.23723 49.0563 11.7748 55.7965C20.3123 62.986 26.6031 72.4222 29.7485 83.2065L31.5459 89.9466L33.7926 83.2065C36.938 71.9728 44.1275 62.5366 52.6651 54.8978C58.9559 49.5056 63 40.9681 63 31.5319C63 12.2101 45.4756 -3.06763 25.2551 0.527123Z" fill="#515257"/>
<path d="M44.1194 26.933C44.131 27.1773 44.131 27.317 44.131 27.3518C44.131 27.5147 44.0845 27.7242 43.9914 27.9685C43.9099 28.2128 43.8052 28.3292 43.6772 28.3292C43.5492 28.3292 43.1885 28.306 43.0489 28.306C42.8279 28.306 42.409 28.3292 41.8155 28.3641C41.2221 28.3991 40.7568 28.4223 40.4193 28.4223C40.4077 28.4223 40.3146 28.434 40.14 28.4572C39.9656 28.4688 39.8259 28.4805 39.7212 28.4805C39.407 28.4805 39.2442 28.4107 39.2442 28.2711L39.3023 27.8406C39.3023 27.7242 39.314 27.5496 39.3256 27.317C39.3489 27.0842 39.3605 26.9097 39.3605 26.7817C39.3605 26.7701 39.3256 26.6072 39.2442 26.2931C39.1744 25.9788 39.1394 25.7346 39.1394 25.56C39.1394 25.2226 39.279 25.0481 39.5467 25.0481C39.6514 25.0481 39.919 25.083 40.0004 25.083C40.1517 25.083 40.2216 25.0247 40.2216 24.9201C40.2216 24.8386 39.4303 24.8037 37.8596 24.8037C37.5105 24.8037 37.3359 24.8503 37.3359 24.9317C37.3359 25.0713 37.9759 25.0365 37.9759 25.6182C37.9759 25.8625 37.9526 26.2232 37.8945 26.7002C37.8479 27.1773 37.8246 27.538 37.8246 27.7824C37.8246 27.922 37.8479 28.1314 37.8828 28.4107C37.9178 28.6666 37.9411 28.8761 37.9411 29.0041C37.9411 29.0855 37.9294 29.2833 37.9294 29.3415C37.9294 29.3531 37.9411 29.5161 37.9759 29.8302C38.0108 30.1443 38.034 30.4933 38.0691 30.889C38.1039 31.2729 38.1155 31.5754 38.1155 31.7733C38.1155 32.5296 37.5571 31.9129 37.5571 32.4132C37.5571 32.483 37.6385 32.5296 37.7898 32.5528C37.9643 32.5412 38.2319 32.5296 38.5926 32.5296C38.7672 32.5296 39.0348 32.5296 39.3954 32.5412C39.7562 32.5528 40.0237 32.5528 40.1983 32.5528C40.3844 32.5528 40.5357 32.4598 40.5357 32.3783C40.5357 32.3318 40.3611 32.2852 40.0004 32.227C39.6514 32.1708 39.4769 32.101 39.4769 32.0196C39.4769 31.845 39.4303 31.4746 39.3373 30.9044C39.2558 30.3247 39.2093 30.0008 39.2093 29.9427C39.2093 29.6517 39.1976 29.1533 39.1976 29.0137C39.1976 28.7829 39.2442 28.7829 39.4536 28.7829C39.5583 28.7829 39.791 28.8062 40.1517 28.8412C40.5124 28.8741 40.7568 28.8974 40.8615 28.8974C40.9661 28.8974 41.2804 28.8741 41.8039 28.8412C42.3391 28.7946 42.6533 28.7714 42.7464 28.7714C43.3398 28.7714 43.7121 28.7829 43.8866 28.8179L43.9332 29.3046C43.9681 29.5471 43.9798 29.7448 43.9798 29.8728C43.9798 30.0125 44.0263 30.3131 44.1078 30.7668C44.2008 31.2187 44.2474 31.5424 44.2474 31.7403C44.2474 32.1708 44.003 32.2736 43.4445 32.2736C43.3864 32.2736 43.2234 32.2619 43.1769 32.2619C43.0372 32.2619 42.9675 32.2968 42.9675 32.3667C42.9675 32.4598 43.0722 32.5412 43.2118 32.5412C43.2584 32.5412 43.5026 32.5412 43.9565 32.5296H45.0619C45.2829 32.5296 45.5854 32.5412 45.6436 32.5412C45.8646 32.5412 45.8879 32.5296 45.8879 32.4016C45.8879 32.2736 45.1316 32.5296 45.1316 31.7733C45.1316 31.5754 45.1433 31.2729 45.1782 30.889C45.2131 30.5051 45.2363 30.1559 45.2712 29.8418C45.3061 29.5277 45.3177 29.3647 45.3177 29.3531C45.3177 29.1553 45.3294 28.8877 45.3643 28.5503C45.3992 28.2012 45.4225 27.9452 45.4225 27.7824C45.4225 27.538 45.3992 27.1773 45.3411 26.7118C45.2945 26.2232 45.2712 25.8742 45.2712 25.6299C45.2712 25.0247 45.8646 25.0365 45.8646 24.9433C45.8646 24.8153 45.7134 24.7455 45.3992 24.7455C45.2247 24.7455 44.8408 24.7805 44.7476 24.7805L43.9332 24.7921C43.5725 24.7805 43.3049 24.7805 43.1304 24.7805C42.9791 24.7805 42.8744 24.9085 42.8744 25.0131C42.8279 25.1411 43.7935 25.1179 43.8866 25.2342C44.0379 25.3855 44.1194 25.7229 44.1194 26.2465V26.933ZM38.3483 26.0487C38.3483 26.4094 38.3599 26.677 38.3832 26.8515L38.4646 27.3402C38.5228 27.6078 38.546 27.8172 38.546 27.9918C38.546 28.1431 38.5344 28.3641 38.4995 28.6666C38.4763 28.9575 38.4646 29.1786 38.4646 29.3298C38.4646 29.5043 38.5228 29.9232 38.5228 30.0978C38.5228 30.2491 38.4529 30.5865 38.4413 30.6679C38.4297 30.4468 38.3715 30.0279 38.29 29.4113C38.2086 28.7946 38.1737 28.2943 38.1737 27.9336C38.1737 27.7591 38.1853 27.4566 38.2203 27.0261C38.2552 26.5956 38.2668 26.2116 38.2668 25.8859C38.2668 25.6299 38.2552 25.4436 38.2203 25.3157C38.3017 25.3971 38.3483 25.6415 38.3483 26.0487ZM44.7942 28.0732C44.7942 27.9685 44.8059 27.794 44.8408 27.5613C44.8756 27.3402 44.8873 27.1657 44.8873 27.061C44.8873 26.9562 44.8756 26.805 44.864 26.5956C44.8524 26.3861 44.8408 26.2232 44.8408 26.1185C44.8408 25.8276 44.8989 25.5833 45.0036 25.3971C44.9455 25.6182 44.9222 25.8859 44.9222 26.2C44.9222 26.3977 44.9455 26.6886 44.992 27.0726C45.0502 27.4566 45.0735 27.7358 45.0735 27.9336C45.0735 28.178 45.0385 28.527 44.9803 28.9575C44.9222 29.3881 44.8989 29.6556 44.8873 29.7836C44.864 29.2368 44.7942 28.5736 44.7942 28.0732ZM38.9998 26.5606V26.9562C39.0114 27.1424 39.0114 27.2704 39.0114 27.3402C39.0114 27.4217 38.9998 27.701 38.9766 28.1547C38.9649 28.6201 38.9533 28.8761 38.9417 28.9109C38.8486 28.2128 38.802 27.189 38.802 25.8276C38.802 25.688 38.8137 25.5716 38.8486 25.4902C38.9533 25.8276 38.9998 26.072 38.9998 26.2348V26.5606ZM44.5266 31.878C44.3754 30.9705 44.3055 30.0396 44.3055 29.0738C44.4568 29.3066 44.5266 30.2374 44.5266 31.878ZM38.8952 29.1669C38.9068 29.2717 38.9417 29.7138 38.9766 30.5167C39.023 31.3078 39.0696 31.7617 39.1046 31.878C38.9649 31.7034 38.8952 31.3311 38.8952 30.761V29.1669ZM38.5228 31.5406C38.5228 31.6569 38.4995 31.7617 38.4646 31.843C38.4763 31.7849 38.4763 31.6918 38.4763 31.5638C38.4763 31.4009 38.4763 31.2962 38.4646 31.2265C38.4995 31.4009 38.5228 31.5057 38.5228 31.5289V31.5406ZM46.2821 32.5296C47.0151 32.5179 48.4114 32.7273 48.3881 32.483C48.3881 32.355 48.3415 32.2852 48.2368 32.2852C48.1554 32.2852 47.9111 32.2968 47.818 32.2968C47.4922 32.2968 47.469 32.006 47.8994 31.0402C48.1205 30.5632 48.2485 30.2839 48.2717 30.2141L48.4579 29.6091C48.8418 29.5626 49.2258 29.5393 49.6331 29.5393C50.4592 29.5393 51.2388 29.5509 51.9602 29.5742L52.0998 30.0629L52.2278 30.5051C52.2859 30.7028 52.5187 31.2032 52.6233 31.5871C52.6816 31.7849 52.7048 31.971 52.7048 32.1688C52.7048 32.2503 52.635 32.2968 52.507 32.3318C52.379 32.355 52.3208 32.3783 52.3208 32.4132C52.3208 32.5412 52.379 32.5993 52.4837 32.5993C52.5419 32.5993 52.7164 32.5877 53.0189 32.5644C53.3214 32.5412 53.624 32.5296 53.9265 32.5296C54.2755 32.5296 54.4501 32.4598 54.4501 32.3202C54.4501 32.2154 54.3919 32.1688 54.2755 32.1688C54.2174 32.1688 54.0894 32.1922 54.0545 32.1922C53.4611 30.4081 52.9608 29.0041 52.5419 27.9918C52.3907 27.6078 52.1347 27.1307 51.7856 26.584C51.4482 26.0254 51.2154 25.6299 51.1108 25.4087C51.0177 25.2226 50.878 25.0365 50.7035 24.8386C50.529 24.6409 50.4011 24.5361 50.3079 24.5361C50.1334 24.5361 49.8658 24.8386 49.5167 25.4553C49.1677 26.072 48.9466 26.549 48.8418 26.9097C48.8069 27.0493 48.7255 27.2587 48.6208 27.5264C48.5161 27.794 48.4347 28.0034 48.3997 28.1314L48.1088 29.1088C47.9925 29.5393 47.8994 29.8631 47.8296 30.0842C47.7248 30.3965 47.5387 30.8133 47.2827 31.3233C47.0384 31.8431 46.8406 32.1223 46.6893 32.1572C46.3636 32.2503 46.0145 32.2387 46.0145 32.4132C46.0145 32.4947 46.1076 32.5296 46.2821 32.5296ZM49.0048 27.7707L49.2026 27.1773L49.412 26.677C49.5982 26.2232 49.7843 25.8859 50.0519 25.5484C50.9362 27.3518 51.4249 28.3641 51.5063 28.562C51.5529 28.6899 51.7623 28.9575 51.8089 29.0972C50.8897 29.0855 50.1799 29.0738 49.6796 29.0738C49.3538 29.0738 48.9932 29.0972 48.5859 29.1321C48.6906 28.7481 48.7837 28.4572 48.8418 28.2711L49.0048 27.7707ZM51.8554 28.4107C51.5296 27.9802 51.1922 27.3402 50.9944 26.9097L50.6337 26.0487C50.494 25.6996 50.3893 25.432 50.3079 25.2575C50.4825 25.4087 50.7152 25.7346 51.0177 26.2581C51.3318 26.7817 51.518 27.189 51.5878 27.4915C51.6343 27.6892 51.739 27.9568 51.9136 28.2943C52.0882 28.6317 52.2044 28.8877 52.2627 29.0622C52.2278 28.9692 52.0882 28.7481 51.8554 28.4107ZM52.2859 28.0848C52.3324 28.2128 52.4371 28.4223 52.6117 28.7365C52.7863 29.0389 52.891 29.2833 52.9375 29.4578C52.9375 29.4695 52.9608 29.6323 53.0189 29.9698C52.9608 29.7255 52.7745 29.3298 52.4604 28.7714C52.1579 28.2012 51.9718 27.7707 51.8903 27.4798C51.8554 27.3402 51.7623 27.0842 51.611 26.7236C51.867 27.1424 52.0882 27.5962 52.2859 28.0848ZM52.6 30.4933C52.6 30.4817 52.3557 29.3881 52.3324 29.2135C52.6931 29.9698 52.9025 30.7028 52.9608 31.4358C52.9375 31.3544 52.8677 31.2032 52.763 30.982C52.6583 30.761 52.6 30.5981 52.6 30.4933Z" fill="white"/>
<path d="M31.5345 27.7943C31.3833 27.1776 31.3018 26.8052 31.3018 26.7006C31.3368 25.8279 31.8836 25.3159 32.5584 25.0716C33.0355 24.8854 33.3496 24.8389 33.687 24.7924C34.2223 24.7342 34.7459 24.6992 35.2463 24.6992C35.444 24.6992 35.7 24.7225 35.9909 24.7691C36.2818 24.8156 36.5028 24.8389 36.6541 24.8389C36.7704 24.8389 36.8286 24.8738 36.8286 24.9552C36.8286 25.2228 36.5842 25.1763 36.3632 25.2461C36.2701 25.5253 36.2236 25.8279 36.2236 26.1653C36.2236 26.3398 36.2468 26.6191 36.2934 26.9915C36.3282 27.3521 36.3515 27.6313 36.3515 27.8292C36.3515 27.9688 36.3282 28.1782 36.2934 28.4574C36.2585 28.7251 36.2352 28.9346 36.2352 29.0626C36.2352 29.144 36.2468 29.3418 36.2468 29.3999C36.2468 29.4116 36.2352 29.5744 36.2002 29.8885C36.1654 30.2028 36.1421 30.5518 36.1072 30.9474C36.0723 31.3314 36.0607 31.6339 36.0607 31.8317C36.0607 32.0876 36.1886 32.2156 36.4562 32.2156C36.5145 32.2156 36.6541 32.2041 36.7006 32.2041C36.8519 32.2041 36.9334 32.2622 36.9334 32.3669C36.9334 32.4833 36.7588 32.5414 36.3981 32.5414C36.2585 32.5414 36.0141 32.5298 35.6651 32.5065C35.316 32.4949 35.0717 32.4833 34.9204 32.4833C34.7226 32.4833 34.2805 32.5298 34.1409 32.5298C34.0361 32.5182 33.9896 32.4484 33.9896 32.3088C33.9896 32.2622 34.0361 32.2389 34.1293 32.2389C34.1874 32.2389 34.4201 32.2505 34.5131 32.2505C34.8971 32.2505 35.0833 31.9829 35.0833 31.4594C35.0833 31.3314 35.0717 31.1801 35.06 31.0055C35.0368 30.8311 35.0251 30.7263 35.0251 30.7031C35.0251 30.5053 34.9786 29.9236 34.8971 28.9694C34.1874 29.0276 33.8034 29.0626 33.7569 29.0626C33.3846 29.0626 33.0355 29.4348 32.861 29.9351C32.5934 30.6798 32.3258 31.215 31.8953 31.7619C31.4414 32.3088 30.8015 32.6113 30.0452 32.6113C29.9871 32.6113 29.9521 32.5764 29.9521 32.5065C29.9521 32.4251 30.0335 32.3785 30.1848 32.3436C30.8248 32.2389 31.5113 31.5059 32.2443 30.1678C32.2792 30.098 32.3723 29.9584 32.5003 29.7607L32.8377 29.2022C32.9308 29.0392 32.9773 28.9346 32.9773 28.888C33.0355 28.8647 31.6858 28.6203 31.5345 27.7943ZM34.3503 25.1879C34.2107 25.1879 33.7801 25.1414 33.6056 25.1414C33.2216 25.1414 32.9308 25.3857 32.826 25.7465C32.7214 26.1072 32.6864 26.2933 32.6748 26.5143C32.6515 26.8518 32.861 28.5273 33.7685 28.5622C33.9081 28.5738 34.1059 28.5738 34.3503 28.5622C34.5946 28.5506 34.7575 28.5273 34.8623 28.4924C34.8157 27.9222 34.7924 27.5033 34.7924 27.2474C34.7924 27.1078 34.804 26.9332 34.8157 26.7355C34.8157 26.7006 34.8157 26.5726 34.8274 26.3398C34.839 26.1072 34.8506 25.8861 34.8739 25.6883C34.8855 25.4788 34.9204 25.3159 34.9786 25.1879C34.932 25.1879 34.7808 25.1763 34.7226 25.1763C34.6179 25.1763 34.4317 25.1879 34.3503 25.1879ZM35.1764 27.0496C35.1764 27.2358 35.1997 27.5499 35.2579 28.0037C35.3044 28.4574 35.3509 28.7367 35.3975 28.8647C35.4091 28.8066 35.4207 28.6437 35.4207 28.3644C35.4207 26.8983 35.3859 25.9209 35.3277 25.4439C35.2229 25.8745 35.1764 26.1188 35.1764 26.2002V27.0496ZM35.8164 26.2817C35.8164 26.6889 35.8164 27.2823 35.8047 28.0386C35.793 28.7949 35.793 29.3767 35.793 29.7607C35.793 29.8072 35.8047 29.9584 35.8047 30.005C35.9327 28.9113 36.0025 28.2364 36.0025 27.9804C36.0025 27.7826 35.9792 27.5033 35.9327 27.1195C35.8745 26.7355 35.8513 26.4446 35.8513 26.2468C35.8513 26.0489 35.8629 25.8395 35.8978 25.6301C35.8396 25.7813 35.8164 25.9908 35.8164 26.2817ZM32.4886 25.5719C32.2908 25.7813 32.1862 26.1421 32.1862 26.6656C32.1862 27.3056 32.2559 27.7128 32.4072 27.9106C32.349 27.5732 32.3258 27.2707 32.3258 27.0031C32.3258 26.3981 32.4304 25.8745 32.6515 25.4439C32.5934 25.4788 32.5352 25.5253 32.4886 25.5719ZM31.8254 26.6889C31.8254 26.3515 31.9883 25.9908 32.0232 25.8395C31.7789 26.0373 31.6625 26.2701 31.6625 26.5143C31.6625 26.6656 31.6974 26.91 31.7789 27.2241C31.8487 27.5383 31.9185 27.7593 31.9766 27.8757C31.9766 27.8408 31.9534 27.6547 31.9069 27.3172C31.8487 26.9682 31.8254 26.7587 31.8254 26.6889ZM35.3509 31.5524C35.3509 31.3198 35.3625 30.9707 35.3975 30.5169C35.4207 30.0631 35.4324 29.7607 35.4324 29.6093C35.4324 29.4116 35.4091 29.2719 35.3741 29.1672C35.3393 29.3883 35.3277 29.8188 35.316 30.4704C35.3044 31.1103 35.2927 31.5874 35.2695 31.8782C35.3277 31.7968 35.3509 31.6921 35.3509 31.5524Z" fill="white"/>
<path fill-rule="evenodd" clip-rule="evenodd" d="M7.75995 29.9448C7.75995 30.0029 7.8065 30.3268 7.88795 30.9066C7.98104 31.4768 8.02758 31.8471 8.02758 32.0217C8.02758 32.1031 8.20207 32.1729 8.55115 32.2291C8.91186 32.2873 9.08635 32.3339 9.08635 32.3804C9.08635 32.4619 8.93513 32.555 8.74896 32.555C8.57442 32.555 8.30679 32.5549 7.94613 32.5433C7.58541 32.5317 7.31779 32.5317 7.1433 32.5317C6.78264 32.5317 6.51501 32.5433 6.34047 32.555C6.18926 32.5317 6.1078 32.4851 6.1078 32.4153C6.1078 31.915 6.66628 32.5317 6.66628 31.7754C6.66628 31.5776 6.65459 31.2751 6.61973 30.8911C6.58482 30.4955 6.56155 30.1465 6.52665 29.8323C6.49174 29.5182 6.4801 29.3553 6.4801 29.3436C6.4801 29.2854 6.49174 29.0876 6.49174 29.0062C6.49174 28.8782 6.46847 28.6688 6.43356 28.4128C6.39865 28.1335 6.37538 27.9241 6.37538 27.7845C6.37538 27.5402 6.39865 27.1795 6.44519 26.7025C6.50337 26.2254 6.52665 25.8647 6.52665 25.6204C6.52665 25.0386 5.88672 25.0735 5.88672 24.9339C5.88672 24.8525 6.06121 24.8059 6.41029 24.8059C7.07242 24.8059 7.59593 24.8121 7.98018 24.8253C8.01952 24.8236 8.06681 24.8225 8.12809 24.8196C8.26532 24.8132 8.47231 24.7982 8.74463 24.7745C9.01701 24.7509 9.35472 24.7184 9.63185 24.6942C9.90898 24.6699 10.1255 24.6537 10.2833 24.6441C10.4411 24.6345 10.54 24.6314 10.6369 24.6334C10.7337 24.6354 10.8284 24.6424 10.9917 24.6675C11.155 24.6925 11.387 24.7356 11.5876 24.7588C11.7091 24.7728 11.8193 24.7795 11.9192 24.7832C12.0714 24.7842 12.2597 24.7871 12.4838 24.7943L13.2983 24.7826C13.3914 24.7826 13.7754 24.7477 13.9499 24.7477C14.264 24.7477 14.4153 24.8176 14.4153 24.9455C14.4153 25.0386 13.8219 25.0269 13.8219 25.632C13.8219 25.8763 13.8451 26.2254 13.8917 26.7141C13.9499 27.1795 13.9731 27.5402 13.9731 27.7845C13.9731 27.9474 13.9499 28.2034 13.915 28.5524C13.8801 28.8898 13.8684 29.1575 13.8684 29.3553C13.8684 29.3669 13.8568 29.5298 13.8219 29.8439C13.787 30.1581 13.7637 30.5071 13.7288 30.8911C13.6939 31.2751 13.6823 31.5776 13.6823 31.7754C13.6823 32.5317 14.4386 32.2757 14.4386 32.4036C14.4386 32.5317 14.4153 32.5433 14.1942 32.5433C14.136 32.5433 13.8335 32.5317 13.6124 32.5317H12.5071C12.0534 32.5433 11.809 32.5433 11.7625 32.5433C11.6228 32.5433 11.5181 32.4619 11.5181 32.3688C11.5181 32.299 11.5879 32.2641 11.7276 32.2641C11.7741 32.2641 11.937 32.2757 11.9951 32.2757C12.5537 32.2757 12.798 32.1729 12.798 31.7424C12.798 31.5446 12.7514 31.2208 12.6584 30.7689C12.5769 30.3152 12.5304 30.0146 12.5304 29.8749C12.5304 29.747 12.5187 29.5492 12.4838 29.3068L12.4373 28.82C12.4784 28.3912 12.4863 28.4331 12.542 27.9707C12.5733 27.7111 12.6817 27.5169 12.6817 27.354C12.6817 27.3191 12.6817 27.1795 12.67 26.9351V26.2487C12.67 25.7579 12.5984 25.4307 12.4649 25.267C12.4505 25.2622 12.4356 25.2505 12.4165 25.2395C12.3744 25.2154 12.3115 25.1943 12.2255 25.1774C12.1394 25.1603 12.0302 25.1474 11.8759 25.1304L11.813 25.1235L11.7522 25.1169C11.6249 25.1033 11.4872 25.0892 11.3823 25.0796C11.2419 25.0668 11.1603 25.0621 11.0375 25.0662C10.9146 25.0703 10.7504 25.0832 10.519 25.0999C10.2875 25.1166 9.98894 25.1371 9.76903 25.1467C9.54912 25.1563 9.40799 25.1551 9.20602 25.1424C9.00399 25.1298 8.74116 25.1057 8.55483 25.0888C8.36855 25.0718 8.25875 25.0619 8.19059 25.0568C8.14447 25.0534 8.11747 25.052 8.08363 25.0504C7.82507 25.0564 7.69014 25.2306 7.69014 25.5622C7.69014 25.7367 7.72505 25.981 7.79486 26.2952C7.87631 26.6094 7.91122 26.7722 7.91122 26.7839C7.91122 26.9119 7.89958 27.0864 7.87631 27.3191C7.86468 27.5518 7.85304 27.7263 7.85304 27.8426L7.79486 28.2732C7.79486 28.9636 7.75995 29.195 7.75995 29.9448ZM13.3449 28.0754C13.3449 27.9707 13.3565 27.7962 13.3914 27.5634C13.4263 27.3423 13.4379 27.1678 13.4379 27.0631C13.4379 26.9584 13.4263 26.8071 13.4147 26.5977C13.403 26.3883 13.3914 26.2254 13.3914 26.1207C13.3914 25.8298 13.4495 25.5855 13.5543 25.3993C13.4961 25.6204 13.4728 25.888 13.4728 26.2021C13.4728 26.3999 13.4961 26.6908 13.5426 27.0748C13.6008 27.4587 13.6241 27.738 13.6241 27.9357C13.6241 28.1801 13.5892 28.5292 13.531 28.9596C13.4728 29.3901 13.4495 29.6577 13.4379 29.7857C13.4147 29.2389 13.3449 28.5757 13.3449 28.0754ZM13.0772 31.8801C12.926 30.9726 12.8561 30.0417 12.8561 29.076C13.0074 29.3087 13.0772 30.2395 13.0772 31.8801ZM6.89894 26.0509C6.89894 26.4116 6.91058 26.6792 6.93385 26.8537L7.0153 27.3423C7.07348 27.61 7.09676 27.8194 7.09676 27.994C7.09676 28.1452 7.08512 28.3663 7.05021 28.6688C7.02694 28.9596 7.0153 29.1807 7.0153 29.332C7.0153 29.5065 7.07348 29.9254 7.07348 30.0999C7.07348 30.2511 7.00367 30.5886 6.99203 30.67C6.98039 30.4489 6.92222 30.0301 6.84076 29.4134C6.75937 28.7967 6.7244 28.2964 6.7244 27.9357C6.7244 27.7612 6.73604 27.4587 6.771 27.0282C6.80586 26.5977 6.81749 26.2138 6.81749 25.888C6.81749 25.632 6.80586 25.4458 6.771 25.3178C6.8524 25.3993 6.89894 25.6437 6.89894 26.0509ZM7.55056 26.5628V26.9584C7.56219 27.1446 7.5622 27.2725 7.5622 27.3423C7.5622 27.4238 7.55056 27.7031 7.52723 28.1569C7.5156 28.6222 7.50396 28.8782 7.49232 28.9131C7.39929 28.215 7.35275 27.1911 7.35275 25.8298C7.35275 25.6901 7.36438 25.5738 7.39929 25.4924C7.50396 25.8298 7.55056 26.0741 7.55056 26.237V26.5628ZM7.44583 29.1691C7.45747 29.2738 7.49232 29.716 7.52723 30.5188C7.57383 31.31 7.62032 31.7638 7.65528 31.8801C7.5156 31.7056 7.44583 31.3332 7.44583 30.7631V29.1691ZM7.07348 31.5427C7.07348 31.659 7.05021 31.7638 7.0153 31.8452C7.02694 31.787 7.02694 31.6939 7.02694 31.5659C7.02694 31.403 7.02694 31.2983 7.0153 31.2285C7.05021 31.403 7.07348 31.5078 7.07348 31.531V31.5427Z" fill="white"/>
<path d="M17.4007 24.9502C16.7258 25.1713 16.1557 25.6018 15.6786 26.2417C15.2132 26.8817 14.9805 27.5682 14.9805 28.3012C14.9805 29.4996 15.3296 30.4653 16.0393 31.1984C16.0975 31.2798 16.3651 31.5823 16.5396 31.7569C16.6211 31.8382 16.7142 31.8965 16.7956 31.943C17.1098 32.1175 17.517 32.3037 18.0174 32.4899C18.5177 32.676 18.9016 32.7691 19.1692 32.7691C19.4368 32.7691 19.8557 32.6876 20.4142 32.5364C20.9727 32.3851 21.4032 32.1757 21.6941 31.9198C21.8919 31.7453 22.1013 31.4427 22.2991 31.0005C22.7413 29.9999 22.9623 29.1389 22.9623 28.4292C22.9623 27.731 22.7762 27.0445 22.4154 26.3697C22.3108 26.1835 22.0199 25.8927 21.8803 25.7298C21.5893 25.3923 21.217 25.1014 20.74 24.8804C20.2746 24.6593 19.7976 24.543 19.3205 24.543C19.0063 24.543 18.6223 24.6244 18.3547 24.6825C18.1104 24.7408 17.5985 24.9037 17.4007 24.9502ZM19.0762 32.3154C18.8085 32.3154 18.4943 32.2455 18.1221 32.1175C17.7497 31.9779 17.4588 31.815 17.2611 31.6289C17.0981 31.4776 16.9818 31.21 16.9004 30.826C16.9004 30.8144 16.8654 30.57 16.8072 30.093C16.784 29.8603 16.6676 29.5462 16.6676 29.3134C16.6676 28.976 16.784 28.4989 16.784 28.1266C16.784 28.0335 16.7491 27.8008 16.7491 27.7078C16.7491 27.0213 16.9702 26.4047 17.4123 25.8578C17.8661 25.3109 18.4013 25.0317 19.0296 25.0317C19.6579 25.0317 20.1932 25.3342 20.6353 25.9275C21.089 26.5209 21.3101 27.1376 21.3101 27.7776C21.3101 27.8706 21.2752 28.1034 21.2752 28.1964C21.2752 28.5688 21.3916 29.0458 21.3916 29.3833C21.3916 29.6159 21.2752 29.9301 21.2519 30.1628C21.1938 30.6399 21.1588 30.8842 21.1588 30.8959C21.1239 31.0587 21.0542 31.2565 20.961 31.4776C20.868 31.6987 20.7749 31.8499 20.6934 31.9198C20.5887 31.9895 20.3327 32.071 19.9255 32.1757C19.5183 32.2688 19.2274 32.3154 19.0762 32.3154ZM16.3302 30.8842C16.1207 30.4537 16.0161 29.9767 16.0161 29.4414C16.0161 27.5099 16.4117 26.2301 17.1912 25.5902C16.8072 26.0207 16.6211 26.4163 16.6211 26.7653C16.6211 26.8584 16.5862 27.0097 16.5164 27.2307C16.4466 27.4402 16.4117 27.5914 16.4117 27.6845C16.4117 27.7776 16.4466 27.9986 16.4466 28.0918C16.4466 28.2779 16.435 28.5106 16.4 28.7782C16.3651 29.0458 16.3535 29.2436 16.3535 29.3484C16.3535 30.1046 16.4815 30.7911 16.7491 31.3845C16.5513 31.2333 16.4117 31.0587 16.3302 30.8842ZM21.473 26.7072C21.6708 27.2656 21.8104 27.7776 21.8803 28.2314C21.9617 28.6852 21.9965 29.232 21.9965 29.8719C21.9965 30.2791 21.9151 30.6748 21.7639 31.0355C21.6127 31.3961 21.4032 31.6289 21.1588 31.7569C21.5196 31.0937 21.7057 30.314 21.7057 29.4182C21.7057 29.3134 21.6941 29.1156 21.6591 28.848C21.6243 28.5804 21.6127 28.3477 21.6127 28.1615C21.6127 28.0684 21.6476 27.8474 21.6476 27.7543C21.6476 27.6729 21.5777 27.3703 21.4381 26.8352C21.4381 26.7304 21.4264 26.6373 21.3916 26.5559L21.473 26.7072ZM22.2874 27.1376C22.4388 27.475 22.5085 27.9056 22.5085 28.4059C22.5085 28.7433 22.462 29.1273 22.3573 29.5578C22.3573 28.592 22.1711 27.603 21.7988 26.5792C21.7523 26.4861 21.5544 26.1952 21.4497 25.9741C21.4847 26.0439 21.6243 26.2184 21.8453 26.4977C22.078 26.7769 22.2293 26.9864 22.2874 27.1376ZM15.6437 29.2902C15.6437 29.5229 15.667 29.7439 15.7018 29.9534C15.5041 29.488 15.3994 29.0109 15.3994 28.5339C15.3994 27.7659 15.667 27.0445 16.1906 26.3697C15.8298 27.1144 15.6437 28.0918 15.6437 29.2902ZM20.8214 25.4389C20.8912 25.5436 20.961 25.6948 21.0425 25.8927C20.9146 25.6948 20.74 25.5087 20.5189 25.3225C20.6586 25.3458 20.7633 25.3807 20.8214 25.4389Z" fill="white"/>
<path fill-rule="evenodd" clip-rule="evenodd" d="M27.444 28.9849C27.5254 29.939 27.572 30.5208 27.572 30.7186C27.572 30.7419 27.5836 30.8466 27.6069 31.0211C27.6185 31.1956 27.6302 31.3469 27.6302 31.4749C27.6302 31.9984 27.444 32.2661 27.0601 32.2661C26.967 32.2661 26.7343 32.2544 26.6761 32.2544C26.583 32.2544 26.5365 32.2777 26.5365 32.3242C26.5365 32.4638 26.583 32.5337 26.6877 32.5453C26.8273 32.5453 27.2695 32.4988 27.4673 32.4988C27.6185 32.4988 27.8629 32.5104 28.2119 32.5221C28.561 32.5453 28.8053 32.5569 28.945 32.5569C29.3056 32.5569 29.4802 32.4988 29.4802 32.3824C29.4802 32.2777 29.3987 32.2195 29.2475 32.2195C29.2009 32.2195 29.0613 32.2312 29.0031 32.2312C28.7355 32.2312 28.6075 32.1032 28.6075 31.8472C28.6075 31.6494 28.6192 31.3469 28.6541 30.9629C28.689 30.5673 28.7122 30.2182 28.7472 29.9041C28.7821 29.59 28.7937 29.4271 28.7937 29.4155C28.7937 29.3572 28.7821 29.1595 28.7821 29.078C28.7821 28.95 28.8053 28.7406 28.8403 28.473C28.8752 28.1937 28.8984 27.9843 28.8984 27.8447C28.8984 27.6469 28.8752 27.3677 28.8403 27.007C28.7937 26.6346 28.7704 26.3554 28.7704 26.1809C28.7704 25.8434 28.8169 25.5409 28.91 25.2617C29.1311 25.1919 29.3755 25.2384 29.3755 24.9708C29.3755 24.8893 29.3173 24.8545 29.2009 24.8545C29.0497 24.8545 28.8286 24.8312 28.5377 24.7847C28.2468 24.7381 27.9909 24.7148 27.7931 24.7148C27.2928 24.7148 26.7692 24.7498 26.234 24.8079C25.8965 24.8545 25.5895 24.9206 25.1053 25.0871C23.162 25.7559 25.264 28.3903 24.2687 30.2151C23.5382 31.5545 23.2218 32.1455 22.5833 32.2582C22.4305 32.2851 22.3506 32.3396 22.3506 32.421C22.3506 32.4908 22.3855 32.5257 22.4436 32.5257C23.2 32.5257 23.8469 32.2289 24.2936 31.6764C24.7312 31.1352 24.6221 30.7286 24.8854 29.9825C25.0558 29.4993 25.1991 28.5573 25.1004 27.6743C24.9648 26.4626 25.0501 25.157 26.1525 25.157C26.3271 25.157 26.7575 25.2035 26.8972 25.2035C26.9786 25.2035 27.1647 25.1919 27.2695 25.1919C27.3277 25.1919 27.4789 25.2035 27.5254 25.2035C27.4673 25.3315 27.4324 25.4944 27.4207 25.7038C27.3975 25.9017 27.3859 26.1227 27.3742 26.3554C27.3625 26.5881 27.3625 26.7161 27.3625 26.751C27.3509 26.9488 27.3393 27.1233 27.3393 27.263C27.3393 27.912 27.4365 28.7095 27.444 28.9849ZM24.7587 27.7268C24.7587 26.6935 24.7147 26.1072 24.6194 25.9606C24.6194 26.5689 24.6634 27.1551 24.7587 27.7268ZM27.7233 27.0652C27.7233 27.2513 27.7465 27.5654 27.8047 28.0192C27.8512 28.473 27.8978 28.7522 27.9443 28.8802C27.956 28.8221 27.9676 28.6592 27.9676 28.3799C27.9676 26.9139 27.9327 25.9365 27.8745 25.4595C27.7698 25.89 27.7233 26.1343 27.7233 26.2158V27.0652ZM28.3632 26.2972C28.3632 26.7044 28.3632 27.2978 28.3516 28.0542C28.3399 28.8104 28.3399 29.3922 28.3399 29.7762C28.3399 29.8227 28.3516 29.9739 28.3516 30.0205C28.4795 28.9268 28.5494 28.2519 28.5494 27.9959C28.5494 27.7982 28.5261 27.5189 28.4795 27.1349C28.4214 26.751 28.3981 26.4601 28.3981 26.2623C28.3981 26.0645 28.4097 25.8551 28.4446 25.6457C28.3865 25.7969 28.3632 26.0063 28.3632 26.2972ZM27.8978 31.568C27.8978 31.3353 27.9094 30.9862 27.9443 30.5324C27.9676 30.0787 27.9793 29.7762 27.9793 29.6249C27.9793 29.4271 27.956 29.2875 27.9211 29.1827C27.8862 29.4038 27.8745 29.8343 27.8629 30.4859C27.8512 31.1258 27.8396 31.6029 27.8163 31.8937C27.8745 31.8123 27.8978 31.7076 27.8978 31.568Z" fill="white"/>
<path fill-rule="evenodd" clip-rule="evenodd" d="M43.1062 35.1345L43.1066 36.5682L43.1106 38.0663L43.104 39.7736C39.1848 39.7439 35.2781 39.607 31.3706 39.3495C31.1558 39.3354 30.9614 39.3046 30.7745 39.2751C30.6243 39.2513 30.4791 39.2283 30.3321 39.2154C29.9051 39.1779 29.8089 39.2198 29.6799 39.2761C29.5955 39.313 29.4969 39.356 29.2824 39.3869C29.2122 39.5169 29.1931 39.5805 29.1841 39.6106C29.1797 39.6253 29.1777 39.6321 29.1733 39.6346C29.1696 39.6367 29.1642 39.6359 29.1543 39.6345C29.129 39.6308 29.0739 39.6228 28.9415 39.6487C28.9138 39.7097 28.9015 39.7482 28.8928 39.7756C28.8865 39.7954 28.882 39.8095 28.8749 39.822C28.8577 39.8523 28.825 39.8738 28.7133 39.9473C28.696 39.9587 28.6768 39.9713 28.6554 39.9854C28.552 40.1239 28.3666 40.2661 28.1672 40.4191C28.0666 40.4962 27.9624 40.5761 27.8633 40.6597C18.6771 48.4114 14.6173 44.3901 7.51031 36.6584C8.11255 36.2622 39.6046 35.2307 43.1062 35.1345ZM53.3085 39.6599C53.3054 40.3816 44.539 39.8875 44.0853 39.7891C43.8081 39.6992 43.8501 39.0041 43.8813 38.4871C43.8914 38.3194 43.9004 38.1705 43.897 38.067C43.8907 37.8731 43.8822 37.6826 43.8737 37.4933C43.8537 37.0463 43.8341 36.6064 43.844 36.1469C43.6897 35.8349 43.6576 35.5864 43.755 35.1949C45.5513 34.8449 51.1239 34.9595 53.1811 35.0673C53.4307 35.732 53.7328 39.1383 53.3085 39.6599ZM6.10422 35.9375C5.95897 36.7489 6.75874 37.442 7.35474 37.9585C7.54062 38.1196 7.70668 38.2635 7.81807 38.3885C8.32349 38.804 8.7474 39.2655 9.1726 39.7983C16.7987 49.355 21.9067 45.6662 26.1113 42.6297C27.8106 41.4025 29.3623 40.2819 30.8731 40.1852C31.0077 40.1847 31.2961 40.1818 31.6986 40.1777C34.4084 40.1502 42.286 40.0702 43.1406 40.3313C43.8282 40.2213 45.53 40.3246 47.3932 40.4378C50.3048 40.6147 53.6104 40.8155 54.0538 40.2631L54.0218 39.5903C53.8219 39.3162 54.0413 36.3616 54.1188 35.5024C54.1387 35.3796 54.1629 35.2624 54.1857 35.1517C54.3021 34.5875 54.3831 34.1945 53.6848 34.1211C50.9253 34.2225 46.356 34.2828 41.1028 34.3521C27.521 34.5313 9.36795 34.7708 6.10422 35.9375Z" fill="white"/>
<path d="M45.9936 36.5206C45.4759 37.504 45.5065 37.8006 46.375 38.2336C47.3499 38.2393 47.8874 37.9956 47.6154 36.7957C47.0944 36.3193 46.788 36.3534 45.9936 36.5206Z" fill="white"/>
<path d="M51.2775 37.2126C50.5883 36.8721 49.6306 36.9264 50.0456 37.9573C50.1559 38.2311 50.4486 38.4649 50.7898 38.3978C51.3652 38.2845 51.3157 37.6441 51.2775 37.2126Z" fill="white"/>
<path fill-rule="evenodd" clip-rule="evenodd" d="M33.87 19.998C34.1421 20.4969 34.0116 20.975 33.6262 21.4145L33.87 19.998ZM25.6026 21.521C25.4733 21.3158 25.2318 21.1387 25.2017 20.7485C25.611 20.938 25.5902 21.0156 25.6026 21.521ZM35.2488 20.2468C36.1548 20.2532 37.1688 21.5251 37.4629 22.0614C36.9262 21.7775 36.7401 21.6175 36.1993 21.2285C35.8324 20.9644 35.2998 20.7604 35.2488 20.2468ZM31.4903 20.7C31.595 20.2968 31.6687 20.1245 31.8307 19.7528C32.0117 19.3374 31.9345 19.2245 32.4059 19.0118C32.508 19.9104 32.0307 20.4582 31.4903 20.7ZM29.3509 20.3047C29.1778 19.7753 29.242 19.0671 29.4781 18.6774C29.7439 18.9884 29.7859 19.5748 29.5893 20.0384C29.4109 20.459 29.4546 20.2284 29.3509 20.3047ZM25.377 19.8437C25.6235 19.3675 26.082 19.1425 26.6666 19.0497L26.8999 20.1788C26.5803 19.913 25.9642 19.9124 25.377 19.8437ZM27.0489 19.2951C27.6789 19.7312 27.7822 20.605 27.5711 21.0166C27.3163 20.6803 27.1219 19.7426 27.0489 19.2951ZM34.3254 19.1392C34.5516 18.6873 35.0238 18.7563 35.4904 18.811C35.1651 19.0171 34.7936 19.1187 34.3254 19.1392ZM24.5034 18.6699C24.0976 18.5694 24.2243 18.3259 24.0255 17.8346C24.3246 18.0536 24.5015 18.3051 24.5034 18.6699ZM32.7029 17.9725C32.5732 17.7664 32.4418 18.3195 32.5693 17.4795L32.7484 17.0724C32.7575 17.016 32.7912 17.0097 32.86 16.9849L32.7029 17.9725ZM29.8215 15.8819C29.9349 16.2282 29.9927 16.3429 29.9523 16.7371C29.8924 17.3202 29.6168 17.3552 29.4937 17.4056L29.8215 15.8819ZM27.0512 17.5194C26.9221 17.0472 26.7412 16.3379 26.8619 15.7943C27.2504 16.0597 27.3305 16.6868 27.2728 17.0682C27.2007 17.5445 27.2282 17.3214 27.0512 17.5194ZM29.0919 18.0285L27.9165 18.1852C28.0579 17.7512 28.0084 17.7172 28.451 17.6956C28.7622 17.2044 28.7795 16.326 27.9145 16.7271C27.4675 17.1426 28.1981 17.5534 27.4439 18.0578C27.1806 17.3454 28.2022 15.4159 26.554 14.9782C26.4151 15.3174 26.4851 15.4475 26.4993 15.8704L26.5337 16.3752L26.6974 17.217C26.8374 18.7747 26.8944 18.4389 26.4351 18.6799C26.089 18.8615 25.5089 19.1841 25.2641 19.2766C25.339 18.5776 26.4378 18.0628 25.4098 17.8436C24.8785 18.2072 25.2458 18.4331 24.9598 18.7717C24.9154 19.1163 24.81 18.3924 24.6142 18.0729C24.3643 17.6652 23.9929 17.0673 23.5557 17.4006C23.8259 18.0778 24.6581 19.6158 24.3271 20.2502C24.1407 20.6076 23.8689 21.1587 23.5815 21.4441L23.6231 22.18L23.8843 21.9743C23.9662 21.4796 24.2192 20.7649 24.6473 20.4878C24.8066 20.6877 25.5849 22.2049 25.7831 22.66C26.2982 22.3535 26.1065 21.8426 25.9271 21.3334C25.7597 20.858 25.4685 20.6285 25.3549 20.186C26.71 20.251 25.7894 20.5337 26.554 21.0071C26.8756 20.821 26.9422 20.8043 26.99 20.3609L27.4951 22.0956C28.5563 21.8784 27.7125 19.4495 27.3784 18.7416C27.896 18.543 28.4765 18.3771 29.0894 18.415L29.0456 21.2493C29.8116 21.1557 29.9216 19.5334 30.0277 18.7302C30.7995 19.0753 30.3059 19.337 30.3099 20.0606C30.7103 20.137 30.8776 20.102 31.1944 19.9669C31.0717 19.1258 30.6247 18.9765 30.378 18.4118C31.0197 18.3707 31.4733 18.4261 31.9904 18.7172L30.8068 21.5714C30.5772 22.1249 31.8221 21.0322 32.1315 20.5688C32.8115 19.8529 32.6402 19.9945 32.7469 18.9228C33.9405 19.1618 33.6443 19.9366 33.4105 20.9585C33.3845 21.4726 33.246 22.1781 33.5463 22.5968C34.1396 22.3336 34.2565 20.8223 34.33 19.7182C34.7788 19.9155 34.6943 20.0452 34.9119 20.4802C35.2502 21.1567 37.3704 22.6102 37.9994 22.6188C37.9889 21.7411 37.0167 20.9679 36.3951 20.4002C35.9118 19.959 35.2885 19.8416 34.7304 19.6135L34.9219 19.4565C35.4288 19.1318 36.8542 19.0534 37.3738 19.1774C37.3433 18.1125 35.1952 18.2243 34.4331 18.5472C33.9591 18.748 33.9093 19.2346 33.2987 18.6695L34.2066 17.9778L34.3068 17.2522C33.7079 17.2145 33.9661 17.1418 33.6971 17.4769L33.5883 18.0895L32.9161 18.2435C33.139 17.7137 33.2981 15.6453 32.5922 15.6679C32.3914 16.719 32.2583 17.353 32.0131 18.2526L29.8654 17.9437L30.1366 17.0634C30.1939 16.5124 30.223 16.1765 30.1361 15.6206C29.9789 14.6165 29.7733 14.8456 29.526 14.793C29.4064 15.9458 29.1958 16.9485 29.0919 18.0285Z" fill="white"/>
<path fill-rule="evenodd" clip-rule="evenodd" d="M8.3495 43.307C7.83185 44.2903 7.86239 44.5869 8.73087 45.0198C9.70584 45.0256 10.2433 44.7819 9.97128 43.582C9.45038 43.1056 9.14389 43.1398 8.3495 43.307Z" fill="white"/>
</svg>
