<svg width="80" height="50" viewBox="0 0 80 50" fill="none" xmlns="http://www.w3.org/2000/svg">
<path d="M77.6956 13.6663C76.734 13.1277 75.747 12.7385 74.8756 12.0448C73.8688 11.2383 73.0849 10.192 72.1966 9.26426C70.6568 7.65121 68.9338 5.89716 66.8865 4.93836C65.9834 4.5543 65.0507 4.24402 64.0975 4.01057C62.8313 3.67906 61.6681 3.03636 60.7135 2.1409C59.5855 1.12569 57.7835 -0.0276931 56.2409 0.000507042C54.329 0.0315272 51.9686 0.72807 50.2061 1.44435C48.1334 2.29036 47.1041 3.86393 45.4515 5.24856C45.2006 5.45589 44.939 5.6498 44.6676 5.82948C44.1572 5.9451 43.6411 6.00432 43.1307 6.14532C42.3382 6.36246 41.6022 6.78547 40.8465 7.09849C39.0116 7.86874 37.1106 8.47093 35.1669 8.89766C31.3092 9.72393 27.5191 11.461 23.5682 11.6838C22.0454 11.7684 20.5677 11.7515 19.1605 12.4142C18.1707 12.8823 17.2909 13.514 16.2531 13.8806C15.4494 14.1626 14.6034 14.3008 13.7969 14.5687C12.6096 14.9663 11.4704 15.4852 10.3057 15.9477C9.69844 16.1507 9.09496 16.3669 8.49524 16.5963C7.42283 16.9221 6.38408 17.3499 5.39322 17.8738L4.5303 18.2601C4.48054 18.2818 4.43926 18.3192 4.41277 18.3665C4.38629 18.4139 4.37606 18.4686 4.38365 18.5224L4.34417 18.5506C4.29059 18.5929 4.34417 18.6859 4.40058 18.6436L4.43723 18.7C4.34417 18.7451 4.24829 18.7931 4.15523 18.8382C3.30923 19.2076 2.34478 19.4022 1.55236 19.8478C0.537153 20.4315 0.00981044 21.7034 0.537153 22.8003C0.67477 23.0635 0.864895 23.2956 1.09578 23.4823C1.32666 23.6691 1.59339 23.8065 1.87948 23.886C2.29684 24.0299 2.81855 23.9763 3.21335 24.1483C3.80837 24.4077 3.67301 23.8353 3.57431 25.031C3.50099 25.9193 3.52073 25.8319 2.89469 26.2267C1.74694 26.9486 0.0577509 27.5267 0.00417058 29.1341C-0.0290648 29.6448 0.13732 30.1484 0.468236 30.5388C0.799153 30.9291 1.26874 31.1757 1.77796 31.2265C2.56474 31.2745 3.29795 30.8148 3.98321 30.5131C4.38647 30.3354 5.08302 29.9491 5.5455 30.0252C6.1095 30.1155 6.08412 30.1944 5.90928 30.7697C5.73037 31.1967 5.46321 31.5812 5.12532 31.8977C4.31033 32.8029 3.06671 33.9281 4.02833 35.2169C4.41185 35.7301 5.0379 35.9331 5.6442 36.0262C5.99792 36.0684 6.35395 36.0882 6.71017 36.0854C7.16983 36.0854 7.86073 35.9754 8.24144 36.1616C8.62214 36.3477 9.23972 37.2896 9.14948 37.769C9.00002 38.5811 6.46765 39.9855 7.96789 40.9048C9.3779 41.7678 10.8838 39.6669 12.1641 39.0436C12.0005 40.0081 10.0434 41.6832 9.62606 42.2218C9.14666 42.8619 8.71802 43.5726 8.66444 44.3904C8.56292 45.9893 10.0096 47.1709 11.555 47.0158C12.2336 46.9481 12.8642 46.6353 13.3287 46.136C13.7235 45.7214 14.3496 43.9843 14.8403 43.9476C15.5453 43.8941 14.9728 48.313 16.7861 48.5104C17.8972 48.6345 18.6811 47.4614 19.2959 46.7113C19.7237 46.1626 20.1952 45.6496 20.7059 45.1772C21.8339 44.1845 21.8762 45.0615 21.8706 46.1303C21.8706 47.1202 21.7606 49.0406 23.117 49.269C24.6596 49.5313 25.3928 47.577 26.1908 46.4123C26.2778 46.5971 26.4153 46.7535 26.5875 46.8633C26.7597 46.9731 26.9595 47.0319 27.1637 47.0327C27.6463 47.0164 28.1113 46.8476 28.492 46.5505C30.0618 46.6422 31.6318 46.375 33.083 45.7694C35.4602 44.757 37.6711 43.3244 40.1133 42.4812C42.4009 41.6588 44.6141 40.6427 46.729 39.4441C48.8327 38.2907 51.1226 37.597 53.215 36.3956C57.775 33.7702 62.1517 30.8205 67.0952 28.9367C69.3878 28.0653 71.7172 27.3124 73.9816 26.3705C74.6923 26.0885 75.8541 25.7755 76.4012 25.2002C76.9483 24.6249 77.2021 23.6717 77.5856 23.0203C78.6403 21.2268 79.7147 19.5601 79.9601 17.4536C80.1913 15.4683 79.4158 14.6223 77.6956 13.6663ZM19.0083 13.1982C21.0302 12.1689 23.2129 12.5919 25.3843 12.3776C27.1355 12.2027 28.8022 11.6359 30.4914 11.1791C32.3244 10.6799 34.1715 10.2907 36.0355 9.91005C37.6074 9.56858 39.1401 9.06681 40.6096 8.41262C39.9666 8.9033 39.3462 9.425 38.754 9.96644C36.8956 11.6585 35.3982 13.7453 33.881 15.7447C32.5753 17.4705 32.1411 19.9465 31.656 22.0248C31.5827 22.3407 31.5291 22.6537 31.4868 22.9639C30.8495 22.2025 30.5308 21.2888 29.7666 20.5669C28.7232 19.5827 27.6347 18.6183 26.5208 17.7158C25.9568 17.2534 25.373 16.8698 24.9698 16.2353C24.6878 15.7757 24.5045 15.3442 24.0758 14.9833C23.3483 14.3713 22.3613 14.1711 21.4306 14.1372C20.2808 14.0986 19.1296 14.1354 17.9846 14.2472C18.0128 14.1852 18.0438 14.126 18.0748 14.0639C18.1059 14.0019 17.9846 13.8947 17.9395 13.985C17.8943 14.0752 17.852 14.1711 17.8069 14.267C17.2965 14.3177 16.7861 14.3798 16.2813 14.4559C17.2131 14.088 18.1235 13.6681 19.0083 13.1982ZM33.0548 36.249C33.034 36.5748 32.9773 36.8973 32.8856 37.2106L32.8517 37.2388C32.5443 37.5603 31.5263 37.205 31.2246 37.174C30.726 37.1265 30.225 37.1086 29.7243 37.1204C29.7525 36.0854 29.6933 35.0392 29.6313 34.0184C29.6313 33.9112 29.4592 33.9084 29.4649 34.0184C29.51 35.0533 29.4846 36.0911 29.5241 37.1204H28.9601C28.9601 36.9907 28.9234 36.7961 28.9234 36.6889C28.9234 36.4069 28.9432 36.1249 28.946 35.8429C28.969 34.9295 28.8809 34.0166 28.6837 33.1244C28.664 33.0342 28.5286 33.0708 28.5484 33.1611C28.7 33.9032 28.77 34.6597 28.757 35.4171C28.757 35.7414 28.7401 36.0657 28.7232 36.3872C28.7232 36.4351 28.633 37.0499 28.6217 37.033C28.6107 37.0151 28.5943 37.0013 28.5747 36.9937C28.5552 36.986 28.5337 36.985 28.5136 36.9908C28.4934 36.9966 28.4757 37.0088 28.4631 37.0256C28.4506 37.0423 28.4439 37.0628 28.444 37.0837C28.193 37.0837 27.9505 37.0583 27.7165 37.0301C27.9421 36.0065 27.8546 34.8672 27.8462 33.8294C27.8426 33.81 27.8323 33.7924 27.8171 33.7798C27.8019 33.7671 27.7828 33.7602 27.763 33.7602C27.7432 33.7602 27.7241 33.7671 27.7089 33.7798C27.6937 33.7924 27.6834 33.81 27.6798 33.8294C27.6798 34.8587 27.7616 36.0008 27.5247 37.0104C27.3282 36.981 27.1334 36.9414 26.941 36.892C26.941 36.077 26.9015 35.262 26.8451 34.447C26.8451 34.3342 26.6618 34.3314 26.6674 34.447C26.7069 35.2422 26.7182 36.0319 26.721 36.8271C26.4973 36.7558 26.2795 36.6672 26.0696 36.562C26.1175 35.7329 26.0696 34.8897 26.0696 34.0607C26.0696 34.0397 26.0613 34.0196 26.0464 34.0048C26.0316 33.99 26.0116 33.9817 25.9906 33.9817C25.9697 33.9817 25.9496 33.99 25.9348 34.0048C25.92 34.0196 25.9117 34.0397 25.9117 34.0607C25.9117 34.8587 25.8637 35.6681 25.9117 36.4661C25.7164 36.3585 25.5281 36.2389 25.3477 36.108C25.3787 35.2197 25.3984 34.3314 25.3871 33.4403C25.3833 33.418 25.3717 33.3978 25.3544 33.3833C25.3371 33.3687 25.3152 33.3608 25.2927 33.3608C25.2701 33.3608 25.2482 33.3687 25.2309 33.3833C25.2136 33.3978 25.202 33.418 25.1982 33.4403C25.1982 34.2552 25.1079 35.0871 25.091 35.9078L24.9134 35.7611C24.7752 35.6399 24.6314 35.5158 24.5073 35.3917C24.4875 34.4385 24.6652 33.4431 24.6878 32.5125C24.6878 32.394 24.5129 32.3969 24.5045 32.5125C24.4622 33.3359 24.2648 34.2693 24.2422 35.1492C24.0307 34.9574 23.8192 34.7713 23.5908 34.6021C23.5908 34.3793 23.6387 34.1509 23.65 33.9761C23.6951 33.3331 23.729 32.6901 23.7713 32.0472C23.7713 31.9146 23.5739 31.9146 23.5654 32.0472C23.5118 32.817 23.4131 33.5869 23.3511 34.3568V34.4301C23.1315 34.2819 22.896 34.1589 22.6489 34.0635L22.5699 34.0381C22.5474 33.178 22.8378 32.2446 22.9817 31.4493C23.0014 31.345 22.8407 31.297 22.8181 31.4042C22.6574 32.1938 22.3613 33.0962 22.3443 33.9704L21.896 33.8576L21.9241 33.7815C21.9297 33.7594 21.9284 33.7361 21.9205 33.7148C21.9125 33.6934 21.8983 33.675 21.8797 33.6619C21.8611 33.6487 21.839 33.6416 21.8162 33.6413C21.7934 33.641 21.7711 33.6476 21.7521 33.6602C21.7593 33.3091 21.8114 32.9603 21.9072 32.6224C22.0088 32.0951 22.1554 31.5819 22.2992 31.0658C22.3059 31.0404 22.3023 31.0133 22.2891 30.9906C22.2759 30.9678 22.2541 30.9513 22.2287 30.9445C22.2033 30.9378 22.1762 30.9415 22.1535 30.9547C22.1307 30.9679 22.1142 30.9896 22.1075 31.015C21.8867 31.7198 21.7097 32.4374 21.5773 33.1639C21.5301 33.3614 21.5121 33.5647 21.5237 33.7674C21.2658 33.7179 21.0107 33.6549 20.7595 33.5784C20.7826 33.5705 20.8023 33.5547 20.815 33.5338C20.8277 33.5129 20.8326 33.4881 20.8289 33.4639C20.8252 33.4397 20.8131 33.4176 20.7948 33.4014C20.7764 33.3853 20.7529 33.376 20.7285 33.3754C20.4972 33.3472 21.5237 30.8374 21.6027 30.6456C21.645 30.5385 21.4617 30.4595 21.4165 30.5667C21.0471 31.4127 20.3675 32.5181 20.5226 33.4797C20.3435 33.4167 20.1787 33.3186 20.0378 33.1913C19.8969 33.064 19.7828 32.9099 19.702 32.7381C19.8666 32.0655 20.1198 31.4179 20.4549 30.812C20.8794 30.4212 21.3653 30.103 21.8931 29.8701C23.3113 29.5999 24.6892 29.1497 25.9934 28.5306C26.0436 28.5065 26.088 28.4719 26.1235 28.429C26.159 28.3862 26.1849 28.3362 26.1993 28.2824C27.6826 27.7438 29.1011 26.9317 30.5901 26.41C31.546 28.7788 32.0367 31.2688 32.643 33.742C32.6478 33.7635 32.6607 33.7824 32.6792 33.7945C32.6976 33.8066 32.7201 33.8111 32.7417 33.8069C32.6233 34.2834 32.5048 34.7572 32.392 35.2338C32.3582 35.3776 32.5782 35.4368 32.612 35.2958C32.7051 34.9236 32.7925 34.5513 32.8799 34.1678C33.023 34.8518 33.0817 35.5507 33.0548 36.249ZM23.5795 39.8614C23.9602 39.2157 24.3042 38.5473 24.6201 37.8677C24.6849 37.7267 24.4791 37.6054 24.4114 37.7464C24.0758 38.4486 23.7036 39.1282 23.306 39.7966C23.2979 39.775 23.2835 39.7564 23.2646 39.7432C23.2457 39.7301 23.2232 39.723 23.2002 39.723C23.1772 39.723 23.1547 39.7301 23.1358 39.7432C23.1169 39.7564 23.1025 39.775 23.0945 39.7966C23.0645 39.8643 23.0473 39.9369 23.0437 40.0109C22.7617 40.0786 22.4797 40.1293 22.1977 40.1745C22.6461 39.7853 22.914 39.2213 23.2214 38.725C23.2322 38.7056 23.2373 38.6836 23.2363 38.6615C23.2352 38.6393 23.2279 38.6179 23.2153 38.5997C23.2026 38.5815 23.1851 38.5672 23.1648 38.5584C23.1444 38.5497 23.122 38.5468 23.1001 38.5501C23.0851 38.5275 23.0645 38.5091 23.0403 38.4967C23.0161 38.4844 22.9891 38.4785 22.9619 38.4796C21.5602 38.5647 20.1535 38.4469 18.7855 38.1299C17.3755 37.7718 16.7353 36.7876 15.926 35.6765C14.1494 33.2372 15.644 31.0122 17.4178 29.1905C17.8831 29.5317 17.7985 29.7376 18.1453 29.9942C18.5198 30.2831 18.9926 30.4137 19.4623 30.358C18.8983 31.0855 18.2638 32.332 18.7037 33.178C19.1436 34.024 20.6777 34.306 21.487 34.5598C21.8196 34.6649 22.1423 34.7989 22.4515 34.9603C22.4638 34.9881 22.4856 35.0106 22.5129 35.024C22.5402 35.0374 22.5714 35.0408 22.601 35.0336C23.1668 35.3606 23.6762 35.7768 24.1097 36.2659C24.1407 36.2941 24.1689 36.3251 24.1971 36.3561C23.9151 36.562 23.6669 36.7791 23.4018 36.9935C22.8096 37.4729 22.2118 38.0679 21.456 38.2512C21.3291 38.2822 21.3827 38.4824 21.5124 38.4486C22.1046 38.2907 22.5389 37.9072 23.0042 37.5265C23.4695 37.1458 23.8502 36.8017 24.2986 36.4605C24.6025 36.7812 24.9306 37.0782 25.28 37.3488C25.2675 37.3606 25.2578 37.375 25.2518 37.3911C24.9444 38.1299 24.6878 38.8913 24.3324 39.6048C24.0899 39.7007 23.8333 39.7825 23.5795 39.8614ZM21.4729 39.2185C21.2643 39.554 21.0584 39.8896 20.8525 40.2252C20.8421 40.2422 20.8363 40.2617 20.8356 40.2816C18.6351 40.3538 16.4856 39.6095 14.8008 38.192C13.1088 36.7453 12.8268 34.4526 13.6728 32.4504C14.327 30.8994 15.7596 29.9773 17.0568 28.9903C17.123 29.0186 17.187 29.0516 17.2486 29.089C15.3563 30.8571 13.5995 33.257 15.3394 35.747C16.0275 36.734 16.803 37.9213 17.9366 38.4373C19.3467 39.0718 21.3207 39.0887 22.8491 38.8575C22.6265 39.2849 22.335 39.6727 21.9862 40.0052C21.8988 39.8868 21.7042 39.9883 21.7831 40.1237L21.8424 40.2252C21.5942 40.2534 21.346 40.2732 21.0979 40.2844L21.6619 39.3482C21.7465 39.2185 21.5491 39.0972 21.4729 39.2185ZM15.2689 42.8591C15.2245 42.8484 15.1792 42.8418 15.1336 42.8394C16.2362 42.2754 17.3473 41.7114 18.4386 41.1135L18.574 41.1445C17.57 41.7085 16.5492 42.2105 15.5171 42.7153C15.4663 42.7435 15.3789 42.7971 15.2689 42.8619V42.8591ZM13.7094 43.6092L13.9661 43.4711L13.8533 43.5895C13.8064 43.6022 13.758 43.6089 13.7094 43.6092ZM12.5532 34.3483C12.5532 33.8858 12.5307 33.4233 12.525 32.9637L12.7647 33.0088H12.8014C12.6743 33.4459 12.5912 33.8946 12.5532 34.3483ZM10.551 31.3929L10.5285 31.3788C9.79347 31.0205 9.19043 30.4392 8.80544 29.7178C8.03839 28.3276 8.20477 26.9514 8.57984 25.4596C8.9267 24.0806 9.34406 22.6396 10.3649 21.5962C11.1827 20.7502 13.2159 19.2951 14.6231 19.3402L14.3919 19.6222C13.0016 21.2973 9.70502 23.7422 11.132 26.3592C11.6057 27.2306 12.8522 27.9835 13.7405 28.3332C14.3676 28.5485 15.0214 28.6766 15.6835 28.7139C16.0542 28.7419 16.4221 28.8004 16.7833 28.8887C15.3733 29.7489 13.9068 30.6231 13.1511 32.1092C13.1107 32.0906 13.068 32.0774 13.0242 32.0697C12.1703 31.9704 11.3365 31.7422 10.551 31.3929ZM19.6822 15.2286L20.4408 15.1948C22.1892 15.1271 23.0127 15.3668 24.1068 16.7317C24.6509 17.3736 25.281 17.9373 25.9793 18.4068C26.377 18.6888 26.7689 19.0018 27.1581 19.3063C28.004 20.345 28.7731 21.444 29.4592 22.5945C29.5185 22.6988 29.6736 22.6086 29.62 22.5014C29.197 21.6554 28.5512 20.9222 27.9787 20.1664L27.5783 19.6363C28.0972 20.048 28.6132 20.4625 29.1321 20.8714C29.6225 21.2191 30.0769 21.615 30.4885 22.053C30.5551 22.1342 30.6173 22.2189 30.6747 22.3068C30.6502 23.0344 30.5162 23.7541 30.277 24.4416C30.0853 25.0056 29.8569 25.7811 29.431 26.2379C29.0842 26.3705 28.7458 26.5199 28.4102 26.6609C28.565 26.3979 28.6934 26.1202 28.7937 25.8319C29.0221 25.2904 29.2252 24.7433 29.4226 24.1934C29.4931 24.2132 29.589 24.1765 29.5777 24.0891C29.5689 24.0169 29.5557 23.9453 29.5382 23.8748C29.5636 23.7986 29.5946 23.7225 29.62 23.6463C29.6454 23.5702 29.5015 23.5053 29.4649 23.6012V23.6181C29.2373 23.137 28.9763 22.6725 28.6837 22.2279C28.2071 21.3819 27.7559 20.4992 27.3104 19.625C27.2512 19.5094 27.082 19.6109 27.1384 19.7237C27.5162 20.4766 27.8941 21.2296 28.2917 21.9797C28.6273 22.6114 29.1547 23.2882 29.3267 23.9932C29.1603 24.4416 28.9939 24.8871 28.8078 25.3271C28.7091 25.5639 28.1423 27.0191 27.8546 26.6017C27.7813 26.4974 27.6149 26.6017 27.6798 26.7032L27.8039 26.9232C27.4457 27.0698 27.0791 27.2052 26.7097 27.3377C26.7718 27.2052 26.8225 27.0557 26.8846 26.8922C27.1468 26.2041 27.4627 25.5329 27.7306 24.8505C27.7583 24.9856 27.779 25.1221 27.7926 25.2594C27.7926 25.4088 28.0323 25.4145 28.0295 25.2594C28.0295 24.5121 27.6488 23.7789 27.3781 23.0908C27.0594 22.2786 26.7182 21.4721 26.3911 20.6599C26.3375 20.5274 26.1232 20.5838 26.1767 20.7192C26.4587 21.4411 26.7577 22.1602 27.0397 22.8849C27.289 23.451 27.5028 24.0321 27.6798 24.6249C27.6587 24.6245 27.638 24.6304 27.6204 24.642C27.6028 24.6536 27.5891 24.6702 27.5811 24.6897C27.3386 25.2876 27.0904 25.8798 26.8282 26.4664C26.7106 26.817 26.5475 27.1507 26.3431 27.459L26.095 27.5436C26.0532 27.5213 26.0181 27.4882 25.9934 27.4477C25.9117 27.3321 25.7114 27.4477 25.8017 27.5605L25.844 27.631L25.7537 27.662C25.7084 27.6625 25.6635 27.6711 25.6212 27.6874L25.232 27.8341L24.8626 27.9469C25.1684 27.5815 25.4097 27.1666 25.5761 26.7202C25.6748 26.5115 25.7819 26.3028 25.8863 26.0941L25.9455 26.1505C25.9585 26.1634 25.9742 26.1732 25.9915 26.1792C26.0088 26.1852 26.0272 26.1872 26.0454 26.185C26.0636 26.1828 26.0811 26.1766 26.0965 26.1667C26.1119 26.1568 26.1249 26.1436 26.1344 26.128C26.186 26.0374 26.2165 25.9364 26.2238 25.8324C26.2312 25.7285 26.2151 25.6242 26.1767 25.5273L26.4587 25.0028C26.5208 24.8815 26.3403 24.7772 26.2754 24.8956L26.0893 25.2453L26.0075 25.0225C25.6917 24.0609 25.4012 23.0908 25.0798 22.132C25.0346 21.9966 24.8231 22.0559 24.8654 22.1912C25.1305 22.9949 25.3928 23.7986 25.6353 24.6108C25.7086 24.8561 25.7904 25.0958 25.8637 25.3383C25.8637 25.3891 25.9088 25.4624 25.937 25.5358L25.8299 25.736C25.7283 25.6514 25.5845 25.7867 25.6832 25.8826L25.7368 25.9362C25.6522 26.0969 25.562 26.2577 25.4802 26.4184C25.3029 26.8559 25.0738 27.2706 24.7977 27.6536L24.7019 27.2334C24.7244 27.0952 24.5186 27.0304 24.4847 27.1742C24.4413 27.3086 24.4315 27.4516 24.4561 27.5907C24.4807 27.7298 24.5389 27.8608 24.6257 27.9722C24.6396 27.9885 24.6558 28.0028 24.6737 28.0145C24.0448 28.2063 23.4103 28.3896 22.7843 28.5616L22.2569 28.7111C22.0511 28.7506 21.8452 28.7872 21.6337 28.8182C21.1458 28.8859 20.6213 29.0495 20.1024 29.1369C20.9738 27.9948 21.5688 26.6271 22.1385 25.3271C22.1977 25.1917 21.9975 25.0733 21.9382 25.2086C21.6224 25.908 21.2981 26.6045 20.9343 27.2813C20.7595 27.6085 20.579 27.9356 20.3872 28.2514C20.2951 28.4037 20.2011 28.5532 20.1052 28.6998C19.936 29.1877 19.7725 29.2328 19.6174 28.8295C19.6343 28.6857 19.3861 28.6519 19.3636 28.7957C19.3367 28.924 19.3367 29.0565 19.3636 29.1849C19.0947 29.1724 18.8328 29.0961 18.5993 28.9621L18.4753 28.8859C18.6235 28.75 18.7475 28.5898 18.8419 28.4122C19.2395 27.7805 19.6174 27.1432 19.9699 26.4776C20.0263 26.3677 19.8627 26.269 19.8035 26.3818C19.5666 26.8189 19.3213 27.2503 19.0562 27.6705C18.8673 27.9722 18.6078 28.5588 18.244 28.7308C17.948 28.5171 17.6401 28.3204 17.3219 28.1414C17.9169 27.38 18.3061 26.4946 18.746 25.6344C18.8109 25.5047 18.6163 25.3891 18.5486 25.5188C18.1002 26.3789 17.7026 27.2842 17.0765 28.0286C17.0286 28.0089 16.9807 27.9863 16.9299 27.9694C16.8902 27.8739 16.8813 27.7685 16.9045 27.6677C16.9045 27.5154 16.6874 27.521 16.6705 27.6677C16.6636 27.7418 16.6636 27.8164 16.6705 27.8905C16.5689 27.8651 16.4618 27.8425 16.349 27.8256C15.2041 27.6508 14.2734 27.6169 13.2949 26.9796C13.6925 26.8273 13.6982 26.5369 13.8589 26.1731C14.1409 25.4934 14.5047 24.842 14.8008 24.168C14.8516 24.0496 14.6795 23.9481 14.626 24.0665C14.3909 24.5102 14.1635 24.9548 13.9435 25.4004C13.8392 25.6091 13.7292 25.8178 13.622 26.0264C13.5596 26.24 13.4644 26.4426 13.34 26.6271V26.4889C13.34 26.3423 13.106 26.3395 13.1088 26.4889C13.1116 26.6384 13.1088 26.7173 13.1088 26.8301C12.6013 26.5024 12.2304 26.0012 12.0654 25.4201L12.1302 25.3327C12.1463 25.3163 12.1563 25.2949 12.1586 25.272C12.1609 25.2491 12.1554 25.2262 12.1429 25.2068C12.1305 25.1875 12.1119 25.173 12.0901 25.1656C12.0683 25.1583 12.0447 25.1585 12.0231 25.1663C11.8595 23.4292 14.0422 21.5426 15.0687 20.1382C16.3236 18.3983 17.6772 16.2466 19.6822 15.2286ZM16.4984 17.1236L16.7579 16.633C16.9891 16.2128 17.2175 15.787 17.4375 15.3611C17.8549 15.3273 18.2722 15.2991 18.6896 15.2765C17.8748 15.7845 17.137 16.4065 16.4984 17.1236ZM31.4755 25.7303C30.9309 25.7748 30.3948 25.8934 29.8822 26.0828C30.4038 24.9883 30.7374 23.8138 30.8692 22.6086C30.9839 22.8238 31.1313 23.0197 31.3063 23.1895C31.3256 23.2086 31.3501 23.2215 31.3767 23.2266C31.4034 23.2316 31.4309 23.2285 31.4558 23.2177C31.3721 24.0535 31.3787 24.8959 31.4755 25.7303ZM30.7367 26.3395C30.9933 26.252 31.2556 26.1731 31.5207 26.1082C31.5545 26.3536 31.594 26.5989 31.6363 26.8414C31.492 27.4557 31.4756 28.0931 31.5883 28.7139C31.3402 27.9102 31.0582 27.1178 30.7367 26.3395ZM16.2926 15.4627C16.6169 15.4288 16.944 15.3978 17.2711 15.3724C16.8527 16.2463 16.3672 17.0863 15.8188 17.885C15.5368 18.2263 15.2548 18.5731 14.9728 18.9087C14.8892 18.8802 14.8033 18.8585 14.7162 18.8439C15.1279 18.4688 15.2548 17.6397 15.4691 17.1518C15.7229 16.5709 15.9908 16.0097 16.2926 15.4627ZM3.22181 29.9801C2.31094 30.4257 0.159271 30.8825 0.751474 28.7985C0.915035 28.2345 1.75822 27.7805 2.24608 27.5267C3.11183 27.0811 4.12985 26.6807 4.80384 25.939C5.85852 24.78 5.26068 23.7168 3.87605 23.3869C3.54893 23.3079 3.21335 23.2995 2.88059 23.2487H2.85521C3.3765 23.0517 3.88757 22.8287 4.38647 22.5804C5.0943 22.2786 5.8134 21.9995 6.53533 21.7344C6.44213 21.9193 6.33759 22.0982 6.2223 22.2702C6.1518 22.3689 6.30126 22.476 6.38587 22.3943C6.59195 22.1746 6.74614 21.9115 6.83707 21.6244C7.37663 21.4251 7.91619 21.2315 8.45576 21.0435C8.69828 20.956 8.5883 20.5641 8.3486 20.6571L8.03275 20.784C8.29413 20.24 8.50647 19.6738 8.66726 19.092C8.71802 18.9538 8.49806 18.8946 8.4473 19.0328C8.21323 19.6645 8.06378 20.409 7.62103 20.9391L7.52233 20.9814L7.47157 20.925C7.38979 20.8376 7.23469 20.9532 7.30237 21.0519L6.97807 21.1873C7.19521 20.5866 7.40953 19.986 7.62949 19.3853C7.66897 19.2753 7.49695 19.233 7.45465 19.3374C7.21213 19.9606 7.00345 20.6515 6.72709 21.2916C6.2787 21.4749 5.83032 21.6554 5.38476 21.8556C4.61208 22.1912 3.45869 22.9836 2.48014 23.1557C0.850175 22.6734 0.452553 20.9448 2.10226 19.969C2.38426 19.8083 5.28888 18.6577 5.28888 18.6718C5.28888 18.779 5.46372 18.7818 5.45808 18.6718V18.5788C5.45935 18.5685 5.45935 18.5581 5.45808 18.5478C7.78741 17.6538 10.0434 16.6583 12.5025 16.0943C13.2047 15.9251 13.9125 15.7954 14.6288 15.6854C14.217 16.664 13.8533 17.6594 13.3964 18.6211C13.3175 18.779 13.56 18.92 13.6333 18.7593C14.093 17.7582 14.4483 16.7176 14.86 15.6967C14.8641 15.682 14.8641 15.6664 14.86 15.6516C15.2633 15.5924 15.6665 15.5388 16.0726 15.4965C15.8301 15.9195 15.6045 16.3538 15.3958 16.7993C15.2125 17.1913 14.9954 18.0514 14.6852 18.4914C14.6647 18.4872 14.6436 18.4872 14.6231 18.4914C14.6683 18.3645 14.6908 18.2094 14.7388 18.0881C14.9305 17.5382 15.173 16.9996 15.3986 16.4638C15.4466 16.3481 15.2464 16.2635 15.1956 16.3792C15.0349 16.7401 14.8769 17.1011 14.7247 17.4649C14.657 17.6256 14.5893 17.7835 14.5244 17.9443C14.4596 18.105 14.3524 18.4942 14.2255 18.5816C14.2016 18.5958 14.1836 18.6181 14.1748 18.6445C14.166 18.6708 14.1671 18.6995 14.1777 18.7252C14.1883 18.7509 14.2078 18.7719 14.2326 18.7843C14.2575 18.7968 14.286 18.7999 14.3129 18.7931C14.3819 18.7769 14.4458 18.744 14.4991 18.6972C14.49 18.7162 14.4853 18.7369 14.4853 18.7578C14.4853 18.7788 14.49 18.7995 14.4991 18.8185C13.763 18.7677 12.8916 19.0779 12.1133 19.4699C12.6209 18.5985 12.8324 17.5579 13.1511 16.6132C13.1934 16.4807 12.9903 16.4271 12.9452 16.5568C12.6221 17.5763 12.2311 18.5731 11.7749 19.5404C11.7667 19.5576 11.7624 19.5764 11.7624 19.5954C11.7624 19.6144 11.7667 19.6332 11.7749 19.6504C11.5691 19.766 11.3717 19.8816 11.1912 19.9972C11.379 19.7109 11.5207 19.3969 11.6114 19.0666C11.7947 18.559 11.978 18.0514 12.1556 17.5438C12.2064 17.4028 11.9864 17.3464 11.9357 17.4818C11.789 17.8766 11.6537 18.2714 11.4957 18.6634C11.3807 19.1026 11.196 19.5206 10.9487 19.9014C10.9353 19.9184 10.9261 19.9383 10.9219 19.9595C10.9176 19.9807 10.9184 20.0026 10.9242 20.0235C10.9299 20.0443 10.9405 20.0635 10.955 20.0795C10.9696 20.0956 10.9877 20.1079 11.0079 20.1157C10.8612 20.2116 10.7259 20.3018 10.6074 20.3977C9.03386 21.5257 8.3204 23.1669 7.84663 25.0028C7.56463 26.1505 7.35877 27.2588 7.50541 28.3304H7.48849C6.99217 28.587 6.48175 28.8183 5.9685 29.041C5.02662 29.0326 3.85913 29.6671 3.22181 29.9801ZM8.6165 39.7543C8.66162 39.4864 9.1805 39.1 9.32714 38.9083C10.0829 37.9833 10.7174 36.7397 9.60914 35.8063C9.2605 35.5319 8.85482 35.3392 8.42192 35.2423C8.82735 35.1705 9.22362 35.0542 9.6035 34.8954C10.2314 34.6578 10.8388 34.3692 11.4196 34.0325C11.4438 34.0135 11.4603 33.9865 11.4661 33.9563C11.4718 33.9262 11.4665 33.895 11.451 33.8685C11.4355 33.8419 11.4109 33.822 11.3818 33.8122C11.3527 33.8024 11.321 33.8035 11.2927 33.8153C10.7307 34.1442 10.1465 34.4335 9.54428 34.6811C9.44558 34.7177 8.21041 35.152 8.19631 35.0589C8.18221 34.9659 7.99891 34.98 8.01019 35.0843V35.1548L7.82125 35.1266C7.29673 35.0533 6.67351 35.1435 6.16026 35.0251C4.8687 34.7234 5.06328 33.6461 5.76828 32.8537C6.36331 32.1825 7.84381 30.3157 6.93577 29.3822C6.79724 29.2472 6.62633 29.1501 6.43945 29.1002C6.81733 28.9395 7.18675 28.7675 7.54771 28.5785C7.65106 29.1207 7.84153 29.6426 8.11172 30.1239C8.58397 30.9992 9.30532 31.7146 10.1844 32.1797C10.0524 32.6978 9.84327 33.193 9.56402 33.6489C9.49916 33.7392 9.64298 33.852 9.7163 33.7674C9.89762 33.5208 10.0262 33.2395 10.0942 32.9411L10.3226 32.253C10.9653 32.5612 11.6448 32.7858 12.3446 32.9214C12.3446 33.57 12.3784 34.2186 12.3671 34.8672C12.3671 35.1689 12.1415 36.9258 12.1556 36.9314C12.0456 36.8863 11.9921 37.0527 12.0795 37.1119L12.15 37.1627C12.1643 37.1716 12.1806 37.1771 12.1974 37.1786C12.2142 37.18 12.2312 37.1775 12.2469 37.1712C12.2625 37.1648 12.2765 37.1549 12.2876 37.1421C12.2987 37.1294 12.3066 37.1142 12.3107 37.0978C12.4587 36.5052 12.5401 35.898 12.5532 35.2874C12.5989 36.0594 12.8105 36.8126 13.1736 37.4954L12.3474 37.9861C11.5014 38.1356 10.9571 38.6545 10.317 39.1903C10.0998 39.3708 8.43884 40.8118 8.6165 39.7543ZM10.9402 45.7976C8.74622 45.2674 10.551 42.8506 11.2814 41.9708C11.335 41.9031 11.3942 41.8354 11.4591 41.7621C12.1866 41.2104 12.9465 40.7028 13.7348 40.2421C13.8786 40.1575 13.7348 39.9319 13.6051 40.0194C13.089 40.3408 12.5871 40.6821 12.0936 41.0346C12.824 40.1688 13.5233 39.1226 12.9396 38.1948C12.8934 38.1221 12.828 38.0635 12.7506 38.0256C12.9339 37.9241 13.1144 37.8197 13.2949 37.7154C13.459 37.986 13.6478 38.2409 13.8589 38.4768C14.9831 39.7118 16.4419 40.5935 18.0579 41.0148C16.49 41.8975 14.891 42.7266 13.3259 43.6149C13.3057 43.6268 13.2911 43.6463 13.2853 43.6691C13.2795 43.6918 13.2829 43.7159 13.2949 43.7361C13.3069 43.7563 13.3264 43.7709 13.3491 43.7768C13.3719 43.7826 13.396 43.7791 13.4162 43.7672L13.5205 43.7108C13.5704 43.7471 13.6285 43.7704 13.6897 43.7784L13.5825 43.9082C12.8832 44.7711 12.3446 46.1388 10.9402 45.7976ZM29.0616 44.8218C28.9579 44.8362 28.8603 44.8792 28.7796 44.9459C28.0887 45.5099 27.3217 46.0909 26.783 45.149C26.7392 45.0761 26.6794 45.0141 26.6082 44.9676C26.537 44.9211 26.4562 44.8913 26.3718 44.8805C26.2874 44.8696 26.2017 44.878 26.1211 44.905C26.0404 44.9319 25.9669 44.9768 25.906 45.0362C25.3053 45.5494 25.06 46.2149 24.6624 46.8748C24.5073 47.1258 23.8925 48.1974 23.5034 48.1495C22.7504 48.0592 22.8463 47.0919 22.8209 46.5815C22.7786 45.7694 23.0099 44.2663 22.0567 43.8348L23.2101 43.2708C23.1875 43.4287 23.1621 43.5867 23.1396 43.7474C23.1377 43.7553 23.1377 43.7635 23.1395 43.7713C23.1412 43.7792 23.1447 43.7866 23.1498 43.7929C23.1548 43.7992 23.1612 43.8043 23.1684 43.8079C23.1757 43.8114 23.1837 43.8132 23.1917 43.8132C23.1998 43.8132 23.2078 43.8114 23.2151 43.8079C23.2223 43.8043 23.2287 43.7992 23.2337 43.7929C23.2387 43.7866 23.2423 43.7792 23.244 43.7713C23.2458 43.7635 23.2458 43.7553 23.2439 43.7474C23.2637 43.5669 23.2947 43.3865 23.3201 43.206L24.104 42.8281C24.0758 42.9719 24.0476 43.1101 24.0138 43.2539C24.0059 43.2823 24.0097 43.3127 24.0242 43.3383C24.0388 43.364 24.0629 43.3828 24.0913 43.3907C24.1198 43.3985 24.1501 43.3948 24.1758 43.3802C24.2014 43.3657 24.2203 43.3416 24.2281 43.3131C24.2789 43.1129 24.3212 42.9099 24.3606 42.704C24.5834 42.5968 24.809 42.4897 25.0318 42.3769C25.1672 42.312 25.0487 42.0949 24.9134 42.1767L24.4086 42.4276C24.4875 41.9398 24.5496 41.4491 24.6116 40.9612C24.6116 40.8456 24.4255 40.8174 24.4086 40.933C24.3324 41.4745 24.2591 42.0131 24.1604 42.5489L23.3567 42.9437C23.3906 42.6984 23.4188 42.453 23.4582 42.2105C23.4582 42.1626 23.3962 42.1428 23.3877 42.1908C23.337 42.4728 23.2919 42.7266 23.2496 42.9973L21.7691 43.722C20.2716 43.44 18.8221 46.0598 18.0212 46.8974C16.3574 48.6401 16.239 45.5607 16.1262 44.6047C16.0698 44.1281 16.0811 43.4259 15.6806 43.0678C15.6315 43.023 15.5787 42.9824 15.5227 42.9465C16.6084 42.4079 17.7195 41.9482 18.7601 41.2968C18.7814 41.2848 18.7984 41.2663 18.8085 41.244C18.8187 41.2217 18.8214 41.1967 18.8165 41.1727C19.8632 41.3681 20.9347 41.3919 21.989 41.2432C21.9016 41.4717 21.817 41.7029 21.7267 41.9313C21.5463 42.3797 21.4081 42.8901 21.0189 43.2031C20.9202 43.2849 21.0528 43.457 21.1571 43.3808C21.4462 43.1372 21.653 42.8102 21.7493 42.4446C21.9101 42.0357 22.0595 41.6239 22.2062 41.2094C23.6415 40.9795 24.9978 40.3983 26.1542 39.5174C26.4982 39.2523 26.0611 38.7278 25.703 38.9308C25.3705 39.1164 25.0278 39.283 24.6765 39.43C24.9585 38.7842 25.1841 38.1102 25.4435 37.456C25.6236 37.5815 25.812 37.6946 26.0075 37.7944C27.488 38.5755 29.2336 38.161 30.841 38.2991C30.7593 38.9308 30.6803 39.5653 30.6352 40.2026C30.6589 40.651 30.6523 41.1004 30.6154 41.5478C30.5308 41.5027 30.3927 41.5816 30.4321 41.6916L30.5083 41.9003C30.5162 41.9246 30.5309 41.9462 30.5507 41.9625C30.5704 41.9788 30.5944 41.9892 30.6197 41.9924C30.6451 41.9957 30.6709 41.9917 30.6941 41.9808C30.7173 41.97 30.737 41.9529 30.7508 41.9313C30.9679 41.6211 30.8439 41.1615 30.841 40.8033C30.8506 39.9701 30.9222 39.1387 31.0554 38.3161C31.2866 38.3443 31.5122 38.3866 31.7322 38.426C31.625 39.2861 31.5263 40.1491 31.3627 41.0007C31.3374 41.1474 31.5601 41.2038 31.5827 41.0628C31.7152 40.1942 31.7857 39.32 31.8844 38.4486C32.0569 38.4808 32.2311 38.5025 32.4061 38.5135C32.1523 39.1987 32.0988 39.8671 31.9155 40.558C31.6927 41.404 31.0102 42.0498 30.6239 42.8366C30.2722 43.6154 29.7359 44.2968 29.0616 44.8218ZM76.2574 23.4489C75.888 24.1455 75.7639 24.498 75.0307 24.9097C74.007 25.4737 72.7944 25.8544 71.6974 26.2633C69.6529 27.0304 67.5548 27.6479 65.5329 28.477C63.6593 29.2595 61.8276 30.1386 60.0451 31.1109C60.4794 30.6259 60.6909 29.7799 60.9109 29.2723C61.4128 28.1104 61.8697 26.9288 62.3209 25.7473C62.3604 25.6401 62.1912 25.595 62.1488 25.6993C61.7456 26.7202 61.3367 27.7382 60.8968 28.7421C60.6148 29.3879 60.2284 30.8684 59.5403 31.1955C59.5239 31.2055 59.51 31.2192 59.4997 31.2354C59.4894 31.2517 59.4831 31.2701 59.4812 31.2893C59.4793 31.3084 59.4818 31.3278 59.4887 31.3458C59.4955 31.3637 59.5064 31.3799 59.5206 31.3929C57.5917 32.4504 55.6967 33.5784 53.8129 34.7064C52.9564 35.2104 52.0734 35.6679 51.1677 36.077C52.5777 33.7138 53.2602 30.8402 54.0385 28.2289C54.0418 28.2058 54.0366 28.1823 54.0238 28.1628C54.0111 28.1433 53.9916 28.1291 53.9692 28.1228C53.9467 28.1166 53.9227 28.1188 53.9018 28.129C53.8808 28.1391 53.8642 28.1566 53.8552 28.1781C53.4491 29.5092 53.0402 30.843 52.5749 32.1571C52.4339 32.5519 51.1339 36.0008 50.9054 35.8514C50.8011 35.7837 50.6686 35.9472 50.7701 36.0262L50.9421 36.1616H50.959C49.831 36.6804 48.6748 37.1599 47.5214 37.6985C47.0082 37.9382 46.509 38.1948 46.0155 38.4599C46.416 37.9777 46.5795 37.3967 46.839 36.7679C47.3466 35.5609 47.8091 34.3342 48.249 33.1019C48.2913 32.975 48.0939 32.9214 48.0488 33.0454C47.6794 34.1001 47.2845 35.1436 46.8559 36.1757C46.6613 36.6466 46.4639 37.1147 46.2919 37.5857C46.165 37.9128 45.8097 38.8208 45.4459 38.3471C45.3782 38.2597 45.2344 38.3725 45.2936 38.4655L45.4854 38.7475C44.6901 39.179 43.9005 39.6217 43.094 40.0363C43.5057 39.4356 43.7341 38.5191 43.94 37.9692C44.4674 36.6156 44.9157 35.231 45.381 33.8548C45.4177 33.742 45.2429 33.6969 45.2034 33.8069C44.8058 34.9518 44.4194 36.0995 43.9908 37.2332C43.7736 37.7972 43.548 38.3612 43.3083 38.9252C43.2038 39.1917 43.0793 39.45 42.9361 39.6979C42.8007 39.915 42.6287 40.4423 42.4369 40.0419C42.3862 39.9376 42.2057 40.0137 42.248 40.1209L42.358 40.3888C41.9886 40.5664 41.6107 40.7356 41.23 40.8936C41.5656 40.2309 41.794 39.4666 42.0309 38.8519C42.7105 37.1599 43.3055 35.4171 43.9146 33.6912C43.94 33.6179 43.8808 33.5728 43.8188 33.5756C43.5368 32.6591 43.0348 31.8272 42.592 30.9812C42.5328 30.8684 42.3608 30.9671 42.42 31.0827C42.8899 31.9227 43.3007 32.7943 43.6496 33.6912C43.6572 33.7133 43.6721 33.7322 43.6919 33.7448C43.1673 35.1999 42.6513 36.6607 42.0844 38.0989C41.8165 38.7757 41.5204 39.4384 41.2554 40.1124C41.1353 40.4358 40.995 40.7514 40.8352 41.0571C40.2712 41.2865 39.7156 41.5262 39.1685 41.7762C39.8707 40.9302 40.2684 39.8022 40.6603 38.8152C41.2018 37.4419 41.6276 36.029 42.0534 34.619C42.0873 34.5062 41.9096 34.4583 41.8758 34.5711C41.4979 35.7893 41.1228 37.0132 40.6716 38.2089C40.2204 39.4046 39.7241 40.792 38.8668 41.8016C38.8546 41.8194 38.848 41.8406 38.848 41.8622C38.848 41.8839 38.8546 41.905 38.8668 41.9229C37.5301 42.5517 36.247 43.2455 34.9188 43.9674C33.7203 44.6103 32.3977 45.3774 31.0751 45.7045C30.4914 45.845 29.8932 45.9169 29.2928 45.9188L29.5749 45.6594C29.6278 45.6164 29.6707 45.5623 29.7004 45.5009C29.7301 45.4395 29.746 45.3723 29.7469 45.3041C30.7987 44.6273 31.2725 43.6459 32.0847 42.5574C32.9307 41.4294 33.1732 40.1744 33.5624 38.8603C33.5949 38.895 33.6358 38.9209 33.681 38.9355C33.7263 38.9502 33.7745 38.9532 33.8213 38.9442C33.868 38.9352 33.9117 38.9145 33.9483 38.884C33.9848 38.8536 34.0131 38.8144 34.0305 38.7701C34.6988 36.3167 34.7327 34.0945 34.4225 31.5734C34.3943 31.3365 34.022 31.3281 34.0474 31.5734C34.1813 32.935 34.1813 34.3065 34.0474 35.6681C33.9551 34.8229 33.7659 33.9912 33.4834 33.1893C33.4157 32.9891 33.3452 32.786 33.2719 32.5773C33.2888 32.5097 33.3029 32.442 33.3198 32.3743C33.3242 32.3543 33.3224 32.3334 33.3146 32.3145C33.3069 32.2955 33.2937 32.2794 33.2766 32.2681C33.2595 32.2568 33.2394 32.2509 33.219 32.2513C33.1985 32.2516 33.1786 32.2581 33.1619 32.2699C32.7304 31.0743 32.2426 29.7658 32.0508 28.4911C32.1016 28.6801 32.1523 28.8718 32.2059 29.0551C32.2214 29.0946 32.251 29.127 32.2889 29.146C32.3269 29.165 32.3705 29.1693 32.4114 29.1581C32.4523 29.147 32.4877 29.121 32.5107 29.0854C32.5336 29.0497 32.5426 29.0068 32.5359 28.9649C31.9944 26.5679 31.7181 24.3034 32.4372 21.9149C33.0378 19.9126 33.5454 17.6369 34.9047 16.0323C36.1004 14.6223 37.1607 13.091 38.4664 11.7684C40.1405 10.0865 42.0384 8.6432 44.1064 7.47919C45.8548 6.46681 46.9518 5.22318 48.4154 3.87239C50.003 2.42572 52.1604 1.96888 54.1767 1.44154C55.3047 1.14544 56.3565 0.801389 57.524 1.10877C58.5425 1.38 59.4832 1.88609 60.2707 2.58646C61.7174 3.84419 63.0372 4.35743 64.8532 4.94399C69.2891 6.37938 71.0375 10.584 74.5231 13.2179L74.571 13.2489C75.2253 14.9974 75.6511 16.8078 76.17 18.607C76.1821 18.6349 76.2038 18.6575 76.2312 18.6708C76.2586 18.684 76.2898 18.687 76.3192 18.6791C76.3486 18.6713 76.3742 18.6531 76.3913 18.6279C76.4084 18.6028 76.4159 18.5723 76.4125 18.5421C76.0143 16.8419 75.5276 15.1636 74.9545 13.514C76.4153 14.4051 78.5585 14.9381 79.0125 16.7147C79.554 19.0018 77.2303 21.6046 76.2574 23.4489Z" fill="#515257"/>
<path d="M13.6569 30.4072C13.6908 30.3367 13.5977 30.2521 13.5413 30.317C12.9604 31.0022 11.2853 29.3525 10.9215 28.9267C10.0755 27.9341 9.94015 26.8314 9.96271 25.5681C9.96271 25.2466 9.51433 25.2635 9.47767 25.5681C9.26899 27.3193 9.66661 28.7406 11.0935 29.8629C11.5391 30.2154 13.2057 31.2983 13.6569 30.4072Z" fill="#515257"/>
<path d="M28.2771 41.4155H28.2602C28.2236 40.4933 28.17 39.5768 28.0995 38.6547C28.0995 38.5249 27.8908 38.5249 27.8993 38.6547C27.9528 39.5007 28.0177 40.3636 28.0374 41.2181V41.5226C27.8344 41.6185 27.6314 41.7172 27.4311 41.8046C27.3719 41.0319 27.2958 40.2592 27.2422 39.4922C27.2422 39.3709 27.0448 39.3681 27.0504 39.4922C27.0956 40.2959 27.1632 41.1081 27.2084 41.9231C26.963 42.0528 26.7177 42.1882 26.4752 42.3292C26.4611 41.8215 26.4752 41.3111 26.4752 40.8092C26.4712 40.7862 26.4593 40.7654 26.4415 40.7503C26.4237 40.7353 26.4012 40.7271 26.3779 40.7271C26.3546 40.7271 26.332 40.7353 26.3142 40.7503C26.2964 40.7654 26.2845 40.7862 26.2806 40.8092C26.2806 41.2378 26.2806 41.6552 26.2806 42.0951C26.2806 42.1487 26.2806 42.2812 26.3003 42.4448C26.055 42.5914 25.8124 42.7268 25.5756 42.896C25.5756 42.7098 25.5756 42.5153 25.5756 42.3094C25.5756 41.7454 25.5756 41.1532 25.5756 40.5751C25.5716 40.5514 25.5593 40.5299 25.541 40.5144C25.5227 40.4989 25.4995 40.4904 25.4755 40.4904C25.4515 40.4904 25.4282 40.4989 25.4099 40.5144C25.3916 40.5299 25.3793 40.5514 25.3753 40.5751C25.3753 41.0094 25.3753 41.4437 25.3753 41.8751C25.3983 42.2764 25.3794 42.679 25.3189 43.0764C24.7549 43.4515 24.205 43.8491 23.6692 44.2609C23.4493 44.4272 23.6692 44.8051 23.8892 44.6359C24.6732 44.0465 25.491 43.4882 26.337 42.9721C26.3366 43.0731 26.3291 43.1739 26.3144 43.2739L26.2806 43.2287C26.1932 43.1103 25.9986 43.2287 26.0775 43.3472C26.1226 43.4205 26.1706 43.491 26.2185 43.5643C26.2287 43.5803 26.2424 43.5939 26.2584 43.604C26.2744 43.6142 26.2925 43.6207 26.3113 43.6231C26.3301 43.6256 26.3492 43.6238 26.3673 43.618C26.3854 43.6123 26.402 43.6026 26.4159 43.5897C26.6754 43.3838 26.5936 43.1272 26.5485 42.8424C26.7882 42.7014 27.0307 42.5604 27.2732 42.425C27.2732 42.7268 27.293 43.0285 27.293 43.3274C27.2591 43.1921 27.0561 43.2569 27.0758 43.3951C27.1049 43.6287 27.1807 43.8541 27.2986 44.0578C27.3138 44.0828 27.3368 44.1023 27.364 44.1131C27.3912 44.124 27.4212 44.1258 27.4495 44.1182C27.4778 44.1105 27.5028 44.0939 27.5209 44.0708C27.5389 44.0477 27.549 44.0194 27.5496 43.9901C27.5496 43.4261 27.5496 42.8621 27.5045 42.2981L28.0685 41.9964V42.1684C28.0685 42.2107 28.122 43.1921 27.857 43.0144C27.7413 42.9383 27.5919 43.1216 27.7075 43.209L27.9049 43.3613C27.9265 43.3824 27.9544 43.396 27.9844 43.4C28.0143 43.4041 28.0448 43.3984 28.0713 43.3838C28.4604 43.1018 28.3307 42.5124 28.3194 42.1035C28.3194 42.0246 28.3194 41.9456 28.3194 41.8667L28.5366 41.7595C28.7509 41.6693 28.5281 41.2998 28.2771 41.4155Z" fill="#515257"/>
<path d="M34.6784 19.3714C33.1049 22.6285 32.8285 25.5754 33.2684 29.1315C33.2684 29.233 33.4376 29.2358 33.4292 29.1315C33.2656 27.3831 33.0992 25.6234 33.4433 23.8806C33.7422 22.3691 34.3541 20.9421 34.9548 19.5293C35.0253 19.3488 34.7687 19.1965 34.6784 19.3714Z" fill="#515257"/>
<path d="M22.9215 27.9058C22.8285 27.7705 22.6085 27.8917 22.6959 28.0356L22.8623 28.3176C22.8778 28.3436 22.9012 28.364 22.9291 28.3756C22.9571 28.3873 22.988 28.3897 23.0174 28.3824C23.5137 28.2358 23.6547 27.9171 23.8803 27.4828C24.2103 26.8427 24.5458 26.2167 24.8335 25.5539C24.8396 25.5388 24.8424 25.5226 24.8416 25.5063C24.8409 25.49 24.8366 25.4741 24.8291 25.4596C24.8216 25.4451 24.811 25.4325 24.7982 25.4225C24.7853 25.4125 24.7704 25.4054 24.7545 25.4017C24.7394 24.6939 24.6448 23.9902 24.4725 23.3036C24.4387 23.1626 24.2159 23.2246 24.2526 23.3656C24.4309 24.0402 24.5424 24.7306 24.5853 25.427C24.586 25.4433 24.5918 25.4589 24.6019 25.4716C24.6121 25.4842 24.626 25.4933 24.6417 25.4975C24.4161 25.9854 24.1764 26.4676 23.917 26.9358C23.7591 27.1952 23.2486 28.3852 22.9215 27.9058Z" fill="#515257"/>
<path d="M21.4804 28.0192C21.4804 27.991 21.4607 27.9656 21.4494 27.9402C21.393 27.8076 21.1674 27.8556 21.2238 28.0022C21.2464 28.0727 21.2689 28.1432 21.2943 28.2137C21.3035 28.245 21.3246 28.2714 21.3531 28.2872C21.3816 28.3031 21.4152 28.3071 21.4466 28.2983C21.8301 28.2081 21.9232 27.9289 22.1121 27.6131C22.4167 27.1111 22.7156 26.6148 22.9807 26.0903C23.0455 25.9662 22.8566 25.8534 22.7917 25.9803C22.5915 26.3638 22.38 26.7389 22.1516 27.1083C21.988 27.3762 21.7737 27.8641 21.4804 28.0192Z" fill="#515257"/>
<path d="M16.0067 27.2539L15.9644 27.0903C15.9525 27.063 15.9311 27.0409 15.9042 27.028C15.8773 27.0151 15.8466 27.0124 15.8179 27.0202C15.7891 27.0281 15.7641 27.0461 15.7475 27.0709C15.7309 27.0957 15.7238 27.1256 15.7275 27.1552C15.7501 27.2539 15.7754 27.3526 15.798 27.4541C15.8063 27.4814 15.8231 27.5054 15.8459 27.5227C15.8687 27.5399 15.8963 27.5495 15.9249 27.55C16.3028 27.5669 16.3902 27.3244 16.5143 27.017C16.8028 26.3803 17.1296 25.7616 17.4928 25.1643C17.5051 25.1387 17.5073 25.1094 17.4989 25.0822C17.4906 25.0551 17.4723 25.0321 17.4477 25.0179C17.4231 25.0037 17.3941 24.9992 17.3664 25.0054C17.3387 25.0117 17.3144 25.0281 17.2983 25.0515C17.0783 25.4378 16.8583 25.8241 16.644 26.2161C16.5284 26.391 16.2633 27.1129 16.0067 27.2539Z" fill="#515257"/>
<path d="M14.8748 27.0768V27.057C14.8667 27.0431 14.8559 27.031 14.843 27.0213C14.8302 27.0116 14.8156 27.0045 14.8 27.0004C14.7844 26.9964 14.7682 26.9954 14.7522 26.9976C14.7363 26.9998 14.7209 27.0052 14.7071 27.0133C14.6932 27.0215 14.681 27.0323 14.6713 27.0451C14.6616 27.0579 14.6545 27.0726 14.6504 27.0882C14.6464 27.1037 14.6454 27.12 14.6476 27.1359C14.6499 27.1519 14.6552 27.1672 14.6633 27.1811C14.6859 27.2319 14.7113 27.2798 14.7338 27.3277C14.7515 27.3572 14.7799 27.3786 14.813 27.3876C14.8461 27.3965 14.8814 27.3923 14.9115 27.3757C15.3176 27.1473 15.5037 26.7214 15.7152 26.3238C16.0508 25.6893 16.3441 25.0351 16.6373 24.3808C16.6881 24.2652 16.5189 24.1637 16.4653 24.2821C16.22 24.7982 15.9803 25.3199 15.7152 25.8247C15.4868 26.2279 15.2612 26.7948 14.8748 27.0768Z" fill="#515257"/>
<path d="M14.3184 26.2189C14.3381 26.0807 14.1351 26.0158 14.1041 26.1597C14.0407 26.3925 14.0576 26.6398 14.152 26.8619C14.159 26.887 14.1732 26.9096 14.1929 26.9267C14.2127 26.9438 14.237 26.9547 14.2629 26.958C14.2889 26.9614 14.3152 26.9569 14.3386 26.9453C14.362 26.9337 14.3815 26.9155 14.3945 26.8929C15.06 25.9341 15.4013 24.8314 15.7904 23.7401C15.8412 23.6047 15.624 23.5455 15.5761 23.6809C15.2208 24.6369 14.9078 25.6154 14.355 26.4783L14.3184 26.2189Z" fill="#515257"/>
<path d="M13.4069 24.4991C13.2146 24.857 12.9425 25.1658 12.6116 25.4015C12.5073 25.4749 12.6116 25.6412 12.7132 25.5735C13.0975 25.3451 13.4116 25.0153 13.6212 24.6204C13.7086 24.485 13.4802 24.3581 13.4069 24.4991Z" fill="#515257"/>
<path d="M30.3482 33.2098C30.3764 32.0818 30.0972 30.8269 29.959 29.7525C29.9421 29.6256 29.7419 29.6228 29.7588 29.7525C29.9252 31.092 30.2664 32.6458 30.069 33.9825C30.0493 34.1094 30.241 34.1686 30.2664 34.0361C30.2664 33.9938 30.2664 33.9487 30.2862 33.9064C30.4142 34.8649 30.4877 35.83 30.5061 36.7969C30.5061 36.8305 30.5195 36.8628 30.5433 36.8866C30.5671 36.9104 30.5994 36.9238 30.633 36.9238C30.6667 36.9238 30.699 36.9104 30.7228 36.8866C30.7466 36.8628 30.7599 36.8305 30.7599 36.7969C30.8248 35.6435 30.5823 34.4253 30.4272 33.2832C30.4241 33.2639 30.4146 33.2462 30.4003 33.2329C30.386 33.2196 30.3677 33.2115 30.3482 33.2098Z" fill="#515257"/>
<path d="M12.5424 18.9386L12.5594 19.0007C12.5673 19.025 12.582 19.0466 12.6018 19.0629C12.6215 19.0792 12.6454 19.0895 12.6708 19.0928C12.6962 19.096 12.722 19.092 12.7452 19.0812C12.7684 19.0704 12.7881 19.0532 12.8019 19.0317C13.0386 18.6467 13.219 18.2298 13.3377 17.7937C13.5182 17.2889 13.7184 16.7926 13.9243 16.2991C13.9666 16.1948 13.7833 16.1158 13.7381 16.223C13.5577 16.629 13.38 17.0351 13.2164 17.4497C13.0686 17.912 12.8798 18.3603 12.6524 18.7892C12.6348 18.7903 12.6176 18.7953 12.6021 18.8038C12.5866 18.8123 12.5731 18.8241 12.5627 18.8383C12.5522 18.8525 12.5449 18.8689 12.5414 18.8862C12.538 18.9036 12.5383 18.9214 12.5424 18.9386Z" fill="#515257"/>
<path d="M9.77796 20.5724C9.71028 20.4088 9.43956 20.4737 9.49596 20.6485L9.57492 20.8657C9.58132 20.8873 9.59251 20.9071 9.60766 20.9237C9.6228 20.9404 9.64151 20.9534 9.66238 20.9618C9.68326 20.9702 9.70576 20.9738 9.72822 20.9723C9.75067 20.9708 9.77249 20.9642 9.79206 20.9531C10.1897 20.6711 10.3138 20.2255 10.4717 19.7912C10.8044 18.8888 11.14 17.9893 11.4502 17.0812C11.501 16.9346 11.2726 16.8725 11.2218 17.0164C10.9821 17.7157 10.7396 18.4264 10.4632 19.0947C10.2827 19.5346 10.1361 20.2227 9.77514 20.5837L9.77796 20.5724Z" fill="#515257"/>
<path d="M8.91493 20.8605C9.28653 20.1468 9.59326 19.4013 9.83143 18.6327C9.88501 18.4917 9.66223 18.4325 9.60583 18.5707C9.37038 19.2311 9.0983 19.8779 8.79085 20.508C8.70625 20.446 8.54269 20.5306 8.58781 20.649L8.66113 20.8323C8.66746 20.8596 8.6821 20.8843 8.70305 20.9029C8.72399 20.9215 8.75019 20.9332 8.77804 20.9363C8.8059 20.9394 8.83402 20.9337 8.85854 20.9202C8.88306 20.9066 8.90276 20.8858 8.91493 20.8605Z" fill="#515257"/>
<path d="M5.96472 20.3905C5.73348 20.8558 5.55582 21.3888 5.09052 21.6736C5.06471 21.6889 5.04606 21.7139 5.03865 21.743C5.03125 21.7721 5.0357 21.8029 5.05104 21.8287C5.06637 21.8545 5.09132 21.8732 5.12041 21.8806C5.1495 21.888 5.18033 21.8835 5.20614 21.8682C5.74194 21.6144 5.94216 21.0222 6.19032 20.5202C6.26646 20.3708 6.04086 20.2382 5.96472 20.3905Z" fill="#515257"/>
<path d="M30.032 42.9651C30.125 43.0299 30.2209 42.9397 30.2322 42.8495C30.3676 41.406 30.4043 39.9551 30.3422 38.5066C30.3382 38.4837 30.3263 38.4628 30.3085 38.4478C30.2907 38.4328 30.2682 38.4246 30.2449 38.4246C30.2216 38.4246 30.199 38.4328 30.1812 38.4478C30.1634 38.4628 30.1515 38.4837 30.1476 38.5066C30.1807 39.8241 30.1364 41.1424 30.0151 42.4546L29.9699 42.3701C29.9699 42.2291 29.7443 42.2234 29.7471 42.3701C29.7291 42.4864 29.7466 42.6055 29.7974 42.7117C29.8483 42.8178 29.93 42.9062 30.032 42.9651Z" fill="#515257"/>
<path d="M29.2673 38.7373C29.2673 38.7089 29.256 38.6816 29.2359 38.6615C29.2158 38.6414 29.1886 38.6301 29.1602 38.6301C29.1317 38.6301 29.1045 38.6414 29.0844 38.6615C29.0643 38.6816 29.053 38.7089 29.053 38.7373C29.053 39.4677 29.053 40.1952 29.022 40.9228C29.047 41.5555 29.0112 42.1892 28.9148 42.815C28.7907 42.753 28.6328 42.9025 28.7597 43.0124L28.9007 43.1422C28.9177 43.1586 28.9387 43.1705 28.9616 43.1765C28.9845 43.1826 29.0086 43.1826 29.0316 43.1767C29.0545 43.1707 29.0755 43.159 29.0926 43.1426C29.1097 43.1262 29.1223 43.1056 29.1291 43.0829C29.3124 42.4823 29.2532 41.8365 29.2645 41.2161C29.2786 40.3898 29.2758 39.5636 29.2673 38.7373Z" fill="#515257"/>
<path d="M21.0779 41.5727C20.859 42.2606 20.5904 42.9316 20.2742 43.5806C20.1332 43.5524 20.0937 43.7498 20.2235 43.8062L20.3052 43.84C20.3313 43.8469 20.3588 43.8451 20.3838 43.8349C20.4087 43.8247 20.4296 43.8067 20.4434 43.7836C20.8052 43.1004 21.089 42.3786 21.2894 41.6319C21.3233 41.4966 21.123 41.4402 21.0779 41.5727Z" fill="#515257"/>
<path d="M20.3186 41.4747C20.1382 41.861 19.9718 42.253 19.7857 42.6393C19.701 42.8114 19.3514 43.7138 19.1173 43.6799C19.0942 43.6766 19.0707 43.6818 19.0512 43.6946C19.0317 43.7073 19.0175 43.7268 19.0113 43.7492C19.0051 43.7717 19.0072 43.7957 19.0174 43.8167C19.0276 43.8376 19.0451 43.8542 19.0665 43.8632L19.216 43.9112C19.239 43.9169 19.2632 43.915 19.2851 43.9059C19.3069 43.8968 19.3252 43.8808 19.3373 43.8604C19.7876 43.1332 20.1753 42.369 20.4963 41.5762C20.5499 41.4577 20.375 41.3562 20.3186 41.4747Z" fill="#515257"/>
<path d="M18.6045 42.9679C18.4212 43.5319 18.3225 44.3018 17.8544 44.6994C17.7585 44.7784 17.8854 44.9419 17.9841 44.8686C18.5255 44.4682 18.613 43.6222 18.8019 43.0215C18.8442 42.8833 18.6468 42.8438 18.6045 42.9679Z" fill="#515257"/>
<path d="M17.7526 43.2795C17.6432 43.9386 17.4829 44.5882 17.2732 45.2225C17.2508 45.2147 17.2265 45.2146 17.2041 45.2221C17.1816 45.2296 17.1623 45.2443 17.1491 45.264C17.1359 45.2836 17.1295 45.3071 17.1311 45.3307C17.1326 45.3543 17.1419 45.3768 17.1576 45.3946L17.245 45.4904C17.2586 45.5032 17.2753 45.5123 17.2934 45.5169C17.3115 45.5215 17.3305 45.5214 17.3486 45.5166C17.3666 45.5118 17.3832 45.5025 17.3966 45.4895C17.4101 45.4765 17.42 45.4604 17.4255 45.4425C17.668 44.7579 17.8436 44.0515 17.95 43.3331C17.9754 43.2062 17.778 43.1498 17.7526 43.2795Z" fill="#515257"/>
<path d="M17.0507 43.3537C16.9774 43.7937 16.9041 44.2336 16.8336 44.6735C16.8138 44.7919 16.9887 44.8427 17.0112 44.7243L17.2594 43.4101C17.2848 43.2748 17.0733 43.2184 17.0507 43.3537Z" fill="#515257"/>
<path d="M11.8571 34.3672C11.7584 34.7479 11.6625 35.1286 11.5751 35.5093C11.53 35.6954 11.4256 36.5725 11.1718 36.6176C11.0506 36.6402 11.0788 36.8319 11.2 36.8291C11.4595 36.8291 11.5553 36.6937 11.6117 36.454C11.7753 35.7829 11.9135 35.1004 12.0827 34.4293C12.0909 34.3993 12.0869 34.3674 12.0716 34.3404C12.064 34.3271 12.0538 34.3153 12.0417 34.3059C12.0296 34.2965 12.0157 34.2895 12.0009 34.2854C11.971 34.2772 11.939 34.2812 11.9121 34.2965C11.8851 34.3119 11.8653 34.3373 11.8571 34.3672Z" fill="#515257"/>
<path d="M11.0863 35.3768C10.9246 35.969 10.7733 36.564 10.6323 37.1618C10.6256 37.1865 10.6289 37.2129 10.6416 37.2351C10.6543 37.2573 10.6753 37.2735 10.7 37.2803C10.7247 37.287 10.751 37.2836 10.7732 37.271C10.7954 37.2583 10.8117 37.2373 10.8184 37.2126C10.9792 36.6204 11.1343 36.0254 11.295 35.4332C11.2987 35.4195 11.2997 35.4052 11.2979 35.3911C11.296 35.377 11.2915 35.3634 11.2844 35.3511C11.2773 35.3388 11.2679 35.328 11.2567 35.3194C11.2454 35.3107 11.2326 35.3043 11.2189 35.3006C11.2052 35.2969 11.1909 35.2959 11.1768 35.2978C11.1627 35.2996 11.1491 35.3042 11.1368 35.3112C11.1245 35.3183 11.1137 35.3277 11.1051 35.339C11.0964 35.3502 11.09 35.3631 11.0863 35.3768Z" fill="#515257"/>
<path d="M10.4189 36.5457L10.1961 37.1661C10.1651 37.2507 10.2976 37.2846 10.3286 37.2028L10.5683 36.5852C10.6078 36.4949 10.4527 36.4498 10.4189 36.5457Z" fill="#515257"/>
<path d="M6.3778 26.9372L6.45394 27.0726C6.46364 27.0877 6.47698 27.1002 6.49275 27.1088C6.50852 27.1174 6.52621 27.122 6.54418 27.122C6.56216 27.122 6.57985 27.1174 6.59561 27.1088C6.61138 27.1002 6.62473 27.0877 6.63443 27.0726C7.40147 25.812 7.83857 24.1426 8.11493 22.71C8.11333 22.7057 8.11044 22.702 8.10666 22.6993C8.10288 22.6967 8.09839 22.6953 8.09378 22.6953C8.08918 22.6953 8.08468 22.6967 8.0809 22.6993C8.07712 22.702 8.07424 22.7057 8.07263 22.71C7.65245 24.0693 7.29431 25.6034 6.54136 26.8301C6.52468 26.8155 6.50368 26.8068 6.48157 26.8052C6.45947 26.8037 6.43747 26.8095 6.41893 26.8216C6.4004 26.8337 6.38634 26.8516 6.37892 26.8725C6.37149 26.8934 6.3711 26.9161 6.3778 26.9372Z" fill="#515257"/>
<path d="M5.44201 26.945C5.72401 26.7053 6.14983 26.4684 6.49669 26.2315C6.73357 26.068 6.52207 25.6816 6.27955 25.8311C6.38369 25.6541 6.47784 25.4715 6.56155 25.284C6.60667 25.174 6.42901 25.1232 6.38671 25.2332C6.2722 25.5173 6.13154 25.7902 5.96653 26.0482C4.85544 26.8002 3.74624 27.5522 2.63891 28.3042C2.39075 28.4762 2.62481 28.8823 2.87579 28.7131C3.6936 28.1491 4.4973 27.5992 5.31229 27.0437C5.35758 27.0553 5.40383 27.0629 5.45047 27.0662L5.44201 26.945Z" fill="#515257"/>
<path d="M14.2372 41.4353L11.9163 42.8453C11.8935 42.8588 11.877 42.8808 11.8703 42.9064C11.8637 42.9321 11.8676 42.9593 11.881 42.9821C11.8945 43.0049 11.9165 43.0214 11.9421 43.028C11.9678 43.0347 11.995 43.0308 12.0178 43.0173L14.3415 41.6243C14.3666 41.6104 14.3851 41.5872 14.393 41.5597C14.401 41.5322 14.3976 41.5027 14.3838 41.4776C14.37 41.4526 14.3468 41.434 14.3193 41.4261C14.2918 41.4182 14.2622 41.4215 14.2372 41.4353Z" fill="#515257"/>
<path d="M23.0512 36.5004C23.164 36.3904 22.992 36.2184 22.8763 36.3256C22.521 36.6489 22.1685 36.9761 21.8188 37.3069C21.5114 37.5889 21.2548 37.9471 20.8431 38.0881C20.8309 38.0591 20.8086 38.0355 20.7803 38.0217C20.752 38.0079 20.7197 38.0048 20.6893 38.0131C20.659 38.0214 20.6327 38.0404 20.6153 38.0667C20.5979 38.0929 20.5907 38.1246 20.5949 38.1558L20.626 38.3024C20.6358 38.3375 20.6592 38.3672 20.6908 38.3851C20.7225 38.4031 20.76 38.4078 20.7952 38.3983C21.2294 38.2996 21.4494 38.0345 21.7596 37.7328C22.1864 37.3173 22.6169 36.9065 23.0512 36.5004Z" fill="#515257"/>
<path d="M21.7272 36.1826C21.2534 36.6394 20.7684 37.0822 20.2749 37.5193C20.1959 37.5898 20.3087 37.697 20.3877 37.6321C20.9009 37.2176 21.3944 36.7861 21.8795 36.3349C21.9782 36.2418 21.8259 36.0895 21.7272 36.1826Z" fill="#515257"/>
<path d="M30.5597 26.5515C30.5512 26.5333 30.5365 26.5188 30.5183 26.5104C30.5001 26.502 30.4795 26.5004 30.4602 26.5058C30.4409 26.5113 30.4241 26.5234 30.4129 26.54C30.4017 26.5566 30.3967 26.5767 30.399 26.5966C31.1426 28.9623 31.6573 31.394 31.9359 33.8582C31.9359 33.9738 32.122 33.9766 32.1192 33.8582C32.0938 32.6568 31.7497 31.4583 31.5016 30.288C31.2365 29.0275 30.9319 27.781 30.5597 26.5515Z" fill="#515257"/>
<path d="M30.2384 28.3806C30.5683 30.019 30.9293 31.6659 31.1634 33.3241C31.1479 33.3432 31.1399 33.3672 31.1408 33.3918C31.1605 34.1673 31.1408 34.9428 31.2085 35.7155C31.2085 35.8706 31.4623 35.8734 31.4538 35.7155C31.4284 35.3348 31.4143 34.9541 31.4031 34.5734C31.417 34.5761 31.4314 34.5755 31.445 34.5717C31.4587 34.5678 31.4712 34.5608 31.4817 34.5512C31.4921 34.5416 31.5002 34.5296 31.5051 34.5163C31.5101 34.503 31.5118 34.4887 31.5102 34.4746C31.4284 32.4245 30.8306 30.3349 30.4076 28.3327C30.385 28.2199 30.2158 28.2678 30.2384 28.3806Z" fill="#515257"/>
<path d="M28.9942 30.1639C29.201 31.1509 29.4369 32.1313 29.702 33.1051C29.708 33.1261 29.722 33.1438 29.7411 33.1544C29.7601 33.165 29.7826 33.1675 29.8035 33.1615C29.8245 33.1556 29.8422 33.1415 29.8527 33.1225C29.8633 33.1034 29.8659 33.081 29.8599 33.06C29.6117 32.0843 29.3805 31.086 29.1718 30.1159C29.1493 30.0003 28.9716 30.0483 28.9942 30.1639Z" fill="#515257"/>
<path d="M27.8096 22.597C27.9619 22.9777 28.1114 23.3612 28.2693 23.7419C28.3708 23.9844 28.7543 24.5879 28.6697 24.8417C28.6359 24.9573 28.8135 25.0335 28.8643 24.9263C28.9079 24.8659 28.9353 24.7952 28.9437 24.7211C28.9521 24.647 28.9412 24.572 28.9122 24.5033C28.8251 24.286 28.7195 24.0765 28.5964 23.8773C28.4441 23.522 28.3144 23.161 28.1537 22.8029C27.7307 21.7651 27.3077 20.7302 26.8536 19.7008C26.7972 19.5711 26.6083 19.6839 26.6647 19.8108C27.0623 20.7358 27.4374 21.6664 27.8096 22.597Z" fill="#515257"/>
<path d="M26.7438 24.8993C26.7509 24.924 26.7675 24.9448 26.79 24.9572C26.8125 24.9697 26.839 24.9727 26.8636 24.9656C26.8883 24.9585 26.9092 24.9418 26.9216 24.9194C26.934 24.8969 26.937 24.8704 26.9299 24.8457C26.6479 23.6105 26.1008 22.4487 25.6271 21.2812C25.5763 21.1487 25.3592 21.2051 25.4127 21.3404C25.8865 22.5192 26.3574 23.6867 26.7438 24.8993Z" fill="#515257"/>
<path d="M23.5068 26.3106C23.6801 26.0529 23.756 25.742 23.7212 25.4335C23.7367 24.9764 23.697 24.5191 23.6027 24.0715C23.5745 23.9474 23.3884 23.9981 23.4138 24.1222C23.5322 24.6862 23.6958 25.6986 23.3517 26.2203C23.2982 26.3162 23.4392 26.398 23.5068 26.3106Z" fill="#515257"/>
<path d="M77.4923 16.8149C77.5853 19.1019 76.4179 21.2254 75.6001 23.3009C75.5465 23.4391 75.7693 23.4983 75.8228 23.3629C76.6688 21.293 77.7461 19.116 77.6474 16.8261C77.6446 16.7162 77.4895 16.7162 77.4923 16.8149Z" fill="#515257"/>
<path d="M76.7567 17.9442C76.3055 19.2076 75.8261 20.4606 75.3185 21.7033C74.8363 22.8849 74.4358 24.1172 73.7365 25.1888C73.6378 25.3383 73.8747 25.4708 73.9705 25.327C74.6474 24.3259 75.0055 23.1499 75.4511 22.036C75.984 20.7022 76.5086 19.3655 76.9908 18.0119C77.0444 17.8624 76.8103 17.7863 76.7567 17.9442Z" fill="#515257"/>
<path d="M75.4669 19.5653C75.5374 19.3933 75.2582 19.32 75.1849 19.4892C74.7816 20.4536 74.3868 21.4209 73.9638 22.3769C73.6452 23.096 73.3124 24.3001 72.6215 24.7541C72.5905 24.7724 72.568 24.8024 72.559 24.8373C72.55 24.8722 72.5552 24.9092 72.5736 24.9402C72.5919 24.9713 72.6218 24.9938 72.6567 25.0028C72.6916 25.0118 72.7286 25.0065 72.7597 24.9882C73.4816 24.5708 73.7664 23.5133 74.0879 22.797C74.5673 21.7339 75.0129 20.6454 75.4669 19.5653Z" fill="#515257"/>
<path d="M73.7316 19.7291C73.2692 20.8572 72.8208 21.9852 72.3527 23.0991C71.972 24.0127 71.6505 25.2677 70.9004 25.9473C70.7791 26.0573 70.9539 26.2293 71.0752 26.1249C71.7746 25.5468 72.0284 24.5316 72.3668 23.7279C72.9308 22.4251 73.4412 21.1081 73.977 19.7968C74.0418 19.6445 73.7937 19.5769 73.7316 19.7291Z" fill="#515257"/>
<path d="M72.5658 19.4795C72.6081 19.3441 72.3938 19.2849 72.3515 19.4203C72.2838 19.6374 72.2133 19.8489 72.1428 20.0632C72.1719 19.2166 72.1493 18.369 72.0751 17.5252C72.0751 17.4237 71.9059 17.4209 71.9144 17.5252C72.0074 18.5851 72.0131 19.6509 71.9313 20.7118C71.5845 21.7129 71.2037 22.7027 70.7582 23.6672C70.259 24.7444 69.8332 25.8837 68.8913 26.662C68.7898 26.7438 68.9252 26.9243 69.0323 26.8425C69.9911 26.1206 70.4141 24.9785 70.8992 23.921C71.5536 22.4795 72.1104 20.9956 72.5658 19.4795Z" fill="#515257"/>
<path d="M70.9099 20.056V19.9968C70.9634 19.8219 71.0198 19.6471 71.0762 19.4751C71.1129 19.3623 70.9409 19.3143 70.9014 19.4187C70.8732 18.5501 70.7773 17.6731 70.6843 16.8158C70.6843 16.7086 70.5038 16.7058 70.5151 16.8158C70.5827 17.4729 70.6363 18.1299 70.6702 18.7898C70.6871 19.0859 70.7407 19.4779 70.7491 19.8671C70.6081 20.2995 70.4615 20.73 70.3092 21.1586C70.2661 21.1899 70.2198 21.2164 70.171 21.2376C70.0892 21.2742 70.1456 21.4152 70.2302 21.387C69.9849 22.0723 69.7226 22.7519 69.435 23.4203C69.3109 23.7023 67.8642 26.7028 67.8078 26.6577C67.7035 26.5731 67.5653 26.7056 67.6612 26.8043L67.7543 26.903C67.7664 26.9153 67.7813 26.9247 67.7977 26.9303C67.814 26.936 67.8315 26.9378 67.8487 26.9356C67.8658 26.9334 67.8823 26.9273 67.8967 26.9177C67.9112 26.9082 67.9232 26.8954 67.9319 26.8804C69.0881 25.2138 69.8552 23.2003 70.5094 21.2263C70.845 20.9641 70.9014 20.5467 70.9099 20.056Z" fill="#515257"/>
<path d="M68.7929 21.1338C68.9311 20.4542 68.9959 19.7576 69.0749 19.0639C69.089 18.937 68.8916 18.937 68.8775 19.0639C68.814 20.1052 68.6391 21.1366 68.3558 22.1406C68.3502 22.157 68.3502 22.1749 68.3558 22.1913C67.6466 24.1008 66.8061 25.959 65.8403 27.7524C65.7642 27.8934 65.9785 28.0344 66.0575 27.8793C67.2101 25.7644 68.1681 23.5491 68.9198 21.2607C68.9252 21.2431 68.9257 21.2243 68.9213 21.2064C68.9168 21.1885 68.9076 21.1721 68.8945 21.1591C68.8815 21.146 68.8651 21.1368 68.8472 21.1323C68.8293 21.1279 68.8105 21.1284 68.7929 21.1338Z" fill="#515257"/>
<path d="M67.4007 21.9567C67.4007 21.9736 67.4007 21.9905 67.4007 22.0046C67.4007 22.0308 67.4111 22.0559 67.4296 22.0744C67.4482 22.0929 67.4732 22.1033 67.4994 22.1033C67.5256 22.1033 67.5507 22.0929 67.5692 22.0744C67.5877 22.0559 67.5981 22.0308 67.5981 22.0046C67.6216 20.787 67.5461 19.5694 67.3725 18.364C67.3584 18.2343 67.1497 18.2314 67.1638 18.364C67.2654 19.4074 67.3274 20.448 67.3753 21.4914C66.8706 22.6871 66.3376 23.8686 65.7961 25.0474C65.3816 25.9555 65.0347 27.2583 64.3184 27.9633C64.2056 28.0705 64.3749 28.2453 64.4877 28.1325C65.2575 27.3908 65.5593 26.1021 65.9851 25.1574C66.4673 24.0943 66.9439 23.0311 67.4007 21.9567Z" fill="#515257"/>
<path d="M65.9048 22.1902C65.9127 22.1618 65.9089 22.1315 65.8944 22.1058C65.8798 22.0802 65.8557 22.0613 65.8273 22.0535C65.7989 22.0456 65.7685 22.0494 65.7428 22.0639C65.7172 22.0785 65.6984 22.1026 65.6905 22.131C65.6736 22.1902 65.651 22.2495 65.6341 22.3115C65.6028 21.7899 65.5378 21.2709 65.4395 20.7577C65.2935 19.809 65.0786 18.8721 64.7966 17.9546C64.7627 17.8474 64.5964 17.8925 64.6302 17.9997C65.1011 19.531 65.5044 21.3273 65.369 22.9347C65.3679 22.951 65.3709 22.9674 65.3778 22.9822C65.3847 22.997 65.3953 23.0098 65.4085 23.0193C65.0261 24.1397 64.5827 25.2383 64.0803 26.3103C63.5868 27.3847 63.1779 28.5381 62.3742 29.4123C62.3515 29.4369 62.3392 29.4694 62.3399 29.5029C62.3406 29.5363 62.3542 29.5683 62.3778 29.592C62.4015 29.6156 62.4334 29.6292 62.4669 29.6299C62.5004 29.6306 62.5329 29.6183 62.5575 29.5956C63.4373 28.7975 63.8237 27.4806 64.3002 26.4259C64.9376 25.055 65.4739 23.6393 65.9048 22.1902Z" fill="#515257"/>
<path d="M64.0349 24.1208C64.0828 23.9996 63.8882 23.9488 63.8403 24.0672C63.406 25.1783 62.9661 26.2866 62.5008 27.3836C62.2696 27.925 62.0383 28.4636 61.7958 29.0023C61.6999 29.2166 61.5984 29.6283 61.4264 29.7721C61.2544 29.916 61.2938 30.1415 61.2628 29.6706C61.2628 29.5268 61.0316 29.524 61.0372 29.6706L61.057 30.2346C61.057 30.2668 61.0697 30.2976 61.0925 30.3204C61.1152 30.3431 61.1461 30.3559 61.1782 30.3559C61.4377 30.3305 61.4969 30.2656 61.6238 30.0513C61.9791 29.4591 62.1878 28.6723 62.4698 28.035C63.0197 26.7434 63.5329 25.4321 64.0349 24.1208Z" fill="#515257"/>
<path d="M61.0439 25.2296C60.8183 25.819 58.6243 31.7805 57.9278 31.5042C57.8093 31.4562 57.7332 31.6452 57.8403 31.7072L58.018 31.8087C58.0419 31.823 58.0699 31.8288 58.0976 31.8252C58.1252 31.8217 58.1508 31.8089 58.1703 31.789C58.9373 30.9148 59.3885 29.7896 59.8623 28.7377C60.3671 27.6097 60.8211 26.4507 61.2723 25.2888C61.3061 25.1563 61.0862 25.0999 61.0439 25.2296Z" fill="#515257"/>
<path d="M59.605 26.1602C59.653 26.0502 59.4922 25.9543 59.4415 26.0643C58.9536 27.1613 58.4686 28.2582 57.9525 29.344C57.7128 29.8459 57.4731 30.3507 57.2249 30.847C57.1037 31.0867 56.4917 32.3078 56.2069 31.7889C56.1421 31.6705 55.9644 31.7889 56.0236 31.8989L56.2013 32.257C56.2141 32.2788 56.2339 32.2956 56.2574 32.3048C56.2809 32.314 56.3068 32.3151 56.331 32.3078C57.1601 32.0822 57.5013 30.7906 57.8313 30.1054C58.4573 28.8053 59.0298 27.4827 59.605 26.1602Z" fill="#515257"/>
<path d="M57.1768 27.7109C56.7115 28.8841 56.2574 30.0628 55.7386 31.2134C55.5158 31.7097 55.2845 32.206 55.0392 32.6939C54.8954 32.9759 54.3708 34.1039 54.0381 33.4948C53.9732 33.3707 53.7984 33.4779 53.8548 33.6019L54.0719 34.0672C54.0849 34.0905 54.1053 34.1087 54.1298 34.1189C54.1544 34.1291 54.1817 34.1308 54.2073 34.1236C54.3313 34.0996 54.4483 34.0482 54.5498 33.973C54.6513 33.8979 54.7347 33.8009 54.7939 33.6894C55.1666 33.0551 55.4945 32.3954 55.7752 31.7154C56.3646 30.4181 56.8637 29.0843 57.377 27.7673C57.4193 27.6404 57.2247 27.5869 57.1768 27.7109Z" fill="#515257"/>
<path d="M55.8014 27.0372C55.8014 26.9949 55.8211 26.9554 55.8324 26.9131C55.8357 26.8976 55.8356 26.8816 55.8321 26.8661C55.8286 26.8506 55.8218 26.8361 55.8121 26.8235C55.8025 26.8109 55.7902 26.8006 55.7762 26.7932C55.7622 26.7858 55.7467 26.7815 55.7309 26.7806C55.4658 25.8979 55.1838 25.0209 54.9018 24.1439C54.8595 24.0141 54.6536 24.0705 54.6959 24.2003C54.9949 25.1111 55.3079 26.0135 55.6096 26.9216C55.2848 28.2579 54.8885 29.5758 54.4224 30.8696C54.1771 31.5379 53.9063 32.195 53.6328 32.8436C53.489 33.1848 53.3508 33.5232 53.1844 33.856C53.1055 34.0252 53.0237 34.1944 52.9391 34.3608C52.894 34.6428 52.8065 34.6851 52.6768 34.4933C52.6966 34.3354 52.4597 34.2649 52.4315 34.4256C52.3751 34.7471 52.3864 34.9896 52.753 35.0545C52.7816 35.0614 52.8118 35.0591 52.8391 35.048C52.8664 35.0369 52.8895 35.0174 52.9052 34.9925C54.2419 32.5278 55.1302 29.7867 55.7901 27.0682C55.7961 27.0588 55.7999 27.0482 55.8014 27.0372Z" fill="#515257"/>
<path d="M52.0759 29.3472C51.684 30.6388 51.2863 31.9303 50.7985 33.1909C50.5447 33.8395 50.2711 34.4881 49.9863 35.1254C49.8876 35.351 49.7833 35.5766 49.6648 35.7909C49.5464 36.0052 49.3292 36.5918 49.16 36.2873C49.0924 36.166 48.9175 36.2732 48.9739 36.3972C49.0303 36.5213 49.067 36.5975 49.1121 36.699C49.1216 36.7151 49.1347 36.7288 49.1503 36.739C49.166 36.7492 49.1838 36.7556 49.2024 36.7578C49.221 36.76 49.2398 36.7579 49.2574 36.7516C49.275 36.7453 49.2909 36.735 49.3039 36.7215C50.0568 35.8755 50.4319 34.6996 50.8521 33.6534C51.4161 32.2631 51.8362 30.8333 52.2621 29.398C52.2688 29.3733 52.2654 29.3469 52.2527 29.3247C52.2401 29.3025 52.2191 29.2863 52.1944 29.2795C52.1697 29.2728 52.1434 29.2761 52.1211 29.2888C52.0989 29.3015 52.0827 29.3225 52.0759 29.3472Z" fill="#515257"/>
<path d="M50.0703 31.6663C49.7121 32.6138 49.3427 33.5585 48.9423 34.4863C48.8436 34.7232 47.8143 37.3402 47.5041 36.951C47.4336 36.8579 47.2728 36.9792 47.3405 37.0751L47.5153 37.3204C47.5241 37.3346 47.5359 37.3467 47.55 37.3557C47.564 37.3646 47.58 37.3703 47.5965 37.3722C47.6131 37.3741 47.6299 37.3722 47.6456 37.3666C47.6614 37.3611 47.6756 37.352 47.6874 37.3402C48.3331 36.6859 48.5644 35.9048 48.9084 35.0842C49.3737 33.9561 49.808 32.845 50.2254 31.7001C50.2705 31.6042 50.1069 31.5648 50.0703 31.6663Z" fill="#515257"/>
<path d="M46.1935 34.4524C45.7028 35.7665 45.3475 37.1822 44.4282 38.2791C44.3492 38.375 44.4846 38.516 44.5664 38.4173C45.5167 37.3034 45.872 35.8455 46.3655 34.5003C46.4022 34.3932 46.233 34.348 46.1935 34.4524Z" fill="#515257"/>
<path d="M39.532 37.1653C39.25 38.0367 38.968 38.9025 38.6353 39.7597C38.4181 40.3463 38.0177 42.1088 37.3465 42.216C37.2507 42.2329 37.2732 42.3965 37.3719 42.3908C38.1192 42.3372 38.1333 41.6069 38.3589 41.0259C38.8496 39.772 39.298 38.5011 39.7041 37.2133C39.7379 37.1033 39.5659 37.0582 39.532 37.1653Z" fill="#515257"/>
<path d="M38.3978 37.602C38.4018 37.5773 38.3965 37.552 38.383 37.531C38.3695 37.51 38.3487 37.4947 38.3246 37.488C38.3004 37.4814 38.2747 37.4839 38.2524 37.495C38.23 37.5062 38.2125 37.5252 38.2033 37.5484C37.941 38.448 37.6646 39.3476 37.3742 40.2387C37.2388 40.6561 37.0527 41.0847 36.954 41.5049C36.8891 41.7869 36.624 42.7993 36.39 42.1958C36.3449 42.0773 36.1531 42.1253 36.1982 42.2494L36.342 42.6583C36.3468 42.6743 36.355 42.689 36.3662 42.7014C36.3773 42.7138 36.391 42.7237 36.4064 42.7301C36.4218 42.7366 36.4384 42.7396 36.4551 42.7389C36.4717 42.7381 36.488 42.7337 36.5028 42.7259C37.1458 42.3227 37.1542 41.6797 37.3488 41.0001C37.6985 39.8665 38.0707 38.7413 38.3978 37.602Z" fill="#515257"/>
<path d="M36.5001 38.9369C36.3027 39.5968 36.1194 40.2623 35.8995 40.9109C35.7726 41.3001 35.3665 42.9724 34.8138 42.9695C34.7891 42.9695 34.7654 42.9794 34.748 42.9968C34.7305 43.0143 34.7207 43.0379 34.7207 43.0626C34.7207 43.0873 34.7305 43.111 34.748 43.1284C34.7654 43.1459 34.7891 43.1557 34.8138 43.1557L35.0591 43.1782C35.0773 43.1783 35.0951 43.1737 35.111 43.1648C35.1268 43.1559 35.14 43.143 35.1493 43.1275C35.9023 41.8415 36.2774 40.4005 36.6919 38.9849C36.695 38.9723 36.6957 38.9592 36.6938 38.9464C36.6919 38.9335 36.6874 38.9212 36.6808 38.91C36.6741 38.8989 36.6653 38.8892 36.6549 38.8815C36.6444 38.8738 36.6326 38.8682 36.62 38.865C36.6074 38.8619 36.5943 38.8612 36.5815 38.8631C36.5686 38.865 36.5563 38.8695 36.5452 38.8761C36.534 38.8828 36.5243 38.8916 36.5166 38.9021C36.5089 38.9125 36.5033 38.9243 36.5001 38.9369Z" fill="#515257"/>
<path d="M34.2563 40.3483C33.7628 41.5919 33.3821 42.9089 32.5079 43.9523C32.4374 44.0369 32.5559 44.1581 32.6292 44.0735C33.557 43.0386 33.9405 41.6652 34.4453 40.4075C34.4932 40.275 34.2958 40.2214 34.2563 40.3483Z" fill="#515257"/>
<path d="M32.5137 42.7317V42.9488C32.7957 42.9488 32.7957 42.7317 32.5137 42.7317Z" fill="#515257"/>
<path d="M74.0573 19.196C74.0376 19.3286 74.2322 19.3906 74.2632 19.2552C74.4042 18.6123 74.2632 18.0201 74.1927 17.3743C74.1081 16.6242 74.0348 15.8712 73.9671 15.1183C73.953 14.9688 73.7189 14.966 73.733 15.1183C73.7923 15.7697 73.8543 16.4211 73.9248 17.0697C74.0009 17.7606 74.1589 18.4938 74.0573 19.196Z" fill="#515257"/>
<path d="M72.8289 19.7449C73.1673 19.4629 73.1899 19.1809 73.1645 18.7692C73.1222 18.0416 73.0855 17.314 73.0263 16.5865C73.0263 16.4539 72.812 16.4539 72.8204 16.5865C72.8627 17.0828 72.8966 17.5819 72.9248 18.0783C72.953 18.5746 73.1053 19.2288 72.7076 19.6236C72.6287 19.7026 72.7471 19.8126 72.8289 19.7449Z" fill="#515257"/>
<path d="M66.6348 21.2683V21.508C67.1988 21.508 67.1988 21.2683 66.6348 21.2683Z" fill="#515257"/>
<path d="M36.5059 37.366C36.5341 37.4845 36.7117 37.4337 36.6863 37.3181L36.3818 36.0012C36.3536 35.8771 36.1618 35.9278 36.1928 36.0519L36.5059 37.366Z" fill="#515257"/>
<path d="M37.9987 36.7659C38.0495 36.859 38.1848 36.7659 38.1397 36.6813C37.5757 35.4743 37.1301 34.1884 36.6056 32.9561C36.5633 32.8517 36.38 32.9279 36.4223 33.0322C36.944 34.2702 37.3614 35.5787 37.9987 36.7659Z" fill="#515257"/>
<path d="M39.0895 35.2887L39.1262 35.3479C39.1404 35.3646 39.16 35.3757 39.1816 35.3793C39.2032 35.3829 39.2253 35.3788 39.2442 35.3677C39.263 35.3565 39.2774 35.3392 39.2847 35.3185C39.292 35.2979 39.2918 35.2754 39.2841 35.2549C38.8498 34.5047 38.4663 33.7321 38.0828 32.9537C38.0292 32.8466 37.8713 32.9396 37.922 33.0468C38.283 33.8026 38.6383 34.5696 39.0895 35.2887Z" fill="#515257"/>
<path d="M39.4034 32.3297C39.3442 32.2028 39.1553 32.3128 39.2145 32.4397C39.6403 33.3647 40.0605 34.2925 40.4694 35.2202C40.5117 35.3133 40.6752 35.2456 40.6358 35.1497C40.2635 34.1938 39.8321 33.2631 39.4034 32.3297Z" fill="#515257"/>
<path d="M40.327 31.0142C40.2649 30.893 40.0816 31.0001 40.1465 31.1214C40.6541 32.0943 41.1673 33.0616 41.6101 34.0683C41.6693 34.2009 41.8639 34.0852 41.8047 33.9527C41.345 32.9516 40.8402 31.9843 40.327 31.0142Z" fill="#515257"/>
<path d="M41.3815 31.2778C41.9116 32.3635 42.5349 33.4041 42.8704 34.5744C42.8761 34.5946 42.8895 34.6117 42.9077 34.622C42.9259 34.6323 42.9475 34.6349 42.9677 34.6293C42.9879 34.6237 43.0051 34.6103 43.0154 34.5921C43.0257 34.5738 43.0283 34.5522 43.0227 34.5321C42.7717 33.3138 42.1147 32.276 41.5704 31.1678C41.5084 31.0409 41.3194 31.1537 41.3815 31.2778Z" fill="#515257"/>
<path d="M43.6023 30.5496C43.5402 30.4199 43.3485 30.5327 43.4077 30.6624C43.8504 31.5902 44.296 32.518 44.719 33.4542C44.781 33.5952 45.001 33.474 44.9249 33.333C44.4849 32.3996 44.0337 31.4774 43.6023 30.5496Z" fill="#515257"/>
<path d="M45.4903 32.8274L45.6426 33.1094C45.7188 33.2504 45.9105 33.1263 45.8513 32.9881C45.2882 31.6395 44.583 30.3548 43.7476 29.1557C43.6601 29.0316 43.4515 29.1557 43.5417 29.277C44.2734 30.3963 44.9201 31.5689 45.4762 32.7851C45.4792 32.7997 45.4839 32.8139 45.4903 32.8274Z" fill="#515257"/>
<path d="M45.8991 29.2345C45.8371 29.1217 45.6622 29.2345 45.7271 29.336C46.0474 29.9024 46.33 30.4893 46.5731 31.0929C46.6154 31.2001 46.7959 31.1549 46.7536 31.0421C46.5124 30.4199 46.2269 29.8158 45.8991 29.2345Z" fill="#515257"/>
<path d="M48.2997 30.9412C47.809 30.1149 47.4001 29.2491 46.994 28.3778C46.9348 28.248 46.743 28.3608 46.8022 28.4906C47.1822 29.368 47.6261 30.2162 48.1305 31.0286C48.201 31.1414 48.3617 31.0399 48.2997 30.9412Z" fill="#515257"/>
<path d="M48.9773 30.888C49.0308 30.9924 49.2113 30.919 49.169 30.8091C48.7206 29.6247 48.0185 28.5361 47.3727 27.4561C47.3596 27.4333 47.338 27.4166 47.3126 27.4097C47.2872 27.4028 47.2601 27.4063 47.2373 27.4194C47.2145 27.4325 47.1978 27.4541 47.1909 27.4795C47.1841 27.5049 47.1876 27.532 47.2007 27.5548C47.8323 28.6489 48.3963 29.76 48.9773 30.888Z" fill="#515257"/>
<path d="M49.9108 30.4988C49.9254 30.5194 49.9473 30.5339 49.972 30.5392C49.9967 30.5446 50.0226 30.5405 50.0445 30.5278C50.0664 30.5151 50.0827 30.4946 50.0903 30.4705C50.0979 30.4464 50.0962 30.4203 50.0856 30.3973C49.8036 29.8841 49.5216 29.3652 49.2396 28.8463C49.1747 28.7222 48.9858 28.8322 49.0535 28.9535C49.3336 29.4723 49.6194 29.9875 49.9108 30.4988Z" fill="#515257"/>
<path d="M51.2161 29.7826C51.2696 29.9208 51.4981 29.8588 51.4388 29.7206C51.1117 28.8943 50.731 28.0934 50.3306 27.2982C50.2713 27.1826 50.0993 27.2841 50.1557 27.4025C50.5223 28.1837 50.8889 28.9705 51.2161 29.7826Z" fill="#515257"/>
<path d="M51.2571 26.2055C51.1979 26.0702 51.0005 26.1886 51.0569 26.324C51.5607 27.3973 51.9968 28.5012 52.3626 29.629C52.3708 29.6586 52.3904 29.6836 52.4171 29.6987C52.4438 29.7138 52.4754 29.7176 52.505 29.7094C52.5345 29.7012 52.5596 29.6815 52.5747 29.6548C52.5897 29.6281 52.5936 29.5965 52.5853 29.567C52.3062 28.3882 51.7365 27.3082 51.2571 26.2055Z" fill="#515257"/>
<path d="M51.9973 25.0015C52.44 26.0196 53.0266 27.1278 53.2212 28.2305C53.2437 28.3517 53.4524 28.3235 53.4383 28.2022C53.3142 27.0742 52.6318 25.9209 52.1778 24.8944C52.1242 24.7731 51.9465 24.8803 51.9973 25.0015Z" fill="#515257"/>
<path d="M54.5998 27.1376C54.2839 26.4043 53.923 25.6937 53.5874 24.9718C53.5282 24.8477 53.3449 24.9549 53.4013 25.0818C53.7284 25.8065 54.0724 26.5284 54.3996 27.2532C54.4503 27.3914 54.6477 27.2729 54.5998 27.1376Z" fill="#515257"/>
<path d="M56.4975 26.1879C56.5011 26.2074 56.5113 26.2249 56.5265 26.2376C56.5417 26.2502 56.5609 26.2572 56.5806 26.2572C56.6004 26.2572 56.6196 26.2502 56.6348 26.2376C56.65 26.2249 56.6602 26.2074 56.6638 26.1879C56.6638 25.3419 56.3536 24.5552 56.128 23.7627C56.1192 23.7418 56.103 23.7248 56.0825 23.7149C56.062 23.7051 56.0386 23.7031 56.0167 23.7094C55.9948 23.7156 55.976 23.7297 55.9638 23.7489C55.9516 23.768 55.9468 23.791 55.9504 23.8135C56.204 24.5868 56.3872 25.3816 56.4975 26.1879Z" fill="#515257"/>
<path d="M58.1356 25.4693C57.9269 24.4626 57.7154 23.4558 57.5321 22.4434C57.5067 22.3137 57.3093 22.3701 57.3319 22.4998C57.5152 23.5122 57.7013 24.5218 57.9664 25.5172C57.9833 25.6272 58.161 25.5793 58.1356 25.4693Z" fill="#515257"/>
<path d="M59.2947 24.661C59.3172 24.7597 59.4554 24.7174 59.4413 24.6215C59.3116 23.7586 59.117 22.9098 58.9253 22.0581C58.8971 21.9284 58.6968 21.9848 58.7279 22.1117C58.9224 22.9605 59.1114 23.8122 59.2947 24.661Z" fill="#515257"/>
<path d="M60.5208 23.8909L60.5631 24.0235C60.5705 24.0511 60.5887 24.0747 60.6136 24.089C60.6384 24.1033 60.6679 24.1071 60.6956 24.0996C60.7233 24.0921 60.7468 24.074 60.7611 24.0491C60.7754 24.0242 60.7792 23.9947 60.7717 23.9671C60.5067 22.8616 60.2077 21.7618 59.9257 20.6676C59.9196 20.6473 59.9058 20.6301 59.8872 20.6197C59.8687 20.6094 59.8468 20.6067 59.8262 20.6122C59.8057 20.6177 59.7881 20.6309 59.7772 20.6492C59.7663 20.6675 59.7629 20.6892 59.7678 20.7099C60.0329 21.7505 60.2557 22.8052 60.5264 23.843C60.5203 23.8582 60.5184 23.8747 60.5208 23.8909Z" fill="#515257"/>
<path d="M61.2859 20.9473C61.3423 21.2293 61.3987 21.5113 61.4523 21.7933C61.4748 21.9033 61.6384 21.8553 61.6215 21.7482C61.5735 21.4662 61.5284 21.1842 61.4805 20.9022C61.4607 20.7668 61.2577 20.8204 61.2859 20.9473Z" fill="#515257"/>
<path d="M63.1129 22.9363C63.0536 22.4456 63.0029 21.9549 62.969 21.4642C62.969 21.3176 62.7293 21.3176 62.7406 21.4642C62.7773 21.9662 62.8337 22.4653 62.9098 22.9645C62.9267 23.0773 63.127 23.0519 63.1129 22.9363Z" fill="#515257"/>
<path d="M63.9698 23.5891C64.0065 23.7471 64.2518 23.6794 64.2152 23.5215C64.0121 22.5401 63.8091 21.5474 63.592 20.5774C63.5581 20.4223 63.31 20.4899 63.3551 20.645C63.5638 21.6236 63.7555 22.6078 63.9698 23.5891Z" fill="#515257"/>
<path d="M66.7682 22.0167C66.7146 20.4347 66.286 18.8865 65.9701 17.3439C65.9448 17.2198 65.7586 17.2734 65.7812 17.3975C66.1157 18.9223 66.3661 20.4644 66.5313 22.0167C66.5426 22.1577 66.7738 22.1605 66.7682 22.0167Z" fill="#515257"/>
<path d="M68.4183 21.3884C68.5053 20.435 68.5401 19.4776 68.5227 18.5204C68.5227 18.495 68.5126 18.4706 68.4946 18.4526C68.4766 18.4347 68.4522 18.4246 68.4268 18.4246C68.4014 18.4246 68.377 18.4347 68.359 18.4526C68.341 18.4706 68.3309 18.495 68.3309 18.5204C68.3309 19.4764 68.3309 20.4324 68.2773 21.3884C68.2773 21.4786 68.4183 21.4758 68.4183 21.3884Z" fill="#515257"/>
</svg>
