<svg width="80" height="56" viewBox="0 0 80 56" fill="none" xmlns="http://www.w3.org/2000/svg">
<path d="M79.0068 27.379C78.7102 26.8846 78.389 26.4055 78.0442 25.9435C77.5652 25.3015 76.8811 24.8426 76.1054 24.6431C75.2981 24.4573 73.9741 24.8762 73.1229 24.5789C74.5516 23.7919 75.5785 22.4544 75.825 20.215C76.1088 17.702 75.0245 15.4862 73.9031 13.3211C73.2276 12.0511 72.2886 11.0007 71.5388 9.79145C70.9037 8.77815 70.3262 7.85267 69.3804 7.08931C66.9012 5.09986 63.5404 3.86025 60.6694 2.53958C57.6565 1.15136 54.2518 0.512976 50.9721 0.296805C47.2379 0.0108699 43.4879 -0.00493356 39.7514 0.249518C37.9545 0.39138 36.2218 0.0975213 34.4316 0.100899C34.2019 0.100899 33.979 0.100903 33.7561 0.121169C32.5958 -0.0181441 31.4243 -0.0373855 30.2602 0.0637495C26.9075 0.447558 23.578 1.01132 20.2859 1.75259C17.246 2.38759 14.1318 2.20519 11.3317 3.64746C9.04835 4.82289 7.33925 6.43067 6.29892 8.80518C5.22482 11.2709 4.33649 14.0068 4.11356 16.6752C4.0021 18.006 3.59002 19.813 4.11356 21.0121C3.19484 20.9885 2.34028 21.181 1.63097 22.0794C0.235992 23.8493 2.30651 25.2815 1.8539 27.2372C1.46884 28.8652 -0.199728 30.1149 0.0198207 31.8747C0.181949 33.1988 1.25943 34.0297 2.50579 34.256C3.15263 34.3633 3.8132 34.3576 4.45809 34.2391C3.20497 35.3774 2.19842 36.9412 2.05656 37.9545C1.95566 38.4976 2.06251 39.0587 2.35593 39.5267C2.64935 39.9947 3.10791 40.3353 3.64069 40.481C4.75195 40.8661 4.31623 40.5182 4.82625 41.5619C5.06514 42.0263 5.41279 42.4261 5.83956 42.7272C6.20737 43.0048 6.61063 43.232 7.03863 43.4027C7.20752 46.2129 7.79186 48.2936 10.2542 50.0263C11.4093 50.8404 12.5274 51.0396 13.8582 51.4146C15.6686 51.9212 17.1446 52.9919 18.8436 53.7553C21.8666 55.1064 25.0552 55.5455 28.3416 55.5894C32.2496 55.6434 36.1508 55.8022 40.052 55.4813C43.9533 55.1604 47.6924 54.9375 51.5801 54.9713C55.1357 54.9432 58.6787 54.5459 62.1522 53.7857C65.1921 53.1574 68.1577 52.3029 70.3532 49.9689C71.7786 48.4523 73.3931 45.8211 73.0553 43.602C74.6158 43.1494 76.3857 42.1732 77.4125 41.062C78.4393 39.9507 77.9563 38.3598 77.1761 37.279C76.7988 36.794 76.5074 36.2479 76.3148 35.6645C76.0676 35.0361 75.5819 34.5309 74.9637 34.2593C74.5989 34.0769 74.1936 34.0533 73.8288 33.8979C73.3053 33.6716 72.8155 33.2224 72.2717 33.0299L72.1738 33.0028C72.2278 32.7428 72.1974 32.4354 72.2616 32.1855C72.0927 31.3433 72.4586 31.1237 73.3593 31.5268C73.5546 31.7429 73.7682 31.9418 73.9977 32.1213C74.5232 32.5984 75.2002 32.8747 75.9095 32.9015C77.8719 32.9353 79.0777 31.3714 79.7533 29.713C79.9458 29.2469 80.091 28.9463 79.9323 28.4734C79.9289 28.4632 78.9561 27.2811 79.0068 27.379ZM5.44775 17.3676C5.48872 15.9035 5.72151 14.4511 6.14017 13.0475C6.93284 11.721 7.81535 10.4503 8.78152 9.24427C8.85245 9.14632 8.6937 9.0585 8.62276 9.1497C7.85941 10.1461 7.06903 11.1256 6.38674 12.1896C7.33249 9.16659 8.41335 6.55902 11.3756 4.91071C14.1385 3.38062 17.175 3.52586 20.1913 2.88411C23.1231 2.27612 26.0752 1.6141 29.0476 1.19527C29.0879 1.25149 29.143 1.29544 29.2068 1.32227C29.2706 1.3491 29.3406 1.35775 29.409 1.34726C32.3678 0.938564 35.0058 1.27296 37.9444 1.42495C40.7141 1.57019 43.5817 1.37766 46.3683 1.40468C49.3609 1.43508 52.3907 1.49926 55.3225 2.16466C58.1598 2.81317 60.6153 4.01901 63.2263 5.25524C65.2529 6.21787 67.8199 7.12647 69.3061 8.90312C71.0216 11.0185 72.444 13.3555 73.535 15.851C74.6496 18.3437 75.0887 21.8633 72.2346 23.3596C70.0526 24.5046 67.3099 24.1668 64.8543 24.0013C64.8543 24.0013 64.8543 24.0013 64.8746 23.9845L64.9422 23.8831C64.9607 23.8547 64.9675 23.8202 64.9612 23.7868C64.9549 23.7535 64.936 23.7238 64.9084 23.7041C64.9388 22.6469 65.1178 21.5694 65.1651 20.5088C65.1651 20.3163 64.878 20.3163 64.8678 20.5088C64.8273 21.1134 64.78 21.718 64.7192 22.3226C64.6324 22.8435 64.5771 23.3691 64.5537 23.8966C64.5561 23.927 64.5666 23.9562 64.5841 23.9811L64.0099 23.9507L63.2601 23.927C63.2901 23.9162 63.3162 23.8965 63.3349 23.8706C63.3535 23.8447 63.364 23.8137 63.3648 23.7818C63.456 22.5219 63.3648 21.2654 63.3445 20.0089C63.3395 19.978 63.3237 19.9499 63.2999 19.9296C63.276 19.9094 63.2458 19.8982 63.2145 19.8982C63.1832 19.8982 63.1529 19.9094 63.1291 19.9296C63.1052 19.9499 63.0894 19.978 63.0844 20.0089C63.0844 21.2046 63.1351 22.4003 63.0439 23.596C63.0264 23.6027 63.0107 23.6134 62.9981 23.6272C62.9854 23.641 62.9761 23.6575 62.9709 23.6755C62.9656 23.6935 62.9646 23.7124 62.9679 23.7309C62.9712 23.7493 62.9787 23.7667 62.9899 23.7818L63.054 23.8662C63.0746 23.8909 63.1014 23.9096 63.1317 23.9203C62.6791 23.9203 62.2299 23.9 61.7806 23.8933C61.6219 22.1267 61.2841 20.3906 61.2605 18.6072C61.2552 18.5729 61.2378 18.5416 61.2115 18.519C61.1852 18.4964 61.1516 18.484 61.1169 18.484C61.0822 18.484 61.0487 18.4964 61.0224 18.519C60.996 18.5416 60.9787 18.5729 60.9734 18.6072C60.9846 20.3774 61.128 22.1444 61.4023 23.8933H60.1222C60.0925 22.5937 59.9797 21.2974 59.7844 20.0123C59.7608 19.8367 59.4872 19.8333 59.5041 20.0123C59.646 21.306 59.7236 22.5962 59.7608 23.8933H58.9974C58.2375 22.3429 58.3219 20.4413 57.9841 18.7727C57.947 18.5971 57.6869 18.6714 57.7173 18.8436C58.001 20.4582 57.8963 22.3733 58.5955 23.9101H57.008C57.0214 23.8829 57.0272 23.8526 57.0249 23.8223C56.9438 22.1335 56.6297 20.4446 56.3865 18.7828C56.3662 18.6241 56.0859 18.6612 56.1061 18.82C56.3189 20.4886 56.5554 22.147 56.6736 23.8223C56.6764 23.8521 56.6856 23.8809 56.7006 23.9068C56.275 23.9068 55.8494 23.9068 55.4239 23.8899C55.4292 23.8677 55.4292 23.8445 55.4239 23.8223C55.2381 21.9916 54.8057 20.1947 54.4714 18.3843C54.441 18.212 54.1809 18.2863 54.2113 18.4586C54.5051 20.2454 54.853 22.0558 55.0624 23.8629C55.0625 23.8951 55.0682 23.9271 55.0793 23.9574H55.0557C52.08 23.9574 49.0232 24.1398 46.0643 23.8054C45.9427 23.8054 45.8245 23.7615 45.7029 23.748C45.3651 22.5118 45.3651 21.1033 45.257 19.8333C45.257 19.6712 44.9902 19.6644 45.0037 19.8333C45.0814 21.0357 45.0037 22.505 45.3584 23.6974C43.6249 23.5013 41.8809 23.4133 40.1365 23.4339C39.9258 22.3097 39.796 21.1719 39.7481 20.0292C39.7481 19.8772 39.4981 19.8738 39.5082 20.0292C39.5657 21.1573 39.5082 22.3632 39.873 23.4406C39.3821 23.4542 38.8856 23.4812 38.3835 23.5217C38.4409 22.1875 38.1403 20.7351 38.0457 19.428C38.0457 19.2793 37.7991 19.276 37.8093 19.428C37.8903 20.7993 38.0187 22.1706 38.0795 23.542L37.887 23.5589C37.5833 23.5789 37.2786 23.5789 36.975 23.5589C36.9805 23.5327 36.9794 23.5056 36.9719 23.48C36.9644 23.4544 36.9507 23.431 36.932 23.4119C36.9132 23.3929 36.8901 23.3788 36.8646 23.3708C36.8391 23.3629 36.8121 23.3613 36.7858 23.3663C36.09 23.5048 35.8908 19.0159 35.857 18.516C35.857 18.3505 35.5868 18.3471 35.5969 18.516C35.6847 20.1103 35.5766 22.0693 36.4109 23.5082C35.786 23.4238 35.1916 23.2751 34.5566 23.1367C34.0026 22.049 34.0026 20.4345 33.854 19.3165C33.8337 19.151 33.577 19.1476 33.5939 19.3165C33.6885 20.1474 33.7729 20.9817 33.9114 21.8092C33.9607 22.2356 34.0546 22.6556 34.1918 23.0623L33.8101 22.988C33.4124 22.9269 33.009 22.9111 32.6076 22.9407C32.4625 22.4261 32.3575 21.901 32.2935 21.3701C32.1483 20.4784 32.0672 19.5766 31.9321 18.6849C31.9118 18.5396 31.6957 18.6038 31.7159 18.7457C31.8612 19.8198 31.9254 20.9074 32.1145 21.9747C32.1719 22.3125 32.2192 22.6503 32.307 22.961C31.8274 23.0049 31.3545 23.0894 30.8749 23.1569C30.5608 22.424 30.5743 20.0224 30.5371 19.6137C30.5371 19.455 30.2804 19.455 30.2872 19.6137C30.3255 20.4109 30.3728 21.208 30.429 22.0051C30.4364 22.4075 30.4908 22.8077 30.5912 23.1975C30.3142 23.2312 30.0406 23.265 29.7603 23.2785H29.3853C29.3765 23.2437 29.3548 23.2135 29.3245 23.1941C29.1564 22.3696 29.0805 21.5291 29.0982 20.6878C29.0611 19.6948 29.0543 18.7018 28.98 17.7121C28.98 17.5365 28.6929 17.5331 28.7064 17.7121C28.774 18.8267 28.7537 19.9448 28.7976 21.0594C28.7781 21.8054 28.845 22.5512 28.9969 23.2819C28.4903 23.2819 27.9836 23.2414 27.4702 23.1941C27.433 21.691 27.4702 20.2251 27.558 18.7119C27.558 18.5599 27.3385 18.5633 27.325 18.7119C27.1743 20.1907 27.1179 21.6777 27.1561 23.1637C26.7575 23.1198 26.3589 23.0725 25.9604 23.0184C25.9659 21.6831 26.0948 20.3511 26.3454 19.0395C26.3725 18.8842 26.1394 18.8166 26.109 18.9754C25.828 20.2908 25.672 21.6298 25.6429 22.9745L24.66 22.8394C24.665 22.8172 24.665 22.7941 24.66 22.7719C24.4404 21.6201 24.7039 20.2623 24.8559 19.1071C24.8559 18.9652 24.6228 18.9314 24.6026 19.0733C24.437 20.2183 24.0858 21.664 24.383 22.7888C23.7615 22.7043 23.14 22.6334 22.5219 22.5861C22.5477 21.8616 22.6542 21.1422 22.8394 20.4413C23.0218 19.4989 23.2549 18.5667 23.4508 17.6277C23.4845 17.4655 23.238 17.3946 23.2008 17.5601C22.9171 18.8436 22.5557 20.117 22.3598 21.4208C22.2833 21.7977 22.2303 22.179 22.201 22.5624H21.9747L21.1404 22.532C21.1318 22.5158 21.1199 22.5015 21.1053 22.4902C21.0907 22.479 21.0738 22.471 21.0559 22.4668C21.038 22.4627 21.0193 22.4624 21.0013 22.4661C20.9832 22.4698 20.9662 22.4773 20.9513 22.4881C20.6135 22.728 20.8736 20.931 20.8804 20.8635C20.9614 20.3636 21.056 19.8671 21.1641 19.3705C21.3802 18.3944 21.6437 17.425 21.8396 16.4455C21.8734 16.2834 21.6268 16.2158 21.593 16.3745C21.2891 17.7965 20.8466 19.1814 20.5797 20.6135C20.475 21.1877 20.2183 21.9241 20.3771 22.5118C19.8671 22.5118 19.3638 22.4881 18.847 22.4611C18.8633 22.0592 18.9187 21.6599 19.0125 21.2688C19.1172 20.6811 19.2489 20.0967 19.3773 19.5158C19.6272 18.3606 19.8974 17.2055 20.1339 16.0469C20.1677 15.8747 19.9042 15.8003 19.8671 15.9726C19.5529 17.4351 19.1915 18.8842 18.8537 20.3433C18.7254 20.9209 18.4349 21.7417 18.4653 22.4341C18.2019 22.4138 17.9418 22.3969 17.6817 22.3699C15.9929 22.1808 14.6924 21.4951 13.1252 20.9749C12.8319 20.8718 12.5316 20.7894 12.2267 20.7284C12.3766 20.7018 12.5149 20.6305 12.6235 20.5238C12.732 20.417 12.8057 20.2799 12.8347 20.1305C12.8786 20.0022 12.6658 19.911 12.6152 20.036C12.2774 20.85 12.6152 19.4651 12.6557 19.3233C12.7672 19.0091 12.8955 18.6984 13.0239 18.3876C13.3887 17.4926 13.7839 16.6144 14.1858 15.7362C14.2263 15.645 14.098 15.5673 14.0507 15.6585C13.284 17.1987 12.3348 18.8267 12.0241 20.5426C12.0187 20.5741 12.0225 20.6065 12.0351 20.6358C12.0477 20.6652 12.0685 20.6903 12.095 20.7081C11.6343 20.63 11.1672 20.5961 10.7 20.6068C10.7187 20.5884 10.7324 20.5655 10.7396 20.5403C10.7468 20.5151 10.7474 20.4884 10.7413 20.4629C10.7352 20.4374 10.7225 20.4139 10.7047 20.3948C10.6868 20.3756 10.6642 20.3613 10.6392 20.3535C10.2812 20.2319 11.9667 16.5502 12.095 16.253C12.1491 16.1246 11.9633 16.0131 11.9059 16.1415C11.2776 17.5365 10.5548 18.8842 10.2812 20.4075C10.2706 20.4478 10.2759 20.4906 10.296 20.5271C10.3162 20.5636 10.3496 20.5909 10.3893 20.6034H10.4298C9.64282 20.6507 8.7984 20.8736 7.97087 20.9648L8.19718 20.7858C8.31877 20.6912 8.15664 20.475 8.02829 20.5696L7.85603 20.6946C7.88643 20.0562 8.59912 19.0328 8.84907 18.5802C9.2071 17.9215 9.59216 17.2764 9.98734 16.638C10.0583 16.5265 9.88264 16.4252 9.81171 16.5367C9.23075 17.4385 8.70045 18.3674 8.17691 19.303C7.83914 19.8806 7.39667 20.3163 7.59595 20.9918C7.16213 21.0245 6.726 20.9775 6.30906 20.8533H6.28203C6.31671 20.8501 6.34908 20.8345 6.37323 20.8094L6.59616 20.5933C6.61336 20.5775 6.62593 20.5573 6.63253 20.5349C6.63912 20.5125 6.63949 20.4888 6.63358 20.4662C6.62767 20.4436 6.61572 20.4231 6.59901 20.4068C6.5823 20.3905 6.56146 20.3791 6.53874 20.3737C7.28858 18.1647 8.70383 16.3205 9.89615 14.3479C9.90873 14.3226 9.91119 14.2934 9.90302 14.2662C9.89484 14.2391 9.87665 14.2161 9.85214 14.2019C9.82763 14.1878 9.79864 14.1834 9.77105 14.1898C9.74347 14.1963 9.71936 14.2129 9.70362 14.2365C8.41335 16.3137 6.76504 18.2559 6.11653 20.6541C6.11042 20.6798 6.11161 20.7067 6.11996 20.7317C6.12832 20.7568 6.14351 20.779 6.16382 20.7959C4.98163 20.2859 5.40384 18.5565 5.44775 17.3676ZM68.2286 29.9967L68.8805 29.3685C68.9189 29.3972 68.955 29.4288 68.9886 29.463C69.3264 29.7839 69.7959 29.2975 69.4953 28.9564L69.4007 28.8618L69.448 28.8145C69.5831 28.6794 69.3703 28.4768 69.2386 28.6051L69.1811 28.6625C69.0338 28.5408 68.8729 28.4365 68.7015 28.3518C69.2791 28.1611 69.8972 28.1284 70.4917 28.2572C70.7607 28.3188 71.0258 28.3967 71.2854 28.4903C70.9482 29.0199 70.5686 29.5215 70.1505 29.99C69.9918 29.8717 69.7824 30.0744 69.9276 30.2264L70.0492 30.3514C70.0823 30.382 70.1257 30.399 70.1708 30.399C70.2159 30.399 70.2593 30.382 70.2924 30.3514C70.7827 29.8093 71.2225 29.2237 71.6063 28.6017C72.0298 28.7653 72.469 28.8853 72.9168 28.9598C72.6667 29.355 72.3434 29.6989 71.9643 29.9731C71.9395 29.9884 71.9196 30.0106 71.907 30.0369C71.8944 30.0633 71.8897 30.0927 71.8934 30.1217C71.5522 30.3775 71.2966 30.7309 71.1605 31.135C70.8801 31.9017 71.076 32.4286 70.6808 32.9421L70.083 33.0332C69.9463 33.0603 69.8256 33.1398 69.7467 33.2546C69.6678 33.3695 69.6369 33.5107 69.6608 33.648C68.7671 33.9615 67.8279 34.1258 66.8809 34.1344C64.2801 34.283 62.1522 33.5534 60.6761 31.3377C60.1256 30.5169 59.6358 29.6488 58.7678 29.159C59.9905 29.3989 61.2774 29.9055 62.3008 29.9461C63.1161 29.9802 63.9324 29.9087 64.7294 29.7333C65.3542 29.5982 66.1378 29.2435 66.9147 29.0577C66.921 29.0776 66.9318 29.0958 66.9464 29.1107C66.961 29.1255 66.979 29.1367 66.9988 29.1433C67.0186 29.1499 67.0396 29.1517 67.0602 29.1486C67.0809 29.1454 67.1004 29.1375 67.1174 29.1253L67.3572 28.98C67.8001 28.9102 68.2537 28.9848 68.6508 29.1928L68.053 29.8076C68.0279 29.8309 68.0131 29.8632 68.0118 29.8974C68.0106 29.9316 68.0229 29.9649 68.0462 29.99C68.0695 30.015 68.1018 30.0298 68.136 30.0311C68.1702 30.0324 68.2035 30.02 68.2286 29.9967ZM40.025 34.6579C38.37 34.4046 36.7419 34.1141 35.07 33.9824C33.2089 33.854 31.2667 33.8878 29.4833 33.2832C29.3279 33.2292 29.1759 33.1684 29.0273 33.1008C29.0182 33.0589 29.0003 33.0195 28.9749 32.985C28.9494 32.9506 28.917 32.9219 28.8797 32.9008C28.8423 32.8798 28.801 32.8668 28.7583 32.8629C28.7157 32.8589 28.6727 32.864 28.6321 32.8779H28.6051C27.6898 32.3712 26.8251 31.6687 25.903 31.2971C26.609 30.9813 27.287 30.6062 27.9296 30.1757C32.1719 33.5534 38.6334 32.6414 43.6594 33.2156C46.5912 33.5534 49.1583 34.793 52.1272 35.0396C52.259 35.0396 52.3907 35.07 52.5224 35.07C53.225 35.07 53.5729 35.0869 54.5862 35.0497V35.07H54.924V35.0193C56.9567 34.8799 58.9664 34.5047 60.9126 33.9013C61.4995 34.4792 62.2064 34.9209 62.9831 35.195C63.3984 35.3397 63.8241 35.4527 64.2565 35.5327C61.5003 37.2418 58.1767 37.2216 54.951 37.3297C53.1912 37.3871 51.4078 37.6674 49.6446 37.61C47.5606 37.5289 46.2467 36.2589 44.416 35.526C43.0176 34.9416 41.5011 34.8808 40.0284 34.6579H40.025ZM5.59636 32.4725C5.09985 32.2631 4.89381 30.9661 4.78572 30.5101C4.64724 29.9258 4.54591 29.3347 4.44796 28.7436C4.55198 29.072 4.73797 29.3684 4.98838 29.6049C5.1978 30.2534 5.41397 30.8918 5.66392 31.5268C5.76863 31.7936 5.85982 32.1855 6.18408 32.2463C6.31243 32.2699 6.43065 32.1145 6.31919 32.0132C6.05128 31.6896 5.85448 31.3133 5.74161 30.9087C5.60312 30.554 5.48152 30.1926 5.36668 29.8278C5.61803 29.9031 5.8847 29.9112 6.14017 29.8515C6.3434 29.8074 6.54068 29.7394 6.72789 29.6488C6.86854 30.328 7.122 30.9787 7.47773 31.5741C7.4908 31.5985 7.51121 31.6181 7.53607 31.6302C7.56092 31.6423 7.58896 31.6463 7.61622 31.6416C6.98316 32.0149 6.32651 32.3466 5.65041 32.6347C5.66288 32.6057 5.66426 32.5732 5.65429 32.5433C5.64433 32.5134 5.62371 32.4882 5.59636 32.4725ZM6.66033 22.3395C7.31541 22.3645 7.97137 22.3271 8.61939 22.2281C8.28162 22.9745 7.94385 23.7176 7.64662 24.4742L7.54529 24.7107C7.46501 24.6254 7.3916 24.5339 7.32574 24.4371C7.30658 24.4127 7.27925 24.396 7.24878 24.3902C7.21831 24.3844 7.18677 24.3899 7.16 24.4055C7.13322 24.4212 7.11302 24.446 7.10313 24.4754C7.09324 24.5048 7.09432 24.5368 7.10619 24.5654C7.1942 24.7294 7.2947 24.8864 7.4068 25.0349C7.04539 25.8726 6.63669 26.8082 6.67047 27.6594C6.67175 27.6945 6.68417 27.7283 6.70594 27.7559C6.72772 27.7835 6.7577 27.8034 6.79157 27.8128C6.82543 27.8222 6.86141 27.8206 6.89429 27.8082C6.92717 27.7958 6.95525 27.7732 6.97446 27.7438L7.14334 27.477C7.15438 27.4537 7.15958 27.428 7.15849 27.4023C7.1574 27.3765 7.15006 27.3514 7.13709 27.3291C7.12411 27.3068 7.10591 27.2881 7.08405 27.2744C7.06219 27.2607 7.03733 27.2526 7.01161 27.2507C7.12318 26.5682 7.32538 25.9037 7.61284 25.2747C7.91873 25.5959 8.31831 25.8123 8.75449 25.8928C8.73085 26.0854 9.02471 26.1056 9.09226 25.9368C9.36617 25.9548 9.64122 25.9446 9.91304 25.9063C9.85843 26.0814 9.81444 26.2596 9.78131 26.44C8.99399 26.77 8.25625 27.2077 7.58919 27.7404C6.89002 28.2403 6.16719 29.4056 5.24846 28.345C5.06269 28.1356 5.01878 27.629 4.97825 27.254C5.00196 27.2468 5.02297 27.2326 5.03861 27.2134C5.05425 27.1941 5.06381 27.1707 5.06607 27.146C5.34979 25.5382 6.0456 23.9473 6.66033 22.4442C6.67292 22.4128 6.67292 22.3777 6.66033 22.3463V22.3395ZM10.1326 25.3153C9.84871 25.3704 9.56044 25.3998 9.27128 25.4031C9.65971 24.2682 10.1089 23.1569 10.5717 22.0457C10.8892 22.0457 11.2033 22.0457 11.5141 22.0457C11.1763 22.9137 10.8385 23.7818 10.44 24.6296C10.3251 24.8593 10.2238 25.0856 10.1326 25.3153ZM9.31181 24.2783C9.1767 24.6161 9.00782 25.0045 8.88622 25.3828C8.47771 25.3397 8.09049 25.179 7.77159 24.9201L7.92021 24.5519C8.22758 23.7582 8.5721 22.9779 8.91324 22.1875C9.37936 22.1166 9.82184 22.0659 10.2474 22.0389C9.91641 22.7888 9.59554 23.5285 9.30168 24.2783H9.31181ZM10.7372 26.2576H10.6223C10.4663 26.2717 10.3117 26.2977 10.1596 26.3353C10.197 26.1719 10.2433 26.0107 10.2981 25.8523C10.4467 25.8253 10.5987 25.7949 10.7541 25.7577C10.9095 25.7206 10.9804 25.7037 11.0918 25.6733C10.9669 25.876 10.8487 26.0685 10.7271 26.2576H10.7372ZM7.73444 31.5977C7.75119 31.5747 7.76021 31.5469 7.76021 31.5184C7.76021 31.4898 7.75119 31.4621 7.73444 31.439C7.43184 30.8469 7.21572 30.2144 7.09268 29.561C7.0862 29.531 7.07226 29.5031 7.05214 29.4799C7.95736 28.9294 8.74098 27.9769 9.68673 27.5952L9.8725 27.531C9.89615 27.6459 10.038 27.7337 10.1326 27.6188C10.1833 27.558 10.2305 27.4939 10.2778 27.4297C11.5242 27.2101 13.0813 27.6627 14.3614 28.3889C14.2314 28.3919 14.1016 28.4032 13.973 28.4227C12.041 28.6794 10.4197 29.9427 8.81529 30.9391C8.50455 31.1282 8.133 31.3579 7.7243 31.5977H7.73444ZM12.5274 30.4122C13.7231 29.9089 14.966 29.7096 16.3104 30.2332C18.2931 31.0033 19.8231 32.0098 22.0321 32.0943C23.1415 32.1326 24.2476 31.9536 25.2882 31.5673C25.3239 31.5799 25.3629 31.5794 25.3982 31.5657C25.4335 31.5521 25.4628 31.5263 25.4807 31.493C25.4368 31.8882 26.1326 32.4658 26.9365 32.9927C25.8658 32.9083 24.7512 32.6381 23.7345 32.6212C22.2145 32.6009 20.6946 32.7867 19.1881 32.9049C17.6817 33.0231 16.0739 33.1076 14.5202 33.2123C14.1781 33.2732 13.8299 33.2925 13.4832 33.2697C11.8991 32.9556 12.2403 31.5369 12.5172 30.4122H12.5274ZM41.7645 31.6822C42.3387 30.7905 42.9569 29.9359 43.5817 29.0814C43.8823 28.98 44.1829 28.872 44.4836 28.7436C44.0681 29.2097 43.6628 29.6826 43.271 30.1724C42.8792 30.6621 42.2577 31.2161 42.3016 31.8612C42.302 31.8899 42.3099 31.9179 42.3244 31.9427C42.339 31.9674 42.3597 31.9879 42.3845 32.0022C42.4094 32.0165 42.4375 32.0241 42.4662 32.0243C42.4949 32.0244 42.5231 32.0171 42.5481 32.0031L42.815 31.824C42.8477 31.8048 42.8714 31.7733 42.8809 31.7366C42.8904 31.6998 42.8849 31.6608 42.8657 31.6281C42.8464 31.5954 42.8149 31.5717 42.7782 31.5622C42.7415 31.5527 42.7024 31.5582 42.6697 31.5775C42.842 30.9864 43.5885 30.2669 43.906 29.8684C44.2741 29.409 44.666 28.9699 45.0645 28.5342C45.9891 28.1519 46.9662 27.9117 47.9626 27.8215C49.1616 27.7607 49.8102 28.0849 50.3911 28.6727C49.4082 29.7941 48.172 30.9695 47.591 32.3577C47.5066 32.5604 47.8072 32.6381 47.9288 32.4962L48.0842 32.2969C48.0988 32.2755 48.1067 32.2502 48.1067 32.2243C48.1067 32.1984 48.0988 32.1731 48.0842 32.1517C48.6955 30.9425 49.7156 29.8954 50.5769 28.8719C50.7154 29.0273 50.8539 29.2097 50.9991 29.382C50.977 29.3871 50.9569 29.3989 50.9417 29.4158C50.1134 30.2857 49.3481 31.2135 48.6516 32.1922C48.6306 32.229 48.6248 32.2727 48.6355 32.3137C48.6462 32.3547 48.6726 32.3899 48.709 32.4118L48.7631 32.4354C48.8847 32.4894 49.0333 32.3746 48.9556 32.2429C48.9556 32.2598 49.3508 31.7531 49.3846 31.7058C49.594 31.4255 49.8102 31.1553 50.0331 30.885C50.3911 30.4527 50.7627 30.0339 51.1342 29.6083L51.1511 29.5779L51.3673 29.865C51.8232 30.4561 52.1948 30.9425 52.9514 31.1417C52.6947 31.52 52.4447 31.9017 52.2016 32.2868C51.9482 32.6955 51.6814 33.4656 51.2693 33.6986C51.1376 33.773 51.2254 33.9993 51.374 33.9452C51.8503 33.7696 51.9347 33.3102 52.1678 32.8948C52.5055 32.3172 52.8602 31.7565 53.2351 31.2059C53.4384 31.2376 53.6441 31.2511 53.8499 31.2465C53.404 32.2767 52.9683 33.3102 52.5765 34.3641C52.4346 34.3641 52.2927 34.3641 52.1509 34.3472C50.7559 34.2526 49.317 34.1445 47.9963 33.6716C46.7359 33.1622 45.4247 32.7885 44.085 32.557L43.5615 32.4894C43.5615 32.4894 43.5615 32.4624 43.5783 32.4489C44.4648 31.0975 45.4433 29.8087 46.5068 28.5916C46.5912 28.4903 46.446 28.345 46.3615 28.4464C45.2874 29.7434 44.1357 30.9796 43.2237 32.3982C43.2237 32.3982 43.2237 32.4286 43.2237 32.4422C41.5348 32.2158 39.846 32.0639 38.1572 31.9862C38.9374 31.135 39.7413 30.2973 40.579 29.5036C40.731 29.5205 40.8863 29.534 41.0451 29.5407C41.8174 29.5481 42.5856 29.4271 43.3183 29.1827C42.7001 29.9528 42.0922 30.7297 41.545 31.5471C41.4099 31.6889 41.6564 31.8342 41.7544 31.6822H41.7645ZM59.038 31.5673C59.6156 32.2429 60.0243 32.8948 60.5275 33.4656C58.6918 33.8745 56.8312 34.1622 54.9577 34.3269V34.0702C54.9577 33.7324 54.62 33.7324 54.62 34.0702V34.3505C54.2822 34.3809 53.4716 34.3911 52.8872 34.3742C53.2655 33.3102 53.6979 32.2665 54.1268 31.2228C55.9339 31.0269 57.3187 29.5576 59.0278 31.5673H59.038ZM37.8228 31.8443L37.7417 31.9625C37.4039 31.9625 37.0358 31.9321 36.6777 31.9254H36.5629C37.5762 31.0033 38.6571 30.1757 39.7481 29.3516C39.8967 29.3887 40.0453 29.4225 40.1973 29.4462C39.4035 30.1994 38.6199 30.9695 37.8971 31.7903C37.8702 31.802 37.8469 31.8206 37.8295 31.8443H37.8228ZM36.1711 31.9119C35.8671 31.9119 35.5564 31.8848 35.2422 31.8646C35.5356 31.6589 35.8143 31.4332 36.0765 31.189C36.7521 30.6452 37.3904 30.0845 38.0288 29.5002C38.1504 29.3887 37.9714 29.2131 37.8498 29.3212C37.3544 29.7603 36.8478 30.1904 36.3298 30.6115C35.8435 31.01 35.3165 31.591 34.7052 31.7936C34.7052 31.7936 34.6849 31.8105 34.6748 31.8207C33.9992 31.7599 33.2798 31.6687 32.584 31.5437L32.7394 31.412C32.7568 31.399 32.7702 31.3812 32.778 31.3609C32.7858 31.3406 32.7876 31.3185 32.7833 31.2971C33.4014 30.7297 34.0702 30.2264 34.7221 29.6927C34.8403 29.5948 34.6714 29.436 34.5566 29.5272C33.73 30.1251 32.9404 30.7725 32.1922 31.466C31.8544 31.3951 31.5167 31.314 31.1789 31.2228C32.1314 30.3412 33.2055 29.5914 34.2188 28.8078C34.3336 28.72 34.2188 28.5207 34.1006 28.6085C33.1278 29.311 32.1381 29.99 31.2194 30.7634C31.192 30.7666 31.1667 30.7799 31.1485 30.8006L30.885 31.0438C30.8601 31.0657 30.8434 31.0955 30.8377 31.1282C30.5 31.0269 30.1791 30.9154 29.8582 30.7905C30.8146 30.1473 31.7378 29.4562 32.6245 28.72C32.7596 28.6186 32.6245 28.3822 32.4894 28.4903C31.5099 29.23 30.5574 30.0001 29.5171 30.652C29.0754 30.4706 28.6476 30.2572 28.2369 30.0136C30.1892 28.6828 32.4455 26.6765 34.8977 27.406C36.519 27.889 37.9376 28.8348 39.5251 29.2807C38.3588 30.0987 37.2359 30.9769 36.161 31.9119H36.1711ZM64.2835 28.2775C64.145 28.1154 63.8917 28.3248 63.993 28.5038L64.1079 28.6963C64.1297 28.7317 64.1614 28.7598 64.1991 28.7774C63.5874 28.9681 62.9542 29.0816 62.3143 29.1151C61.5572 29.091 60.8055 28.9776 60.0749 28.7774C60.1902 28.6556 60.2953 28.5246 60.389 28.3856C60.8518 27.7472 61.3382 27.1291 61.784 26.4806C61.8955 26.3184 61.632 26.1698 61.5206 26.3286C61.1828 26.8014 60.845 27.2676 60.4802 27.7269C60.2337 28.0444 59.9094 28.676 59.4669 28.6423C58.8955 28.5076 58.3111 28.4351 57.7241 28.4261L58.3557 27.8147C58.3843 27.7861 58.4004 27.7472 58.4004 27.7067C58.4004 27.6661 58.3843 27.6272 58.3557 27.5986C58.327 27.5699 58.2881 27.5538 58.2476 27.5538C58.2071 27.5538 58.1682 27.5699 58.1395 27.5986C57.8592 27.8823 57.5822 28.1694 57.3052 28.4565C56.65 28.5246 56.0422 28.8297 55.5961 29.3144C54.8969 29.5576 54.1944 29.7772 53.458 29.6319C52.3806 29.4157 52.2353 28.8078 51.5497 28.0849C51.221 27.7273 50.8295 27.433 50.3945 27.2169C48.9657 26.5413 47.2668 26.8589 45.8211 27.3013C43.835 27.9093 42.0787 28.9361 39.9169 28.47C38.0119 28.0613 36.4481 26.7541 34.5667 26.3286C31.3815 25.6057 28.5375 28.5848 25.9232 29.9021C23.5588 31.0877 20.9243 30.9154 18.5903 29.7704C17.6141 29.2908 16.7427 28.7808 15.7767 28.5308C14.5438 27.3689 12.6388 26.3488 11.0986 26.2576C11.2405 26.0279 11.3789 25.7949 11.5073 25.5551C12.8584 25.1464 14.1081 24.5958 15.5875 24.937C15.5209 25.4072 15.5555 25.8862 15.6889 26.3421C15.6999 26.377 15.724 26.4064 15.7561 26.424C15.7883 26.4416 15.826 26.446 15.8614 26.4364C15.8967 26.4268 15.927 26.4039 15.9459 26.3724C15.9647 26.341 15.9707 26.3035 15.9625 26.2678C15.8767 25.8582 15.8528 25.4381 15.8915 25.0214C16.2803 25.1422 16.656 25.3018 17.0129 25.4976C16.9388 25.8966 16.8847 26.2991 16.8508 26.7035C16.8508 26.9332 17.1886 26.9298 17.1886 26.7035C17.219 26.413 17.2595 26.1225 17.3068 25.832C17.9095 26.7163 18.6922 27.4633 19.6036 28.0242C20.1487 28.3302 20.7343 28.5576 21.3431 28.6997C23.1366 30.6317 26.4637 28.524 28.649 27.6864C29.2232 27.4635 28.9868 26.5278 28.3889 26.744C27.2439 27.1628 25.376 28.3349 23.7716 28.6558C23.7744 28.6295 23.7712 28.603 23.7622 28.5782C23.7533 28.5533 23.7389 28.5308 23.7201 28.5123C23.7012 28.4938 23.6785 28.4798 23.6535 28.4713C23.6285 28.4628 23.6019 28.4601 23.5757 28.4632C23.049 28.5411 22.5147 28.5536 21.9849 28.5004C21.5851 28.2736 21.2761 27.9156 21.11 27.4871C21.0053 27.2574 20.6 27.4263 20.698 27.6627C20.7899 27.8869 20.903 28.1018 21.0357 28.3045C19.9621 28.0199 18.9985 27.4198 18.2694 26.5819C18.2838 26.5853 18.2989 26.5853 18.3133 26.5819L18.3775 26.5312C18.4033 26.5131 18.4223 26.487 18.4315 26.4569C18.7322 26.6798 19.0328 26.9095 19.3266 27.1324C19.6205 27.3554 20.0832 26.8285 19.7691 26.5549L19.4651 26.2982L19.5631 25.9604C21.1508 26.6024 22.8745 26.8347 24.5755 26.6359C25.7307 26.5312 26.8622 26.2272 27.6154 25.3625L27.9127 25.2916C29.3638 24.9729 30.842 24.793 32.3273 24.7546C32.3573 24.7496 32.3847 24.7342 32.4044 24.711C32.4241 24.6878 32.4349 24.6583 32.4349 24.6279C32.4349 24.5975 32.4241 24.568 32.4044 24.5448C32.3847 24.5216 32.3573 24.5062 32.3273 24.5012C31.054 24.4768 29.7814 24.5763 28.5274 24.7985C28.3248 24.8356 28.1288 24.8795 27.9296 24.9302L27.9498 24.8998C28.0444 24.7377 27.8046 24.6059 27.6999 24.7546C27.6261 24.8583 27.5448 24.9565 27.4567 25.0484C26.3893 25.3355 25.3389 25.6767 24.2243 25.6936C24.1884 25.6936 24.1541 25.7078 24.1287 25.7331C24.1034 25.7585 24.0891 25.7928 24.0891 25.8287C24.0891 25.8645 24.1034 25.8989 24.1287 25.9242C24.1541 25.9495 24.1884 25.9638 24.2243 25.9638C25.1289 25.9518 26.0272 25.812 26.8926 25.5483C26.0583 26.0921 24.9944 26.2678 23.9811 26.3353C22.5093 26.4733 21.026 26.2579 19.6543 25.7071L19.759 25.3423C19.8029 25.1835 19.5462 25.1126 19.5124 25.2747L19.4381 25.6125H19.4009C19.2523 25.5449 19.1206 25.7645 19.2692 25.8354L19.3807 25.8827L19.3199 26.1664C19.0699 25.9604 18.8132 25.7645 18.5464 25.5753C18.5937 25.2713 18.6376 24.9707 18.695 24.6667C18.7321 24.4607 18.4113 24.3695 18.3572 24.5789C18.3032 24.7883 18.266 25.0957 18.2221 25.3558C17.9821 25.1937 17.7341 25.0438 17.479 24.9066C17.5432 24.5924 17.6108 24.2817 17.6783 23.9676C17.7256 23.7581 17.4047 23.6669 17.3405 23.8797C17.273 24.1635 17.2088 24.4506 17.1446 24.7377C16.7578 24.5466 16.3527 24.395 15.9354 24.2851C15.9354 24.231 15.9354 24.177 15.9523 24.1229C15.9523 23.9338 15.672 23.9338 15.6551 24.1229V24.2141C15.4761 24.1804 15.2937 24.1466 15.1079 24.1263C14.179 24.0385 13.0205 24.4641 11.8518 24.8491C12.0771 24.3646 12.2767 23.8685 12.4497 23.363C12.5105 23.1873 12.2335 23.113 12.1727 23.2853C11.9698 23.8622 11.7318 24.4262 11.46 24.9741C11.1459 25.0721 10.8318 25.1666 10.5244 25.2409C10.6595 24.9234 10.8047 24.6093 10.9365 24.2851C11.2371 23.5555 11.5107 22.8158 11.7809 22.0761C12.6132 22.1521 13.4313 22.3408 14.2128 22.6368C17.1953 23.7379 20.2757 23.3798 23.39 23.5183C24.1466 23.5521 24.9065 23.6197 25.6631 23.6906C25.6631 23.7345 25.6631 23.7784 25.6631 23.8189C25.6631 24.0081 25.9739 24.0115 25.9604 23.8189C25.9604 23.7852 25.9604 23.7514 25.9604 23.7176L27.1763 23.8325C27.1808 23.8656 27.1965 23.8961 27.2208 23.919C27.2451 23.9419 27.2766 23.9557 27.31 23.9581C27.3433 23.9605 27.3764 23.9513 27.4037 23.9321C27.4311 23.9129 27.451 23.8849 27.4601 23.8527L28.372 23.9203C29.7839 23.998 31.1384 23.5825 32.5232 23.5183C32.5789 23.6252 32.6457 23.726 32.7225 23.8189C32.8238 23.9405 33.0366 23.7784 32.942 23.6501C32.9116 23.6061 32.888 23.5589 32.861 23.515C32.9353 23.515 33.0096 23.515 33.0839 23.515C34.6174 23.5656 35.9617 24.2783 37.5323 24.2817C38.4409 24.2817 39.3394 24.2445 40.2344 24.2344V24.2547C40.2561 24.2893 40.2901 24.3145 40.3296 24.3251C40.369 24.3357 40.4111 24.3311 40.4472 24.3121L40.5857 24.2513C40.5948 24.2477 40.603 24.2419 40.6094 24.2344C41.4561 24.227 42.302 24.2869 43.1392 24.4134C50.05 25.5382 57.0316 25.1801 64.0167 25.5179C65.03 25.5686 66.1176 25.6328 67.2187 25.6463C66.2426 26.8386 64.628 28.6963 64.2734 28.2775H64.2835ZM17.7222 25.9368C17.8573 26.028 17.9857 26.1259 18.1174 26.2171C18.1174 26.2745 18.1174 26.3353 18.1174 26.3927C17.9722 26.2441 17.8472 26.0921 17.7222 25.9368ZM2.18491 33.0299C0.77642 32.4219 0.995969 31.2566 1.50938 30.169C1.59585 30.6299 1.72359 31.082 1.89105 31.5201C2.07007 31.9895 2.22882 32.4861 2.75574 32.6516C2.77415 32.6567 2.79339 32.6582 2.81235 32.6558C2.83132 32.6535 2.84965 32.6475 2.86628 32.6381C2.88291 32.6287 2.89752 32.616 2.90927 32.601C2.92102 32.5859 2.92968 32.5687 2.93476 32.5502V32.459C2.95502 32.3239 2.75912 32.2091 2.69156 32.3577C2.69156 32.3577 2.23895 31.591 2.20856 31.5133C2.09403 31.2344 1.99591 30.9491 1.9147 30.6587C1.83026 30.3581 1.76946 30.0541 1.71541 29.7501C2.03292 29.159 2.39095 28.6186 2.53957 28.2403C2.84077 27.5918 2.98318 26.8809 2.95502 26.1664C2.94034 25.9741 2.9006 25.7844 2.8368 25.6024C3.0192 24.866 3.44816 24.2513 3.8062 23.5758C3.87713 23.444 3.67785 23.3258 3.60691 23.4575C3.24362 24.0151 2.9402 24.6095 2.7017 25.2308C2.57458 24.9877 2.4618 24.7373 2.36393 24.481C1.61408 22.2449 2.96853 21.7451 4.49524 21.6268C4.81085 21.936 5.21216 22.1432 5.64703 22.2213C5.89017 22.2708 6.13605 22.3058 6.38336 22.326C6.37245 22.3381 6.36334 22.3518 6.35634 22.3665C5.78214 23.7548 5.06607 25.2849 4.79923 26.7845C4.72664 26.733 4.64044 26.7039 4.55143 26.7011C4.46242 26.6983 4.37455 26.7218 4.29883 26.7686C4.22311 26.8155 4.1629 26.8837 4.12574 26.9646C4.08858 27.0456 4.07612 27.1357 4.08992 27.2236C4.13721 27.5209 4.18787 27.8519 4.26218 28.1761C4.23681 28.1677 4.20968 28.1659 4.18342 28.1709C4.15715 28.176 4.13264 28.1878 4.11226 28.2051C4.09187 28.2224 4.07631 28.2447 4.06707 28.2698C4.05783 28.2949 4.05523 28.322 4.05952 28.3484C4.21501 29.4243 4.43839 30.4893 4.7283 31.5369C4.85328 31.9389 4.96136 32.5739 5.40384 32.7293C4.26556 33.192 3.09013 33.4217 2.17816 33.0299H2.18491ZM6.75491 42.055C5.62676 41.3052 5.74161 40.1838 4.70128 39.5994C3.81633 39.1097 2.91111 39.542 3.18808 37.7485C3.28266 37.1304 3.95144 36.3974 4.32974 35.9347C4.95461 35.1713 6.08951 33.7493 7.23454 33.4251C6.10011 34.491 5.11809 35.7083 4.31623 37.0425C4.30333 37.0651 4.2974 37.091 4.2992 37.117C4.301 37.1429 4.31045 37.1678 4.32634 37.1884C4.34224 37.209 4.36387 37.2244 4.38852 37.2327C4.41317 37.241 4.43972 37.2418 4.46484 37.2351C4.63909 37.2082 4.80554 37.1442 4.95296 37.0475C5.10038 36.9507 5.22533 36.8235 5.3194 36.6744C5.40384 36.5663 5.21469 36.4177 5.12687 36.5258C5.02933 36.6907 4.88129 36.8197 4.70466 36.8939C5.51724 35.5925 6.49727 34.4036 7.61959 33.3575C7.80064 33.347 7.98198 33.3722 8.15327 33.4318C8.39984 33.5196 8.55859 33.138 8.33228 33.013C8.26862 32.9792 8.20323 32.9487 8.13638 32.9218C9.36923 32.2766 10.5886 31.368 11.8518 30.7195C11.5546 31.7328 11.2438 32.9927 11.9565 33.7358C12.7672 34.5769 14.2736 34.2999 15.3038 34.2695C16.0097 34.2492 16.7123 34.2154 17.4149 34.1749C17.8033 35.2862 17.9755 36.34 19.0564 36.9885C19.1745 37.0602 19.2975 37.1234 19.4246 37.1777C19.3874 37.1788 19.3519 37.193 19.3241 37.2177C19.2963 37.2424 19.2781 37.276 19.2726 37.3128V37.36C19.2559 37.2729 19.2077 37.195 19.1372 37.1411C19.0667 37.0872 18.9789 37.0611 18.8904 37.0678C18.802 37.0745 18.7191 37.1135 18.6575 37.1773C18.5959 37.2412 18.56 37.3254 18.5565 37.4141C18.5571 37.5575 18.5661 37.7007 18.5835 37.8431C18.2559 38.9501 18.0065 40.0788 17.8371 41.2207C17.7984 41.2101 17.7588 41.2034 17.7188 41.2005C17.1041 41.1532 16.7967 40.7512 16.5231 40.2649C16.5941 39.9575 16.6616 39.6805 16.692 39.488C16.8474 38.5321 17.0062 37.583 17.246 36.644C17.2504 36.6276 17.2516 36.6104 17.2494 36.5936C17.2472 36.5767 17.2417 36.5605 17.2333 36.5457C17.2248 36.531 17.2135 36.5181 17.2 36.5077C17.1866 36.4973 17.1712 36.4897 17.1548 36.4852C17.1384 36.4808 17.1212 36.4796 17.1044 36.4818C17.0875 36.484 17.0713 36.4895 17.0565 36.4979C17.0418 36.5064 17.0288 36.5177 17.0185 36.5312C17.0081 36.5446 17.0005 36.56 16.996 36.5764C16.7055 37.6877 16.5265 38.826 16.3205 39.9541C15.9827 39.6332 15.3781 40.0588 15.6112 40.5418C15.7309 40.7992 15.8709 41.0465 16.03 41.2815C15.8868 41.7311 15.9071 42.2169 16.0874 42.6529C16.1005 42.6748 16.1185 42.6935 16.1399 42.7075C16.1613 42.7216 16.1856 42.7305 16.2109 42.7338C16.2363 42.737 16.2621 42.7345 16.2863 42.7263C16.3106 42.7182 16.3327 42.7046 16.3509 42.6867L16.6279 42.4266C16.7832 42.2779 16.5535 42.0516 16.3982 42.1935L16.3002 42.2813C16.2556 42.0498 16.2477 41.8128 16.2766 41.5788L16.3712 41.6801C16.752 42.0002 17.2256 42.1897 17.7222 42.2205C17.702 42.4502 17.6851 42.6799 17.6749 42.8961C17.6648 43.1122 17.9587 43.0886 17.9722 42.8961C17.9924 42.636 18.0228 42.3793 18.0465 42.1226C18.1393 42.0312 18.1972 41.9103 18.2102 41.7807C18.2231 41.6512 18.1903 41.5212 18.1174 41.4133C18.2423 40.3765 18.433 39.3488 18.6882 38.3362C18.7416 38.5503 18.8105 38.7603 18.8943 38.9644C18.8516 38.9775 18.8118 38.999 18.7775 39.0275C18.7431 39.056 18.7147 39.0911 18.6939 39.1307C18.6732 39.1703 18.6605 39.2136 18.6567 39.2581C18.6528 39.3026 18.6578 39.3475 18.6714 39.39C18.7659 39.64 18.8605 39.9068 18.972 40.1601C18.8977 41.0706 18.8977 41.9856 18.972 42.8961C18.9889 43.0886 19.2827 43.0953 19.276 42.8961C19.2591 42.1665 19.276 41.447 19.2962 40.731C19.4166 40.9014 19.5664 41.049 19.7387 41.1667C19.845 41.2366 19.9582 41.2954 20.0765 41.3423C20.0528 41.9672 20.0427 42.5955 20.0765 43.2237C20.0774 43.2537 20.086 43.283 20.1015 43.3088C20.117 43.3346 20.1388 43.3559 20.1649 43.3708C20.191 43.3858 20.2205 43.3937 20.2505 43.394C20.2806 43.3942 20.3102 43.3868 20.3365 43.3723L20.4142 43.3385C20.4389 43.3252 20.4596 43.3055 20.474 43.2814C20.4883 43.2573 20.4959 43.2298 20.4959 43.2017C20.4959 43.1737 20.4883 43.1462 20.474 43.1221C20.4596 43.098 20.4389 43.0783 20.4142 43.0649C20.3838 42.5211 20.3872 41.9773 20.3973 41.4335C20.6551 41.4769 20.9186 41.4712 21.1742 41.4166C21.1947 42.0469 21.283 42.6731 21.4377 43.2845C19.6914 43.6392 18.3978 44.4599 16.5231 43.0987C16.0892 42.7471 15.5979 42.4728 15.0707 42.2881C15.1509 42.1945 15.219 42.0913 15.2734 41.9807C15.2923 41.9416 15.2957 41.8968 15.283 41.8552C15.2702 41.8137 15.2422 41.7785 15.2047 41.7568C15.1671 41.735 15.1227 41.7282 15.0803 41.7378C15.0379 41.7474 15.0007 41.7726 14.9762 41.8085L14.7735 42.0246C14.7708 41.8823 14.7799 41.7399 14.8005 41.599C14.939 41.599 15.0809 41.6227 15.2261 41.6261C15.7834 41.6261 15.7767 40.7952 15.2261 40.7648L14.9897 40.7479C15.0944 40.4101 15.2126 40.0723 15.2971 39.765C15.3815 39.4576 15.4727 39.1874 15.5605 38.9003C15.7208 38.8709 15.8788 38.8302 16.0334 38.7787C16.1272 38.7459 16.2054 38.6792 16.2526 38.5917C16.2998 38.5042 16.3126 38.4022 16.2885 38.3058C16.2644 38.2093 16.2051 38.1254 16.1223 38.0704C16.0395 38.0154 15.9391 37.9933 15.8409 38.0086C15.9118 37.7823 15.9827 37.556 16.057 37.333C16.1077 37.1675 15.851 37.0966 15.7969 37.2621C15.7091 37.5289 15.6281 37.7958 15.5436 38.0626C15.183 38.1178 14.8153 38.1052 14.4594 38.0255C14.6485 37.556 14.8377 37.0898 15.0235 36.6237C15.0707 36.5021 14.8748 36.4515 14.8276 36.5697C14.6418 37.0392 14.4459 37.5053 14.2534 37.9714C13.986 37.8828 13.7415 37.7363 13.5373 37.5424C13.8379 36.9986 14.1453 36.4683 14.4391 35.9617C14.4566 35.9312 14.4612 35.8951 14.4521 35.8612C14.4429 35.8273 14.4206 35.7985 14.3901 35.781C14.3597 35.7635 14.3235 35.7589 14.2896 35.7681C14.2558 35.7772 14.2269 35.7995 14.2094 35.83C13.9291 36.3096 13.6352 36.8095 13.3448 37.3229C13.1033 36.935 12.9703 36.4894 12.9597 36.0326C13.0847 35.8063 13.2063 35.5834 13.3346 35.3571C13.3465 35.3284 13.3476 35.2965 13.3377 35.2671C13.3278 35.2377 13.3076 35.2128 13.2808 35.1972C13.254 35.1815 13.2225 35.1761 13.192 35.1819C13.1616 35.1877 13.1342 35.2043 13.1151 35.2287L12.9259 35.5665C12.9153 35.4908 12.8768 35.4217 12.818 35.3728C12.7593 35.324 12.6844 35.2987 12.608 35.3021C12.5316 35.3055 12.4592 35.3372 12.4049 35.3911C12.3507 35.445 12.3185 35.5172 12.3146 35.5935C12.3171 35.9152 12.3362 36.2365 12.372 36.5562C11.8518 37.4974 11.3384 38.4443 10.8318 39.3968C10.7068 39.6332 10.5886 39.873 10.467 40.1095C10.1368 39.8753 9.91138 39.5214 9.83873 39.1232C10.0785 38.7044 10.3285 38.3024 10.5447 37.9309C11.1189 36.9581 11.737 36.009 12.3517 35.0599C12.363 35.046 12.3732 35.0314 12.3821 35.0159L12.4936 34.8437C12.5142 34.8297 12.5313 34.8112 12.5436 34.7895C12.556 34.7678 12.5631 34.7436 12.5645 34.7187L12.605 34.6579C12.6794 34.5431 12.5071 34.4384 12.426 34.5363C12.4148 34.5346 12.4034 34.5346 12.3923 34.5363C12.3517 34.4147 12.2977 34.2864 12.2504 34.1648C12.2399 34.1403 12.2234 34.119 12.2025 34.1026C12.1816 34.0861 12.1569 34.0753 12.1306 34.0709C12.1044 34.0665 12.0775 34.0688 12.0524 34.0775C12.0273 34.0863 12.0048 34.1012 11.9869 34.1209C11.9774 34.1095 11.9655 34.1004 11.9521 34.0941C11.9387 34.0878 11.9241 34.0846 11.9092 34.0846C11.8944 34.0846 11.8798 34.0878 11.8664 34.0941C11.853 34.1004 11.8411 34.1095 11.8316 34.1209C11.6593 34.3404 11.4938 34.56 11.3215 34.7964C11.2582 34.7723 11.1981 34.7405 11.1425 34.7018C11.0301 34.6176 10.9397 34.5076 10.8791 34.3809L11.1054 34.0702C11.1864 33.9554 10.9973 33.8473 10.9162 33.9587L10.7743 34.1513C10.7237 34.0263 10.6831 33.8979 10.6426 33.7797C10.6356 33.7597 10.624 33.7417 10.6088 33.727C10.5935 33.7124 10.575 33.7015 10.5548 33.6953C10.7743 33.4622 10.9871 33.2291 11.1932 32.9995C11.2945 32.8846 11.129 32.7157 11.0277 32.8306C10.1089 33.8439 9.18008 34.8572 8.285 35.8705L8.26135 35.8975C8.26135 35.8232 8.24109 35.7455 8.23771 35.6678C8.21733 35.2708 8.24455 34.8728 8.31877 34.4823C9.03822 33.7898 9.77117 33.1312 10.4704 32.4557C10.5514 32.378 10.4298 32.2598 10.3488 32.3341C9.70362 32.9285 9.03484 33.5365 8.37282 34.1614L8.43361 33.8236C8.46064 33.6615 8.21744 33.5906 8.18367 33.7527C8.13976 33.979 8.08571 34.2222 8.0418 34.4688C6.68965 35.7025 5.49709 37.1004 4.49187 38.6301C4.39729 38.7821 4.64386 38.9273 4.73506 38.7719C5.64234 37.3124 6.73702 35.9781 7.99114 34.8032C7.90422 35.2593 7.91226 35.7284 8.01478 36.1812C7.31046 36.9277 6.68979 37.7488 6.16382 38.6301C6.00016 38.3632 5.86434 38.0802 5.75849 37.7856C5.69094 37.6066 5.42073 37.6809 5.47139 37.8633C5.76863 38.7145 6.03209 39.282 6.74478 39.7616C6.66734 39.9554 6.61622 40.1588 6.59278 40.3662C6.5935 40.3923 6.60097 40.4179 6.61445 40.4403C6.62793 40.4627 6.64697 40.4813 6.66973 40.4942C6.69249 40.5071 6.7182 40.5139 6.74436 40.514C6.77053 40.514 6.79627 40.5073 6.81908 40.4945C6.94068 40.4101 7.06228 40.3257 7.1805 40.2378C7.19647 40.2269 7.20992 40.2127 7.21994 40.1962C7.22995 40.1796 7.23629 40.1611 7.23853 40.1419C7.24077 40.1227 7.23886 40.1032 7.23293 40.0848C7.227 40.0664 7.21718 40.0495 7.20414 40.0352C7.31898 40.096 7.4372 40.1568 7.54191 40.2108C7.4013 40.4325 7.32312 40.6881 7.3156 40.9505C7.318 40.9819 7.33007 41.0118 7.35017 41.036C7.37026 41.0602 7.39737 41.0776 7.42777 41.0858C7.45817 41.0939 7.49035 41.0924 7.51987 41.0815C7.54939 41.0706 7.57479 41.0508 7.59257 41.0248L7.93034 40.5925C7.99452 40.5047 7.90332 40.4 7.8155 40.3932C7.82317 40.3756 7.83221 40.3587 7.84252 40.3425C8.15628 40.4715 8.47646 40.5842 8.80178 40.6803C8.67109 41.0329 8.59258 41.4027 8.56872 41.7781C8.56993 41.8056 8.57813 41.8323 8.59254 41.8558C8.60696 41.8793 8.62712 41.8987 8.65111 41.9122C8.67511 41.9257 8.70216 41.9329 8.7297 41.9331C8.75724 41.9332 8.78438 41.9264 8.80854 41.9132C9.11693 41.7434 9.36925 41.4875 9.53474 41.1768C9.54717 41.146 9.54811 41.1118 9.53738 41.0803C9.52665 41.0489 9.50498 41.0223 9.4763 41.0055C9.44763 40.9887 9.41387 40.9828 9.3812 40.9888C9.34852 40.9948 9.3191 41.0124 9.2983 41.0383C9.20315 41.2078 9.07442 41.3561 8.92 41.4741C8.95271 41.2344 9.00697 40.9981 9.08213 40.7681C9.38274 40.8559 9.68673 40.937 9.99072 41.0113C9.94681 41.0924 9.90966 41.1735 9.86237 41.2511C9.60567 41.6936 9.43341 41.9267 9.46381 42.4468C9.46501 42.4811 9.47604 42.5143 9.49557 42.5425C9.51511 42.5707 9.54233 42.5927 9.57399 42.6058C9.60566 42.619 9.64044 42.6228 9.6742 42.6168C9.70795 42.6107 9.73927 42.5951 9.76442 42.5718L10.038 42.332C10.19 42.1969 10.0042 41.9942 9.8421 42.0618C9.93827 41.7156 10.0851 41.3855 10.2778 41.0823L10.5751 41.1566C10.5991 41.163 10.6244 41.1633 10.6486 41.1574C10.6728 41.1515 10.6951 41.1396 10.7135 41.1228C10.9793 41.2462 11.2565 41.3434 11.5411 41.4133C11.4498 41.7466 11.3776 42.085 11.3249 42.4266C11.3201 42.4583 11.3229 42.4907 11.3328 42.5212C11.3428 42.5517 11.3597 42.5794 11.3823 42.6022C11.1526 42.636 10.9263 42.6698 10.7068 42.6968C10.7389 42.6624 10.7727 42.6297 10.8081 42.5988C10.923 42.5009 10.7575 42.3387 10.646 42.4333C10.537 42.5266 10.4343 42.627 10.3386 42.7339C9.07199 42.8488 7.82225 42.7643 6.75491 42.055ZM20.1238 40.3662C20.0942 40.3518 20.0659 40.3349 20.0393 40.3155C19.9922 40.2711 19.9492 40.2225 19.911 40.1703C20.0055 40.1366 20.0879 40.0755 20.1474 39.9946C20.1406 40.1129 20.1305 40.2378 20.1238 40.3594V40.3662ZM13.5271 42.2611L13.3312 42.2881C13.4415 42.1666 13.5214 42.0208 13.5643 41.8625C13.6217 41.6801 13.3515 41.6092 13.2806 41.7747C13.2886 41.72 13.2999 41.6659 13.3144 41.6125C13.3836 41.5449 13.4345 41.4607 13.4623 41.3679C13.4901 41.2752 13.4938 41.1769 13.4731 41.0823C13.7631 41.33 14.1121 41.4987 14.4864 41.572C14.4468 41.7824 14.431 41.9965 14.4391 42.2104C14.1344 42.1964 13.8291 42.2111 13.5271 42.2543V42.2611ZM11.7741 42.0415L11.7268 42.082C11.7606 41.8895 11.8079 41.7004 11.8552 41.5112C12.2369 41.5957 12.6219 41.6463 12.9867 41.697C12.9462 41.8929 12.9023 42.0888 12.8719 42.2915C12.8669 42.3126 12.8669 42.3345 12.8719 42.3556L11.7606 42.5448C11.8894 42.4642 11.9907 42.3464 12.0511 42.207C12.0658 42.1709 12.0672 42.1307 12.0551 42.0936C12.043 42.0565 12.0183 42.0249 11.9851 42.0043C11.952 41.9837 11.9127 41.9755 11.8741 41.981C11.8355 41.9866 11.8001 42.0056 11.7741 42.0348V42.0415ZM14.6992 40.7411C14.3573 40.7084 14.0363 40.5621 13.7872 40.3256C13.7472 40.2803 13.711 40.2318 13.6791 40.1804C13.8143 39.7346 13.9696 39.2955 14.1385 38.8597C14.4994 38.974 14.8799 39.0131 15.2565 38.9746C15.1079 39.4542 14.9525 39.9338 14.8039 40.4135C14.7701 40.5182 14.733 40.6263 14.6992 40.7344V40.7411ZM13.5103 39.9034C13.3601 39.5891 13.2336 39.2639 13.132 38.9307C13.1156 38.8831 13.088 38.8402 13.0515 38.8055C13.0151 38.7708 12.9709 38.7454 12.9225 38.7314L13.1556 38.2686C13.3835 38.4817 13.6478 38.6522 13.9358 38.7719C13.7771 39.1468 13.6352 39.5251 13.5103 39.9034ZM11.8214 40.5992C11.4437 40.5527 11.0763 40.4443 10.7338 40.2784C10.959 39.8122 11.1966 39.3484 11.4465 38.8868C11.7775 38.2495 12.1153 37.6156 12.4598 36.9851C12.5406 37.3791 12.7156 37.7477 12.9698 38.0592C12.5171 38.8759 12.1253 39.7248 11.7978 40.5992H11.8214ZM12.6219 39.4035C12.7256 39.8863 12.9205 40.3449 13.1961 40.7546H13.1691C12.8313 40.704 12.4936 40.6803 12.1322 40.6398C12.2504 40.2243 12.4159 39.8122 12.5983 39.4035H12.6219ZM7.74457 39.917C7.54301 39.8165 7.34786 39.7037 7.16023 39.5792C7.5588 38.7246 8.34579 37.8903 8.8288 37.2148L8.86258 37.1675C9.02546 37.2509 9.20357 37.3003 9.38612 37.3128H9.45705C9.37599 37.4276 9.29492 37.5391 9.21724 37.6505C8.80854 38.245 8.44037 38.8597 8.05194 39.4643C7.94723 39.6265 7.83914 39.7683 7.73781 39.9102L7.74457 39.917ZM6.60291 38.5017C7.04196 37.758 7.54488 37.0539 8.10598 36.3974C8.10598 36.438 8.133 36.4785 8.14989 36.519C8.2645 36.734 8.43041 36.9173 8.6329 37.0527C8.47415 37.2688 8.29513 37.4816 8.15327 37.7012C7.70129 38.2461 7.28604 38.8204 6.91028 39.4204C6.70143 39.2656 6.51501 39.0826 6.35634 38.8766C6.43741 38.8293 6.51847 38.782 6.59616 38.7314C6.6158 38.7185 6.63164 38.7006 6.64204 38.6795C6.65243 38.6585 6.65701 38.635 6.65528 38.6116C6.65356 38.5881 6.64561 38.5656 6.63224 38.5463C6.61887 38.527 6.60059 38.5116 6.57927 38.5017H6.60291ZM10.4163 33.8709C10.4737 34.0533 10.5278 34.2391 10.6021 34.4147C10.0211 35.2051 9.43341 35.9887 8.84569 36.7791C8.72156 36.7124 8.6127 36.6207 8.52604 36.5096C8.43939 36.3985 8.37685 36.2706 8.34242 36.1339C8.99093 35.3537 9.70362 34.6072 10.3927 33.8709H10.4163ZM12.0207 34.2931C12.0809 34.4187 12.1284 34.5499 12.1626 34.6849C11.9928 34.7833 11.8013 34.8378 11.6053 34.8437L12.0207 34.2931ZM12.0207 35.1206C12.0241 35.143 12.0334 35.164 12.0477 35.1814C11.3418 36.2657 10.6223 37.3432 9.98397 38.4646C9.92992 38.5591 9.87588 38.6537 9.81846 38.7449C9.82274 38.1766 9.95189 37.6162 10.1968 37.1034C10.4169 36.9642 10.6218 36.8023 10.8081 36.6203C10.9534 36.4886 10.7439 36.2826 10.5987 36.4076C10.4739 36.5125 10.3419 36.6084 10.2035 36.6946C10.5751 36.1722 10.9534 35.6554 11.3384 35.1443C11.5527 35.2056 11.781 35.1973 11.9903 35.1206H12.0207ZM9.79482 36.8906C9.56499 36.9523 9.32221 36.9465 9.09564 36.8737C9.63607 36.1306 10.1833 35.3875 10.7237 34.641C10.8163 34.7984 10.9462 34.9307 11.102 35.0261L11.156 35.0531C10.6629 35.6577 10.2069 36.2657 9.76442 36.8906H9.79482ZM7.03526 39.9305L7.16361 39.998C7.13436 39.994 7.10463 40 7.07917 40.0149L6.98797 40.069C6.9677 40.0082 6.99135 39.9811 7.00486 39.917L7.03526 39.9305ZM8.6025 39.1874C8.89073 38.7145 9.18796 38.2473 9.49421 37.7856C9.31702 38.3423 9.28104 38.9342 9.3895 39.5083C9.22766 39.7953 9.08109 40.0907 8.9504 40.3932C8.63965 40.2953 8.33904 40.1804 8.03843 40.0554C8.21069 39.7143 8.44375 39.3968 8.5721 39.1739L8.6025 39.1874ZM9.49083 39.8629C9.52963 39.9686 9.57826 40.0703 9.63607 40.1669C9.76596 40.3825 9.93158 40.5743 10.1258 40.7344C9.82522 40.6533 9.52123 40.5688 9.22061 40.4776C9.28851 40.2632 9.36743 40.0524 9.45705 39.846L9.49083 39.8629ZM13.544 50.1108C11.9937 49.7359 10.6865 49.2022 9.53136 48.0403C8.29175 46.7871 7.89994 45.2267 7.53853 43.5885C8.22112 43.7922 8.92741 43.9057 9.63945 43.9263C9.2738 44.7993 9.09655 45.7396 9.11928 46.6858C9.12024 46.7174 9.13124 46.7478 9.15067 46.7727C9.17011 46.7976 9.19697 46.8157 9.22737 46.8243L9.40976 46.8648C9.44203 46.8701 9.4751 46.8632 9.50255 46.8454C9.53 46.8277 9.54986 46.8004 9.55829 46.7688C9.56671 46.7372 9.56309 46.7036 9.54812 46.6745C9.53316 46.6455 9.50792 46.623 9.47732 46.6115C9.08551 46.473 9.65296 44.8551 9.76104 44.5309C9.82859 44.3282 9.89615 44.1255 9.97046 43.9296C10.1157 43.9296 10.2609 43.9296 10.4028 43.9296C10.6392 43.9296 10.8723 43.9026 11.1054 43.8756C10.8453 44.5309 10.5852 45.1895 10.3386 45.8515C10.0617 46.6014 9.69349 47.331 9.79482 48.1416C9.81508 48.3274 10.1056 48.3409 10.0921 48.1416C10.0448 47.2668 10.4636 46.3987 10.7676 45.5881C10.9871 45.0004 11.2134 44.4126 11.4431 43.8283C12.0376 43.7405 12.6253 43.6256 13.2265 43.5581C13.3042 43.5581 13.3785 43.5581 13.4562 43.5581C12.9935 45.0916 12.5442 46.6453 12.6084 48.2598C12.6138 48.2958 12.632 48.3287 12.6596 48.3524C12.6871 48.3762 12.7223 48.3892 12.7587 48.3892C12.7951 48.3892 12.8303 48.3762 12.8579 48.3524C12.8855 48.3287 12.9036 48.2958 12.909 48.2598C12.909 46.6216 13.3177 45.1017 13.767 43.5513C14.0505 43.5606 14.3319 43.6049 14.6046 43.6831C14.3074 44.8112 14.1014 45.9529 13.9054 47.1046C13.7467 48.0234 13.5474 48.9083 13.9054 49.8068C13.9831 49.9959 14.2939 49.9149 14.2162 49.7223C13.8143 48.6685 14.1351 47.537 14.304 46.4595C14.4493 45.5509 14.6418 44.6525 14.8411 43.7574C15.1329 43.8643 15.4163 43.993 15.6889 44.1424C15.5301 45.1557 15.3781 46.1859 15.243 47.2127C15.1079 48.2395 14.8005 49.4825 14.9052 50.56C14.4502 50.3763 13.9843 50.2207 13.5103 50.0939L13.544 50.1108ZM70.7518 47.4086C69.8142 48.8043 68.564 49.962 67.1005 50.7897C64.5166 52.259 61.149 52.6339 58.2442 53.0392C55.0917 53.4431 51.9135 53.6113 48.7361 53.5425C48.0842 53.5425 47.439 53.5425 46.7905 53.5763C46.8111 53.5723 46.8305 53.5639 46.8475 53.5515C46.8644 53.5391 46.8783 53.5232 46.8883 53.5047C46.8984 53.4863 46.9042 53.4659 46.9054 53.445C46.9065 53.4241 46.9031 53.4032 46.8952 53.3837C46.5777 52.4887 46.2839 51.5868 45.99 50.6816C45.9258 50.4823 45.6117 50.5668 45.6759 50.766C45.9664 51.6713 46.2602 52.5731 46.5743 53.4682C46.5834 53.4971 46.6007 53.5227 46.6241 53.5419C46.6475 53.5611 46.676 53.5731 46.7061 53.5763C46.2872 53.5965 45.8684 53.6168 45.4496 53.6438C45.1118 52.4988 44.6119 51.4011 44.1863 50.283C44.1154 50.0939 43.808 50.175 43.8823 50.3641C44.291 51.4652 44.7335 52.5495 45.1017 53.6641L44.3316 53.7249C43.8426 52.4688 43.289 51.2388 42.6731 50.0398C42.5853 49.8473 42.3016 50.0162 42.3894 50.2053C42.9332 51.3875 43.5142 52.5427 43.9904 53.7519L42.5785 53.8735C42.5888 53.844 42.5888 53.8118 42.5785 53.7823C42.0516 52.1752 41.2988 50.6512 40.3425 49.2562C40.248 49.1144 40.0048 49.2562 40.1128 49.3913C41.0385 50.7756 41.7671 52.2818 42.2779 53.8668C42.2773 53.878 42.2773 53.8893 42.2779 53.9005L41.1228 54.0052C41.1358 53.9895 41.1445 53.9706 41.148 53.9505C41.1516 53.9304 41.1499 53.9097 41.143 53.8904C40.7411 52.4988 39.846 51.293 39.1164 50.0567C39.0971 50.0307 39.0689 50.0127 39.0371 50.0061C39.0054 49.9996 38.9723 50.005 38.9443 50.0213C38.9163 50.0376 38.8953 50.0637 38.8853 50.0945C38.8753 50.1254 38.877 50.1588 38.8901 50.1885C39.6273 51.4045 40.2894 52.6645 40.8728 53.9613C40.884 53.9857 40.9015 54.0067 40.9235 54.0221C40.3662 54.0728 39.8055 54.1235 39.2346 54.164C38.8361 54.1978 38.4409 54.2214 38.0423 54.2417C38.0519 54.2109 38.0519 54.1779 38.0423 54.1471C37.4546 52.9886 36.7318 51.901 36.1272 50.7525C36.0427 50.5938 35.7894 50.7356 35.884 50.8944C36.4818 52.0259 37.1135 53.1406 37.7417 54.2518C36.7284 54.2957 35.7151 54.3126 34.7018 54.3092L34.7491 54.164C34.8099 53.9816 34.5363 53.914 34.4654 54.0863L34.4181 54.2079C33.7898 53.6675 33.4825 52.5461 33.2055 51.8435C32.8677 50.9957 32.5604 50.1378 32.2429 49.2832C32.1787 49.1177 31.9051 49.1887 31.9726 49.3576C32.3949 50.506 32.8103 51.6544 33.2764 52.7859C33.4522 53.3318 33.7182 53.8445 34.0634 54.3025C33.1954 54.3025 32.3239 54.3025 31.4559 54.2721C31.3579 53.5965 30.9593 52.921 30.733 52.2624C30.4493 51.4416 30.2027 50.6107 29.946 49.7798C29.892 49.6041 29.6083 49.6784 29.6657 49.8574C29.919 50.6884 30.1656 51.5193 30.4392 52.3434C30.652 52.9852 30.9593 53.6168 31.1147 54.2687C30.6891 54.2687 30.2602 54.2687 29.8312 54.2687C27.0547 54.245 24.3188 54.1674 21.6167 53.4074C21.6387 53.3884 21.6557 53.3643 21.6663 53.3372C21.6769 53.3102 21.6807 53.2809 21.6775 53.252C21.3735 50.9349 21.5491 48.932 21.5458 46.2298C21.5458 45.8921 21.3127 45.8921 21.3127 46.2298C21.3127 48.932 20.9344 50.9856 21.387 53.2655V53.3229C21.1033 53.2351 20.8196 53.1574 20.5392 53.0527C18.641 52.3772 16.9893 51.3335 15.1518 50.6174C15.1518 49.8068 15.3849 47.4221 15.4186 47.1688C15.5436 46.1792 15.6889 45.1963 15.8375 44.21C16.2209 44.4317 16.6155 44.6335 17.0197 44.8146L17.0974 44.845C16.9926 45.7299 16.8913 46.6149 16.8035 47.4998C16.7022 48.5131 16.5198 49.5467 16.6785 50.5566C16.7022 50.7086 16.9724 50.6749 16.9521 50.5195C16.7292 48.7259 17.067 46.7635 17.3169 44.9261C17.5948 45.0194 17.8828 45.0795 18.1748 45.1051C18.1242 46.2129 18.0634 47.3174 17.9891 48.4253C17.9148 49.5332 17.7729 50.6884 18.0701 51.803C18.0759 51.8245 18.0866 51.8443 18.1013 51.861C18.116 51.8777 18.1343 51.8908 18.1549 51.8993C18.1755 51.9078 18.1977 51.9114 18.2199 51.91C18.2421 51.9085 18.2637 51.9019 18.2829 51.8908L18.3843 51.8368C18.5464 51.7456 18.4045 51.5193 18.2424 51.5936C18.2964 51.5666 18.1579 49.9554 18.1647 49.7696C18.1816 49.2089 18.2356 48.6516 18.2627 48.0808C18.3099 47.0878 18.3572 46.0947 18.3944 45.0983C19.5867 45.1422 20.6777 44.6592 21.9376 44.5342C23.0995 44.4194 23.8358 45.2537 24.8289 45.6252C25.6586 45.9299 26.5497 46.0296 27.4263 45.9157C28.0951 45.8078 28.7427 45.5946 29.3448 45.2841C30.1318 44.9092 30.6418 44.4025 31.6315 44.5376C31.824 44.5646 31.9693 44.7977 32.1753 44.8382C33.1886 45.0443 33.9655 45.3618 35.0261 45.3043C36.1914 45.2402 37.0898 44.6457 38.1943 44.416C39.944 44.0546 41.7983 45.4969 43.6662 45.5205C44.5168 45.5438 45.3647 45.4134 46.169 45.1355C47.5606 44.6153 48.1956 43.6256 49.925 44.2471C51.7523 44.899 53.073 45.4023 55.1131 45.0747C55.944 44.9429 56.6972 44.4532 57.5045 44.335C58.609 44.1796 59.7777 45.0308 60.8822 45.1355C62.704 45.2735 64.5298 44.9238 66.1716 44.1222C66.4768 43.9462 66.7927 43.7894 67.1174 43.6527C68.6745 43.1561 68.7353 43.7202 69.9783 43.9161C70.5637 43.9868 71.1568 43.9629 71.7347 43.8452C71.7826 43.9009 71.8423 43.9452 71.9095 43.975C71.9767 44.0048 72.0496 44.0193 72.1231 44.0175C72.0184 44.0512 70.9308 47.0743 70.7247 47.385L70.7518 47.4086ZM73.5383 35.043C74.7036 35.4618 75.4974 36.8737 76.1797 37.9782C76.4634 38.4375 76.8789 39.5792 76.4904 40.15C76.2945 40.4337 75.5751 40.7242 75.2339 40.9336C74.5763 41.3782 73.8826 41.7669 73.16 42.0956C72.3991 42.4121 71.5858 42.5839 70.7619 42.6022C69.8161 42.6022 69.0731 41.9875 68.1239 42.001C66.9992 42.001 66.0196 42.7474 65.0198 43.1798C64.0425 43.6083 62.9896 43.838 61.9225 43.8553C60.8146 43.8722 59.9972 43.4804 58.967 43.2034C57.7004 42.8657 56.91 43.3656 55.7076 43.7371C53.3432 44.4667 51.8469 43.6392 49.7291 42.8758C48.807 42.538 48.0403 42.7272 47.1992 43.1663C45.3077 44.139 43.6223 44.6795 41.5011 43.9364C40.5756 43.5986 39.8595 42.9231 38.8395 43.0143C37.4884 43.1325 36.3602 43.8384 35.1004 44.0782C35.1036 44.0617 35.1032 44.0447 35.0991 44.0283C35.095 44.012 35.0874 43.9967 35.0767 43.9837C34.6907 43.4353 34.409 42.8204 34.2458 42.1699C34.3172 42.1207 34.3694 42.0483 34.3934 41.965C34.4174 41.8817 34.4118 41.7926 34.3776 41.713C34.3433 41.6333 34.2826 41.568 34.2056 41.5282C34.1286 41.4883 34.0401 41.4763 33.9553 41.4943C33.094 41.7105 32.0942 41.903 31.4086 41.2038C30.8006 40.5824 30.831 39.1772 31.3613 38.4781C31.5234 38.2653 31.162 37.9849 30.9864 38.1876C30.3345 38.9476 30.1014 40.6769 30.7398 41.4977C30.9725 41.8044 31.2762 42.0501 31.6247 42.2138C31.6247 42.3286 31.6247 42.4435 31.6247 42.5515C31.6247 42.5838 31.6376 42.6147 31.6604 42.6375C31.6832 42.6603 31.7141 42.6731 31.7463 42.6731C31.7786 42.6731 31.8095 42.6603 31.8323 42.6375C31.8551 42.6147 31.8679 42.5838 31.8679 42.5515V42.305C32.5642 42.4968 33.3014 42.4816 33.9891 42.2611C34.1392 42.928 34.4205 43.5583 34.8167 44.1154C34.2611 44.1928 33.6953 44.149 33.1582 43.987C32.1753 43.6966 31.7869 43.2744 31.0201 43.3115C30.7297 42.2408 30.3446 41.1802 30.0609 40.1129C30.0519 40.0806 30.0305 40.0532 30.0014 40.0368C29.9722 40.0203 29.9378 40.0161 29.9055 40.025C29.8733 40.034 29.8459 40.0554 29.8294 40.0845C29.8129 40.1137 29.8087 40.1482 29.8177 40.1804C30.1082 41.241 30.4155 42.2915 30.733 43.3453C30.6188 43.3635 30.506 43.3894 30.3953 43.423C29.5204 43.6831 28.7672 44.0749 28.0309 44.3518C28.0578 44.3333 28.0769 44.3054 28.0844 44.2735C28.0919 44.2417 28.0873 44.2082 28.0714 44.1796C27.7092 43.2925 27.4321 42.373 27.2439 41.4335C27.4246 41.708 27.6922 41.9138 28.0039 42.0179C28.2353 42.0824 28.4804 42.0789 28.7098 42.0077C28.8155 42.5425 28.9716 43.0662 29.1759 43.5716C29.183 43.5885 29.1934 43.6037 29.2064 43.6166C29.2194 43.6295 29.2348 43.6396 29.2517 43.6465C29.2687 43.6534 29.2868 43.6569 29.3051 43.6568C29.3234 43.6567 29.3415 43.653 29.3583 43.6459C29.3752 43.6388 29.3905 43.6285 29.4033 43.6155C29.4162 43.6025 29.4264 43.587 29.4333 43.5701C29.4402 43.5532 29.4436 43.535 29.4435 43.5167C29.4434 43.4985 29.4397 43.4804 29.4326 43.4635C29.2268 42.9607 29.0696 42.4392 28.9631 41.9064C29.2959 41.7227 29.5664 41.444 29.74 41.1059C29.7568 41.0721 29.7601 41.0331 29.7492 40.997C29.7383 40.9608 29.714 40.9302 29.6813 40.9112C29.6486 40.8923 29.61 40.8865 29.5732 40.8951C29.5364 40.9036 29.5043 40.9259 29.4833 40.9573C29.3345 41.1939 29.1305 41.3909 28.8888 41.5315C28.7943 41.0215 28.7233 40.5182 28.6389 39.998C28.6119 39.8291 28.3585 39.9001 28.3856 40.0656C28.47 40.5959 28.5409 41.1228 28.6389 41.6463C28.4864 41.7067 28.3216 41.73 28.1584 41.7141C27.9951 41.6982 27.8379 41.6438 27.6999 41.5551C27.398 41.3149 27.1649 40.9991 27.0243 40.6398L26.9331 39.9811C26.9061 39.8426 26.6933 39.9001 26.717 40.0419L26.7676 40.3155C26.7431 40.332 26.7253 40.3567 26.7172 40.3852C26.7092 40.4136 26.7115 40.444 26.7237 40.4709C26.7609 40.5553 26.8048 40.6364 26.842 40.7208C26.8791 40.8053 26.8859 40.9607 26.9095 41.0823C26.633 41.2943 26.319 41.4524 25.984 41.5484C25.9469 41.1532 25.9063 40.758 25.8489 40.3763C25.8219 40.2142 25.5787 40.2851 25.599 40.4473C25.6564 40.8256 25.7104 41.2106 25.7577 41.5957C25.4744 41.6338 25.1865 41.5748 24.9411 41.4281C24.6957 41.2815 24.5073 41.056 24.4066 40.7884C23.954 39.8832 24.2648 38.8496 24.5282 37.9444C24.5327 37.9289 24.534 37.9126 24.5322 37.8966C24.5303 37.8805 24.5253 37.865 24.5175 37.8509C24.5097 37.8368 24.4991 37.8244 24.4865 37.8143C24.4738 37.8043 24.4593 37.7968 24.4438 37.7924C24.4283 37.788 24.412 37.7866 24.396 37.7885C24.3799 37.7903 24.3644 37.7953 24.3503 37.8031C24.3362 37.811 24.3238 37.8215 24.3137 37.8342C24.3037 37.8468 24.2962 37.8613 24.2918 37.8768C24.052 38.571 23.9309 39.3007 23.9338 40.0352C23.9181 40.0479 23.9063 40.0648 23.8997 40.0839C23.8932 40.103 23.8921 40.1236 23.8966 40.1433C23.8966 40.2446 23.9338 40.3459 23.9507 40.4506C23.921 40.3813 23.8708 40.3227 23.8067 40.2828C23.7427 40.2429 23.668 40.2237 23.5926 40.2277L23.4271 40.1838C23.3162 40.1607 23.2005 40.1807 23.1038 40.2397C23.007 40.2988 22.9364 40.3925 22.9063 40.5018C22.8762 40.6111 22.8888 40.7277 22.9417 40.828C22.9945 40.9283 23.0835 41.0047 23.1907 41.0417C23.3071 41.0808 23.4293 41.1002 23.5521 41.0991C23.6474 41.1019 23.7409 41.0733 23.8184 41.0178C23.8959 40.9623 23.953 40.8829 23.9811 40.7918L23.9979 40.7175C23.9979 40.6972 23.9979 40.6803 23.9979 40.66C24.1972 41.7645 24.4438 42.8589 24.6735 43.9533C24.714 44.1323 24.9842 44.0546 24.9471 43.879C24.7647 43.0278 24.5586 42.1901 24.3762 41.3322C24.4288 41.4037 24.4864 41.4714 24.5485 41.5349C24.6999 41.7082 24.8925 41.8405 25.1086 41.9197C25.3247 41.9988 25.5572 42.0221 25.7847 41.9875C25.8084 42.2104 25.8388 42.4333 25.8557 42.663C25.8505 43.1151 25.9343 43.5639 26.1022 43.9837C26.163 44.112 26.3691 44.0208 26.3319 43.8857C26.1617 43.2497 26.0487 42.5997 25.9942 41.9436C26.3427 41.8328 26.6679 41.6588 26.9534 41.4302C27.1361 42.3955 27.4075 43.3418 27.7641 44.2573C27.7743 44.2863 27.7936 44.3112 27.8192 44.3282C27.8448 44.3453 27.8752 44.3536 27.9059 44.3518C27.3723 44.5833 26.7915 44.6853 26.2109 44.6495C25.6304 44.6137 25.0665 44.4411 24.5654 44.1458C24.129 43.853 23.6781 43.5824 23.2143 43.3352C23.2382 43.318 23.2559 43.2937 23.265 43.2657C23.2741 43.2378 23.2741 43.2077 23.265 43.1798C22.9773 42.1164 22.8364 41.0186 22.8462 39.917C22.8411 39.8852 22.8249 39.8563 22.8004 39.8355C22.776 39.8146 22.7449 39.8031 22.7127 39.8031C22.6806 39.8031 22.6495 39.8146 22.6251 39.8355C22.6006 39.8563 22.5844 39.8852 22.5793 39.917C22.5664 41.0391 22.6969 42.1583 22.9678 43.2473C22.7283 43.1875 22.4808 43.167 22.2348 43.1865C22.0423 43.2034 21.8599 43.2304 21.6809 43.2608C21.539 43.1494 21.4782 42.2948 21.4546 41.3626C21.7602 41.2671 22.0528 41.1344 22.326 40.9674C22.411 40.9171 22.475 40.8377 22.506 40.7439C22.537 40.6501 22.533 40.5482 22.4946 40.4571C22.4563 40.3661 22.3863 40.2919 22.2975 40.2485C22.2088 40.2051 22.1073 40.1953 22.0119 40.2209L21.4444 40.4C21.4444 39.6366 21.4444 38.978 21.4444 38.8158C21.4444 38.7791 21.4298 38.7439 21.4039 38.7179C21.3779 38.6919 21.3427 38.6773 21.3059 38.6773C21.2692 38.6773 21.234 38.6919 21.208 38.7179C21.182 38.7439 21.1675 38.7791 21.1675 38.8158C21.1675 39.3664 21.1404 39.9203 21.1371 40.4709C20.8972 40.5307 20.6473 40.5387 20.4041 40.4945C20.4413 39.7987 20.4919 39.1063 20.546 38.4139C20.546 38.2315 20.2791 38.2349 20.2656 38.4139C20.2318 38.7516 20.2014 39.1164 20.171 39.4677C20.1577 39.4426 20.1418 39.4188 20.1238 39.3968C19.8281 39.0575 19.5989 38.6656 19.4482 38.2416C19.482 37.9343 19.509 37.6235 19.5495 37.3128C19.5516 37.2965 19.5503 37.28 19.5456 37.2643C19.541 37.2486 19.5331 37.2341 19.5225 37.2216C20.4581 37.5965 21.5289 37.5593 22.5118 37.4445C24.3965 37.2216 26.2272 36.769 28.1322 36.7487C30.2331 36.725 32.3104 37.1675 34.4113 36.9176C35.1612 36.8298 35.2085 35.6847 34.4113 35.7084C31.6112 35.7894 28.8686 35.2524 26.0685 35.6104C22.9914 36.0056 19.5563 37.7316 17.854 34.1479C19.3064 34.0601 20.752 33.952 22.2078 33.8743C24.1297 33.7662 26.3083 34.2425 28.1863 33.7358C28.6287 33.9756 28.9969 34.158 29.1489 34.2188C30.7769 34.8943 32.584 34.9889 34.3167 35.1477C36.5258 35.3537 38.7989 35.7928 40.991 36.1069C41.4782 36.1654 41.9603 36.2602 42.4333 36.3907V36.5663C42.4333 36.5663 42.5718 36.5224 42.6056 36.4683C44.0715 36.9108 45.2368 37.6066 46.75 38.2957C49.8608 39.7075 53.8195 38.5625 57.0891 38.4037C60.129 38.2551 63.2938 37.6134 65.7021 35.759C65.7258 35.7388 65.7393 35.7151 65.7629 35.6949C66.2759 35.7237 66.7901 35.7237 67.3031 35.6949C67.2843 35.7148 67.2707 35.7392 67.2637 35.7657C67.2566 35.7923 67.2562 35.8201 67.2626 35.8469C67.32 36.1036 67.1478 36.1677 66.9552 36.2927C66.7369 36.4227 66.4806 36.474 66.229 36.438C66.0196 36.4211 66.0264 36.7352 66.229 36.7757C66.6058 36.8121 66.9831 36.7127 67.293 36.4954C67.4269 36.4352 67.5326 36.3261 67.5885 36.1904C67.6444 36.0547 67.6462 35.9028 67.5936 35.7658C67.5864 35.7381 67.5725 35.7126 67.5531 35.6915C69.1001 35.58 70.593 35.1679 71.4577 34.2762C72.1571 34.4806 72.843 34.7288 73.5113 35.0193L73.5383 35.043ZM78.2671 30.3818C76.8147 32.4523 75.3353 31.7092 73.7815 30.4899C73.5169 30.2071 73.1732 30.0105 72.7952 29.9258C72.7256 29.9191 72.6555 29.9191 72.5858 29.9258C72.8522 29.6463 73.0898 29.3408 73.2952 29.0138C73.9977 29.0138 74.2679 28.5612 74.1362 27.8147C74.3362 27.5467 74.5504 27.2897 74.7779 27.0446C74.9097 26.9095 74.7036 26.7069 74.5719 26.8386C74.3556 27.0642 74.1526 27.3021 73.9639 27.5513C73.8907 27.5036 73.8063 27.4762 73.719 27.4716C73.6318 27.467 73.545 27.4856 73.4672 27.5253C73.3894 27.565 73.3235 27.6246 73.2761 27.698C73.2287 27.7713 73.2015 27.8559 73.1972 27.9431C73.1972 28.0208 72.704 28.0005 72.069 27.9431L72.2109 27.7168C72.3224 27.5411 72.0454 27.379 71.9373 27.5547L71.7076 27.9127C70.7653 27.8282 69.681 27.71 69.448 27.7371C68.9866 27.8011 68.5412 27.9499 68.1341 28.1761C67.1208 27.9634 65.9251 28.3113 64.7564 28.6456C65.9994 28.0478 66.8438 26.7609 67.7085 25.6564C69.1597 25.6941 70.608 25.5061 72.0015 25.0991C73.2343 26.3556 74.2578 25.3828 75.8081 25.7949C77.0477 26.1327 77.8888 27.2878 78.5103 28.416C78.6082 28.5984 78.9156 28.6963 78.946 28.8855C78.9798 29.3009 78.4664 30.0339 78.2367 30.3581L78.2671 30.3818Z" fill="#515257"/>
<path d="M37.1162 41.1076C36.4406 41.2833 35.6165 41.3508 35.1875 40.6618C34.9529 40.1807 34.8558 39.6442 34.9072 39.1114C34.8982 39.0168 34.8543 38.929 34.7841 38.865C34.7138 38.8011 34.6222 38.7656 34.5272 38.7656C34.4322 38.7656 34.3406 38.8011 34.2703 38.865C34.2 38.929 34.1561 39.0168 34.1472 39.1114C34.11 39.8984 34.1472 40.7631 34.6741 41.3947C35.0017 41.7599 35.439 42.0088 35.9203 42.1038C36.4016 42.1988 36.9007 42.1349 37.3425 41.9217C37.8289 41.719 37.66 40.9658 37.1162 41.1076Z" fill="#515257"/>
<path d="M39.8323 40.7919C39.4572 40.7998 39.0859 40.7152 38.7514 40.5453C38.5074 40.3752 38.3147 40.1416 38.1941 39.8698C38.1547 39.8091 38.0953 39.7643 38.0262 39.7432C37.9571 39.722 37.8828 39.7259 37.8162 39.7541C37.7497 39.7824 37.6953 39.8331 37.6624 39.8975C37.6296 39.9619 37.6205 40.0358 37.6368 40.1062C37.7741 40.5309 38.0367 40.9042 38.39 41.1769C38.6085 41.3322 38.8593 41.4363 39.1236 41.4813C39.388 41.5264 39.659 41.5112 39.9167 41.437C40.2916 41.3323 40.1937 40.8189 39.8323 40.7919Z" fill="#515257"/>
<path d="M45.842 41.6688C45.1901 42.118 44.491 42.601 43.6533 42.5909C42.9305 42.5909 42.64 42.1315 42.4846 41.5776C42.7617 41.7632 43.0659 41.9045 43.3865 41.9964C43.4312 42.009 43.4792 42.0032 43.5197 41.9804C43.5603 41.9576 43.5901 41.9196 43.6026 41.8748C43.6152 41.83 43.6094 41.7821 43.5866 41.7416C43.5638 41.701 43.5258 41.6712 43.481 41.6587C43.0808 41.5572 42.7081 41.368 42.39 41.1047C42.39 41.0439 42.3698 40.9831 42.363 40.9257C42.3593 40.8997 42.3484 40.8753 42.3317 40.8551C42.3149 40.835 42.2929 40.8199 42.268 40.8115C42.2432 40.8031 42.2165 40.8017 42.1909 40.8076C42.1654 40.8134 42.1419 40.8263 42.1232 40.8446C41.8996 40.5989 41.7352 40.3053 41.6427 39.9862C41.5502 39.6671 41.532 39.331 41.5895 39.0038C41.6372 38.9421 41.6668 38.8684 41.6752 38.7909C41.6835 38.7134 41.6702 38.6351 41.6368 38.5647C41.6368 38.5309 41.6368 38.4938 41.6368 38.46L42.1131 38.6086C42.5353 38.737 42.8393 38.0648 42.4204 37.879L41.647 37.5413C41.5916 37.51 41.5302 37.4908 41.4669 37.4849C41.4036 37.479 41.3397 37.4864 41.2795 37.5068C41.2193 37.5272 41.164 37.5601 41.1173 37.6033C41.0707 37.6464 41.0336 37.699 41.0086 37.7574C40.9692 37.8475 40.9615 37.9483 40.9866 38.0433C41.0117 38.1384 41.0683 38.2221 41.1471 38.281C41.0919 38.2914 41.0392 38.312 40.9917 38.3418C40.7333 38.5064 40.4279 38.5813 40.1227 38.5551C39.8174 38.5288 39.5293 38.4028 39.3028 38.1965C39.2767 38.18 39.2483 38.1674 39.2184 38.1594C39.3693 38.1928 39.5255 38.1947 39.6771 38.1651C39.8288 38.1354 39.9728 38.0749 40.1 37.9871C40.2959 37.8588 40.1 37.548 39.9176 37.673C39.0934 38.1729 38.2524 37.1765 37.8471 36.5482C37.7356 36.3726 37.4553 36.5313 37.5667 36.7104C37.9045 37.2677 38.4787 37.9567 39.1306 38.1391C38.83 38.1391 38.553 38.5681 38.8367 38.8146C39.1648 39.1184 39.5768 39.3164 40.0191 39.3826C40.4613 39.4489 40.9132 39.3804 41.3159 39.1862C41.2611 39.7225 41.3795 40.2623 41.6537 40.7264C41.7911 40.9426 41.9532 41.1421 42.1367 41.3209C42.2178 41.9255 42.3867 42.5402 42.9879 42.8138C44.0316 43.2901 45.1901 42.5841 46.0278 42.0032C46.2136 41.8377 46.0379 41.5235 45.842 41.6688Z" fill="#515257"/>
<path d="M32.888 5.13894C33.1652 5.17366 33.4467 5.13908 33.7072 5.03827C33.9678 4.93747 34.1992 4.77361 34.3809 4.56137C34.4633 4.47199 34.521 4.36267 34.5482 4.24421C34.5754 4.12574 34.5713 4.00222 34.5363 3.88583C34.4755 3.73721 34.1006 3.60211 34.0972 3.50078C34.0972 3.29136 33.7594 3.2846 33.7594 3.50078C33.7594 3.81152 33.9553 3.77099 34.1377 3.93312C34.5667 4.30804 33.577 4.80456 33.2865 4.85522C32.7191 4.95317 31.9625 4.48368 32.5164 3.91285C32.7979 3.67559 33.1209 3.49237 33.4689 3.37242C33.55 3.33527 33.4926 3.19003 33.4081 3.2238C32.9589 3.40282 32.3273 3.59197 32.1314 4.08174C31.9118 4.62554 32.3847 5.05788 32.888 5.13894Z" fill="#515257"/>
<path d="M36.5527 4.66119C37.1708 4.66119 37.2553 3.7053 36.85 3.37429C36.8223 3.34905 36.7871 3.33369 36.7498 3.33064C36.7125 3.32758 36.6753 3.337 36.6439 3.35741C36.6374 3.33751 36.6259 3.31961 36.6105 3.30546C36.5951 3.29131 36.5763 3.28137 36.5559 3.27662C36.5355 3.27186 36.5143 3.27245 36.4942 3.27831C36.4741 3.28418 36.4559 3.29514 36.4413 3.31011C36.3123 3.39972 36.2041 3.51613 36.1243 3.65138C36.0444 3.78662 35.9947 3.93751 35.9785 4.09374C35.9828 4.24403 36.0449 4.38687 36.1519 4.49256C36.2588 4.59825 36.4024 4.65864 36.5527 4.66119ZM36.2622 3.92823C36.3336 3.77502 36.4387 3.63993 36.5696 3.53304C36.5762 3.56341 36.5888 3.59214 36.6068 3.61748C36.7452 3.7965 36.8939 4.27613 36.5696 4.3572C36.3264 4.41462 36.1947 4.12751 36.2622 3.92823Z" fill="#515257"/>
<path d="M38.4314 4.02462C38.1984 4.13946 38.401 4.47385 38.6307 4.36239C39.031 4.14446 39.4709 4.00893 39.9244 3.96382C39.9849 3.95661 40.0461 3.96754 40.1004 3.99522C40.1547 4.0229 40.1995 4.06609 40.2292 4.11929C40.2589 4.1725 40.2721 4.23333 40.2671 4.29405C40.2622 4.35478 40.2393 4.41265 40.2013 4.46034C40.0325 4.73731 39.5258 4.68327 39.2759 4.63598C39.0732 4.59545 38.9854 4.9062 39.188 4.94335C39.5832 5.02104 40.1068 5.06832 40.4276 4.77109C40.5641 4.63202 40.6442 4.44729 40.6523 4.25262C40.6604 4.05795 40.596 3.86718 40.4716 3.71725C39.9548 3.2106 38.9448 3.76454 38.4314 4.02462Z" fill="#515257"/>
<path d="M34.5364 7.04294C34.5285 7.01316 34.5142 6.98543 34.4946 6.96162C34.475 6.93781 34.4505 6.91847 34.4229 6.90489C34.3952 6.89132 34.3649 6.88382 34.3341 6.88291C34.3033 6.88199 34.2726 6.88768 34.2442 6.89959C34.2157 6.9115 34.1902 6.92936 34.1692 6.95197C34.1482 6.97457 34.1323 7.0014 34.1226 7.03065C34.1128 7.0599 34.1095 7.09091 34.1127 7.12157C34.1159 7.15224 34.1256 7.18186 34.1413 7.20845C34.244 7.41199 34.331 7.62316 34.4013 7.84007C34.4182 7.89749 34.4824 8.07651 34.4216 8.12717C34.2966 8.23864 34.1142 7.89749 34.0838 7.8198C34.0595 7.78932 34.0251 7.76861 33.9867 7.76147C33.9484 7.75433 33.9088 7.76124 33.8751 7.78093C33.8415 7.80063 33.8161 7.83179 33.8035 7.8687C33.791 7.90562 33.7922 7.94582 33.8069 7.98193C33.9183 8.21161 34.0703 8.48183 34.3507 8.5156C34.4569 8.53144 34.5653 8.50838 34.6559 8.45066C34.7465 8.39295 34.8133 8.30447 34.8438 8.20148C34.8916 7.97414 34.8656 7.73747 34.7695 7.52595C34.7324 7.42124 34.6884 7.31653 34.6412 7.21182L34.577 7.07672C34.577 7.07672 34.5128 6.98214 34.5364 7.04294Z" fill="#515257"/>
<path d="M28.6667 3.53931C28.6824 3.51891 28.694 3.4956 28.7008 3.47072C28.7075 3.44585 28.7093 3.41989 28.706 3.39433C28.7027 3.36876 28.6944 3.3441 28.6816 3.32174C28.6687 3.29939 28.6516 3.27978 28.6312 3.26403C28.6108 3.24828 28.5875 3.23671 28.5626 3.22997C28.5378 3.22323 28.5118 3.22145 28.4862 3.22475C28.4607 3.22804 28.436 3.23634 28.4137 3.24916C28.3913 3.26198 28.3717 3.27909 28.3559 3.29949C28.2213 3.46827 28.0434 3.59733 27.8411 3.67287C27.6388 3.74842 27.4199 3.76764 27.2075 3.72846C26.9711 3.65077 26.8698 3.48864 27.0657 3.20492C27.211 3.04386 27.4133 2.94573 27.6298 2.93133C28.0045 2.91489 28.377 2.99638 28.7106 3.16776C28.7714 3.19141 28.8153 3.09008 28.7545 3.06306C28.2512 2.85026 27.7412 2.65436 27.1974 2.91106C26.8833 3.06644 26.5725 3.39069 26.7887 3.7521C27.1636 4.37022 28.3053 3.99192 28.6667 3.53931Z" fill="#515257"/>
<path d="M28.5892 7.53014C28.3494 7.4761 28.1298 7.1282 28.3257 6.90527C28.4473 6.76678 28.2514 6.56751 28.1265 6.70261C28.0281 6.8272 27.9746 6.98129 27.9746 7.14002C27.9746 7.29875 28.0281 7.45284 28.1265 7.57743C28.2387 7.70731 28.386 7.80217 28.5507 7.85067C28.7154 7.89918 28.8906 7.8993 29.0553 7.85102C29.4246 7.79774 29.7639 7.61738 30.0146 7.34099C30.2949 6.96945 30.0754 6.61141 29.8356 6.29054C29.6667 6.06085 29.2782 6.29053 29.4505 6.51684C29.562 6.66208 29.7883 6.85461 29.7072 7.07078C29.6261 7.28695 29.3694 7.36801 29.1904 7.43894C29.0033 7.52776 28.7942 7.55948 28.5892 7.53014Z" fill="#515257"/>
<path d="M43.5714 6.13489C43.7706 5.75326 43.8639 5.32521 43.8416 4.89528C43.8416 4.66222 43.5579 4.62844 43.4498 4.78382C43.4456 4.75847 43.4338 4.73498 43.4161 4.71637C43.3984 4.69776 43.3755 4.6849 43.3504 4.67944C43.3253 4.67399 43.2992 4.67619 43.2753 4.68576C43.2515 4.69534 43.2311 4.71184 43.2167 4.73315C43.0567 4.98057 42.9166 5.24034 42.7979 5.51001C42.6966 5.7397 42.5412 6.11462 42.7574 6.33079C42.9735 6.54696 43.4194 6.37132 43.5714 6.13489ZM43.1796 5.33437C43.2505 5.18913 43.3282 5.04727 43.4092 4.90879C43.4096 5.19729 43.3722 5.48459 43.2978 5.76334C43.2606 5.87818 43.0208 6.24972 42.96 6.00653C42.9733 5.76613 43.0515 5.53383 43.1863 5.33437H43.1796Z" fill="#515257"/>
<path d="M44.2908 3.10418C44.5408 3.02988 44.7907 2.94881 45.0474 2.88801C45.0288 2.89842 45.0129 2.91321 45.0013 2.93112C44.9896 2.94902 44.9824 2.96949 44.9804 2.99077C44.9784 3.01204 44.9817 3.03348 44.9898 3.05324C44.9979 3.073 45.0108 3.09049 45.0272 3.10418C45.3312 3.36764 45.7669 3.66488 46.1047 3.27307C46.1661 3.21546 46.2132 3.1443 46.2422 3.06526C46.2713 2.98622 46.2814 2.90149 46.2719 2.81782C46.2624 2.73416 46.2335 2.65387 46.1874 2.58337C46.1414 2.51287 46.0795 2.4541 46.0067 2.41176C45.4629 2.15506 44.6995 2.52322 44.176 2.69211C44.1489 2.69965 44.1236 2.71244 44.1015 2.72976C44.0794 2.74708 44.0609 2.76859 44.0471 2.79306C44.0333 2.81752 44.0245 2.84446 44.0211 2.87235C44.0177 2.90023 44.0198 2.92851 44.0274 2.95557C44.0349 2.98262 44.0477 3.00793 44.065 3.03004C44.0824 3.05215 44.1039 3.07064 44.1283 3.08444C44.1528 3.09824 44.1797 3.10708 44.2076 3.11047C44.2355 3.11386 44.2638 3.11173 44.2908 3.10418ZM45.7128 2.79343C45.8277 2.81708 45.9054 2.83397 45.8277 2.97921C45.6791 3.26293 45.4021 3.02987 45.24 2.89139C45.2164 2.87318 45.1884 2.86152 45.1589 2.85761C45.3378 2.80122 45.5258 2.77944 45.7128 2.79343Z" fill="#515257"/>
<path d="M39.2453 6.40519C38.992 6.25319 38.7724 6.63825 39.0156 6.80037C39.097 6.85326 39.166 6.92306 39.218 7.00502C39.27 7.08697 39.3037 7.17917 39.3168 7.27532C39.33 7.37148 39.3222 7.46934 39.2942 7.56224C39.2661 7.65514 39.2183 7.7409 39.1541 7.81368C39.052 7.9223 38.9114 7.98664 38.7624 7.99295C38.6135 7.99926 38.4679 7.94705 38.357 7.84746C38.2301 7.74074 38.1426 7.59466 38.1083 7.43247C38.0741 7.27028 38.095 7.10129 38.1678 6.95237C38.1781 6.91609 38.1736 6.8772 38.1552 6.84427C38.1369 6.81133 38.1062 6.78703 38.0699 6.77673C38.0336 6.76643 37.9947 6.77096 37.9618 6.78933C37.9288 6.8077 37.9046 6.8384 37.8942 6.87468C37.8084 7.07183 37.7822 7.2898 37.8188 7.50168C37.8554 7.71356 37.9533 7.91009 38.1003 8.067C38.251 8.22829 38.4534 8.33178 38.6724 8.35954C38.8914 8.3873 39.1132 8.33758 39.2994 8.219C39.4478 8.11649 39.5682 7.97846 39.6497 7.81749C39.7311 7.65651 39.7709 7.47772 39.7656 7.2974C39.7602 7.11708 39.7098 6.94097 39.6189 6.78513C39.528 6.62929 39.3996 6.49867 39.2453 6.40519Z" fill="#515257"/>
<path d="M44.5272 8.64943C44.7365 8.68761 44.9523 8.66567 45.1496 8.58616C45.3469 8.50664 45.5176 8.37282 45.6419 8.2002C46.1114 7.52467 45.2804 6.72416 44.5711 6.97073C44.5176 6.99262 44.4739 7.0334 44.4484 7.08533C44.4229 7.13726 44.4173 7.19674 44.4327 7.25251C44.4481 7.30828 44.4834 7.35647 44.532 7.38795C44.5805 7.41943 44.6389 7.43202 44.6961 7.42334C44.9562 7.36254 45.3716 7.53142 45.3041 7.86581C45.2663 7.96042 45.2054 8.04402 45.1269 8.10894C45.0484 8.17386 44.9549 8.21801 44.8549 8.23735C44.7434 8.26775 44.2773 8.27113 44.3178 8.04821C44.3583 7.82528 43.98 7.71044 43.9496 7.94688C43.8719 8.32855 44.1793 8.56836 44.5272 8.64943Z" fill="#515257"/>
<path d="M46.5297 4.77601C46.9888 4.96935 47.4335 5.1951 47.8605 5.45155C48.0564 5.58665 48.3908 5.84336 48.3401 6.12708C48.2895 6.41081 47.9112 6.57969 47.7389 6.36352C47.6583 6.22238 47.6296 6.05747 47.6579 5.8974C47.6579 5.73865 47.4282 5.7454 47.4113 5.8974C47.3741 6.23517 47.4518 6.71142 47.847 6.78573C48.0539 6.79508 48.2573 6.72954 48.4198 6.60113C48.5824 6.47271 48.6932 6.29002 48.732 6.08655C48.8232 5.15769 47.3572 4.73548 46.7357 4.42136C46.5027 4.30651 46.2933 4.65442 46.5297 4.77601Z" fill="#515257"/>
<path d="M37.89 1.84351C38.2649 1.94822 38.6432 2.02253 39.008 2.15764C39.2324 2.23283 39.4417 2.34719 39.6261 2.49541C39.7109 2.56049 39.7716 2.65202 39.7984 2.75549C39.8457 2.99192 39.5856 3.19121 39.4606 2.94126C39.3762 2.78926 39.1465 2.92437 39.2276 3.07637C39.6667 3.90728 40.4638 2.90073 39.9538 2.31301C39.4843 1.77596 38.6365 1.71178 37.9846 1.56317C37.9505 1.55996 37.9163 1.56837 37.8876 1.58701C37.8589 1.60566 37.8373 1.63346 37.8263 1.66591C37.8154 1.69836 37.8157 1.73355 37.8273 1.76579C37.8388 1.79802 37.8609 1.82541 37.89 1.84351Z" fill="#515257"/>
<path d="M23.1834 5.63954C23.443 5.64906 23.6978 5.56848 23.9047 5.41149C24.1115 5.25449 24.2577 5.03074 24.3183 4.77823C24.3265 4.74637 24.3273 4.7131 24.3208 4.68087C24.3144 4.64864 24.3007 4.61827 24.281 4.59201C24.2612 4.56575 24.2358 4.54427 24.2066 4.52915C24.1774 4.51402 24.1452 4.50565 24.1123 4.50464C23.832 4.50464 23.6833 4.68366 23.6225 4.93698C23.614 4.96707 23.6129 4.99879 23.6194 5.0294C23.6259 5.06 23.6397 5.08857 23.6597 5.11262C23.5307 5.23003 23.3612 5.29297 23.1868 5.28826C22.8085 5.28826 22.6802 4.95049 22.5687 4.65326C22.5045 4.47424 22.2309 4.54517 22.2816 4.73432C22.4235 5.18693 22.6295 5.62265 23.1834 5.63954Z" fill="#515257"/>
<path d="M24.3185 9.54236C24.5982 9.58794 24.8833 9.58794 25.163 9.54236C25.1948 9.53265 25.2227 9.51296 25.2425 9.4862C25.2623 9.45944 25.273 9.42703 25.273 9.39374C25.273 9.36045 25.2623 9.32803 25.2425 9.30127C25.2227 9.27451 25.1948 9.25483 25.163 9.24512C24.8833 9.19954 24.5982 9.19954 24.3185 9.24512C24.2791 9.24512 24.2413 9.26078 24.2135 9.28865C24.1856 9.31652 24.1699 9.35432 24.1699 9.39374C24.1699 9.43316 24.1856 9.47096 24.2135 9.49883C24.2413 9.5267 24.2791 9.54236 24.3185 9.54236Z" fill="#515257"/>
<path d="M30.3992 37.989C29.9193 38.1148 29.4284 38.194 28.9333 38.2254C28.3051 38.2558 27.9774 38.0363 27.5485 37.5972C27.3999 37.4452 27.1769 37.6715 27.3188 37.8269C27.687 38.2221 27.9943 38.5531 28.5685 38.597C29.2195 38.6092 29.8659 38.4862 30.4668 38.2356C30.4968 38.2243 30.5215 38.2023 30.5361 38.1738C30.5507 38.1453 30.5541 38.1123 30.5456 38.0814C30.5372 38.0505 30.5175 38.0239 30.4904 38.0068C30.4633 37.9897 30.4308 37.9833 30.3992 37.989Z" fill="#515257"/>
<path d="M31.9785 37.0735V37.3572C32.6541 37.3572 32.6541 37.0735 31.9785 37.0735Z" fill="#515257"/>
<path d="M47.8051 41.0829C47.3727 41.5963 46.5384 41.0829 46.1804 40.6709C45.8794 40.2994 45.6358 39.885 45.4576 39.4414C45.39 39.2961 45.1198 39.4009 45.1975 39.5495C45.4711 40.2047 45.7717 40.9005 46.3797 41.3092C46.9302 41.6875 47.5855 41.9409 48.0685 41.343C48.2171 41.1606 47.9638 40.8972 47.8051 41.0829Z" fill="#515257"/>
<path d="M50.0838 40.4328C49.1076 40.7705 48.3274 40.2098 47.7836 39.4195C47.6586 39.2371 47.358 39.4195 47.4863 39.5951C48.1078 40.5206 49.0502 41.186 50.1885 40.7942C50.4181 40.7233 50.3269 40.3517 50.0838 40.4328Z" fill="#515257"/>
<path d="M52.4313 41.3557C51.7051 40.9572 51.472 40.2006 51.1883 39.4744C51.1174 39.2886 50.8168 39.3629 50.8877 39.5554C51.1714 40.3661 51.418 41.2443 52.2388 41.6732C52.4549 41.7813 52.6407 41.4706 52.4313 41.3557Z" fill="#515257"/>
<path d="M55.0556 41.6138C54.3328 41.6543 53.6708 41.276 53.6133 40.516C53.5965 40.3167 53.2756 40.31 53.2958 40.516C53.3229 41.482 54.1268 42.0596 55.0556 42.0191C55.2988 42.009 55.2988 41.6003 55.0556 41.6138Z" fill="#515257"/>
<path d="M56.9308 39.0617C56.9124 39.0166 56.8781 38.9797 56.8344 38.9581C56.7906 38.9365 56.7405 38.9317 56.6934 38.9446C56.6464 38.9575 56.6057 38.9872 56.5791 39.0281C56.5525 39.069 56.5418 39.1182 56.5491 39.1664C56.7129 39.9062 56.9552 40.6263 57.2719 41.3147C57.2958 41.3562 57.334 41.3875 57.3794 41.4027C57.4248 41.4179 57.4742 41.416 57.5183 41.3973C57.5623 41.3786 57.598 41.3444 57.6186 41.3011C57.6392 41.2579 57.6432 41.2087 57.63 41.1627C57.4205 40.4567 57.1233 39.7778 56.9308 39.0617Z" fill="#515257"/>
<path d="M31.969 27.8204C31.0651 28.5262 30.126 29.1857 29.1554 29.7964C29.1279 29.8174 29.109 29.8477 29.1023 29.8816C29.0956 29.9155 29.1015 29.9507 29.1189 29.9806C29.1364 30.0105 29.1641 30.0329 29.1969 30.0438C29.2298 30.0547 29.2654 30.0532 29.2972 30.0396C30.3105 29.5261 31.1786 28.7088 32.0838 28.013C32.1987 27.9184 32.0872 27.7225 31.969 27.8204Z" fill="#515257"/>
<path d="M33.8988 31.6319C34.8981 31.0461 35.8401 30.3675 36.7124 29.6053C36.8272 29.5108 36.6651 29.3554 36.5503 29.4432C35.6819 30.1815 34.7468 30.8373 33.7569 31.4023C33.5982 31.4732 33.74 31.7164 33.8988 31.6319Z" fill="#515257"/>
<path d="M41.5242 29.7044C40.9197 30.3144 40.3556 30.9632 39.8354 31.6466C39.7476 31.7716 39.9334 31.8999 40.0381 31.8053C40.6425 31.2053 41.2163 30.5751 41.7573 29.9172C41.8823 29.7754 41.656 29.5592 41.5242 29.7044Z" fill="#515257"/>
<path d="M45.0305 32.6352L45.1825 32.5879C45.2128 32.5795 45.2404 32.5635 45.2626 32.5413C45.2849 32.5192 45.3011 32.4917 45.3095 32.4614C45.318 32.4312 45.3186 32.3993 45.3111 32.3688C45.3037 32.3383 45.2885 32.3102 45.267 32.2873C45.9256 30.8518 47.253 29.6054 48.2292 28.3996C48.3339 28.2679 48.1515 28.0821 48.04 28.2138C46.949 29.5007 45.5203 30.7944 44.8144 32.3515C44.7965 32.3846 44.7887 32.4222 44.7916 32.4597C44.7946 32.4972 44.8083 32.533 44.8311 32.5629C44.8539 32.5929 44.8848 32.6156 44.9202 32.6284C44.9555 32.6412 44.9939 32.6436 45.0305 32.6352Z" fill="#515257"/>
<path d="M46.2731 32.3671C46.2326 32.5832 46.5501 32.6778 46.6109 32.4583C46.773 31.8334 47.5195 31.1072 47.9045 30.6174C48.3774 30.0094 48.8604 29.4116 49.3468 28.8137C49.4582 28.6719 49.2623 28.476 49.1441 28.6111C48.5361 29.3407 47.9282 30.0702 47.3337 30.8133C46.9655 31.2626 46.3744 31.7794 46.2731 32.3671Z" fill="#515257"/>
<path d="M49.8949 32.8106C49.9422 32.3614 50.5401 31.8514 50.8272 31.5406C51.0028 31.3515 51.1852 31.1623 51.3676 30.9799C51.438 30.9247 51.5015 30.8612 51.5567 30.7908L51.5838 30.757C51.5558 30.7615 51.5273 30.7615 51.4993 30.757C51.6817 30.7941 51.7594 30.5172 51.577 30.4766C51.4486 30.4496 51.3439 30.5982 51.2663 30.6725C51.0332 30.8988 50.8035 31.1319 50.5907 31.3683C50.2327 31.7466 49.6483 32.2702 49.5774 32.8174C49.5538 33.0133 49.8747 33.0133 49.8949 32.8106Z" fill="#515257"/>
<path d="M51.1976 32.2296C50.865 32.7039 50.4747 33.1351 50.0357 33.5131C49.9006 33.6347 50.0965 33.8205 50.235 33.709C50.7079 33.3302 51.1251 32.8867 51.4746 32.3917C51.5962 32.2127 51.3158 32.0607 51.1976 32.2296Z" fill="#515257"/>
<path d="M6.52796 15.2328C7.22039 13.392 8.55457 11.7741 9.7604 10.244C9.81107 10.1832 9.72325 10.0886 9.6692 10.1562C8.41946 11.6997 7.0515 13.3075 6.29153 15.172C6.24424 15.324 6.47392 15.3747 6.52796 15.2328Z" fill="#515257"/>
<path d="M5.68469 18.7929C5.77251 18.7592 5.80291 18.4552 5.82993 18.4011C5.97091 18.0641 6.12989 17.7348 6.30618 17.4148C6.55613 16.951 6.81734 16.4939 7.08981 16.0435C7.64037 15.1349 8.22808 14.2466 8.80229 13.3414C8.87322 13.2333 8.70096 13.1353 8.63003 13.24C7.98151 14.2297 7.31611 15.2092 6.70475 16.2191C6.19134 17.0703 5.61376 17.9519 5.42123 18.9415C5.41571 18.9656 5.41722 18.9907 5.42559 19.0139C5.43396 19.0371 5.44883 19.0574 5.46842 19.0723C5.48802 19.0873 5.51151 19.0963 5.53608 19.0983C5.56066 19.1002 5.58528 19.0951 5.60701 19.0834L5.77251 18.9922C5.88398 18.9415 5.80629 18.7456 5.68469 18.7929Z" fill="#515257"/>
<path d="M14.3653 20.5988L14.4531 20.3421C14.4595 20.321 14.4601 20.2985 14.4548 20.2771C14.4494 20.2557 14.4383 20.2361 14.4227 20.2205C14.649 18.7884 15.2198 17.3765 15.7265 16.0322C15.7771 15.8971 15.5643 15.8431 15.5137 15.9714C14.9327 17.4373 14.2673 18.9843 14.0714 20.5583C14.0511 20.7272 14.318 20.7508 14.3653 20.5988Z" fill="#515257"/>
<path d="M16.0702 21.1061L16.1411 20.8393C16.1492 20.8115 16.1468 20.7817 16.1343 20.7555C16.1219 20.7294 16.1002 20.7087 16.0736 20.6974C16.1242 19.5929 16.6782 18.3162 17.0362 17.3198C17.0902 17.1711 16.8572 17.1103 16.8031 17.2522C16.5194 17.9852 16.2627 18.7282 16.0499 19.4848C15.8499 19.9951 15.759 20.5417 15.7831 21.0892C15.8033 21.2581 16.033 21.2345 16.0702 21.1061Z" fill="#515257"/>
<path d="M17.3874 22.2034L17.4516 22.0852C17.4684 22.0609 17.4775 22.0321 17.4775 22.0025C17.4775 21.9729 17.4684 21.944 17.4516 21.9197C17.6536 20.5072 17.9561 19.111 18.3568 17.7415C18.3624 17.71 18.3561 17.6775 18.339 17.6504C18.3219 17.6233 18.2953 17.6036 18.2644 17.5951C18.2335 17.5867 18.2005 17.5901 18.172 17.6047C18.1435 17.6193 18.1214 17.644 18.1102 17.674C17.6447 19.1259 17.3057 20.6154 17.0969 22.1258C17.0766 22.2845 17.3165 22.3386 17.3874 22.2034Z" fill="#515257"/>
<path d="M41.9633 23.3764L42.0309 23.3054C42.0465 23.2896 42.058 23.2703 42.0646 23.249C42.0711 23.2278 42.0725 23.2053 42.0685 23.1834C42.0645 23.1616 42.0554 23.141 42.0417 23.1234C42.0281 23.1059 42.0105 23.0918 41.9903 23.0825C41.7978 21.6943 41.7978 20.2993 41.6728 18.9043C41.6728 18.7253 41.3756 18.7219 41.3891 18.9043C41.4904 20.3702 41.3891 21.8598 41.7032 23.2953C41.7088 23.3226 41.7215 23.3479 41.7402 23.3686C41.7588 23.3892 41.7827 23.4045 41.8093 23.4128C41.8359 23.4211 41.8642 23.4221 41.8913 23.4157C41.9184 23.4093 41.9433 23.3957 41.9633 23.3764Z" fill="#515257"/>
<path d="M43.4504 19.8049C43.4504 19.6563 43.2038 19.6529 43.2173 19.8049C43.295 20.9567 43.2984 22.1422 43.6868 23.2467C43.751 23.4291 44.0246 23.3514 43.9807 23.1657C43.6091 22.0781 43.572 20.9431 43.4504 19.8049Z" fill="#515257"/>
<path d="M46.7693 18.2634C46.7288 18.0878 46.4653 18.1655 46.4991 18.3377C46.6713 19.2092 46.7862 20.0941 46.999 20.9588C47.2118 21.8235 47.5901 22.5936 47.7691 23.4481C47.813 23.6711 48.1339 23.5731 48.1068 23.3569C47.9717 22.4889 47.5428 21.7154 47.3199 20.871C47.0969 20.0266 46.9483 19.1315 46.7693 18.2634Z" fill="#515257"/>
<path d="M48.6382 18.5095C48.851 20.1139 49.3746 21.7014 49.4962 23.3092C49.4962 23.5118 49.8339 23.5152 49.8103 23.3092C49.7022 21.6913 49.1044 20.0869 48.8645 18.4757C48.8274 18.3676 48.6045 18.3676 48.6382 18.5095Z" fill="#515257"/>
<path d="M51.4815 23.7192C51.506 23.7259 51.5317 23.727 51.5567 23.7222C51.5816 23.7174 51.6051 23.7069 51.6254 23.6915C51.6456 23.6762 51.6621 23.6564 51.6734 23.6336C51.6848 23.6109 51.6908 23.5859 51.6909 23.5605V23.3038C51.6898 23.2743 51.6795 23.2458 51.6614 23.2225C51.6434 23.1991 51.6185 23.182 51.5902 23.1734C51.562 23.1649 51.5318 23.1653 51.5038 23.1748C51.4758 23.1842 51.4515 23.2021 51.4342 23.2261C51.3076 22.8584 51.2226 22.4778 51.1809 22.0912C51.0323 21.3683 50.9478 20.6354 50.8668 19.9024C50.8668 19.7504 50.6101 19.7437 50.6236 19.9024C50.6966 20.8268 50.8172 21.7467 50.985 22.6586C51.0458 23.0302 51.0627 23.5706 51.4815 23.7192Z" fill="#515257"/>
<path d="M53.2383 23.2586C53.4409 23.2586 53.4342 22.9681 53.2383 22.9478C52.9005 22.9107 52.8363 21.8501 52.7992 21.6272C52.7012 21.0901 52.6269 20.5463 52.5661 20.0025C52.5458 19.8404 52.2925 19.837 52.3094 20.0025C52.3871 20.8739 52.5222 21.7285 52.6472 22.5898C52.7282 22.9715 52.8059 23.2349 53.2383 23.2586Z" fill="#515257"/>
<path d="M66.242 23.7655L67.2553 22.3739C67.36 22.2354 67.1235 22.0969 67.0256 22.2388L66.5764 22.8839C66.5764 22.2894 66.6101 21.6983 66.6676 21.1072C66.6844 20.9417 66.4277 20.9451 66.4109 21.1072C66.3501 21.7051 66.3163 22.3063 66.3061 22.9075C66.3056 22.9281 66.3101 22.9486 66.3191 22.9671C66.3282 22.9856 66.3415 23.0017 66.3581 23.0139C66.3747 23.0262 66.3939 23.0343 66.4143 23.0375C66.4346 23.0407 66.4555 23.039 66.475 23.0325L66.0427 23.6506C65.9616 23.7655 66.1575 23.8769 66.242 23.7655Z" fill="#515257"/>
<path d="M12.4225 43.7924C11.9395 45.1232 11.2707 46.5891 11.2031 48.0212C11.2031 48.1665 11.4193 48.1631 11.4294 48.0212C11.5443 46.5857 12.132 45.1874 12.6116 43.8431C12.6521 43.7248 12.4664 43.6775 12.4225 43.7924Z" fill="#515257"/>
<path d="M19.8306 46.2175C19.8306 46.1888 19.8192 46.1613 19.7989 46.141C19.7787 46.1208 19.7512 46.1094 19.7225 46.1094C19.6938 46.1094 19.6663 46.1208 19.6461 46.141C19.6258 46.1613 19.6144 46.1888 19.6144 46.2175C19.5671 48.3319 19.3847 50.4564 19.6921 52.5574C19.7157 52.7296 19.9758 52.6553 19.9522 52.4864C19.6651 50.399 19.7867 48.315 19.8306 46.2175Z" fill="#515257"/>
<path d="M23.5352 47.9954V48.2386C23.8729 48.2386 23.8729 47.9954 23.5352 47.9954Z" fill="#515257"/>
<path d="M26.5742 48.6907V48.9508C27.2498 48.9508 27.2498 48.6907 26.5742 48.6907Z" fill="#515257"/>
<path d="M27.9272 49.9657V49.6719C27.5894 49.6719 27.5894 49.9657 27.9272 49.9657Z" fill="#515257"/>
<path d="M23.3047 46.5671C23.3067 48.9373 23.5546 51.3008 24.0444 53.6197C24.0647 53.7211 24.2268 53.6197 24.2065 53.5116C23.7708 51.2283 23.325 49.2693 23.3452 46.5671H23.3047Z" fill="#515257"/>
<path d="M24.6353 47.9214C24.6353 47.7762 24.3922 47.7762 24.409 47.9214C24.5881 49.688 24.7468 51.4579 25.2872 53.1636C25.2975 53.1999 25.3218 53.2306 25.3548 53.2489C25.3877 53.2673 25.4266 53.2718 25.4629 53.2615C25.4992 53.2512 25.5299 53.2269 25.5482 53.194C25.5666 53.1611 25.5711 53.1222 25.5608 53.0859C25.0942 51.3965 24.7844 49.6677 24.6353 47.9214Z" fill="#515257"/>
<path d="M25.728 47.1887C25.7078 47.0535 25.5017 47.1143 25.522 47.2461C25.576 47.6142 25.522 47.9858 25.576 48.354C25.5288 48.3236 25.576 48.2999 25.2383 48.2999V48.5363C25.576 48.5363 25.576 48.5093 25.6064 48.4722C25.7977 50.0326 26.1474 51.5695 26.6502 53.0591C26.7109 53.2347 27.0149 53.1604 26.9541 52.9814C26.309 51.0899 26.0354 49.1545 25.728 47.1887Z" fill="#515257"/>
<path d="M27.4394 50.1788C27.1928 49.1959 27.1421 48.1522 26.8415 47.1828C26.7942 47.0342 26.5612 47.0984 26.6051 47.247C26.9429 48.3143 26.9901 49.4999 27.2806 50.5909C27.5197 51.6236 27.859 52.6304 28.2939 53.597C28.3817 53.7794 28.6317 53.6207 28.5608 53.4416C28.0996 52.386 27.7246 51.2949 27.4394 50.1788Z" fill="#515257"/>
<path d="M28.1832 49.9603C28.6662 51.3114 29.0344 52.7604 30.0173 53.8345C30.1558 53.9832 30.3551 53.767 30.2368 53.6116C29.3384 52.5206 28.9499 51.1864 28.4669 49.8962C28.4028 49.707 28.119 49.7779 28.1832 49.9603Z" fill="#515257"/>
<path d="M30.0952 48.4957C30.9194 50.4142 31.6996 52.3597 32.6893 54.2006C32.7872 54.383 33.0608 54.2208 32.9663 54.0418C32.0002 52.1841 31.1862 50.2622 30.3587 48.3403C30.281 48.1647 30.0209 48.3167 30.0952 48.4957Z" fill="#515257"/>
<path d="M33.3984 48.797C34.1415 50.3777 34.709 52.0632 35.8101 53.4447C35.9283 53.5933 36.1918 53.3906 36.0769 53.2386C35.0096 51.847 34.4117 50.1987 33.6585 48.6484C33.5741 48.4727 33.3174 48.6247 33.3984 48.797Z" fill="#515257"/>
<path d="M36.9109 49.3898C37.5864 50.7645 38.1505 52.2136 39.0524 53.443C39.1571 53.5984 39.4104 53.443 39.3057 53.2944C38.5034 51.9891 37.7826 50.6354 37.1474 49.2412C37.0697 49.1027 36.8366 49.2345 36.9109 49.3898Z" fill="#515257"/>
<path d="M64.8305 26.294C64.1732 27.1307 63.4356 27.9011 62.6282 28.5942C62.483 28.7057 62.6721 28.9556 62.8241 28.8475C63.7124 28.226 64.3576 27.3377 65.0568 26.5203C65.1885 26.3649 64.9656 26.1319 64.8305 26.294Z" fill="#515257"/>
<path d="M63.939 25.6444C63.5558 26.225 63.1337 26.7791 62.6758 27.3028C62.338 27.671 61.6625 28.5627 61.0849 28.4512C60.8822 28.414 60.7944 28.7248 61.0005 28.762C61.6422 28.8802 62.1117 28.3364 62.5204 27.9006C63.1223 27.2362 63.6669 26.5221 64.1485 25.766C64.2363 25.6342 64.0269 25.516 63.939 25.6444Z" fill="#515257"/>
<path d="M47.2869 49.4781C47.2724 49.4433 47.2456 49.4151 47.2118 49.3985C47.1779 49.382 47.1391 49.3784 47.1028 49.3883C47.0664 49.3982 47.0349 49.421 47.0141 49.4524C46.9933 49.4839 46.9846 49.5218 46.9897 49.5592C47.2667 50.6468 47.7024 51.6837 48.003 52.7578C48.0435 52.9031 48.3002 52.8828 48.28 52.7207C48.167 52.212 48.0053 51.7155 47.797 51.2379C47.6011 50.6569 47.4356 50.0692 47.2869 49.4781Z" fill="#515257"/>
<path d="M49.2257 50.3453C49.0197 49.8184 48.8001 49.2982 48.5907 48.7747C48.513 48.5855 48.2023 48.6666 48.2799 48.8591C48.5164 49.4536 48.7663 50.0447 48.9926 50.6425C49.1105 51.1114 49.2828 51.5648 49.506 51.9936C49.527 52.025 49.5592 52.0472 49.5959 52.0558C49.6327 52.0643 49.6714 52.0586 49.7041 52.0396C49.7367 52.0207 49.761 51.9901 49.7719 51.9539C49.7828 51.9178 49.7795 51.8788 49.7627 51.845C49.5364 51.3687 49.4182 50.8384 49.2257 50.3453Z" fill="#515257"/>
<path d="M50.6179 49.7504C50.7158 50.284 50.8205 50.8143 50.9556 51.3446C50.9826 51.473 51.1684 51.4156 51.1481 51.2906C51.057 50.7535 50.9624 50.2199 50.8712 49.6828C50.8306 49.5274 50.5875 49.5916 50.6179 49.7504Z" fill="#515257"/>
<path d="M52.2417 51.1473C52.2453 51.1597 52.2512 51.1713 52.2593 51.1814C52.2673 51.1916 52.2773 51.2 52.2885 51.2063C52.2998 51.2125 52.3123 51.2165 52.3251 51.218C52.3379 51.2195 52.3509 51.2184 52.3633 51.2149C52.3758 51.2113 52.3874 51.2054 52.3975 51.1973C52.4076 51.1893 52.416 51.1793 52.4223 51.1681C52.4286 51.1568 52.4326 51.1443 52.434 51.1315C52.4355 51.1187 52.4344 51.1057 52.4309 51.0933C52.3296 50.617 52.2012 50.1509 52.0661 49.6848C52.0188 49.5159 51.752 49.5902 51.806 49.7557C51.9614 50.2151 52.0999 50.6812 52.2417 51.1473Z" fill="#515257"/>
<path d="M61.2947 41.0376C59.6431 41.3753 58.8392 40.3113 58.0691 39.038C58.0481 39.0066 58.0159 38.9843 57.9791 38.9758C57.9424 38.9672 57.9037 38.973 57.871 38.9919C57.8383 39.0108 57.8141 39.0415 57.8032 39.0776C57.7923 39.1138 57.7956 39.1528 57.8124 39.1866C58.6602 40.6356 59.5654 41.7435 61.3893 41.3922C61.6224 41.3314 61.5244 40.9936 61.2947 41.0376Z" fill="#515257"/>
<path d="M62.9331 39.1048C62.8758 39.2014 62.7983 39.2846 62.7059 39.3485C62.6135 39.4125 62.5084 39.4557 62.3977 39.4753C62.2871 39.4949 62.1735 39.4903 62.0648 39.4619C61.956 39.4335 61.8547 39.382 61.7678 39.3108C61.4483 39.0567 61.1713 38.7534 60.947 38.4124C60.8423 38.284 60.6092 38.4563 60.7139 38.5914C61.0517 39.0507 61.3895 39.5844 61.9603 39.777C62.5311 39.9695 62.8723 39.7499 63.1796 39.2973C63.2776 39.1487 63.0445 38.9697 62.9331 39.1048Z" fill="#515257"/>
<path d="M64.8034 37.5339C64.6481 37.8514 64.4386 37.7839 64.1279 37.7332C63.8264 37.6781 63.5506 37.5278 63.3409 37.3043C63.3104 37.2802 63.2721 37.2682 63.2333 37.2705C63.1945 37.2728 63.1579 37.2893 63.1305 37.3168C63.103 37.3442 63.0866 37.3808 63.0843 37.4196C63.082 37.4584 63.0939 37.4967 63.118 37.5272C63.5841 38.0034 64.7021 38.5405 65.0703 37.6961C65.1648 37.5103 64.898 37.3448 64.8034 37.5339Z" fill="#515257"/>
<path d="M69.1905 39.0182C68.8435 39.119 68.4713 39.0874 68.1462 38.9295C67.8211 38.7716 67.5662 38.4987 67.4308 38.1636C67.3396 37.9373 66.968 38.0319 67.0592 38.265C67.397 39.133 68.3833 39.741 69.2986 39.41C69.5418 39.3222 69.4371 38.9304 69.1905 39.0182Z" fill="#515257"/>
<path d="M71.0855 37.9697C70.9876 38.3345 70.8862 38.7027 70.7849 39.0674C70.7733 39.1122 70.7799 39.1598 70.8033 39.1997C70.8268 39.2396 70.8651 39.2686 70.9099 39.2802C70.9547 39.2919 71.0023 39.2853 71.0422 39.2618C71.0821 39.2384 71.111 39.2001 71.1227 39.1553C71.224 38.7905 71.322 38.4223 71.4233 38.0575C71.4291 38.0353 71.4304 38.0122 71.4272 37.9896C71.4241 37.9669 71.4165 37.945 71.4049 37.9252C71.3933 37.9055 71.3779 37.8882 71.3596 37.8744C71.3413 37.8606 71.3205 37.8505 71.2983 37.8447C71.2761 37.839 71.253 37.8376 71.2303 37.8408C71.2076 37.8439 71.1858 37.8515 71.166 37.8631C71.1463 37.8748 71.129 37.8901 71.1152 37.9084C71.1014 37.9267 71.0913 37.9475 71.0855 37.9697Z" fill="#515257"/>
<path d="M51.8802 50.177C51.8699 50.1389 51.8448 50.1065 51.8106 50.0869C51.7764 50.0672 51.7358 50.062 51.6978 50.0723C51.6597 50.0826 51.6273 50.1076 51.6076 50.1418C51.588 50.176 51.5828 50.2166 51.5931 50.2547C51.8424 51.12 52.147 51.9684 52.505 52.7947C52.5827 52.9737 52.8428 52.8183 52.7685 52.6393C52.4224 51.8374 52.1258 51.0151 51.8802 50.177Z" fill="#515257"/>
<path d="M53.9554 49.1025C53.9318 48.9505 53.6987 49.0147 53.7224 49.1666C53.9284 50.5177 54.0061 51.9431 54.6445 53.1928C54.7087 53.3178 54.8944 53.1928 54.8336 53.0814C54.2324 51.8046 54.1514 50.4535 53.9554 49.1025Z" fill="#515257"/>
<path d="M55.6943 49.3786C55.6571 49.176 55.3565 49.2604 55.3869 49.4631C55.5618 50.6411 55.8032 51.8082 56.1097 52.959C56.1191 52.993 56.1417 53.0219 56.1724 53.0394C56.2031 53.0568 56.2395 53.0613 56.2736 53.0519C56.3076 53.0425 56.3365 53.0199 56.3539 52.9892C56.3714 52.9585 56.3759 52.9221 56.3665 52.888C56.1064 51.7227 55.8936 50.5541 55.6943 49.3786Z" fill="#515257"/>
<path d="M56.9776 48.7631C57.1025 49.4994 57.1971 50.2425 57.3863 50.962C57.4369 51.1646 57.724 51.0802 57.6936 50.8775C57.5551 50.1446 57.4336 49.4082 57.3018 48.6753C57.2647 48.4591 56.9404 48.5503 56.9776 48.7631Z" fill="#515257"/>
<path d="M58.6621 50.3782V50.6653C58.9999 50.6653 58.9999 50.3782 58.6621 50.3782Z" fill="#515257"/>
<path d="M3.73878 27.7109C3.86797 26.4948 4.12961 25.2965 4.51902 24.1373C4.52664 24.1095 4.52291 24.0798 4.50866 24.0548C4.4944 24.0298 4.47079 24.0115 4.44302 24.0039C4.41525 23.9962 4.3856 24 4.36058 24.0142C4.33556 24.0285 4.31722 24.0521 4.30961 24.0799C3.90532 25.2569 3.63012 26.4744 3.48883 27.7109C3.47532 27.8696 3.71514 27.8696 3.73878 27.7109Z" fill="#515257"/>
<path d="M6.01544 27.0122H6.08299C6.19107 27.0325 6.29578 26.8974 6.19783 26.813C6.09988 26.7285 6.62342 25.4619 6.68084 25.3065C6.85985 24.7796 7.05238 24.2527 7.23815 23.7291C7.29558 23.5738 7.049 23.5062 6.99158 23.6616C6.60991 24.7087 6.22485 25.7557 5.92086 26.8298C5.91409 26.848 5.91119 26.8673 5.91236 26.8867C5.91353 26.906 5.91874 26.9248 5.92765 26.942C5.93657 26.9592 5.94898 26.9744 5.9641 26.9864C5.97922 26.9985 5.99671 27.0073 6.01544 27.0122Z" fill="#515257"/>
<path d="M3.77591 32.3711L3.69822 32.3947C3.25575 31.5841 3.13753 30.6653 2.95176 29.7703C2.91123 29.5912 2.64101 29.6689 2.67479 29.8479C2.87069 30.8072 2.99229 31.7901 3.48881 32.6514C3.50675 32.6795 3.53291 32.7014 3.56373 32.7141C3.59456 32.7268 3.62855 32.7297 3.66107 32.7224L3.85022 32.6514C4.02248 32.5872 3.95493 32.3204 3.77591 32.3711Z" fill="#515257"/>
</svg>
