<svg width="48" height="66" viewBox="0 0 48 66" fill="none" xmlns="http://www.w3.org/2000/svg">
<path d="M22.5781 62.9704C23.8124 63.0055 24.9968 62.7419 26.211 62.5611C27.5715 62.3587 28.9278 62.1931 30.2805 61.9361C32.8452 61.4731 35.3603 60.7682 37.7922 59.8309C38.7054 59.4722 39.8424 59.1377 40.5794 58.4665C41.2472 57.8604 41.4389 56.7688 41.7408 55.9487C42.4982 53.8826 43.2139 51.934 42.7543 49.7211C42.1829 46.9574 41.4499 44.183 40.6968 41.4646C39.165 35.9518 39.0449 30.2143 38.2277 24.5666C37.7718 21.4114 37.3495 18.2355 36.7669 15.0974C36.4612 13.451 36.041 11.7648 35.9191 10.093C35.8143 8.67878 35.8452 7.39421 35.4019 6.02382C35.3954 6.00791 35.3875 5.9926 35.3783 5.97808C35.3399 5.81526 35.3137 5.64959 35.2905 5.48577C35.2873 5.20754 35.2287 4.93273 35.1181 4.67741C34.8433 4.22917 34.2399 4.42257 33.8329 4.5569C33.8039 4.56343 33.778 4.57954 33.7593 4.60263C33.7405 4.62572 33.7301 4.65444 33.7297 4.68417C33.7293 4.71389 33.7389 4.74288 33.757 4.76648C33.7751 4.79007 33.8006 4.80688 33.8294 4.81421C34.0025 4.82942 34.174 4.8585 34.3424 4.90116C34.5894 4.99173 34.5348 5.17387 34.5463 5.39687C34.5638 5.8424 34.6226 6.28535 34.722 6.72C34.736 6.79065 34.7705 6.85559 34.8213 6.90661C34.8722 6.95764 34.937 6.99246 35.0075 7.0067C35.3524 9.02612 35.3492 11.1147 35.6836 13.1442C36.0888 15.6342 36.4787 18.1175 36.8534 20.5941C37.2345 23.1051 37.6534 25.6021 37.9125 28.129C38.1717 30.6559 38.1848 33.1946 38.5238 35.6796C38.8806 38.2836 39.6184 40.7516 40.3014 43.2813C40.9186 45.5751 41.6933 47.9498 42.0827 50.2999C42.4339 52.423 41.3268 55.0947 40.3337 56.9547C39.7457 58.0627 38.48 58.4172 37.3714 58.8502C36.7748 59.0831 36.1976 59.3113 35.5964 59.5247C35.9683 59.2525 36.053 58.5887 36.1443 58.1594C36.3993 56.9554 36.6012 55.7434 36.7982 54.5326C36.8128 54.442 36.6551 54.415 36.64 54.5032C36.4862 55.3858 36.3481 56.2698 36.1678 57.1485C36.0748 57.6141 35.9044 59.4496 35.1976 59.4545C35.0747 59.4552 35.0666 59.6495 35.1925 59.6506C35.2098 59.6478 35.2269 59.6438 35.2436 59.6386C34.68 59.8357 34.106 60.0018 33.5242 60.1359C31.0118 60.7071 28.5221 61.1678 25.9804 61.5818C24.4764 61.8283 23.0294 62.1204 21.5015 62.0801C20.5453 62.0576 19.6213 61.7297 18.865 61.1442C18.2575 60.4751 17.7465 59.7244 17.347 58.9137C16.807 57.7098 16.4353 56.4148 16.0012 55.1705C15.9284 54.9594 15.8531 54.7489 15.7779 54.5383C15.7843 54.5484 15.7917 54.5578 15.7999 54.5665C15.8829 54.6572 16.0509 54.5432 15.9749 54.438C15.5974 53.9242 15.6594 52.7939 15.6018 52.1791C15.5346 51.4254 15.482 50.6684 15.4382 49.9272C15.4034 49.3762 15.3728 48.8217 15.3428 48.2696C15.503 48.7825 15.6663 49.2946 15.8329 49.806C15.9762 52.0806 16.1827 54.3404 16.5228 56.5686C16.5445 56.7149 16.765 56.6604 16.744 56.5166C16.4611 54.5313 16.2404 52.5416 16.082 50.5476C16.3526 51.3482 16.636 52.1484 16.926 52.9444C16.9865 53.5278 17.0475 54.1136 17.1104 54.6964C17.2674 56.1035 17.3815 57.5462 17.78 58.9118C17.7852 58.9337 17.7989 58.9527 17.818 58.9645C17.8372 58.9764 17.8602 58.9801 17.8821 58.9749C17.904 58.9698 17.923 58.9561 17.9349 58.937C17.9467 58.9178 17.9505 58.8948 17.9453 58.8729C17.5624 57.0588 17.2753 55.2257 17.0854 53.3814C17.2765 53.9024 17.4712 54.4242 17.6695 54.9469C17.6944 55.0132 17.7383 55.0706 17.7957 55.1121C18.0165 56.8154 18.329 58.5056 18.7317 60.1753C18.7379 60.2017 18.7544 60.2246 18.7775 60.2389C18.8005 60.2531 18.8284 60.2577 18.8548 60.2514C18.8812 60.2452 18.9041 60.2288 18.9183 60.2057C18.9326 60.1826 18.9372 60.1548 18.9309 60.1283C18.5452 58.4905 18.2492 56.8417 17.9915 55.1814C18.1997 55.1939 18.4088 55.0472 18.3208 54.7935C18.2742 54.6608 18.2294 54.5252 18.1828 54.3925C18.2989 54.5184 18.422 54.6375 18.5515 54.7494C18.5401 54.7556 18.5309 54.765 18.5249 54.7764C18.5189 54.7879 18.5165 54.8009 18.5179 54.8137C18.7863 56.8896 19.0787 59.024 19.6749 61.0329C19.6843 61.0561 19.7017 61.0752 19.7239 61.0866C19.7462 61.0981 19.7718 61.1013 19.7961 61.0955C19.8205 61.0898 19.8419 61.0756 19.8567 61.0554C19.8715 61.0352 19.8785 61.0104 19.8766 60.9854C19.4304 58.9386 18.9664 56.9139 18.6593 54.8369C18.974 55.0974 19.3161 55.323 19.6796 55.5097C19.6737 55.5308 19.6753 55.5533 19.6842 55.5734C19.6931 55.5934 19.7086 55.6098 19.7281 55.6197C19.7477 55.6296 19.7701 55.6324 19.7915 55.6277C19.8129 55.6229 19.832 55.6109 19.8456 55.5937C20.0862 55.7114 20.3342 55.8172 20.5957 55.9146C20.4569 56.6757 20.323 57.4357 20.1739 58.1966L20.0114 57.5065C20.0089 57.4962 20.0025 57.4873 19.9935 57.4817C19.9845 57.4761 19.9736 57.4743 19.9633 57.4768C19.953 57.4792 19.9441 57.4856 19.9385 57.4946C19.9329 57.5037 19.9312 57.5145 19.9336 57.5248C20.0029 57.8189 20.0727 58.1153 20.1425 58.4118L20.1218 58.509C20.1168 58.5343 20.1211 58.5606 20.1339 58.5831C20.1468 58.6055 20.1672 58.6225 20.1916 58.6311L20.6858 60.7948C20.6896 60.8109 20.6997 60.8249 20.7137 60.8336C20.7278 60.8423 20.7448 60.8451 20.7609 60.8413C20.777 60.8375 20.7909 60.8274 20.7997 60.8134C20.8084 60.7993 20.8111 60.7823 20.8073 60.7662L20.2857 58.6166C20.3006 58.6043 20.3111 58.5874 20.3154 58.5686C20.5292 57.7231 20.6815 56.8562 20.8187 55.9903L21.1255 56.095C21.1055 56.228 21.0831 56.3615 21.0656 56.4939C20.9258 57.5014 20.6573 58.6701 20.7924 59.6899C20.8198 59.8066 20.9924 59.7659 20.9746 59.647C20.9272 59.2131 20.9273 58.7753 20.9749 58.3414C21.0432 58.3048 21.0444 58.2661 20.9822 58.2525C21.0442 57.6557 21.1506 57.0509 21.2217 56.5033C21.2372 56.3842 21.2552 56.2645 21.2732 56.1449L21.7122 56.2775L21.9108 56.3256C21.8733 56.5909 21.8357 56.8562 21.8035 57.1332C21.6599 58.2878 21.4026 59.5693 21.6412 60.7237C21.6629 60.8161 21.8183 60.8333 21.8379 60.7313L21.8917 60.4262C21.8941 60.4109 21.8931 60.3952 21.8889 60.3803C21.8846 60.3655 21.8772 60.3517 21.8671 60.3399C21.857 60.3281 21.8445 60.3187 21.8305 60.3122C21.8164 60.3058 21.8011 60.3024 21.7856 60.3024C21.6543 59.1894 21.8756 57.9728 22.0073 56.8877C22.0278 56.7135 22.0508 56.5388 22.0726 56.3593C22.2761 56.4063 22.4802 56.4454 22.6864 56.4712C22.6319 57.0458 22.5828 57.6216 22.5489 58.1964C22.511 58.8414 22.3464 59.6343 22.6083 60.2343C22.6173 60.2511 22.6311 60.2648 22.6479 60.2738C22.6647 60.2828 22.6838 60.2867 22.7028 60.285C22.7218 60.2832 22.7398 60.2759 22.7547 60.264C22.7696 60.2521 22.7807 60.2361 22.7865 60.218L22.8614 59.9695C22.8703 59.948 22.8703 59.9239 22.8614 59.9024C22.8524 59.881 22.8354 59.8639 22.8139 59.855C22.7924 59.8461 22.7683 59.8462 22.7468 59.8551C22.7253 59.864 22.7083 59.881 22.6994 59.9025C22.5299 59.2371 22.7035 58.319 22.74 57.6897C22.7657 57.2836 22.7952 56.8791 22.8286 56.4762C23.0692 56.5067 23.3099 56.527 23.5532 56.5364C23.5358 57.3664 23.5154 58.1945 23.5514 59.0222C23.5759 59.5294 23.4969 60.3918 23.8612 60.8062C23.9244 60.8785 24.0265 60.7672 23.9686 60.7065C23.7375 60.4224 23.7556 59.9872 23.715 59.63C23.669 59.1843 23.6442 58.7413 23.631 58.293C23.6165 57.709 23.613 57.1276 23.6234 56.5404C23.9031 56.5514 24.1841 56.5468 24.4658 56.5343C24.5296 57.8941 24.5581 59.2673 24.8693 60.5995C24.8743 60.6208 24.8876 60.6392 24.9061 60.6507C24.9247 60.6622 24.9471 60.6658 24.9684 60.6608C24.9896 60.6558 25.008 60.6426 25.0195 60.624C25.031 60.6054 25.0347 60.583 25.0297 60.5617C24.7756 59.2318 24.6296 57.8835 24.5931 56.53C24.7549 56.5201 24.9186 56.5072 25.0817 56.4919C25.1912 57.9152 25.2583 59.4742 25.8357 60.7823C25.854 60.86 25.9651 60.8416 26.0058 60.7858L26.0545 60.7205C26.1168 60.6365 25.9926 60.5555 25.9186 60.6114C26.0012 60.5484 25.5126 58.7244 25.4801 58.532C25.3762 57.8511 25.3063 57.1623 25.2515 56.4724C26.616 56.3306 27.9824 56.0011 29.2983 55.7296C33.7144 54.8229 38.6371 52.9966 39.9252 48.1637C39.9348 48.114 39.9257 48.0625 39.8996 48.0191C39.8735 47.9758 39.8322 47.9436 39.7838 47.9289C39.7354 47.9142 39.6832 47.9179 39.6374 47.9393C39.5916 47.9608 39.5553 47.9985 39.5356 48.0451C39.1959 49.151 38.5757 49.8281 37.7477 50.5925C36.9768 51.305 36.2799 52.136 35.394 52.7088C33.7407 53.7805 31.4913 54.2923 29.5894 54.7223C27.6414 55.1631 25.1667 55.7639 22.8949 55.7014L22.936 55.1787C22.9444 55.0947 22.8149 55.0893 22.8064 55.1733C22.7878 55.3445 22.7715 55.515 22.7557 55.6983C22.5535 55.6895 22.3533 55.6776 22.1561 55.6574C22.2574 54.8897 22.3594 54.1244 22.4474 53.3548C22.575 53.8967 22.7425 54.4446 23.0338 54.7556C23.1485 54.8722 23.38 54.7228 23.2766 54.5778C23.0258 54.2317 23.0056 53.4926 22.8986 53.0818C22.7893 52.6176 22.6387 52.1632 22.5051 51.7048C22.3142 51.047 22.1288 50.3904 21.9453 49.7309C21.979 49.5255 22.0151 49.3195 22.0561 49.1123C22.07 49.0193 21.9254 49.0149 21.9108 49.1055C21.8963 49.1961 21.8761 49.2958 21.8603 49.3918C21.7939 49.1099 21.7056 48.8332 21.6271 48.5542C21.0344 46.4187 20.3256 44.3132 19.7693 42.1692C19.6307 41.635 19.4823 41.1031 19.3358 40.5682L19.4391 40.3643C19.4803 40.2777 19.353 40.1948 19.3076 40.285C19.297 40.3055 19.287 40.3283 19.274 40.3494C18.9933 39.3777 18.7888 38.3857 18.6624 37.3822C19.1695 37.5733 19.6861 37.7385 20.2101 37.8769C20.4535 37.9507 20.6925 38.0383 20.9259 38.1392C20.9324 38.1466 20.9404 38.1525 20.9493 38.1566C20.9582 38.1607 20.9679 38.1629 20.9777 38.163C21.3239 38.3131 21.6569 38.4921 21.9732 38.698C21.7811 38.9715 21.6085 39.2404 21.4165 39.5036C21.3505 39.5936 21.4976 39.6846 21.5637 39.5946C21.7574 39.3284 21.9301 39.0595 22.1076 38.7894C22.3362 38.9433 22.5519 39.108 22.7675 39.2829L22.5339 39.6739C22.0172 40.5292 21.5638 41.5337 20.8582 42.2513C20.7734 42.3379 20.9114 42.4773 20.9907 42.3894C21.6469 41.7013 22.0561 40.7816 22.5353 39.9737L22.8825 39.3789C23.0885 39.5459 23.292 39.7236 23.5026 39.91L22.4896 41.6747C22.0502 42.4117 21.6801 43.2145 21.1117 43.8613L21.1008 43.8151C21.0757 43.7082 20.902 43.744 20.9307 43.8552L20.9811 44.069C20.9854 44.0852 20.9938 44.1001 21.0054 44.1121C21.0171 44.1241 21.0317 44.1329 21.0478 44.1376C21.0638 44.1423 21.0809 44.1428 21.0972 44.139C21.1135 44.1353 21.1286 44.1273 21.1409 44.116C21.7361 43.5065 22.0751 42.7136 22.4981 41.983L23.6206 40.0515L24.1274 40.4938C25.0979 41.3081 26.2887 41.8152 27.5483 41.9503C27.7879 41.9712 28.0287 41.9745 28.2688 41.9602C28.3365 42.3239 28.4065 42.6972 28.481 43.0464C28.5045 43.1461 28.5285 43.2481 28.552 43.3478L28.3254 43.8885C28.2784 44.0047 28.4659 44.0606 28.5135 43.9468L28.6231 43.6824C28.7032 44.0226 28.7639 44.3674 28.8368 44.7093C28.7265 44.9713 28.5914 45.2221 28.4335 45.4584C28.3532 45.5747 28.5369 45.6905 28.6167 45.5717C28.7332 45.4132 28.8314 45.2421 28.9095 45.0616L29.1665 46.2835C29.1501 46.3131 29.1271 46.3387 29.0994 46.3582C29.0861 46.3654 29.0744 46.3751 29.0648 46.3868C29.0553 46.3986 29.0482 46.4121 29.0438 46.4265C29.0395 46.441 29.0381 46.4562 29.0396 46.4712C29.0411 46.4863 29.0456 46.5008 29.0528 46.5141C29.06 46.5274 29.0697 46.5392 29.0814 46.5487C29.0931 46.5583 29.1066 46.5654 29.1211 46.5697C29.1356 46.5741 29.1508 46.5755 29.1658 46.574C29.1808 46.5724 29.1954 46.5679 29.2087 46.5608L29.2257 46.5568C29.323 46.9699 29.4027 47.3846 29.4946 47.7964L29.479 47.8283C29.4294 47.781 29.3185 47.8327 29.3447 47.9112L29.3796 48.0595C29.3846 48.0762 29.3942 48.0912 29.4074 48.1026C29.4206 48.1141 29.4368 48.1216 29.4541 48.1242C29.4713 48.1269 29.489 48.1246 29.505 48.1176C29.521 48.1106 29.5347 48.0992 29.5445 48.0847L29.7048 48.7651C29.7906 49.1297 29.8615 49.5285 29.9358 49.9419L29.9189 50.0664C29.918 50.0823 29.9227 50.0981 29.9323 50.1109C29.9419 50.1236 29.9557 50.1326 29.9713 50.1361C30.0473 50.5568 30.1274 50.9842 30.2246 51.4076L30.208 51.468C30.2051 51.476 30.2042 51.4845 30.2052 51.493C30.2062 51.5014 30.2091 51.5095 30.2138 51.5166C30.2184 51.5237 30.2247 51.5296 30.232 51.5339C30.2393 51.5382 30.2476 51.5407 30.2561 51.5413C30.4152 52.3432 30.7225 53.1085 31.162 53.7979C31.2038 53.8741 31.2741 53.9306 31.3575 53.955C31.4409 53.9793 31.5306 53.9696 31.6068 53.9278C31.683 53.8861 31.7396 53.8157 31.7639 53.7323C31.7883 53.6489 31.7785 53.5592 31.7368 53.483C31.2735 52.2977 30.9094 51.076 30.6482 49.8305C30.6548 49.6676 30.6481 49.5045 30.6283 49.3427C30.6174 49.2966 30.5618 49.2892 30.5312 49.3118L30.3732 48.6411C30.5109 48.1367 30.6649 47.6362 30.7897 47.1425C30.8153 47.0442 30.6633 46.9979 30.6378 47.0962C30.5379 47.4891 30.4125 47.8931 30.2931 48.3008C30.245 48.0967 30.1975 47.895 30.1506 47.6958C30.1036 47.4965 30.0596 47.3094 30.0144 47.1174C30.3611 46.3355 30.6532 45.5281 30.9692 44.7355C31.0099 44.6361 30.8525 44.5885 30.8118 44.6879C30.5223 45.3973 30.245 46.1038 29.941 46.8166C29.8517 46.4376 29.763 46.0609 29.6737 45.6818C29.8804 45.1766 30.1095 44.6789 30.3276 44.1787C30.8277 43.0349 31.3059 41.8964 31.8085 40.7521C31.8136 40.7413 31.8161 40.7295 31.8158 40.7176C31.8155 40.7057 31.8123 40.6941 31.8066 40.6836C31.8009 40.6732 31.7928 40.6643 31.7829 40.6576C31.7731 40.6509 31.7618 40.6467 31.75 40.6453C32.4833 40.0988 33.034 39.3432 33.3298 38.4778C33.6955 37.2862 33.3931 36.0237 33.0905 34.8587C32.911 34.1623 32.7086 33.4661 32.5948 32.7543C32.4792 32.089 32.5065 31.3772 32.1324 30.7908C31.8711 30.3675 31.1903 30.7331 31.4503 31.1617C31.7647 31.6802 31.7089 32.3576 31.8099 32.9391C31.911 33.5206 32.058 34.1016 32.201 34.6758C32.4352 35.6158 32.7366 36.6015 32.6305 37.5883C32.5748 38.069 32.4158 38.532 32.1643 38.9454C31.9128 39.3589 31.5748 39.713 31.1734 39.9834L31.5901 39.0517C31.6331 38.962 31.5004 38.8779 31.458 38.9699L30.9137 40.1548C30.5911 40.3461 30.2482 40.5008 29.8913 40.6162C30.4204 39.3015 30.944 37.9855 31.4839 36.6734C31.5034 36.6252 31.4267 36.6048 31.4067 36.6505C30.8233 37.9849 30.2488 39.3282 29.6833 40.6806C29.3516 40.7741 29.0123 40.8386 28.6694 40.8732C28.6958 40.8003 28.7271 40.7263 28.7595 40.6571C29.0849 39.9803 29.4168 39.3096 29.7392 38.6309C30.2732 37.3982 30.8958 36.2058 31.6022 35.063C31.661 34.9748 31.5204 34.8899 31.4611 34.9757C30.7979 36.0088 30.2124 37.0898 29.7092 38.2097C29.4276 38.789 29.1362 39.3706 28.8376 39.9539C28.7349 40.1602 28.6356 40.4247 28.5254 40.6866C28.444 40.2646 28.3663 39.8366 28.2885 39.4086C28.8644 38.1727 29.4227 36.928 29.9746 35.6772C30.0089 35.605 29.8819 35.5451 29.8482 35.6198C29.3116 36.7721 28.7751 37.9244 28.2216 39.0807C28.141 38.6406 28.058 38.201 27.9677 37.7632C27.9758 37.7732 27.9863 37.7809 27.9982 37.7856C28.0102 37.7904 28.0231 37.792 28.0359 37.7903C28.0486 37.7886 28.0607 37.7836 28.0709 37.7759C28.0812 37.7681 28.0893 37.7579 28.0945 37.7461C28.628 36.5484 29.2575 35.4203 29.9009 34.2864C29.9382 34.2161 29.8361 34.1529 29.7958 34.2214C29.1464 35.3516 28.405 36.4727 27.9618 37.7056C27.8629 37.2313 27.7592 36.7581 27.6414 36.2908C28.4213 34.941 29.1881 33.5831 29.9419 32.2172C29.9655 32.1757 29.9025 32.1367 29.8789 32.1782C29.1299 33.4848 28.3665 34.7846 27.5886 36.0776C27.5222 35.7957 27.4443 35.5191 27.3547 35.2478C28.4386 33.4792 29.4503 31.6764 30.4851 29.8732C30.5235 29.8077 30.4244 29.7464 30.3884 29.8113C29.3635 31.5583 28.3621 33.3177 27.2886 35.0325C27.1129 34.4713 26.9045 33.9209 26.6644 33.3841C26.6876 33.403 26.7154 33.4155 26.745 33.4202C26.7745 33.425 26.8048 33.4218 26.8327 33.411C26.8607 33.4003 26.8853 33.3823 26.904 33.359C26.9228 33.3357 26.9351 33.3079 26.9396 33.2783C27.2082 31.435 28.3581 29.4457 30.4838 29.476C30.5178 29.4772 30.5517 29.4718 30.5836 29.4599C30.6155 29.4481 30.6447 29.4301 30.6696 29.407C30.6945 29.3838 30.7146 29.356 30.7288 29.3251C30.743 29.2942 30.7509 29.2608 30.7522 29.2268C30.7534 29.1928 30.748 29.1589 30.7362 29.1271C30.7243 29.0952 30.7063 29.066 30.6832 29.041C30.66 29.0161 30.6322 28.996 30.6013 28.9818C30.5704 28.9677 30.537 28.9597 30.503 28.9585C28.0979 28.6785 26.8005 31.272 26.6225 33.2606C26.6246 33.2746 26.6278 33.2885 26.6322 33.3019C26.2144 32.3691 25.6596 31.5039 24.9863 30.7349C24.9058 30.6435 24.7812 30.7678 24.852 30.8614C25.8623 32.2491 26.5996 33.8163 27.0245 35.4794C27.0212 35.4921 27.0211 35.5053 27.0241 35.518C27.0271 35.5307 27.0331 35.5425 27.0417 35.5523C27.134 35.8897 27.219 36.2287 27.2973 36.572L27.1423 36.829C27.1267 36.8339 27.1127 36.8432 27.102 36.8557C27.0914 36.8681 27.0844 36.8834 27.082 36.8997L27.0708 36.9716C27.0575 37.0568 27.1879 37.0876 27.2257 37.0197L27.3516 36.8028C27.6481 38.1488 27.86 39.5275 28.0854 40.8877C27.3782 40.904 26.6749 40.7793 26.0164 40.5209C24.9499 40.0872 24.2728 39.249 23.4202 38.5367L24.2763 37.086C24.3124 37.021 24.2163 36.9616 24.1773 37.0246L23.3154 38.4511L23.312 38.4365C23.1065 38.2722 22.8882 38.1246 22.6592 37.9952C23.1102 37.2529 23.5419 36.5049 23.972 35.7393C24.0099 35.6714 23.9072 35.6058 23.8669 35.6742C23.4261 36.427 22.9877 37.1792 22.5282 37.9183C22.224 37.7571 21.9091 37.617 21.5856 37.4991L21.6247 37.436C21.8926 37.0164 22.1666 36.6005 22.4369 36.1803C23.0386 35.2503 23.6344 34.3166 24.2241 33.3792C24.2655 33.3156 24.1664 33.2543 24.125 33.3179C23.5686 34.1791 23.0074 35.038 22.4414 35.8946L21.6543 37.0828C21.5863 37.186 21.5113 37.314 21.432 37.4455C21.2976 37.3977 21.1546 37.357 21.0287 37.3122C20.2767 37.0815 19.3548 37.0114 18.6361 36.6497C18.6299 36.3947 18.6309 36.138 18.6432 35.8632C18.7067 34.6908 19.1169 33.5636 19.8217 32.6245C20.5266 31.6855 21.4943 30.9768 22.6024 30.5884C22.2875 30.9721 21.9738 31.3572 21.6613 31.7437L20.6706 32.9824C20.4711 33.2243 20.259 33.4128 20.2058 33.7203C20.1881 33.8194 20.346 33.8258 20.3637 33.7267C20.4181 33.3805 20.8896 32.9539 21.0874 32.7047L21.9506 31.6217L22.8494 30.5046L22.9029 30.492C22.9398 30.4813 22.9712 30.4568 22.9906 30.4236C23.01 30.3904 23.0159 30.351 23.007 30.3136C23.2616 30.0005 23.5146 29.6845 23.766 29.3653C23.8116 29.3084 23.7134 29.229 23.6678 29.2859L22.8861 30.2138C22.8578 30.2033 22.827 30.2017 22.7977 30.209C21.9021 30.4179 21.0665 30.8301 20.3558 31.4138C19.6451 31.9975 19.0783 32.737 18.6993 33.575C18.3294 34.4534 18.1426 35.3981 18.1502 36.3512C17.6352 35.8852 17.3798 35.1271 17.2283 34.3318L17.3057 34.2136C17.357 34.1373 17.2526 34.0645 17.1901 34.1151C17.067 33.3746 17.0261 32.6456 16.9412 32.0782C16.9403 32.0691 16.9382 32.0601 16.9349 32.0515C17.2144 31.6926 17.4387 31.294 17.6003 30.8688C17.944 30.0346 18.3953 29.2489 18.9427 28.5316C19.7948 27.4697 20.1969 26.1163 20.063 24.7615C19.9498 23.693 19.5826 21.6327 18.4856 21.1241C18.3183 21.0455 18.162 21.2747 18.3295 21.3763C19.6537 22.1853 19.8133 25.0845 19.4714 26.3987C19.3869 26.7203 19.2595 27.029 19.0925 27.3164C19.0689 27.1624 19.0331 27.0104 18.9855 26.862C18.9372 26.7118 18.7052 26.7613 18.7425 26.9192C18.8165 27.1588 18.8627 27.4061 18.8801 27.6563C18.4773 28.2436 17.9672 28.7459 17.5348 29.371C16.9917 30.1581 16.6272 31.4853 15.6207 31.7967C15.4127 31.8533 15.1975 31.8789 14.982 31.8728L15.9314 30.6002C15.982 30.5318 15.8715 30.4655 15.8203 30.5314L14.7949 31.8733C14.5731 31.8633 14.3509 31.8651 14.1293 31.8787C13.9286 31.8977 13.7289 31.932 13.5322 31.968L13.6661 31.7852C14.248 31.0103 14.8176 30.2272 15.375 29.4359C15.4139 29.3832 15.3268 29.3293 15.288 29.3821C14.7695 30.0992 14.245 30.8127 13.7079 31.5163C13.5865 31.6757 13.4663 31.8297 13.3477 32.0012C13.0104 32.0747 12.6686 32.126 12.3246 32.155C12.2028 32.1606 12.0896 32.159 11.9807 32.1539C12.5656 31.4467 13.0986 30.6825 13.6696 29.9812C14.5392 28.9146 15.4214 27.8579 16.3049 26.7957C16.353 26.7382 16.2706 26.6499 16.2202 26.7079C15.3349 27.7628 14.4467 28.8159 13.5711 29.8788C12.9731 30.6069 12.4105 31.4089 11.7938 32.1338C11.3456 32.0775 10.9318 31.8642 10.626 31.5316C12.0399 29.988 13.3027 28.2928 14.6741 26.7104C14.7289 26.6488 14.6381 26.5573 14.5882 26.6178C13.1786 28.2014 11.8902 29.8643 10.4871 31.4207C10.1458 30.9535 9.87288 30.44 9.67648 29.8958C9.65988 29.8253 9.62141 29.76 9.59452 29.6894C9.60421 29.5127 9.61389 29.336 9.62829 29.1684C9.63342 29.1031 9.52992 29.0993 9.52479 29.1646L9.50599 29.4768C9.38757 29.1918 9.27099 28.9038 9.155 28.6182C9.20474 27.9473 9.25449 27.2764 9.31324 26.6111C9.32051 26.5222 9.1837 26.5185 9.17586 26.605C9.13366 27.1518 9.07631 27.6997 9.00381 28.2485C8.81482 27.7801 8.62341 27.3122 8.42956 26.8449C8.50544 26.078 8.58133 25.3112 8.63119 24.5428C8.63108 24.5295 8.6274 24.5164 8.62055 24.505C8.6137 24.4936 8.60391 24.4842 8.59221 24.4778C8.58051 24.4714 8.56731 24.4682 8.55398 24.4686C8.54065 24.469 8.52767 24.473 8.51638 24.4801C8.95587 24.0483 9.36661 23.5925 9.76721 23.1262C9.76973 23.127 9.77241 23.1271 9.77497 23.1265C9.77753 23.1259 9.77988 23.1246 9.7818 23.1228C9.93212 23.0503 10.0552 22.9314 10.1328 22.7836C10.1434 22.7492 10.1488 22.7133 10.1488 22.6773C10.597 22.1408 11.0356 21.5964 11.4838 21.0599C11.5275 21.006 11.4523 20.9262 11.4086 20.9802C10.9629 21.5057 10.5258 22.0345 10.082 22.5571C10.0534 22.5401 10.0211 22.5301 9.98794 22.5279C9.92261 22.5228 9.91749 22.6317 9.98468 22.6339C9.99412 22.6337 10.0035 22.6359 10.0118 22.6403C9.48434 23.2647 8.94426 23.8792 8.37486 24.4673C8.32513 24.5175 8.4052 24.5961 8.45007 24.547L8.48752 24.51C8.48344 24.5193 8.48143 24.5294 8.48166 24.5396C8.43334 25.1948 8.36687 25.8491 8.2901 26.5032C8.15709 26.178 8.01735 25.857 7.87705 25.5335C7.99454 24.1593 8.17794 22.7926 8.1266 21.4094C8.18859 21.3679 8.23715 21.3092 8.26637 21.2406C8.38197 20.956 8.38241 20.6377 8.26761 20.3528C8.24128 20.2411 8.06088 20.281 8.09021 20.3946C8.16554 20.6009 8.19296 20.8216 8.17041 21.04C8.15964 21.11 8.13215 21.1763 8.09025 21.2333C8.05065 21.2067 7.98446 21.2198 7.98848 21.2804L7.99592 21.312C7.94221 21.3358 7.88452 21.3494 7.82582 21.352C7.81783 21.3517 7.80986 21.353 7.80236 21.3558C7.79487 21.3585 7.78799 21.3628 7.78212 21.3682C7.77626 21.3736 7.77151 21.3802 7.76817 21.3874C7.76483 21.3947 7.76295 21.4025 7.76264 21.4105C7.76234 21.4185 7.7636 21.4265 7.76638 21.434C7.76915 21.4415 7.77337 21.4484 7.7788 21.4542C7.78423 21.4601 7.79077 21.4648 7.79803 21.4682C7.80529 21.4715 7.81314 21.4734 7.82113 21.4737C7.88126 21.4786 7.94177 21.4756 8.0011 21.4646C8.02147 22.7659 7.95432 24.067 7.8001 25.3593C7.57685 24.8579 7.34872 24.3576 7.12361 23.8591C7.23956 22.6417 7.37968 21.4289 7.51008 20.2183C7.51493 20.1736 7.44531 20.172 7.44045 20.2168C7.27102 21.3596 7.15777 22.5122 7.03665 23.6642C6.97143 23.518 6.90379 23.3723 6.83857 23.2261C6.75433 23.0339 6.6814 22.837 6.62015 22.6363C6.704 21.7 6.79915 20.7645 6.90559 19.8298C6.90981 19.8203 6.9108 19.8097 6.90843 19.7996C6.90605 19.7895 6.90043 19.7805 6.89243 19.7739C7.05231 19.4182 7.2365 19.0568 7.45685 18.6638C7.51272 18.5634 7.36202 18.4681 7.30372 18.569C6.66511 19.7018 5.89414 20.8606 6.1426 22.2204C6.20081 22.5266 6.28941 22.8262 6.40711 23.1148C6.27745 24.4047 6.17681 25.698 6.1415 26.9965C6.1404 27.0236 6.15013 27.05 6.16854 27.07C6.18694 27.0899 6.21252 27.1018 6.23965 27.1029C6.26678 27.104 6.29323 27.0942 6.31319 27.0758C6.33314 27.0574 6.34496 27.0318 6.34606 27.0047C6.3834 25.8238 6.45762 24.647 6.55543 23.4723C6.68873 23.7769 6.83418 24.0786 6.97176 24.3797C6.81059 25.5498 6.71905 26.7284 6.69763 27.9094C6.6968 28.0147 6.8602 28.0224 6.86046 27.9146C6.87451 26.7982 6.94489 25.6813 7.04128 24.5659C7.04778 24.5883 7.05313 24.611 7.0573 24.634C7.27313 25.1474 7.47981 25.6656 7.67863 26.183C7.54752 27.4014 7.42184 28.6211 7.40338 29.8386C7.40259 29.8613 7.41082 29.8833 7.42626 29.8999C7.44171 29.9164 7.46311 29.9262 7.48574 29.927C7.50837 29.9278 7.5304 29.9195 7.54696 29.9041C7.56353 29.8886 7.57328 29.8672 7.57407 29.8446C7.67175 28.7238 7.71382 27.5957 7.78505 26.4606C7.90834 26.7881 8.03464 27.1174 8.15365 27.4485C7.94907 28.9764 7.82837 30.5143 7.79212 32.0555C7.79297 32.0808 7.80338 32.1048 7.82126 32.1227C7.83914 32.1406 7.86315 32.151 7.88844 32.1519C7.91372 32.1528 7.9384 32.1441 7.95749 32.1274C7.97657 32.1108 7.98865 32.0876 7.99126 32.0624C8.02369 30.6646 8.16748 29.2714 8.31728 27.8819C8.49995 28.4288 8.6639 29.016 8.84315 29.5919C8.65351 31.1934 8.46688 32.7968 8.40504 34.3965C7.96686 32.9171 7.56026 31.4304 7.0649 29.9697C6.30476 27.7223 5.6028 25.4716 4.93086 23.1958C4.30169 21.0689 3.67253 18.942 2.85968 16.8738C2.57833 16.1476 2.0931 15.2744 1.85576 14.43C2.3749 14.5223 2.90099 14.57 3.42827 14.5726C3.49117 14.5783 3.55235 14.5767 3.61711 14.5794C3.30243 15.6718 3.03006 16.8132 3.28291 17.9848C3.28746 18.0041 3.29952 18.0208 3.31641 18.0313C3.3333 18.0417 3.35365 18.0451 3.37299 18.0405C3.39232 18.036 3.40905 18.0239 3.41951 18.007C3.42996 17.9901 3.43327 17.9698 3.42871 17.9504C3.15743 16.7986 3.43194 15.6772 3.72818 14.561C4.22439 14.5742 4.72093 14.5541 5.21444 14.5007C5.18924 14.5136 5.16871 14.534 5.15576 14.5592C5.14281 14.5843 5.13809 14.6129 5.14228 14.6409C5.15932 14.7677 5.17036 14.8907 5.18011 15.0192C4.5292 16.7858 4.51462 18.7822 4.29073 20.6303C4.27632 20.7543 4.47002 20.7599 4.48743 20.6379C4.72607 18.9068 4.69352 17.0806 5.20521 15.3981C5.20538 15.9547 5.29325 16.5079 5.46559 17.0372C5.41737 17.5077 5.36973 17.9806 5.31423 18.4528C5.18539 19.5937 5.15262 20.7505 4.99905 21.8844C4.98292 22.0011 5.16332 22.0048 5.18002 21.8905C5.36004 20.7709 5.33806 19.5885 5.44617 18.4576C5.48563 18.0516 5.52409 17.645 5.56155 17.2378C5.77465 17.6173 6.09712 17.9239 6.48694 18.1176C7.84186 18.8501 9.61605 18.9016 11.1105 18.9523C12.9737 19.052 14.839 18.7998 16.6088 18.2087C17.8687 17.7863 18.6207 17.2219 18.6421 15.7883C18.6445 15.722 18.6206 15.6576 18.5755 15.609C18.5304 15.5605 18.4678 15.5319 18.4016 15.5294C18.3354 15.527 18.2709 15.551 18.2224 15.5961C18.1738 15.6412 18.1452 15.7037 18.1428 15.7699C17.9958 18.413 12.5321 18.1712 10.6782 18.1077C9.55297 18.0675 8.3899 18.008 7.30553 17.6837C6.22117 17.3594 5.87753 16.8043 5.70754 16.0826C5.7657 15.7832 5.78937 15.4781 5.7781 15.1734C5.77824 15.1689 5.77752 15.1646 5.77596 15.1604C5.7744 15.1563 5.77204 15.1525 5.76902 15.1493C5.766 15.1461 5.76237 15.1435 5.75835 15.1417C5.75433 15.1398 5.74999 15.1388 5.74558 15.1387C5.74117 15.1386 5.73677 15.1393 5.73264 15.1409C5.72851 15.1424 5.72473 15.1448 5.72151 15.1478C5.71829 15.1508 5.7157 15.1544 5.71389 15.1585C5.71207 15.1625 5.71106 15.1668 5.71092 15.1712C5.70214 15.3824 5.67883 15.5927 5.64115 15.8007C5.55416 15.4313 5.50775 15.0165 5.39872 14.5753C5.39541 14.5547 5.3864 14.5354 5.37271 14.5196C5.35902 14.5038 5.34119 14.4921 5.32122 14.4859C6.00352 14.4098 6.68395 14.2931 7.38024 14.1676C8.70908 13.929 10.0132 13.6398 11.3482 13.4383C12.8688 13.2084 14.3027 12.5552 15.7926 12.1838C15.8045 12.1782 15.8141 12.1686 15.8198 12.1568C15.8255 12.1449 15.827 12.1315 15.824 12.1186C15.821 12.1058 15.8136 12.0945 15.8032 12.0864C15.7928 12.0783 15.78 12.0741 15.7668 12.0744C14.5153 12.3692 13.269 12.8602 12.0024 13.0687C10.7995 13.2649 9.59024 13.3034 8.38163 13.5188C7.06691 13.7533 5.74037 13.9159 4.40794 14.0059C3.67575 14.0552 2.60264 14.1925 1.78322 14.1111C1.74154 13.9207 1.71904 13.7267 1.71604 13.5319C1.70894 12.4127 2.71777 11.8391 3.58051 11.2768C3.98863 11.1939 4.39225 11.0903 4.78982 10.9663C4.67377 11.5209 4.59528 12.0827 4.55489 12.6478C3.85778 12.7471 3.14692 12.6348 2.51431 12.3256C2.48678 12.3136 2.45583 12.3119 2.42714 12.3208C2.39846 12.3297 2.37396 12.3487 2.35815 12.3743C2.34234 12.3998 2.33628 12.4302 2.34108 12.4599C2.34588 12.4896 2.36121 12.5165 2.38427 12.5358C3.00936 13.0118 3.82908 13.1163 4.60402 13.0851C4.6192 13.0851 4.63418 13.0816 4.64776 13.0748C4.75683 13.0696 4.86833 13.0639 4.97625 13.0538C6.40532 12.925 7.85614 12.8885 9.2716 12.6475C12.3737 12.1298 15.3968 11.2767 18.4755 10.6593C21.362 10.0607 24.2123 9.29867 27.0124 8.37678C28.2806 7.9678 29.5772 7.64702 30.8404 7.20588C31.2669 7.05669 31.7403 6.93236 32.2045 6.77945C32.2553 6.83503 32.3208 6.87511 32.3934 6.89506C32.466 6.91502 32.5428 6.91404 32.6149 6.89223C32.687 6.87043 32.7515 6.82869 32.8008 6.77183C32.8502 6.71497 32.8825 6.6453 32.894 6.57087C32.8973 6.54912 32.9016 6.52756 32.907 6.50625C33.2236 6.37001 33.5148 6.18089 33.7679 5.94698C33.8245 5.8849 33.8554 5.80371 33.8545 5.71974C33.8535 5.63578 33.8208 5.55528 33.7629 5.49446C33.705 5.43364 33.6263 5.39701 33.5424 5.39195C33.4586 5.38689 33.376 5.41377 33.3112 5.46719C33.2378 5.52976 33.1593 5.58602 33.0764 5.63535C33.2406 4.78618 33.378 3.7689 33.0181 3.20989C32.5571 2.51567 31.2658 2.12983 30.4843 2.02408C29.6417 1.90961 29.01 2.09173 28.4365 2.7167C27.8169 3.34511 27.286 4.05521 26.8586 4.82731C24.4555 5.06756 22.1394 5.63358 19.7828 6.14758C18.3906 6.45495 16.9962 6.70899 15.6146 7.08311C15.0524 7.23348 14.0429 7.41224 13.5234 7.80905C11.9366 7.60569 10.4409 7.20131 8.81054 7.21596C6.57448 7.2399 5.48233 8.59232 4.95493 10.317C4.91478 10.2799 4.8651 10.2547 4.81145 10.2443C4.7578 10.2338 4.7023 10.2385 4.65115 10.2578C4.41908 10.3405 4.20221 10.4609 4.00922 10.6141C3.98694 10.6079 3.96345 10.6075 3.94093 10.6128C3.91842 10.6181 3.8976 10.629 3.88043 10.6445C2.61464 11.5428 0.916 11.8556 1.14784 13.6785C1.16645 13.8229 1.18993 13.9661 1.21884 14.1106C1.21234 14.1255 1.21084 14.142 1.21456 14.1578C1.21827 14.1736 1.227 14.1877 1.23944 14.1981C1.4608 15.1925 1.91746 16.1621 2.25947 17.1024C2.71647 18.3567 3.11087 19.6283 3.48626 20.9173C4.95464 26.0628 6.42302 31.2083 8.03549 36.3123C9.47773 40.8458 11.5881 45.1451 13.049 49.6819C13.8192 52.0808 14.8109 54.3967 15.6554 56.7627C16.0334 57.8227 16.365 58.9475 16.9549 59.9166C17.4814 60.7801 18.2122 61.498 18.8912 62.2358C18.9208 62.271 18.9579 62.2991 18.9998 62.3182C19.0417 62.3373 19.0873 62.3468 19.1333 62.346C19.1793 62.3453 19.2245 62.3343 19.2658 62.3138C19.307 62.2934 19.3431 62.264 19.3715 62.2278C19.4568 62.2847 19.5414 62.3391 19.6333 62.3918C20.5449 62.9081 21.5533 62.9425 22.5781 62.9704ZM31.5919 40.7364C31.1548 41.7011 30.7286 42.6684 30.2999 43.6363C30.1012 44.0884 29.8976 44.5416 29.6958 44.9918L29.5635 45.2794C29.4737 44.8979 29.3832 44.5139 29.2928 44.13L29.9598 42.6058C30.1417 42.1911 30.3296 41.7801 30.5144 41.3672C30.8931 41.1921 31.2539 40.9809 31.5919 40.7364ZM30.2725 41.4832L29.8961 42.3028L29.2057 43.8145C29.1267 43.4792 29.0471 43.1414 28.9682 42.806C29.1085 42.4652 29.2512 42.1238 29.3909 41.7805C29.6916 41.7029 29.9862 41.6035 30.2725 41.4832ZM29.1728 41.8345C29.0802 42.0512 28.9876 42.268 28.898 42.4866C28.8528 42.2946 28.8076 42.1026 28.7624 41.9106C28.9013 41.8907 29.0361 41.8641 29.1728 41.8345ZM6.72409 20.0829C6.64028 20.7507 6.5607 21.4183 6.48537 22.0858C6.37882 21.4089 6.46144 20.7157 6.72409 20.0829ZM27.1574 5.3007L27.2789 5.27208C27.3172 5.26059 27.3522 5.24006 27.3809 5.21223C27.4096 5.1844 27.4312 5.15007 27.4439 5.11214C27.4566 5.0742 27.46 5.03378 27.4538 4.99427C27.4476 4.95475 27.432 4.91731 27.4083 4.88508C28.1424 3.76575 29.3608 2.61186 30.5931 2.87819C30.8491 2.93199 31.099 3.01149 31.339 3.11548C31.4982 3.14906 31.6487 3.21562 31.7807 3.31087C31.9127 3.40613 32.0233 3.52796 32.1053 3.66853C32.459 3.84172 32.5586 4.09015 32.404 4.41382C32.3934 4.96032 32.3319 5.50463 32.22 6.03966C31.5128 6.24713 30.7949 6.41622 30.0694 6.54618C29.8333 5.79388 29.264 5.57657 28.2476 5.46457C27.8601 5.42463 27.4701 5.41444 27.0811 5.43409L27.1574 5.3007ZM22.9562 6.83649C24.0201 6.61669 28.4836 5.47567 29.3184 6.73333C28.3285 6.98442 27.3629 7.2734 26.3802 7.57667C23.8668 8.35073 21.3276 9.11294 18.752 9.65543C18.5819 9.69549 18.4093 9.73613 18.2392 9.77619C18.1013 9.19055 18.0898 8.83674 18.5353 8.32144C18.9807 7.80615 19.3107 7.76948 19.9482 7.60137C20.9487 7.32983 21.9403 7.04242 22.9562 6.83649ZM16.5052 7.5864C17.1736 7.46231 17.8462 7.34494 18.5163 7.22815C18.317 7.29821 18.1334 7.40681 17.976 7.54776C17.5304 7.98615 17.6135 8.73092 17.808 9.38274C17.7328 9.33075 17.6407 9.30935 17.5503 9.3229C17.1474 9.37674 16.4013 8.45214 15.9913 8.2794C15.5313 8.1055 15.051 7.99108 14.562 7.93891C15.2074 7.81512 15.8568 7.70833 16.5046 7.58397L16.5052 7.5864ZM5.31103 10.9795C5.55233 10.2943 5.81904 9.47741 6.34213 8.95409C7.66087 7.63807 10.1782 7.58892 11.892 7.98295C13.0396 8.24873 14.3718 8.29662 15.4473 8.77942C16.2562 9.14292 16.4717 9.86163 17.1436 10.0137C15.1086 10.4776 13.0881 10.992 11.0564 11.4808C9.78646 11.8171 8.49638 12.0721 7.19399 12.2442C6.46924 12.3252 5.63373 12.5348 4.80891 12.6264C5.08214 12.1748 5.15302 11.4194 5.31046 10.9771L5.31103 10.9795ZM22.191 52.3097C22.2596 52.5141 22.3186 52.7644 22.3797 53.0347C22.2755 53.921 22.1442 54.8009 22.0189 55.6846C21.8 55.6592 21.5849 55.6278 21.3711 55.5806C21.5025 54.7007 21.655 53.8235 21.8044 52.9445C21.8213 52.8636 21.694 52.8243 21.6802 52.9071C21.5204 53.786 21.3588 54.6679 21.2202 55.5495C21.1181 55.5299 21.0149 55.5055 20.9165 55.48C21.0078 54.9198 21.0996 54.3622 21.2107 53.8102C21.4016 52.8675 21.5901 51.9254 21.7623 50.9795C21.893 51.4258 22.0335 51.8697 22.191 52.3097ZM20.9845 54.0045C20.8854 54.4767 20.7972 54.9515 20.7084 55.4238C20.4837 55.36 20.2627 55.2836 20.0466 55.195C20.107 54.9396 20.1047 54.6683 20.1466 54.3891C20.2477 53.7292 20.3494 53.0718 20.4716 52.4146C20.6796 51.2832 20.9227 50.159 21.1633 49.0353C21.3272 49.5789 21.4912 50.1225 21.66 50.665C21.4412 51.7835 21.208 52.8952 20.9748 54.0068L20.9845 54.0045ZM17.636 43.141C17.6533 43.2908 17.6706 43.4406 17.6771 43.5879C17.0867 44.7836 16.5227 45.9937 16.0316 47.2302C16.0212 47.2408 16.0129 47.2532 16.0069 47.2668L15.9728 47.3723C15.9373 47.4833 16.102 47.5291 16.144 47.4243C16.5331 46.4735 16.9522 45.5412 17.3875 44.6128C17.4047 44.6857 17.4899 44.7425 17.5527 44.6713C17.6805 44.5199 17.7758 44.3437 17.8326 44.1539C17.8893 43.964 17.9064 43.7644 17.8826 43.5677C18.2549 42.796 18.6344 42.0295 19.021 41.2682C19.4128 42.779 19.8107 44.2832 20.2285 45.7852C20.213 45.7802 20.1962 45.7815 20.1816 45.7888C20.167 45.796 20.1559 45.8087 20.1505 45.8241C19.7557 46.943 19.3642 48.0612 18.9759 49.1786C18.7842 49.7367 18.5754 50.2989 18.4031 50.8524C18.3064 51.2127 18.1895 51.5674 18.0531 51.9146C18.0438 51.9045 18.032 51.8971 18.0189 51.8931C18.0058 51.8891 17.9919 51.8886 17.9785 51.8918C17.9652 51.8949 17.9529 51.9015 17.9429 51.911C17.933 51.9204 17.9257 51.9324 17.9219 51.9455L17.8199 52.362C17.8101 52.3837 17.8093 52.4084 17.8176 52.4307C17.826 52.453 17.8429 52.4711 17.8646 52.481C17.8863 52.4908 17.9111 52.4917 17.9334 52.4833C17.9557 52.4749 17.9738 52.458 17.9836 52.4363C18.2154 52.0319 18.3822 51.5936 18.478 51.1374C18.6317 50.5703 18.8513 50.0108 19.0381 49.4538C19.4419 48.2643 19.8461 47.0765 20.2507 45.8903C20.4914 46.7595 20.7369 47.6276 20.9926 48.4959C21.0155 48.5931 21.05 48.685 21.0796 48.778C20.8277 49.8864 20.5758 50.9948 20.3491 52.1125C20.2425 52.6506 20.1407 53.1876 20.051 53.7217C20.0115 54.1839 19.9486 54.6439 19.8626 55.0998C19.1181 54.7693 18.4616 54.2685 17.946 53.6378C17.6758 52.8499 17.4105 52.0609 17.1428 51.2621C17.3047 50.8976 17.4417 50.5226 17.553 50.1396C17.7683 49.54 17.9896 48.9441 18.2223 48.3532C18.4118 47.8726 18.6102 47.3975 18.8158 46.931C18.912 47.0083 18.9761 47.1186 18.9958 47.2404C19.0155 47.3622 18.9894 47.487 18.9225 47.5907C18.8801 47.6828 19.0353 47.7539 19.0832 47.6631C19.1579 47.5624 19.2019 47.4421 19.2097 47.3169C19.2176 47.1917 19.1889 47.0669 19.1273 46.9577C19.0647 46.866 18.9908 46.7826 18.9073 46.7094C19.1856 46.0616 19.47 45.4176 19.7567 44.7729C19.7954 44.6869 19.6519 44.6437 19.6132 44.7298C19.334 45.3521 19.0548 45.9744 18.7719 46.6028C18.6436 46.5047 18.5008 46.4101 18.376 46.3267C18.2512 46.2432 18.1261 46.442 18.2515 46.5278C18.3769 46.6137 18.5518 46.7136 18.6774 46.8225C18.4967 47.2421 18.313 47.6599 18.1382 48.0832C17.9252 48.6053 17.7212 49.133 17.5226 49.662C17.3793 50.0445 17.2736 50.467 17.1253 50.861C17.1175 50.8516 17.1076 50.8442 17.0964 50.8396C17.0852 50.8349 17.073 50.833 17.0608 50.8341C17.0487 50.8352 17.037 50.8392 17.0268 50.8458C17.0166 50.8524 17.0082 50.8614 17.0022 50.872L16.5488 49.5348C16.5633 49.5314 16.6025 49.5016 16.6148 49.4885C16.7007 49.4067 16.5314 49.2978 16.5349 49.3124C16.5781 48.407 17.1297 47.482 17.5158 46.6165C17.9864 45.5438 18.4744 44.4902 18.9685 43.4299C19.0146 43.3318 18.8657 43.2438 18.8171 43.3425C18.3004 44.4157 17.7826 45.4841 17.3063 46.5658C16.9236 47.3286 16.6033 48.1211 16.3486 48.9356C16.2695 48.6977 16.188 48.4604 16.1089 48.2226C15.8521 47.47 15.6318 46.7088 15.4279 45.9412C16.4237 43.7984 17.5061 41.6968 18.5915 39.597C18.635 39.7817 18.6785 39.9664 18.7215 40.1486L18.9534 41.0353C18.5831 41.7612 18.2141 42.4919 17.8511 43.216C17.8408 43.1723 17.8432 43.1281 17.8384 43.0856C17.8232 42.9558 17.6118 43.0056 17.6262 43.1433L17.636 43.141ZM18.1955 37.1639C18.2567 37.9135 18.3745 38.6574 18.5477 39.3893C17.456 41.4624 16.3638 43.533 15.3533 45.6459C15.2388 45.1599 15.1073 44.6779 14.9904 44.1924C15.7633 42.6715 16.6931 41.2394 17.5633 39.7725C17.6235 39.6686 17.4668 39.5695 17.4042 39.674C16.5652 41.0669 15.6679 42.4298 14.9124 43.8722C14.8226 43.4907 14.7327 43.1092 14.6434 42.7301C15.4269 41.1888 16.2837 39.6866 17.1297 38.1818C17.185 38.079 17.0319 37.9843 16.9736 38.0852C16.1552 39.5219 15.3428 40.9623 14.5683 42.4221C14.5031 42.145 14.4384 41.8704 14.3586 41.5968L14.3013 41.3538C14.8031 40.6201 15.2251 39.8308 15.6715 39.069C16.2289 38.1324 16.7923 37.1994 17.3617 36.2702C17.4008 36.3419 17.4437 36.4114 17.4903 36.4785C17.6734 36.7522 17.9099 36.9861 18.1857 37.1662L18.1955 37.1639ZM17.2685 36.1357C16.2704 37.7353 15.3728 39.4343 14.3087 40.993C14.2958 40.9726 14.2764 40.9573 14.2535 40.9496C14.2307 40.9419 14.2059 40.9423 14.1833 40.9507C14.0784 40.5599 13.9689 40.16 13.8496 39.7623C14.8337 38.1147 15.8406 36.4874 16.8878 34.8788C16.9518 35.3138 17.0767 35.7377 17.2588 36.138L17.2685 36.1357ZM15.3679 32.8361L14.1915 34.3751L13.4054 35.3938C13.321 35.5034 13.237 35.6258 13.1494 35.7439C13.1473 35.732 13.1424 35.7208 13.1349 35.7114C13.1275 35.7019 13.1178 35.6944 13.1067 35.6896C13.0957 35.6849 13.0836 35.6829 13.0716 35.684C13.0596 35.6851 13.048 35.6891 13.038 35.6958C12.743 35.8807 12.314 36.1612 12.6362 36.5162C12.6459 36.5259 12.6577 36.5333 12.6707 36.5378C12.6837 36.5423 12.6975 36.5439 12.7112 36.5424C12.7248 36.5409 12.738 36.5363 12.7496 36.5291C12.7613 36.5219 12.7713 36.5122 12.7787 36.5006C13.7192 35.2737 14.6524 34.0416 15.5785 32.8044C15.9484 32.7514 16.2988 32.6053 16.5968 32.3799C16.6828 33.0829 16.6972 33.8952 16.8193 34.6641C15.7595 36.2628 14.7552 37.8793 13.7427 39.5156C13.6151 39.1045 13.4826 38.6945 13.3356 38.288C13.4863 38.2264 13.6128 38.1173 13.6959 37.9774C13.8485 37.7542 13.936 37.472 14.0809 37.2378C14.2258 37.0037 14.4054 36.7536 14.5692 36.5124L16.5844 33.5037C16.6357 33.4275 16.5157 33.3532 16.4643 33.4294L14.8459 35.8034L14.0722 36.9398C13.9023 37.1876 13.5567 37.8871 13.2655 38.0993C12.9688 37.2814 12.5983 36.4921 12.1587 35.7413L12.1733 35.7378C12.1848 35.7263 12.193 35.7118 12.197 35.696C12.2009 35.6801 12.2005 35.6635 12.1957 35.6479C12.8483 34.7453 13.5057 33.8483 14.1679 32.9571C14.5773 32.9094 14.9749 32.8773 15.3679 32.8361ZM13.0758 35.8561C13.0363 35.9065 12.9957 35.9519 12.9527 35.998L12.7949 36.1993C12.798 36.1189 12.8269 36.0417 12.8772 35.979C12.9276 35.9164 12.9968 35.8716 13.0746 35.8513L13.0758 35.8561ZM11.1174 32.8882C11.1152 32.9553 11.1986 33.0152 11.2563 32.9555L11.2709 32.952C11.67 33.077 12.0894 33.1236 12.5062 33.0894C12.3317 33.2945 12.1467 33.4905 11.952 33.6765C11.8826 33.7416 11.992 33.8466 12.0571 33.7851C12.2949 33.5657 12.5151 33.3277 12.7153 33.0735C13.1283 33.0301 13.5472 33.0007 13.9727 32.9672C13.3272 33.8203 12.687 34.6772 12.0519 35.5382C11.7282 35.0178 11.3486 34.5344 10.9198 34.0966C10.9157 33.7308 10.9135 33.3619 10.9167 32.9944C10.9164 32.8842 10.7403 32.8769 10.7412 32.9896C10.7418 33.2972 10.743 33.6073 10.7412 33.9155C10.568 33.753 10.3863 33.5997 10.197 33.4563C10.2155 33.0775 10.2365 32.6981 10.2574 32.3187C10.5039 32.5614 10.7957 32.7532 11.1162 32.8833L11.1174 32.8882ZM10.117 32.1799L10.0296 33.3444C9.83566 33.2025 9.63363 33.0719 9.42455 32.9534L9.42651 32.7657C9.44427 32.264 9.47046 31.7653 9.49852 31.2637C9.66405 31.5929 9.87156 31.8992 10.1158 32.175L10.117 32.1799ZM9.39826 31.0667C9.35836 31.6378 9.32032 32.206 9.28828 32.7778L9.28545 32.8964C9.13032 32.815 8.96963 32.7425 8.80708 32.6731C8.90224 31.8248 8.96324 30.9948 9.02367 30.1624C9.132 30.4643 9.25569 30.7605 9.39426 31.0497L9.39826 31.0667ZM8.478 34.6409C8.49901 34.6407 8.51928 34.6331 8.53528 34.6195C8.55129 34.6059 8.56202 34.5871 8.56561 34.5664C8.65269 33.9996 8.72404 33.4313 8.78939 32.8594C8.95773 32.9381 9.1215 33.0263 9.27992 33.1234C9.24899 34.19 9.30397 35.262 9.21857 36.326C9.21102 36.4355 9.37627 36.4402 9.38683 36.3325C9.5014 35.3053 9.41039 34.2546 9.4216 33.2132C9.62984 33.347 9.82966 33.4936 10.02 33.6519C9.91124 35.3139 9.81526 36.9755 9.83549 38.6404C9.62771 38.0994 9.42765 37.5549 9.23531 37.0069C8.95737 36.208 8.72462 35.4267 8.47399 34.6239L8.478 34.6409ZM10.0169 39.1055C9.99045 37.3164 10.0721 35.5504 10.1672 33.7762C10.3645 33.9502 10.5512 34.1358 10.7264 34.3319C10.7178 36.2448 10.698 38.1859 10.9587 40.0661C10.9839 40.173 11.1676 40.158 11.1564 40.0452C10.9833 38.2213 10.9363 36.3882 10.9172 34.5537C11.1679 34.8602 11.396 35.1845 11.5997 35.5241C11.5882 35.5272 11.5781 35.5341 11.571 35.5437C11.5639 35.5532 11.5604 35.565 11.5608 35.5769C11.541 36.5818 11.4964 37.5901 11.4747 38.598C11.465 39.1013 11.4587 39.6047 11.4559 40.108C11.4567 40.4926 11.5955 41.2345 11.4648 41.5833C11.4258 41.69 11.5961 41.7704 11.6484 41.6658C11.8233 41.3193 11.6818 40.991 11.6567 40.6122C11.6344 40.0711 11.6419 39.5256 11.6451 38.9837C11.6425 37.8839 11.6703 36.7822 11.6878 35.6803C11.7263 35.7456 11.7599 35.8121 11.7983 35.8774C11.7941 35.8903 11.7925 35.9039 11.7937 35.9174C11.7949 35.9308 11.7988 35.944 11.8052 35.9559C11.8116 35.9678 11.8204 35.9783 11.831 35.9867C11.8416 35.9952 11.8538 36.0014 11.8668 36.0049C11.9619 36.18 12.0479 36.3598 12.1338 36.5397C12.1755 38.0559 12.1802 39.5681 12.1783 41.0844C12.1774 41.7668 12.1614 42.4503 12.1915 43.1332C12.2106 43.5955 12.1055 44.064 12.4049 44.4423C12.4853 44.5439 12.6246 44.4059 12.5497 44.3056C12.3552 44.0462 12.3912 43.3606 12.3759 43.0231C12.3605 42.6856 12.3541 42.3972 12.3523 42.0847L12.3394 40.3309C12.3168 39.1461 12.2948 37.9637 12.2463 36.7774C12.5558 37.5007 12.8165 38.2438 13.0267 39.002C12.9765 40.2372 12.9881 41.4733 12.9899 42.7117C12.9954 44.0852 12.9308 45.488 13.2078 46.8386C13.2404 46.9771 13.441 46.9247 13.4217 46.7882C13.2561 45.3581 13.1835 43.9187 13.2044 42.4791C13.1951 41.5246 13.1808 40.5713 13.1951 39.6189C13.2392 39.806 13.2826 39.9907 13.3267 40.1778L13.2284 40.3703C13.1663 40.4875 13.327 40.6035 13.4011 40.4937C13.5379 41.0745 13.6608 41.6509 13.7775 42.2005C13.6968 44.4715 13.6915 46.758 13.7708 49.0221C12.7188 45.6226 11.2848 42.3875 10.0128 39.0885L10.0169 39.1055ZM13.9002 49.343C13.9131 49.3442 13.9262 49.3427 13.9385 49.3386C13.9508 49.3344 13.9621 49.3278 13.9716 49.319C13.9811 49.3102 13.9887 49.2995 13.9939 49.2876C13.999 49.2757 14.0016 49.2628 14.0014 49.2499C14.0717 47.2071 13.9998 45.1593 13.9927 43.1142C14.0459 43.3402 14.098 43.5613 14.1373 43.7829C14.206 44.0745 14.2747 44.3661 14.3434 44.6577C14.3673 46.6758 14.2749 48.7776 14.6445 50.7605C14.6679 50.8601 14.8156 50.8227 14.7976 50.7244C14.4689 48.8499 14.4585 46.9108 14.4252 45.0052C14.6331 45.8335 14.858 46.6577 15.0988 47.473C15.1482 48.5104 15.197 49.5454 15.2586 50.5799C15.3058 51.3793 15.3621 52.174 15.4415 52.9683C15.4647 53.2193 15.4609 53.4972 15.4834 53.7561C14.9441 52.2724 14.3827 50.8144 13.8962 49.3259L13.9002 49.343Z" fill="#515257"/>
<path d="M33.8153 6.4342C33.5555 6.79035 32.801 7.05012 32.4138 7.24648C31.8759 7.52192 31.3192 7.76077 30.7584 7.98262C29.4545 8.52312 28.1256 8.9464 26.7861 9.39013C24.128 10.2653 21.4097 10.9458 18.6528 11.4263C18.6164 11.4348 18.6303 11.4829 18.6654 11.4797C21.8845 11.1319 24.947 10.4132 28.0704 9.5724C29.3521 9.22515 30.6132 8.80569 31.8475 8.31603C32.67 7.99664 34.0217 7.63725 34.5124 6.86763C34.8014 6.41741 34.1147 6.01743 33.8153 6.4342Z" fill="#515257"/>
<path d="M32.9044 17.5726C32.8282 16.2799 32.6637 14.9824 31.9569 13.8766C31.9375 13.8467 31.9112 13.8217 31.8804 13.8036C31.8496 13.7856 31.8149 13.775 31.7793 13.7727C31.7436 13.7704 31.7079 13.7764 31.675 13.7903C31.6421 13.8042 31.6129 13.8256 31.5897 13.8528C31.3919 12.7439 31.0343 11.6696 30.5281 10.6634C30.4768 10.5652 30.3322 10.648 30.3762 10.7479C30.9893 12.1424 31.1558 13.6113 31.2989 15.1012C31.302 15.1341 31.3115 15.1662 31.3269 15.1954C31.3423 15.2247 31.3634 15.2507 31.3888 15.2719C31.4143 15.293 31.4437 15.3089 31.4753 15.3187C31.5069 15.3285 31.5402 15.332 31.5731 15.329C31.6061 15.3259 31.6382 15.3164 31.6674 15.301C31.6967 15.2855 31.7227 15.2645 31.7438 15.239C31.765 15.2136 31.7809 15.1842 31.7907 15.1526C31.8005 15.1209 31.804 15.0877 31.8009 15.0547C31.7537 14.7888 31.7071 14.5254 31.6574 14.2601C32.2592 15.3341 32.3934 16.5901 32.4421 17.8097C32.4642 18.3175 32.6025 19.1441 32.4597 19.6266C32.3168 20.1091 31.7867 20.4392 31.4205 20.7793C29.8435 22.2511 27.0439 24.1185 24.8068 23.9093C22.2563 23.6764 21.6212 19.8581 21.0144 17.9133C20.8393 17.3441 20.6716 16.7629 20.5015 16.1822C20.572 16.1656 20.6206 16.067 20.5399 16.0295C20.283 15.9079 20.7899 13.8239 20.8243 13.6106C20.9791 12.8739 21.1654 12.1401 21.331 11.406C21.349 11.3299 21.2302 11.2938 21.2122 11.3699C20.8715 12.8198 20.4921 14.2582 20.3646 15.7425C20.0104 14.4478 19.5547 13.1829 19.0017 11.9597C18.9464 11.8445 18.7816 11.9398 18.8266 12.0548C20.0394 15.0804 20.2513 18.4521 21.3824 21.5123C22.1436 23.5465 23.5577 25.4449 25.9449 24.7775C28.467 24.0732 30.8301 22.465 32.5758 20.5226C33.2532 19.7834 32.9499 18.4955 32.9044 17.5726Z" fill="#515257"/>
<path d="M4.49644 15.2397C4.10016 16.4539 4.01953 17.7451 3.73547 18.9893C3.71548 19.0786 3.84872 19.1216 3.87357 19.0311C4.19752 17.7929 4.20496 16.4959 4.58866 15.2719C4.59077 15.2658 4.59167 15.2594 4.5913 15.253C4.59093 15.2466 4.58931 15.2403 4.58652 15.2346C4.58373 15.2288 4.57983 15.2236 4.57505 15.2194C4.57026 15.2151 4.56468 15.2118 4.55863 15.2097C4.55257 15.2076 4.54616 15.2067 4.53976 15.2071C4.53336 15.2074 4.52709 15.209 4.52132 15.2118C4.51554 15.2146 4.51038 15.2185 4.50611 15.2233C4.50184 15.2281 4.49856 15.2337 4.49644 15.2397Z" fill="#515257"/>
<path d="M5.7381 17.7886C5.6986 18.9059 5.64939 20.0255 5.60446 21.1416C5.5715 22.0906 5.42075 23.0623 5.55133 24.0088C5.57766 24.1206 5.76378 24.1049 5.75689 23.9886C5.68563 22.9999 5.77419 22.0147 5.79742 21.0243C5.82606 19.948 5.86256 18.8724 5.89364 17.7956C5.89409 17.7853 5.89254 17.7751 5.88905 17.7655C5.88557 17.7559 5.88022 17.7471 5.87332 17.7395C5.86642 17.732 5.85811 17.7259 5.84885 17.7216C5.83959 17.7172 5.82957 17.7148 5.81936 17.7143C5.80914 17.7138 5.79894 17.7154 5.78933 17.7189C5.77972 17.7224 5.77089 17.7277 5.76335 17.7346C5.7558 17.7415 5.74969 17.7498 5.74536 17.7591C5.74103 17.7683 5.73856 17.7784 5.7381 17.7886Z" fill="#515257"/>
<path d="M8.78889 22.3048C8.77211 22.3043 8.75584 22.3105 8.74364 22.3221C8.73145 22.3336 8.72433 22.3495 8.72386 22.3663C8.72339 22.383 8.72961 22.3993 8.74114 22.4115C8.75267 22.4237 8.76857 22.4308 8.78535 22.4313C9.35616 22.4482 9.54171 21.8094 9.86771 21.4403C10.5404 20.6663 11.2185 19.8901 11.9021 19.1118C11.9489 19.0598 11.8712 18.9806 11.8269 19.0321C11.3377 19.5902 10.848 20.1467 10.358 20.7015C10.1088 20.9936 9.20231 22.3177 8.78889 22.3048Z" fill="#515257"/>
<path d="M9.43672 24.4659C9.38199 24.5711 9.32783 24.6788 9.27068 24.7846C9.21352 24.8904 9.32074 24.9318 9.38091 24.8715C10.3025 23.9491 11.072 22.8932 11.8895 21.8774C11.9277 21.8325 11.845 21.7647 11.8074 21.8121C11.0654 22.7127 10.3551 23.6392 9.55151 24.4851C9.53706 24.4346 9.46415 24.4082 9.43672 24.4659Z" fill="#515257"/>
<path d="M9.07742 26.6017C10.2762 25.1575 11.4738 23.7084 12.7015 22.2779C12.7242 22.2546 12.6872 22.2171 12.6674 22.2423C11.9324 23.0746 11.21 23.9167 10.4905 24.7607L9.48383 25.9315L9.45124 25.9673C9.58515 25.7845 9.73121 25.5988 9.76393 25.5526C9.79666 25.5064 9.71988 25.4527 9.68287 25.5024C9.43907 25.8394 9.20369 26.1795 8.97548 26.5283C8.94933 26.5806 9.03369 26.6556 9.07742 26.6017Z" fill="#515257"/>
<path d="M12.2271 23.875C11.3417 24.8965 10.4964 25.9574 9.55481 26.9256C9.49035 26.9895 9.5943 27.0932 9.65089 27.0286C10.5776 26.0409 11.4211 24.983 12.2993 23.9528C12.3436 23.9014 12.2702 23.8186 12.2271 23.875Z" fill="#515257"/>
<path d="M9.58524 28.4987L9.33901 28.8363C9.30257 28.8885 9.38106 28.9495 9.42465 28.9059C10.1488 28.2018 10.7099 27.3387 11.3437 26.5559L11.5738 26.2914C11.6813 26.4408 11.8433 26.5418 12.0247 26.5725C12.1115 26.581 12.1986 26.5611 12.2731 26.5159C12.3475 26.4706 12.4052 26.4023 12.4375 26.3213C12.4692 26.1278 12.4298 25.9294 12.3265 25.7627C12.2696 25.6299 12.0652 25.7422 12.1312 25.8703C12.1979 25.987 12.235 26.1183 12.2392 26.2526C12.2057 26.4478 11.9597 26.4159 11.8407 26.3465C11.7723 26.3023 11.7104 26.2487 11.657 26.1871C12.2782 25.4381 12.9181 24.7026 13.5681 23.9775C13.5902 23.9518 13.5532 23.9144 13.531 23.9401C12.8739 24.6566 12.2288 25.3805 11.5979 26.1215C11.4973 25.999 11.4107 25.8604 11.3174 25.7362C11.2698 25.6756 11.1837 25.7677 11.2296 25.821C11.3128 25.9348 11.4046 26.085 11.5118 26.2239L11.2694 26.5016C10.9615 26.8716 10.6748 27.2443 10.365 27.6277C10.1801 27.8662 10 28.1035 9.8025 28.3321C9.77291 28.3699 9.72104 28.4436 9.66973 28.5198C9.66682 28.5117 9.66195 28.5045 9.65557 28.4987C9.64918 28.4929 9.64148 28.4888 9.63313 28.4867C9.62478 28.4846 9.61604 28.4846 9.60769 28.4867C9.59934 28.4888 9.59163 28.4929 9.58524 28.4987Z" fill="#515257"/>
<path d="M10.1415 30.2186C11.2002 28.4303 12.5852 26.873 13.8845 25.2563C13.9036 25.2287 13.869 25.1907 13.8371 25.2187C12.5229 26.8261 11.1259 28.376 10.031 30.1523C9.98595 30.2116 10.0976 30.2828 10.1415 30.2186Z" fill="#515257"/>
<path d="M18.9603 54.3064C19.4548 52.3766 19.8835 50.4289 20.3454 48.4913C20.366 48.4044 20.2327 48.3614 20.2103 48.4513C19.7321 50.385 19.2672 52.3207 18.786 54.2525C18.7566 54.3672 18.9309 54.421 18.9603 54.3064Z" fill="#515257"/>
<path d="M26.1943 58.3682C26.3559 59.185 26.5021 60.0056 26.6329 60.8297C26.6536 60.9172 26.7818 60.8844 26.7666 60.7982C26.6313 59.9734 26.4821 59.1545 26.3158 58.3395C26.2999 58.2612 26.1784 58.2898 26.1943 58.3682Z" fill="#515257"/>
<path d="M27.096 58.0326C27.248 58.8739 27.4152 59.7143 27.6212 60.5455C27.6301 60.5669 27.6462 60.5845 27.6668 60.595C27.6874 60.6056 27.711 60.6085 27.7335 60.6032C27.7561 60.5979 27.776 60.5847 27.7897 60.5661C27.8034 60.5474 27.81 60.5245 27.8083 60.5015C27.6118 59.6672 27.4376 58.8293 27.2856 57.9879C27.2595 57.8555 27.07 57.9002 27.096 58.0326Z" fill="#515257"/>
<path d="M40.7075 54.7875C40.9155 54.1025 40.7459 53.1754 40.7363 52.4595C40.7262 51.5163 40.7185 50.5726 40.7133 49.6282C40.7122 49.5259 40.5543 49.5195 40.5553 49.6218C40.5551 50.4811 40.5621 51.3387 40.5663 52.1841C40.5716 52.86 40.6958 53.6925 40.6092 54.4029C40.6013 54.3882 40.5884 54.3769 40.5729 54.3709C40.5573 54.3649 40.5401 54.3646 40.5244 54.3702C40.5087 54.3757 40.4955 54.3867 40.4872 54.4012C40.4788 54.4156 40.4759 54.4325 40.479 54.4489L40.5546 54.7697C40.5572 54.787 40.5655 54.8029 40.5781 54.815C40.5907 54.8271 40.6069 54.8348 40.6243 54.8368C40.6416 54.8388 40.6592 54.8351 40.6742 54.8262C40.6892 54.8173 40.7009 54.8037 40.7075 54.7875Z" fill="#515257"/>
<path d="M39.8474 51.4831C39.8078 51.9464 39.7284 55.4097 39.2376 55.4278C39.22 55.43 39.2037 55.4383 39.1916 55.4514C39.1796 55.4644 39.1725 55.4813 39.1718 55.499C39.171 55.5168 39.1766 55.5342 39.1875 55.5482C39.1984 55.5622 39.214 55.5719 39.2313 55.5755L39.3869 55.5825C39.4048 55.5827 39.4223 55.5772 39.4369 55.5669C39.4515 55.5565 39.4625 55.5418 39.4682 55.5249C39.8356 54.2098 39.8633 52.8464 39.9872 51.4886C40.0048 51.3998 39.8554 51.3863 39.8474 51.4831Z" fill="#515257"/>
<path d="M38.3375 52.8172C38.1726 53.6562 38.0138 54.4956 37.861 55.3352C37.7095 56.1404 37.6292 56.9647 37.2647 57.7148C37.2143 57.8165 37.368 57.9136 37.4203 57.809C37.7695 57.1137 37.8568 56.3955 37.984 55.6397C38.1497 54.7167 38.3202 53.7925 38.4955 52.8672C38.5174 52.7748 38.3594 52.7248 38.3375 52.8172Z" fill="#515257"/>
<path d="M33.6758 59.0477L33.8319 59.1007C33.8483 59.1056 33.8657 59.1061 33.8823 59.1022C33.899 59.0983 33.9143 59.0901 33.9267 59.0784C34.3809 58.6328 34.393 58.1067 34.5096 57.5022C34.6524 56.7581 34.771 56.0094 34.8739 55.2593C34.8875 55.1535 34.7252 55.1507 34.7111 55.2541C34.665 55.5701 34.2704 59.0128 33.7302 58.8758C33.7075 58.8686 33.6827 58.8707 33.6615 58.8818C33.6403 58.8928 33.6243 58.9118 33.6171 58.9345C33.6099 58.9573 33.612 58.982 33.623 59.0033C33.634 59.0245 33.653 59.0405 33.6758 59.0477Z" fill="#515257"/>
<path d="M33.1058 56.1806C33.0161 56.7147 32.907 57.2533 32.7712 57.7983C32.7175 58.0059 32.6845 58.2471 32.62 58.4521C32.4453 59.0062 32.1059 58.5347 32.0504 58.2117C32.0286 58.1194 31.8956 58.1533 31.9119 58.2444C31.9508 58.5524 32.1089 58.8328 32.3523 59.0255C32.3601 59.0337 32.3694 59.0403 32.3797 59.0448C32.39 59.0494 32.4011 59.0518 32.4124 59.052C32.4237 59.0522 32.4349 59.0502 32.4454 59.046C32.4558 59.0419 32.4654 59.0357 32.4734 59.0278C32.7883 58.6766 32.8341 58.2939 32.9432 57.8424C33.0717 57.2992 33.1968 56.7414 33.2735 56.1847C33.2766 56.0891 33.1241 56.0839 33.1058 56.1806Z" fill="#515257"/>
<path d="M31.1589 57.445C31.1004 57.933 30.9119 58.3964 30.6132 58.7867L30.5119 58.6182C30.5015 58.6056 30.487 58.597 30.471 58.594C30.4549 58.5909 30.4383 58.5936 30.424 58.6015C30.4097 58.6095 30.3986 58.6222 30.3927 58.6374C30.3868 58.6527 30.3865 58.6695 30.3917 58.685C30.44 58.7814 30.4859 58.8783 30.5337 58.9722C30.5397 58.9832 30.5481 58.9926 30.5583 58.9999C30.5685 59.0071 30.5803 59.0119 30.5926 59.014C30.6049 59.016 30.6176 59.0152 30.6296 59.0116C30.6416 59.008 30.6526 59.0018 30.6618 58.9933C31.0362 58.5581 31.2723 58.0212 31.3399 57.4511C31.3566 57.3369 31.1745 57.3259 31.1589 57.445Z" fill="#515257"/>
<path d="M23.417 31.1974C22.7051 32.1064 22.0593 33.0561 21.2054 33.8626C21.195 33.8721 21.1889 33.8854 21.1884 33.8995C21.1879 33.9136 21.193 33.9273 21.2025 33.9376C21.2121 33.9479 21.2254 33.954 21.2395 33.9546C21.2535 33.9551 21.2673 33.95 21.2776 33.9405C22.114 33.1356 22.7716 32.1599 23.4806 31.2389C23.5132 31.203 23.4477 31.1646 23.417 31.1974Z" fill="#515257"/>
<path d="M22.6225 33.6673C22.0575 34.5369 21.4469 35.3759 20.7933 36.1808C20.7851 36.188 20.7786 36.1969 20.7742 36.2068C20.7698 36.2168 20.7677 36.2275 20.7679 36.2384C20.7681 36.2493 20.7706 36.26 20.7754 36.2697C20.7801 36.2795 20.7869 36.2881 20.7953 36.295C20.8037 36.3019 20.8135 36.3069 20.8241 36.3096C20.8346 36.3123 20.8456 36.3127 20.8562 36.3107C20.8669 36.3088 20.8771 36.3045 20.8859 36.2982C20.8948 36.292 20.9022 36.2839 20.9076 36.2744C21.5647 35.464 22.1772 34.6185 22.7426 33.7416C22.7916 33.6557 22.6738 33.5911 22.6225 33.6673Z" fill="#515257"/>
<path d="M23.2701 42.5497C23.3144 42.4546 23.1787 42.3686 23.132 42.4642C22.8349 43.0629 22.4938 43.6388 22.1117 44.187C22.0486 44.2788 22.1988 44.3717 22.2612 44.2775C22.6405 43.7278 22.9778 43.1502 23.2701 42.5497Z" fill="#515257"/>
<path d="M23.3341 45.5315L23.2975 45.376C23.0545 45.4333 23.0911 45.5888 23.3341 45.5315Z" fill="#515257"/>
<path d="M36.6937 27.1905C36.7268 27.1134 36.6026 27.076 36.5695 27.153C35.8985 28.6602 35.2321 30.1868 34.6588 31.7274C34.6617 31.424 34.6725 31.1214 34.7026 30.8245C34.8214 29.6628 35.407 28.6862 35.9758 27.7032C36.1209 27.4485 35.7361 27.2083 35.586 27.4642C34.5969 29.1668 34.0015 30.6792 33.9912 32.672C33.9798 34.3798 34.1331 36.0848 34.4491 37.7631C34.3289 38.0915 34.1979 38.4174 34.1452 38.4221C34.0407 38.4467 34.0603 38.6062 34.1632 38.6076L34.205 38.6106C34.2261 38.6102 34.2467 38.6034 34.264 38.5911C34.2812 38.5788 34.2943 38.5616 34.3016 38.5417C34.374 38.381 34.438 38.2172 34.508 38.057C34.5349 38.1713 34.5618 38.2855 34.5887 38.3997C34.6305 38.5771 34.6729 38.7569 34.7146 38.9343C34.6312 39.2395 34.5306 39.5398 34.4135 39.8337C34.3796 39.9186 34.518 39.9835 34.5573 39.8998C34.6473 39.7115 34.725 39.5176 34.7899 39.3193C34.9044 39.8053 35.0189 40.2913 35.1333 40.7773C35.0536 40.9833 34.9739 41.1893 34.8882 41.3916C34.8356 41.5168 35.0406 41.5814 35.0877 41.4549C35.1349 41.3284 35.172 41.2247 35.2166 41.1091L35.2567 41.2792C35.1353 41.733 35.0592 42.1976 35.0294 42.6664C35.0315 42.6952 35.0441 42.7222 35.0648 42.7422C35.0855 42.7623 35.1129 42.774 35.1418 42.7752C35.1706 42.7763 35.1988 42.7668 35.2211 42.7484C35.2433 42.7301 35.258 42.7042 35.2624 42.6757C35.2878 42.3696 35.3289 42.065 35.3803 41.7605C35.6195 42.689 35.866 43.6159 36.1144 44.5397C36.5502 46.1504 37.0382 48.3208 38.0882 49.6534C38.1353 49.7116 38.2107 49.64 38.1861 49.5791C36.9893 46.5882 36.3686 43.3975 35.731 40.2441C36.0914 38.9537 36.5891 37.6798 37.0096 36.4599C37.0468 36.3562 36.884 36.3074 36.8468 36.411C36.5919 37.1148 36.3408 37.8126 36.1069 38.5294C36.4315 37.5117 36.7495 36.4878 37.0933 35.4758C37.1173 35.4034 37.0075 35.3728 36.9824 35.4403C36.4964 36.7962 36.0698 38.1868 35.5885 39.5518L35.4571 38.9287C35.3667 38.5447 35.3036 38.1569 35.235 37.7678C35.479 36.9743 35.7507 36.1895 36.02 35.4054C36.0585 35.2963 35.8902 35.2462 35.8512 35.3528C35.6163 36.0109 35.3917 36.6691 35.1635 37.3333C35.1294 37.1233 35.0978 36.9127 35.0661 36.7022C35.5043 35.6115 35.9208 34.5157 36.3595 33.4274C36.396 33.3316 36.2446 33.2878 36.2076 33.3811C35.8568 34.2332 35.5133 35.0836 35.1674 35.9345C35.1179 36.0616 35.0653 36.1868 35.0127 36.3121C34.96 35.9141 34.9146 35.5144 34.8741 35.1136C35.3787 33.9893 35.8834 32.865 36.4315 31.751C36.4795 31.6499 36.3318 31.5565 36.2814 31.6581C35.7835 32.6731 35.301 33.6955 34.834 34.7255C34.8034 34.389 34.7772 34.0489 34.7557 33.718C35.3534 32.346 35.9895 30.9959 36.6785 29.6743C36.7264 29.5835 36.5913 29.4999 36.5434 29.5907C35.9171 30.7975 35.292 32.0091 34.724 33.2458C34.7053 32.927 34.6885 32.6052 34.679 32.2817C35.2751 30.5434 35.9527 28.8577 36.6937 27.1905ZM35.8393 39.3209C35.7932 39.4626 35.7483 39.5988 35.7058 39.7448L35.6532 39.9136L35.6469 39.8869L35.8393 39.3209Z" fill="#515257"/>
<path d="M22.0864 12.0196C21.7531 13.6755 21.3981 15.3262 21.0751 16.9822C21.0483 17.1296 21.2684 17.1932 21.2988 17.0501C21.6273 15.3953 21.9576 13.7376 22.2746 12.0779C22.2987 11.9516 22.1105 11.8933 22.0864 12.0196Z" fill="#515257"/>
<path d="M23.028 11.8343C22.7688 14.0011 22.0558 16.103 21.8646 18.264C21.8559 18.3687 22.0124 18.3908 22.0434 18.2937L22.0763 18.1937C22.08 18.1823 22.0805 18.1703 22.0777 18.1587C22.075 18.1471 22.0692 18.1365 22.0608 18.128C22.2726 16.0109 22.893 13.9514 23.1249 11.832C23.1342 11.7734 23.0361 11.7709 23.028 11.8343Z" fill="#515257"/>
<path d="M23.1648 14.4988C22.9204 15.9876 22.6343 17.463 22.2982 18.9324C22.2717 19.0489 22.4514 19.104 22.4779 18.9875C22.816 17.5049 23.0739 16.0078 23.2991 14.5031C23.3124 14.4179 23.178 14.4136 23.1648 14.4988Z" fill="#515257"/>
<path d="M23.7983 14.6715C23.7812 14.6465 23.7553 14.6287 23.7258 14.6216C23.6963 14.6145 23.6651 14.6187 23.6385 14.6333C23.6119 14.6478 23.5916 14.6718 23.5817 14.7005C23.5718 14.7292 23.5728 14.7606 23.5848 14.7885C23.6119 14.8386 23.6864 14.9698 23.7464 15.1044L23.6773 15.508C23.6619 15.5229 23.6515 15.5424 23.6478 15.5635C23.644 15.5846 23.647 15.6064 23.6563 15.6258C23.3669 17.2175 22.9762 18.8151 22.9028 20.42C22.9055 20.4443 22.9168 20.4668 22.9346 20.4836C22.9524 20.5003 22.9757 20.51 23.0001 20.5111C23.0245 20.5122 23.0485 20.5045 23.0678 20.4894C23.087 20.4743 23.1002 20.4528 23.105 20.4288C23.2859 18.8447 23.5743 17.2815 23.8125 15.7121C24.2864 15.6005 23.9252 14.9161 23.7983 14.6715Z" fill="#515257"/>
<path d="M23.0622 21.4873C23.4415 19.9616 23.7671 18.4255 24.1086 16.8806C24.1221 16.8184 24.0251 16.7874 24.0121 16.852C23.6672 18.3824 23.3144 19.9121 22.891 21.425C22.8628 21.5445 23.034 21.5965 23.0622 21.4873Z" fill="#515257"/>
<path d="M24.4652 17.6342C24.0326 19.2929 23.4418 20.912 23.1491 22.6096C23.1313 22.719 23.324 22.7531 23.3442 22.6432C23.6471 20.956 24.1774 19.3306 24.5647 17.6646C24.5801 17.5994 24.4806 17.569 24.4652 17.6342Z" fill="#515257"/>
<path d="M24.6559 20.2204C24.4108 21.2272 23.9473 22.4392 24.1425 23.4859C24.1597 23.5588 24.2691 23.533 24.2567 23.459C24.091 22.4285 24.5389 21.2483 24.785 20.2567C24.7975 20.1794 24.6757 20.1414 24.6559 20.2204Z" fill="#515257"/>
<path d="M25.902 27.5846C25.7853 27.7532 25.5188 27.58 25.49 27.4252C25.4631 27.3109 25.296 27.3529 25.315 27.4664C25.3364 27.5632 25.3881 27.6506 25.4626 27.7161C25.537 27.7816 25.6304 27.8217 25.7291 27.8305C25.7779 27.837 25.8275 27.8336 25.875 27.8206C25.9224 27.8076 25.9668 27.7853 26.0055 27.7549C26.0443 27.7245 26.0765 27.6867 26.1004 27.6437C26.1243 27.6006 26.1394 27.5533 26.1447 27.5044C26.1738 27.3873 26.1717 27.2647 26.1385 27.1487C26.1054 27.0327 26.0423 26.9275 25.9558 26.8435C25.9115 26.813 25.8598 26.7952 25.8061 26.792C25.7525 26.7889 25.699 26.8004 25.6514 26.8254C25.6047 26.854 25.5651 26.8927 25.5355 26.9388C25.5059 26.9848 25.4871 27.037 25.4806 27.0914C25.4501 27.2448 25.6828 27.3182 25.7152 27.1618C25.7315 27.0784 25.749 27.0436 25.8101 27.042C25.8849 27.1151 25.9321 27.2118 25.9439 27.3157C25.96 27.4075 25.9453 27.502 25.902 27.5846Z" fill="#515257"/>
<path d="M28.286 25.9169C28.1332 25.8888 28.0574 26.1221 28.2132 26.1521L28.3158 26.1741C28.3369 26.1799 28.359 26.1804 28.3802 26.1754C28.4015 26.1704 28.4211 26.1601 28.4373 26.1455C28.696 25.8281 28.8487 25.333 28.4492 25.0526C28.1236 24.8241 27.7228 25.0391 27.4007 25.1636C27.2692 25.2151 27.3563 25.4434 27.492 25.3986C27.6977 25.2985 27.9216 25.2414 28.1501 25.2308C28.5444 25.2713 28.46 25.6862 28.2975 25.9219L28.286 25.9169Z" fill="#515257"/>
<path d="M23.2166 44.4253C23.1351 44.188 22.8556 43.905 22.5853 44.0097C22.5669 44.0195 22.5515 44.0341 22.5408 44.052C22.5301 44.0699 22.5245 44.0904 22.5245 44.1112L22.5116 44.3938C22.5103 44.4258 22.5217 44.4569 22.5433 44.4804C22.565 44.504 22.5951 44.5179 22.6271 44.5192C22.659 44.5206 22.6902 44.5091 22.7137 44.4875C22.7372 44.4658 22.7511 44.4357 22.7525 44.4038L22.7591 44.2252C22.8795 44.2913 22.9716 44.3992 23.0178 44.5285C23.0397 44.6978 22.7558 44.7774 22.6393 44.8382C22.62 44.8532 22.6067 44.8746 22.6018 44.8985C22.5968 44.9225 22.6007 44.9474 22.6125 44.9688C22.6244 44.9902 22.6435 45.0066 22.6664 45.0151C22.6893 45.0236 22.7145 45.0236 22.7374 45.0152C22.9661 44.8972 23.3278 44.7556 23.2166 44.4253Z" fill="#515257"/>
<path d="M25.1915 48.3674C25.2367 48.2663 25.2564 48.1556 25.2487 48.0452C25.241 47.9347 25.2062 47.8278 25.1474 47.734C24.9507 47.4212 24.6902 47.1645 24.5105 46.8375C24.4992 46.817 24.4803 46.8019 24.4578 46.7954C24.4354 46.7889 24.4113 46.7916 24.3908 46.8029C24.3703 46.8141 24.3552 46.8331 24.3487 46.8555C24.3422 46.878 24.3449 46.9021 24.3562 46.9226C24.4078 47.0315 24.4669 47.1367 24.5329 47.2375C24.5226 47.2468 24.5144 47.2582 24.509 47.271C24.5036 47.2838 24.5011 47.2976 24.5016 47.3115C24.4977 47.8764 24.4075 48.4373 24.2342 48.975C24.2306 48.9976 24.2352 49.0208 24.2473 49.0403C24.2594 49.0597 24.2781 49.0742 24.3001 49.0809C24.322 49.0876 24.3456 49.0862 24.3665 49.0769C24.3874 49.0675 24.4043 49.0509 24.4139 49.0301C24.5808 48.5236 24.6759 47.9961 24.6964 47.4632C24.7046 47.4718 24.712 47.4812 24.7184 47.4913C24.9393 47.765 25.1476 47.9417 25.0395 48.3211C25.0358 48.3404 25.0394 48.3605 25.0496 48.3773C25.0598 48.3942 25.0758 48.4067 25.0947 48.4125C25.1135 48.4182 25.1339 48.4168 25.1517 48.4085C25.1696 48.4001 25.1837 48.3855 25.1915 48.3674Z" fill="#515257"/>
<path d="M30.6949 25.9722C30.6695 25.971 30.6446 25.98 30.6258 25.9972C30.607 26.0144 30.5958 26.0383 30.5947 26.0638C30.5935 26.0892 30.6025 26.1141 30.6197 26.1329C30.6369 26.1517 30.6608 26.1629 30.6863 26.164C30.7485 26.1781 30.8133 26.1754 30.8742 26.1561C30.935 26.1368 30.9896 26.1017 31.0323 26.0543C31.0568 25.9991 31.0684 25.939 31.0662 25.8787C31.064 25.8183 31.048 25.7592 31.0195 25.7059C30.9307 25.4704 30.6919 25.1316 30.4059 25.2785C30.3823 25.2922 30.3644 25.3138 30.3553 25.3395C30.3462 25.3652 30.3465 25.3932 30.3562 25.4187C30.3659 25.4442 30.3843 25.4654 30.4082 25.4785C30.4321 25.4916 30.4598 25.4958 30.4865 25.4903C30.6275 25.4572 30.7413 25.6355 30.8017 25.7393C30.8108 25.7782 30.8892 25.8931 30.8662 25.937C30.8432 25.9809 30.7391 25.9746 30.6949 25.9722Z" fill="#515257"/>
<path d="M32.3807 23.4687C32.3838 23.5911 32.458 24.3199 32.2822 24.3357C32.1064 24.3515 32.0964 24.636 32.2717 24.6178C32.7755 24.5786 32.6779 23.827 32.6476 23.4802C32.6317 23.3147 32.3782 23.2949 32.3807 23.4687Z" fill="#515257"/>
<path d="M32.9181 21.7561L32.6699 22.1506C32.603 22.2587 32.7742 22.3646 32.8405 22.2541L33.0827 21.8559C33.1477 21.7508 32.9831 21.6511 32.9181 21.7561Z" fill="#515257"/>
<path d="M33.5132 15.1235C33.5337 15.1292 33.5553 15.1295 33.576 15.1245C33.5967 15.1194 33.6157 15.1092 33.6314 15.0947C33.647 15.0803 33.6586 15.062 33.6652 15.0418C33.6718 15.0216 33.6731 15 33.669 14.9791L33.6472 14.8867C33.6308 14.7624 33.4289 14.7766 33.4182 14.8945C33.3988 14.9069 33.3834 14.9245 33.3738 14.9454C33.3641 14.9663 33.3607 14.9895 33.3639 15.0123C33.3671 15.035 33.3768 15.0564 33.3918 15.0738C33.4068 15.0912 33.4265 15.104 33.4486 15.1105L33.5132 15.1235Z" fill="#515257"/>
<path d="M18.2614 19.2882C18.232 19.2792 18.2003 19.2821 18.1731 19.2965C18.1459 19.3108 18.1256 19.3353 18.1165 19.3647C18.1074 19.394 18.1104 19.4258 18.1247 19.4529C18.1391 19.4801 18.1636 19.5005 18.1929 19.5095C18.4836 19.6001 18.6253 19.2872 18.6812 19.056C18.713 18.9422 18.7259 18.8239 18.7193 18.7059C18.694 18.381 18.3794 18.2319 18.402 17.9034C18.4108 17.7449 18.1765 17.7411 18.1587 17.894C18.1387 18.0112 18.1494 18.1315 18.1897 18.2433C18.251 18.4058 18.4253 18.5033 18.4691 18.6674C18.5021 18.775 18.4459 19.3422 18.2614 19.2882Z" fill="#515257"/>
<path d="M13.9172 15.7199C13.7981 15.7479 13.8434 15.9399 13.9607 15.9046C14.2562 15.8196 14.7116 15.6841 14.6733 15.293C14.6253 14.817 14.1004 14.897 13.7622 14.9202C13.6058 14.9314 13.594 15.1753 13.7563 15.1781C13.9185 15.1809 14.4054 15.0483 14.4592 15.3203C14.513 15.5924 14.0972 15.6672 13.9172 15.7199Z" fill="#515257"/>
<path d="M14.4653 13.747C14.3243 13.7802 14.3741 13.9916 14.5173 13.9682C14.8032 13.9188 14.8292 13.5715 14.6885 13.3662C14.5478 13.1608 14.2544 13.1786 14.0251 13.1633C13.8582 13.1513 13.8504 13.4122 14.0168 13.4218C14.1488 13.4135 14.2814 13.4256 14.4099 13.4574C14.5062 13.4963 14.6141 13.7145 14.4653 13.747Z" fill="#515257"/>
<path d="M11.8425 14.3266L11.7436 14.3858C11.7297 14.3943 11.7177 14.4056 11.7084 14.419C11.6991 14.4324 11.6927 14.4476 11.6896 14.4635C11.6864 14.4795 11.6867 14.496 11.6903 14.5119C11.6939 14.5278 11.7007 14.5428 11.7104 14.5559C11.7201 14.569 11.7325 14.5799 11.7466 14.588C11.7608 14.596 11.7765 14.6011 11.7927 14.6027C11.8089 14.6044 11.8253 14.6027 11.8408 14.5977C11.8563 14.5927 11.8706 14.5845 11.8827 14.5737L11.9022 14.5691C11.9925 14.6042 12.067 14.4738 12.0069 14.3931L11.9778 14.3564C11.962 14.3366 11.94 14.3229 11.9154 14.3175C11.8908 14.3121 11.865 14.3153 11.8425 14.3266Z" fill="#515257"/>
<path d="M14.6574 23.4831C14.8827 23.0351 14.7117 22.7009 14.4316 22.3283C14.3382 22.2041 14.1524 22.3735 14.253 22.496C14.4788 22.7685 14.6847 23.033 14.5103 23.3921C14.4617 23.4907 14.6064 23.5823 14.6574 23.4831Z" fill="#515257"/>
<path d="M14.4997 19.3307C14.5699 19.6471 14.5591 19.976 14.4685 20.2871C14.4155 20.4432 14.658 20.5143 14.7091 20.3612C14.8173 20.0081 14.8289 19.6326 14.7427 19.2735C14.7171 19.1102 14.4723 19.1705 14.4997 19.3307Z" fill="#515257"/>
<path d="M14.9921 19.9205C15.2352 19.8633 15.1922 19.681 14.9492 19.7383L14.9921 19.9205Z" fill="#515257"/>
<path d="M25.3797 45.3869C25.4519 45.2936 25.4929 45.18 25.4969 45.0622C25.5009 44.9443 25.4677 44.8281 25.402 44.7302C25.2306 44.5366 25.0193 44.3825 24.7826 44.2784C24.7559 44.2619 24.7238 44.2567 24.6933 44.2639C24.6627 44.2711 24.6363 44.2901 24.6198 44.3168C24.6033 44.3435 24.598 44.3756 24.6052 44.4061C24.6124 44.4367 24.6315 44.4631 24.6581 44.4796C24.7908 44.5638 24.9266 44.6395 25.0513 44.7333C25.0981 44.7574 25.1392 44.7914 25.1716 44.8329C25.204 44.8744 25.2271 44.9224 25.2392 44.9737C25.2512 45.025 25.252 45.0783 25.2416 45.1299C25.2311 45.1815 25.2095 45.2303 25.1784 45.2727C25.1204 45.3967 25.3095 45.5137 25.3797 45.3869Z" fill="#515257"/>
<path d="M21.3728 29.5371C21.2563 29.4671 21.1424 29.6478 21.2619 29.7197C21.6661 29.9656 21.7809 29.3641 21.4658 29.1587C21.1507 28.9534 20.7962 29.0599 20.4804 29.0804C20.3173 29.0958 20.3059 29.3524 20.4696 29.3395C20.6333 29.3266 20.8123 29.3024 20.9745 29.3052C21.0714 29.2986 21.1687 29.3096 21.2617 29.3376C21.3032 29.3471 21.3419 29.366 21.3748 29.393C21.4151 29.4117 21.4828 29.601 21.3728 29.5371Z" fill="#515257"/>
<path d="M20.8428 27.9136C20.9856 27.6114 21.0568 27.2804 21.051 26.9463C21.0483 26.9235 21.0375 26.9023 21.0206 26.8867C21.0037 26.871 20.9818 26.8619 20.9588 26.8608C20.9358 26.8598 20.9132 26.8669 20.8949 26.881C20.8767 26.8951 20.864 26.9151 20.8592 26.9376C20.8609 27.2393 20.8022 27.5383 20.6867 27.817C20.6398 27.9229 20.7911 28.0207 20.8428 27.9136Z" fill="#515257"/>
<path d="M20.723 24.6495L20.6783 24.46C20.4376 24.527 20.48 24.7068 20.723 24.6495Z" fill="#515257"/>
<path d="M34.0008 20.0958C33.9355 20.047 33.8475 20.1524 33.9115 20.2066C33.9756 20.2607 34.1167 20.3916 34.2482 20.3838C34.3797 20.3759 34.466 20.2196 34.4701 20.0955C34.4921 19.7749 34.1567 19.5486 33.9461 19.3623C33.836 19.2651 33.669 19.4275 33.7786 19.5223C33.9155 19.6286 34.0435 19.746 34.1613 19.8733C34.2286 19.9399 34.2674 20.0302 34.2693 20.1249C34.2366 20.3018 34.0752 20.1501 34.0008 20.0958Z" fill="#515257"/>
<path d="M28.1169 18.5034C28.3684 18.5287 28.6152 18.5879 28.8508 18.6794C28.9844 18.7454 29.1192 18.8496 29.019 19.0014C28.9508 19.0804 28.8691 19.1465 28.7778 19.1968C28.6837 19.2548 28.7658 19.4073 28.8593 19.3469C29.0828 19.207 29.3828 18.9671 29.1716 18.6911C28.9604 18.4151 28.4911 18.3717 28.1466 18.3246C28.0329 18.3103 28.013 18.4869 28.1169 18.5034Z" fill="#515257"/>
<path d="M28.0217 16.0821C28.4458 15.8463 28.4302 15.3447 28.4208 14.9237C28.4205 14.8135 28.2523 14.8069 28.2526 14.9171C28.2532 15.2684 28.2946 15.7382 27.9526 15.9522C27.9441 15.9567 27.9365 15.9629 27.9304 15.9703C27.9242 15.9778 27.9196 15.9864 27.9168 15.9956C27.914 16.0049 27.913 16.0146 27.9139 16.0242C27.9148 16.0338 27.9176 16.0431 27.9222 16.0517C27.9267 16.0602 27.9329 16.0678 27.9403 16.0739C27.9478 16.0801 27.9564 16.0847 27.9656 16.0875C27.9749 16.0903 27.9846 16.0913 27.9942 16.0904C28.0038 16.0895 28.0131 16.0866 28.0217 16.0821Z" fill="#515257"/>
<path d="M27.1733 13.9162L27.1412 13.7801C26.8982 13.8373 26.9303 13.9734 27.1733 13.9162Z" fill="#515257"/>
<path d="M26.7266 15.2874L26.7701 15.472C27.0102 15.4027 26.9696 15.2301 26.7266 15.2874Z" fill="#515257"/>
<path d="M16.7488 24.1007C16.9918 24.0435 16.95 23.8661 16.707 23.9233L16.7488 24.1007Z" fill="#515257"/>
<path d="M9.84182 20.4507C9.85205 20.211 9.79601 19.973 9.67985 19.763C9.66746 19.7408 9.64675 19.7244 9.62225 19.7174C9.59776 19.7104 9.57151 19.7134 9.54926 19.7258C9.527 19.7382 9.51058 19.7589 9.5036 19.7834C9.49662 19.8079 9.49966 19.8342 9.51204 19.8564C9.61473 20.0365 9.66323 20.2424 9.65169 20.4494C9.6516 20.4618 9.65397 20.4742 9.65866 20.4858C9.66335 20.4974 9.67028 20.5079 9.67905 20.5168C9.69675 20.5347 9.72085 20.5449 9.74606 20.5451C9.77127 20.5453 9.79553 20.5355 9.81349 20.5178C9.83144 20.5001 9.84163 20.476 9.84182 20.4507Z" fill="#515257"/>
<path d="M27.1592 52.1355C27.2711 52.0997 27.3709 52.0336 27.4476 51.9445C27.5178 51.8613 27.4993 51.7938 27.4357 51.7087C27.3663 51.6347 27.2826 51.5755 27.1897 51.5348C27.0968 51.4941 26.9966 51.4727 26.8951 51.4718C26.7766 51.4587 26.7486 51.6448 26.8614 51.6773C26.9742 51.7097 27.1987 51.7261 27.2993 51.8486C27.249 51.9131 27.1813 51.9619 27.1042 51.9894C27.0221 52.0216 27.074 52.1658 27.1592 52.1355Z" fill="#515257"/>
<path d="M34.3408 48.7506C34.193 48.7982 34.2425 49.0302 34.398 48.9936C34.4926 48.9802 34.5828 48.9453 34.6617 48.8916C34.7407 48.8379 34.8063 48.7667 34.8534 48.6837C34.9427 48.4421 34.7521 48.2536 34.6231 48.0762C34.6071 48.061 34.5871 48.0505 34.5655 48.0461C34.5438 48.0418 34.5214 48.0436 34.5007 48.0514C34.48 48.0592 34.462 48.0727 34.4486 48.0903C34.4353 48.108 34.4272 48.129 34.4253 48.151C34.4265 48.238 34.4598 48.3216 34.519 48.3854C34.566 48.4436 34.6312 48.5026 34.6198 48.5848C34.6084 48.667 34.426 48.7202 34.3408 48.7506Z" fill="#515257"/>
<path d="M38.1637 43.7365C38.0252 43.7691 38.0766 43.9981 38.2152 43.9552C38.333 43.9316 38.4417 43.875 38.5284 43.7918C38.6151 43.7087 38.6763 43.6026 38.7049 43.4859C38.7846 43.1491 38.5471 42.9357 38.3149 42.7339C38.1886 42.6226 37.999 42.8083 38.1265 42.9142C38.2541 43.0201 38.4821 43.1716 38.4737 43.3865C38.4703 43.4716 38.4376 43.553 38.3811 43.6167C38.3246 43.6805 38.2478 43.7228 38.1637 43.7365Z" fill="#515257"/>
<path d="M35.373 43.2876L35.4057 43.4261C35.6487 43.3689 35.6161 43.2304 35.373 43.2876Z" fill="#515257"/>
<path d="M31.8066 46.66C32.0496 46.6028 32.0067 46.4205 31.7637 46.4778L31.8066 46.66Z" fill="#515257"/>
</svg>
