<svg width="27" height="34" viewBox="0 0 27 34" fill="none" xmlns="http://www.w3.org/2000/svg">
<path d="M4.72371 16.0018C4.78541 16.1281 5.18985 15.995 5.75625 15.5528C6.53093 14.8917 7.14255 14.0607 7.54348 13.1246C8.12318 11.7534 8.50782 10.3077 8.68614 8.82967C8.80475 8.01701 8.90157 7.15976 9.00221 6.29144L9.18842 4.97635C9.18842 4.97635 9.21937 4.83238 9.24979 4.74389L9.3338 4.46356C9.38306 4.33825 9.37148 4.38993 9.37528 4.37887C9.43174 4.71159 9.43604 5.05107 9.38802 5.38511C9.30313 5.79075 9.19062 6.19012 9.05128 6.58042C8.79959 7.38443 8.46322 8.14696 8.20375 8.99159C7.79188 10.29 7.22504 11.5341 6.51548 12.6969C5.30208 14.6793 4.36647 15.8356 4.61223 16.0562C4.85799 16.2767 6.01689 15.3703 7.59601 13.4395C8.51897 12.2567 9.25377 10.9386 9.77444 9.53161C10.0177 8.84218 10.4024 8.04682 10.7103 7.16935C10.8835 6.70566 11.0167 6.22799 11.1084 5.74159C11.2509 5.15242 11.2655 4.53956 11.1512 3.94428C11.0738 3.60477 10.9258 3.28536 10.7168 3.00681C10.5079 2.72826 10.2426 2.49681 9.93831 2.32752C9.64137 2.18524 9.30088 2.16349 8.98824 2.26681C8.67743 2.35423 8.4032 2.53979 8.20648 2.79582C7.95315 3.13863 7.75718 3.52031 7.62622 3.92595C7.58802 4.05506 7.54238 4.18779 7.51161 4.31327C7.46931 4.45854 7.43702 4.60655 7.41498 4.75624C7.35878 5.22548 7.30639 5.68366 7.26886 6.13459L7.04543 8.6552C6.9508 10.0194 6.71245 11.3699 6.33435 12.6841C5.64861 14.8046 4.51494 15.7816 4.72371 16.0018Z" fill="#515257"/>
<path d="M8.90602 22.1322C8.84015 22.4497 10.1609 22.8172 12.0081 23.8481C12.4755 24.1077 12.9794 24.4046 13.5163 24.75C14.0531 25.0954 14.678 25.5081 15.2848 25.8837C15.8916 26.2593 16.5459 26.6945 17.1483 27.1552C17.2988 27.275 17.4531 27.3837 17.5888 27.5107L17.8015 27.7014L17.856 27.8129L17.8814 27.8649L17.4923 27.5394L17.0893 27.1287C16.5026 26.5869 15.9749 26.053 15.4547 25.5154C14.5307 24.5259 13.5064 23.6349 12.3985 22.8567C11.6339 22.3193 10.7677 21.9436 9.85283 21.7527C9.19918 21.6393 8.82464 21.7393 8.80113 21.8797C8.76499 22.1826 10.0198 22.4904 11.6267 23.8963C12.5655 24.7608 13.4453 25.6872 14.2602 26.6694C14.7433 27.2251 15.2997 27.8369 15.8898 28.4232L16.3554 28.8678C16.5204 29.0173 16.6671 29.1481 16.9203 29.365C17.4688 29.8686 18.1321 30.2304 18.8524 30.4189C19.071 30.4532 19.2947 30.4307 19.502 30.3537C19.7094 30.2766 19.8934 30.1475 20.0365 29.9788C20.3189 29.5834 20.4363 29.0936 20.3638 28.6132L20.261 28.1388C20.1811 27.9753 20.1013 27.8118 20.0214 27.6483C19.9238 27.4754 19.8101 27.3121 19.682 27.1605L19.503 26.9258L19.3198 26.7391L18.9753 26.3919L18.7111 26.1711C18.535 26.0178 18.3549 25.8941 18.1786 25.7592C17.5155 25.29 16.824 24.8622 16.1081 24.4784L14.2571 23.4586C13.7007 23.1642 13.129 22.8996 12.5445 22.6657C10.3774 21.8279 8.95633 21.8959 8.90602 22.1322Z" fill="#515257"/>
<path d="M8.11344 17.4384C8.10099 17.5825 8.42487 17.7557 9.02046 17.7502C9.83866 17.7101 10.646 17.5456 11.4146 17.2623C11.8857 17.115 12.4241 16.8982 12.9212 16.7475C13.5549 16.5634 14.172 16.3267 14.7663 16.0398C16.1685 15.3682 17.432 14.439 18.491 13.3006C18.6222 13.1709 18.7458 13.0338 18.8611 12.8898L19.0598 12.5994L19.1692 12.3711C19.218 12.2507 19.2491 12.1239 19.2616 11.9947C19.2808 11.7665 19.2273 11.5381 19.1086 11.3422C19.0389 11.2369 18.9551 11.1416 18.8598 11.0588C18.8004 11.0111 18.7348 10.9719 18.6648 10.9423C18.5998 10.9015 18.529 10.8709 18.4548 10.8515L18.3293 10.8207C18.2501 10.8033 18.1699 10.7903 18.0893 10.7815C17.8806 10.7773 17.6719 10.784 17.464 10.8015C16.7491 10.9256 16.0898 11.2668 15.5757 11.7788C15.1431 12.1557 14.777 12.537 14.4939 12.7489L14.4344 12.7779C13.0573 14.0184 11.6035 15.171 10.0816 16.2288C8.9913 16.9177 8.24585 17.1252 8.24722 17.3731C8.24859 17.6209 9.17186 17.7776 10.575 17.2581C12.3274 16.4612 13.9634 15.4301 15.4383 14.1929C15.8759 13.8741 16.2953 13.531 16.6946 13.1653C16.9526 12.9107 17.2733 12.7287 17.6243 12.6377L17.9314 12.6258C17.9314 12.6258 17.8975 12.6884 17.9552 12.4485C17.9725 12.3682 17.9955 12.2893 18.024 12.2124C18.0299 12.1656 18.0415 12.1198 18.0586 12.0758C18.1976 11.8515 18.2073 12.0033 18.0785 11.9281C17.9497 11.8529 17.9086 11.9006 17.7501 11.8399L17.5144 11.7341C17.4926 11.6895 17.4926 11.6895 17.5144 11.7341L17.447 11.8223L17.1927 12.1121C16.2734 13.1042 15.1986 13.9399 14.0105 14.5864C13.4968 14.8836 12.9629 15.1443 12.4126 15.3667C11.8329 15.6498 11.3721 15.8748 10.9262 16.0925C10.0567 16.5171 9.38035 16.8474 8.91213 17.076C8.44391 17.3046 8.12589 17.2943 8.11344 17.4384Z" fill="#515257"/>
</svg>
