<svg width="30" height="31" viewBox="0 0 30 31" fill="none" xmlns="http://www.w3.org/2000/svg">
<path d="M21.9587 12.0107C21.9654 11.6551 20.7928 11.5422 19.5779 10.1546C18.8396 9.31257 18.194 8.39361 17.6521 7.41355L16.5694 5.58995L16.2559 5.1043L16.0869 4.85297C16.0101 4.73927 15.9235 4.63247 15.8281 4.53378C15.544 4.18013 15.2228 3.85797 14.87 3.57283C14.6014 3.36817 14.2786 3.24706 13.9417 3.22458C13.7148 3.21999 13.4904 3.27241 13.289 3.37704C13.0876 3.48166 12.9157 3.63515 12.789 3.82344C12.7033 3.94619 12.6315 4.07801 12.5748 4.21651C12.5011 4.397 12.4637 4.59028 12.4649 4.78524C12.4683 5.0727 12.5335 5.35606 12.6562 5.61604C12.8698 6.03957 13.1408 6.43157 13.4616 6.78095C13.7369 7.10044 14.013 7.37859 14.2731 7.62335L15.003 8.40632C15.2628 8.66762 15.5145 8.92049 15.7665 9.15683C16.6585 10.0107 17.65 10.7541 18.7197 11.3711C20.5705 12.3736 21.8582 12.5217 21.9458 12.2587C22.0334 11.9956 20.9689 11.4132 19.435 10.276C18.5403 9.58409 17.7026 8.82153 16.9298 7.99564L16.2571 7.2551L15.9332 6.8768L15.5445 6.4311C15.2933 6.15342 15.05 5.89243 14.8323 5.59055C14.6283 5.36277 14.455 5.10924 14.3169 4.83642C14.3169 4.83642 14.3183 4.76199 14.3185 4.75372C14.2581 4.76293 14.1966 4.76178 14.1366 4.75032L13.9298 4.74645L14.2914 4.8773L14.2335 4.87622C13.8661 4.61291 13.9184 4.47326 13.9239 4.62226C13.9239 4.62226 13.9217 4.73803 13.9206 4.79592L13.8249 5.05056C14.0721 5.25742 14.3004 5.48593 14.507 5.73337C14.5527 5.77625 14.5935 5.82419 14.6284 5.87627L14.7815 6.09421L15.0794 6.52994L16.246 8.28893C16.9148 9.34061 17.7331 10.2894 18.675 11.1056C19.3347 11.6829 20.1456 12.0598 21.0123 12.1916C21.6313 12.2693 21.9564 12.1348 21.9587 12.0107Z" fill="#515257"/>
<path d="M17.6413 17.4441C17.5943 17.3026 17.2392 17.2711 16.6325 17.4252C15.7715 17.6701 14.9698 18.0887 14.2767 18.6551C13.7939 19.0433 13.3508 19.4784 12.9537 19.9539C12.4763 20.4973 12.0602 21.0915 11.7128 21.7258C11.337 22.3557 10.9937 23.0194 10.6097 23.6491L10.4646 23.8863L10.4049 23.9845C10.4049 23.9845 10.4049 23.9845 10.4755 23.7459C10.5688 23.4003 10.6885 23.0624 10.8336 22.7351C10.8927 22.5885 10.9617 22.4461 11.0401 22.3088C11.1013 22.1929 11.1815 22.0881 11.2775 21.9989C11.4967 21.7471 11.7333 21.5111 11.9856 21.2925C12.8781 20.4981 13.8442 19.7904 14.8708 19.1791C15.5474 18.7605 16.2507 18.3868 16.9763 18.0603C17.4769 17.8298 17.81 17.7119 17.8131 17.5465C17.8162 17.3812 17.4708 17.2754 16.8331 17.3131C15.9552 17.4048 15.0984 17.6404 14.297 18.0102C13.1009 18.541 11.9765 19.2203 10.9503 20.0323C10.6537 20.2859 10.3724 20.5568 10.1079 20.8437C9.93082 21.0149 9.77453 21.2063 9.64226 21.4141C9.52086 21.6089 9.41207 21.8114 9.31658 22.0201C9.12829 22.4132 8.96864 22.8194 8.83888 23.2355C8.7776 23.4163 8.68825 23.7704 8.58956 24.1821C8.50818 24.557 8.4568 24.9378 8.43591 25.3208C8.38515 25.7638 8.49092 26.2106 8.73491 26.5838C8.84893 26.7415 9.00164 26.8672 9.17833 26.9487C9.35501 27.0303 9.54972 27.0649 9.7437 27.0494C10.3157 26.9162 10.8192 26.5784 11.1595 26.0997C11.4067 25.8122 11.6361 25.5098 11.8465 25.1944L11.9998 24.9573L12.0935 24.8102L12.2558 24.5402C12.658 23.8198 12.9687 23.1307 13.2861 22.5245C13.5596 21.952 13.8826 21.4044 14.2515 20.8881C14.5282 20.4468 14.8375 20.0268 15.1767 19.6315C16.5184 18.2172 17.7515 17.7439 17.6413 17.4441Z" fill="#515257"/>
<path d="M15.5082 13.8559C15.5113 13.6905 15.2574 13.5534 14.8168 13.2308C14.5165 13.008 14.1927 12.8189 13.8512 12.6668C13.7327 12.6124 13.6087 12.5713 13.4812 12.544C13.396 12.516 13.3071 12.5004 13.2174 12.4977L13.0189 12.494C12.7439 12.4719 12.4677 12.4667 12.192 12.4786L10.4519 12.6363C9.83807 12.7241 9.1909 12.8278 8.52749 12.9147C7.84397 13.0045 7.15479 13.0441 6.46548 13.0333C6.11955 13.0273 5.77453 12.996 5.4332 12.9395C5.1121 12.8917 4.79736 12.8081 4.49482 12.6904L4.42039 12.689C4.42039 12.689 4.41962 12.7303 4.42163 12.6228C4.4553 12.5431 4.50445 12.471 4.56623 12.4104C4.67543 12.254 4.83538 12.14 5.01896 12.088C5.28943 12.0197 5.56986 11.9997 5.84729 12.029C6.19334 12.0624 6.5375 12.113 6.87849 12.1807C7.23314 12.2369 7.57111 12.3012 7.90891 12.3737C9.24407 12.6385 10.4296 12.942 11.434 13.2006C13.4345 13.7178 14.6871 13.9729 14.8002 13.6772C14.9132 13.3815 13.7915 12.7649 11.8376 11.9673C10.6795 11.4812 9.49059 11.0721 8.27857 10.7427C7.93281 10.6535 7.5705 10.564 7.20788 10.491C6.84527 10.4181 6.45831 10.3198 6.01254 10.2701C5.51719 10.2081 5.01467 10.238 4.53015 10.3582C3.92429 10.5147 3.39656 10.8873 3.04637 11.4059C2.91101 11.6139 2.80647 11.8404 2.736 12.0784C2.63994 12.3652 2.60056 12.6679 2.62006 12.9696C2.66835 13.2791 2.8035 13.5685 3.0098 13.8042C3.21413 14.0266 3.46117 14.2057 3.73619 14.3306C4.18471 14.513 4.6552 14.6358 5.13564 14.696C5.56777 14.7596 6.00443 14.7871 6.44112 14.7783C7.2202 14.7679 7.99682 14.6883 8.7618 14.5404C9.4756 14.4131 10.1237 14.2598 10.722 14.1138C10.7717 14.1147 10.7634 14.1146 10.7717 14.1147L10.8957 14.1171L11.1364 14.0719L11.5766 13.9809L12.3657 13.8054C12.5873 13.7526 12.8118 13.7127 13.038 13.6856L13.1869 13.6884L13.2613 13.6898L13.5094 13.6944C13.8473 13.7586 14.1925 13.8809 14.4891 13.9444C15.1234 14.0886 15.5058 13.9882 15.5082 13.8559Z" fill="#515257"/>
</svg>
