<svg width="80" height="47" viewBox="0 0 80 47" fill="none" xmlns="http://www.w3.org/2000/svg">
<path d="M30.2969 36.6138V37.1698C30.6024 37.1698 30.6024 36.6138 30.2969 36.6138Z" fill="#515257"/>
<path d="M77.9304 20.2923C77.0841 19.721 76.0759 19.6812 75.1807 19.3177C76.1706 18.0956 76.082 15.7645 75.5901 14.4477C74.8844 12.5413 73.5248 10.5126 71.8781 9.28752C69.7394 7.70188 66.9531 7.10307 64.5762 6.00015C61.9457 4.77808 59.2907 4.01122 56.5014 3.20466C53.712 2.39809 51.0601 1.49681 48.2218 1.02937C42.3297 0.0646909 36.317 0.102908 30.4376 1.14241C23.7834 2.30643 17.5875 4.47256 11.5322 7.42081C8.71224 8.79564 3.1457 12.9201 3.49093 16.9285C3.49093 16.9102 3.47566 16.9285 3.46955 16.9071C3.45115 16.8471 3.41116 16.7961 3.3573 16.7638C3.30344 16.7316 3.23953 16.7205 3.17796 16.7327C3.11638 16.7448 3.06151 16.7794 3.02395 16.8297C2.98639 16.88 2.9688 16.9424 2.97461 17.0049C3.13042 18.0039 3.52454 18.9785 3.81784 19.944C3.86103 20.0802 3.91204 20.2138 3.9706 20.3442C2.60493 20.7964 1.08956 20.7597 0.282996 22.2415C-0.355536 23.4147 0.114959 24.3648 1.4073 24.704C1.45656 24.7171 1.50654 24.7273 1.557 24.7345C0.967351 25.8619 0.945965 27.4842 1.9389 28.1807C2.34836 28.4375 2.82128 28.575 3.30456 28.5779C2.82353 28.9747 2.45047 29.4864 2.21998 30.0658C2.07426 30.4185 2.04955 30.8096 2.14971 31.1779C2.13432 31.1871 2.12221 31.2009 2.11509 31.2173C2.10796 31.2337 2.10618 31.252 2.11 31.2695C2.21305 31.7903 2.36022 32.3013 2.54993 32.7971C2.51566 32.7951 2.48187 32.806 2.45522 32.8277C1.44702 33.6587 0.420478 35.0243 0.845148 36.4297C1.24538 37.7496 2.77908 38.2109 3.97976 37.7496C4.5908 37.5113 5.42181 36.4633 6.19477 36.4664C6.19477 36.4817 6.17338 36.4908 6.17338 36.5122C6.152 36.9827 5.96257 37.6396 6.35364 38.0093C6.49723 38.1467 6.72025 37.9146 6.57055 37.7923C6.23448 37.5204 6.38419 36.8758 6.38113 36.5122C6.38113 36.5122 6.38113 36.4969 6.38113 36.4878C6.46072 36.5035 6.53714 36.5324 6.60722 36.5733C6.94635 36.7689 7.39851 38.4064 7.73152 38.7761C8.02399 39.157 8.44171 39.4221 8.91082 39.5246C8.93526 39.6224 8.96276 39.7202 8.9872 39.8301C9.1644 40.6184 9.21634 41.4311 9.50658 42.1918C9.38743 42.091 9.27133 41.9932 9.16745 41.8863C8.09203 40.8536 7.5421 39.3719 6.72331 38.1406C6.70965 38.1252 6.69108 38.1151 6.67075 38.1119C6.65043 38.1087 6.62963 38.1127 6.61193 38.1232C6.59423 38.1337 6.58072 38.15 6.57373 38.1693C6.56674 38.1887 6.5667 38.2099 6.57361 38.2292C7.45045 40.2243 7.89345 42.0238 9.70517 43.4016C11.7002 44.9292 13.46 45.3081 15.9072 45.5892C21.657 46.246 27.5169 46.0383 33.2759 45.7633C36.2333 45.6197 39.1876 45.7144 42.1359 45.525C45.0841 45.3356 48.0293 45.0423 50.9806 45.0728C53.6692 45.1003 56.3516 45.0728 59.0402 45.0728C61.9158 45.1112 64.7915 45.0011 67.6558 44.7429C70.1641 44.471 71.377 43.2458 72.6113 41.1775C73.0958 40.375 73.4159 39.4842 73.5528 38.5568C73.6897 37.6295 73.6407 36.6842 73.4087 35.7759C73.4453 35.7751 73.4814 35.7851 73.5124 35.8047C73.5433 35.8242 73.5678 35.8525 73.5828 35.8859C73.6546 36.0044 73.7699 36.0902 73.904 36.125C74.0381 36.1598 74.1805 36.1409 74.3008 36.0723C74.8736 35.7544 75.3201 35.2497 75.5657 34.6425C76.0967 34.3028 76.5513 33.8565 76.9008 33.3318C76.9383 33.2648 76.9601 33.1902 76.9647 33.1136C76.9692 33.037 76.9562 32.9603 76.9268 32.8894C76.8974 32.8186 76.8523 32.7553 76.7948 32.7043C76.7374 32.6534 76.6692 32.6162 76.5953 32.5955C76.027 32.4549 75.639 32.4672 75.144 32.0578C74.9241 31.8775 74.7224 31.6637 74.4841 31.5048L74.3833 31.4376C74.4902 31.2909 74.5972 31.1321 74.6888 30.9732C75.3946 29.8305 75.9842 28.4679 74.5483 28.1044C74.6705 27.1634 74.4261 26.0177 74.1328 24.9086C74.1229 24.8752 74.1107 24.8426 74.0961 24.8109C74.8996 24.6551 75.4312 25.037 76.302 25.3761C76.913 25.6144 77.7257 25.868 78.4009 25.7305C79.8704 25.425 80.3256 23.4361 79.7726 22.2231C79.4243 21.4166 78.6453 20.775 77.9304 20.2923ZM6.72943 15.1504C7.23659 14.7899 7.73764 14.4202 8.23869 14.0536C7.81707 14.518 7.43517 15.0129 7.05632 15.514C6.85163 15.7798 6.65915 16.0547 6.46668 16.3297C6.55222 15.9386 6.64082 15.5445 6.73248 15.1535L6.72943 15.1504ZM6.17949 16.7391C5.96868 17.0446 5.75788 17.3501 5.55318 17.6709C5.27642 18.0316 5.05028 18.4283 4.88104 18.8502C4.87164 17.9474 4.99308 17.048 5.24156 16.18C5.66521 15.8949 6.08478 15.6067 6.50029 15.3154C6.39641 15.7981 6.28643 16.2717 6.18561 16.7483L6.17949 16.7391ZM4.95742 16.7391C4.75272 17.6832 4.51442 18.7402 4.78633 19.6874C4.79534 19.7059 4.81058 19.7208 4.82939 19.7294C4.84821 19.7379 4.86942 19.7396 4.88936 19.7342C4.9093 19.7287 4.92672 19.7165 4.93859 19.6996C4.95046 19.6827 4.95604 19.6621 4.95437 19.6415C4.95437 19.5835 4.93604 19.5254 4.92687 19.4643C4.94019 19.4563 4.95133 19.4452 4.95932 19.4319C4.96731 19.4185 4.97191 19.4035 4.9727 19.3879C5.04297 18.6364 5.55929 17.8054 6.10311 17.0538C5.86175 18.1934 5.65094 19.3421 5.49207 20.5C5.47374 20.6406 5.69677 20.6406 5.7151 20.5C5.87703 19.2138 6.10922 17.9398 6.37502 16.6749C6.595 16.3694 6.80886 16.1067 6.98606 15.8623C7.38018 15.3154 7.78041 14.7685 8.20813 14.2552C8.3059 14.1391 8.43727 13.9497 8.58697 13.7817C9.50352 13.1157 10.3926 12.4496 11.2969 11.7928C11.4008 11.7164 11.2969 11.5422 11.193 11.6186C9.24384 13.0179 7.30685 14.463 5.31488 15.8134C5.43403 15.3918 5.56234 14.9763 5.69372 14.5699C6.7447 13.9986 7.73763 13.2898 8.73362 12.6543C10.1085 11.7744 11.4833 10.8915 12.8642 10.0238C12.962 9.96271 12.8642 9.8069 12.7726 9.868C10.4537 11.2917 8.1898 12.8285 5.81898 14.1819C5.93508 13.8184 6.04812 13.4609 6.14894 13.1187C6.15267 13.1079 6.1541 13.0964 6.15316 13.085C6.15221 13.0736 6.14891 13.0625 6.14345 13.0525C6.13799 13.0424 6.1305 13.0336 6.12145 13.0266C6.1124 13.0196 6.102 13.0145 6.0909 13.0118H6.11533C7.924 12.0952 9.65017 11.0656 11.4069 10.0696C11.4331 10.0492 11.451 10.0199 11.4573 9.98719C11.4635 9.95452 11.4577 9.92068 11.4409 9.89196C11.4241 9.86324 11.3975 9.84158 11.366 9.83099C11.3344 9.82041 11.3001 9.82162 11.2694 9.8344C9.51881 10.8396 7.78652 11.8722 6.00535 12.8193C5.98613 12.8296 5.97052 12.8456 5.96063 12.8651C5.95075 12.8845 5.94706 12.9065 5.95005 12.9282C5.95304 12.9498 5.96258 12.97 5.97738 12.986C5.99218 13.002 6.01154 13.0132 6.03285 13.0179C6.01793 13.0201 6.00405 13.0269 5.99312 13.0373C5.98218 13.0477 5.97472 13.0612 5.97174 13.0759C5.84953 13.4884 5.72121 13.9008 5.59901 14.3133C5.2721 14.4997 4.9452 14.6799 4.61524 14.8571C4.48998 14.9243 4.59996 15.0985 4.72828 15.0465C4.98491 14.9365 5.2385 14.8113 5.48902 14.683C5.36376 15.0985 5.25072 15.517 5.14073 15.9356C4.75883 16.1922 4.37082 16.4458 3.98281 16.6963C4.1814 14.8235 5.64178 12.9721 6.90052 11.7072L6.9494 11.7469C6.96984 11.7664 6.99588 11.779 7.02385 11.7828C7.05182 11.7866 7.08028 11.7816 7.10521 11.7683C9.56768 10.5463 11.9538 9.16837 14.349 7.81798C14.3703 7.80374 14.3854 7.78193 14.3912 7.75698C14.397 7.73203 14.3931 7.70581 14.3803 7.68364C14.3674 7.66147 14.3467 7.64501 14.3221 7.63762C14.2976 7.63023 14.2712 7.63245 14.2482 7.64383C13.0445 8.31291 11.8438 8.98506 10.637 9.64192C10.0565 9.94744 9.47909 10.253 8.89555 10.5585C8.7214 10.6501 7.36796 11.4903 7.08994 11.5056C9.06358 9.57776 11.2816 8.4504 13.7594 7.30471C14.7187 6.86476 15.7025 6.45843 16.6924 6.08264C16.9441 6.08758 17.1943 6.12245 17.4378 6.18651C17.4466 6.18754 17.4555 6.18536 17.4628 6.18037C17.4701 6.17538 17.4753 6.16791 17.4776 6.15935C17.4798 6.15079 17.4789 6.14172 17.4749 6.1338C17.471 6.12587 17.4643 6.11964 17.4562 6.11624C17.2684 6.06252 17.0761 6.02572 16.8818 6.00626C20.5852 4.61162 24.4034 3.54333 28.2929 2.81359C33.6669 1.78094 39.3129 1.24323 44.7756 1.83288C49.8777 2.38587 54.6438 3.98679 59.5626 5.36773C61.7013 5.97876 63.678 6.92281 65.8044 7.5644C68.3035 8.31598 70.8607 9.12559 72.6144 11.1298C74.1908 12.9323 76.192 16.1281 74.2672 18.3675C73.4545 19.3146 72.0736 19.3604 70.8546 19.614C70.1733 19.7546 69.495 19.8951 68.8137 20.0418C69.1068 19.7501 69.3357 19.4004 69.4859 19.0152C69.9228 18.1903 70.4024 17.3868 70.8699 16.5711C70.8865 16.5431 70.8913 16.5097 70.8833 16.4782C70.8753 16.4467 70.855 16.4196 70.8271 16.403C70.7991 16.3864 70.7657 16.3816 70.7342 16.3896C70.7027 16.3976 70.6757 16.4179 70.659 16.4458C70.2985 17.0568 69.9441 17.674 69.5958 18.2972C69.2689 18.8777 68.9848 19.6904 68.3921 20.0204C68.373 20.0324 68.3581 20.05 68.3494 20.0707C68.3407 20.0915 68.3385 20.1144 68.3432 20.1365C67.8269 20.2464 67.3106 20.3595 66.7943 20.4817L66.669 20.5092C67.28 19.6568 67.8147 18.7586 68.3616 17.8634C68.3733 17.8381 68.3753 17.8094 68.3672 17.7827C68.359 17.7561 68.3413 17.7333 68.3174 17.7189C68.2936 17.7045 68.2652 17.6995 68.2378 17.7047C68.2104 17.7099 68.186 17.7251 68.1691 17.7473C67.6039 18.6975 67.0601 19.6599 66.4307 20.5672L64.1454 21.0958C65.3112 19.6904 66.3858 18.2117 67.3625 16.6688C67.4297 16.565 67.2678 16.4733 67.2006 16.5741C66.1682 18.1934 65.026 19.7399 63.7818 21.2027L62.2756 21.5357C62.9539 21.1294 63.235 20.2648 63.6107 19.6079C64.2829 18.4307 64.9235 17.2391 65.5325 16.0334C65.6027 15.8959 65.398 15.7737 65.3247 15.9112C64.8053 16.9102 64.2707 17.9031 63.7116 18.8808C63.3297 19.5438 62.902 20.6925 62.2481 21.1936L62.2268 21.0286C62.2054 20.8789 61.9548 20.9125 61.964 21.0622C61.9732 21.2119 61.964 21.3219 61.9854 21.4502C61.986 21.4775 61.9943 21.5041 62.0095 21.5268C62.0246 21.5495 62.0459 21.5675 62.0709 21.5785L61.1758 21.7649L61.0994 21.6885C60.9833 21.5632 60.7939 21.6885 60.8305 21.8351L60.25 21.9543C61.5027 20.2892 62.5139 18.4622 63.5771 16.6749C63.5908 16.6507 63.5944 16.6221 63.5873 16.5952C63.5801 16.5683 63.5628 16.5452 63.5389 16.5309C63.5151 16.5166 63.4866 16.5121 63.4595 16.5185C63.4324 16.5248 63.4088 16.5415 63.3938 16.565C62.2909 18.3981 61.2246 20.2312 59.9445 21.9207C59.9341 21.9345 59.9268 21.9503 59.9231 21.9672C59.9194 21.9841 59.9194 22.0016 59.9232 22.0185L59.4313 22.1132C59.1257 22.1712 58.7988 22.2262 58.4842 22.2751C58.8966 21.6641 59.2357 21.0011 59.5871 20.3839C60.2531 19.2169 60.8886 18.0314 61.5393 16.8583C61.5464 16.8464 61.551 16.8333 61.5529 16.8197C61.5549 16.8061 61.5542 16.7922 61.5508 16.7789C61.5473 16.7655 61.5413 16.753 61.5331 16.742C61.5248 16.731 61.5145 16.7217 61.5027 16.7147C61.4908 16.7076 61.4777 16.703 61.4641 16.7011C61.4505 16.6991 61.4366 16.6999 61.4233 16.7033C61.4099 16.7067 61.3974 16.7127 61.3864 16.7209C61.3754 16.7292 61.3661 16.7395 61.3591 16.7513C60.748 17.8176 60.1614 18.8899 59.5504 19.9562C59.1044 20.7261 58.6675 21.5816 58.1298 22.327C57.3812 22.4401 56.6358 22.5226 55.8903 22.5989C57.5554 20.8697 58.64 18.5661 59.7826 16.4886C59.8468 16.3694 59.6635 16.2625 59.5993 16.3816C58.42 18.5203 57.2804 20.8666 55.5603 22.6295C54.0725 22.767 52.5846 22.8556 51.0631 22.935C45.8004 23.2008 40.525 23.064 35.2831 22.5256C33.9175 22.379 32.564 22.2659 31.2106 22.1712C31.7006 21.6659 32.1125 21.0903 32.4326 20.4634C33.0253 19.4613 33.5936 18.45 34.1497 17.4265C34.226 17.2799 34.0061 17.1485 33.9266 17.2951C33.4521 18.1628 32.9643 19.0234 32.4632 19.8768C31.9927 20.6772 31.568 21.5541 30.8317 22.1437C29.3347 22.0429 27.8377 21.9635 26.3284 21.884C24.8191 21.8046 23.2396 21.5785 21.7029 21.3769C22.2864 20.4848 22.7324 19.5071 23.2304 18.56C23.6602 17.7331 24.089 16.9041 24.5167 16.0731C24.5869 16.0364 24.6083 15.9875 24.5869 15.9386L25.0666 15.0221C25.1338 14.8907 24.9383 14.7746 24.8711 14.906C24.7061 15.2115 24.4709 15.5323 24.3059 15.847H24.1806V15.9448C23.8262 16.8007 23.4181 17.6334 22.9585 18.4378C22.4728 19.3543 22.0664 20.2953 21.4982 21.163C21.524 20.89 21.5793 20.6206 21.6631 20.3595C21.672 20.3283 21.6682 20.2948 21.6524 20.2665C21.6367 20.2381 21.6103 20.2172 21.5791 20.2083C21.5479 20.1993 21.5145 20.2032 21.4861 20.2189C21.4578 20.2347 21.4368 20.2611 21.4279 20.2923C21.319 20.6263 21.2573 20.9738 21.2446 21.3249C20.3769 21.221 19.5092 21.1355 18.6355 21.105C17.4806 21.0622 16.3166 21.0683 15.1525 21.105C15.1525 20.9339 15.1892 20.7628 15.2075 20.5886C15.2381 20.6986 15.2717 20.8086 15.3084 20.9186C15.3664 21.0958 15.6505 21.0194 15.5925 20.8391C15.4795 20.4839 15.3857 20.1229 15.3114 19.7576C15.3786 19.2749 15.455 18.7922 15.5497 18.3125C15.5742 18.1842 15.3756 18.1292 15.3511 18.2575C15.2931 18.563 15.2442 18.8441 15.1953 19.1374C15.0853 18.4592 15.012 17.7718 14.9387 17.0843C14.9204 16.9102 14.6332 16.9071 14.6668 17.0843C14.7384 18.0795 14.8721 19.0693 15.067 20.0479C15.0242 20.4023 14.9876 20.7597 14.9601 21.1141C14.6301 21.1294 14.3032 21.1416 13.9763 21.1599C13.9961 21.1445 14.0104 21.1231 14.0171 21.0988C14.0237 21.0746 14.0222 21.0489 14.013 21.0255C13.3592 19.4185 13.5516 17.5732 13.6372 15.8806C13.6384 15.8655 13.6366 15.8503 13.6319 15.8359C13.6272 15.8215 13.6196 15.8082 13.6096 15.7968C13.5996 15.7854 13.5875 15.7762 13.5738 15.7696C13.5602 15.763 13.5454 15.7592 13.5302 15.7584C13.9274 14.9671 14.3521 14.1941 14.7982 13.4334C14.8116 13.417 14.8189 13.3965 14.8189 13.3753C14.8189 13.3542 14.8116 13.3337 14.7982 13.3173L14.8195 13.2929C14.844 13.2623 15.0029 13.2348 15.0273 13.2043C15.1279 13.226 15.23 13.2393 15.3328 13.244V13.0026C15.6383 12.3916 16.4205 11.8142 17.0345 11.2306C17.1262 11.139 16.9215 11.0015 16.8298 11.087C15.3022 12.5138 13.5119 13.9986 12.7542 16.0028C12.7485 16.0188 12.7459 16.0359 12.7468 16.0529C12.7477 16.0699 12.752 16.0866 12.7593 16.102C12.7667 16.1173 12.7771 16.1311 12.7899 16.1424C12.8027 16.1537 12.8175 16.1623 12.8337 16.1678L12.9192 16.1953C12.9482 16.1939 12.9759 16.1832 12.9983 16.1647C13.0207 16.1463 13.0365 16.1211 13.0434 16.0929C13.0503 16.0647 13.0479 16.035 13.0365 16.0083C13.0251 15.9816 13.0054 15.9593 12.9803 15.9448C13.2851 15.4079 13.626 14.8925 14.0008 14.4019C13.4386 15.407 12.9131 16.4366 12.4395 17.4876C12.3143 17.7687 12.1829 18.0467 12.0485 18.3278C12.076 17.8848 12.1126 17.4449 12.1401 16.9988C12.1401 16.8369 11.9018 16.8399 11.8896 16.9988C11.8407 17.6587 11.7735 18.3217 11.7307 18.9877C11.6208 19.223 11.5108 19.4613 11.4252 19.6935C11.3297 19.8707 11.274 20.0667 11.2618 20.2677C11.2497 20.4687 11.2815 20.67 11.355 20.8575C11.3608 20.8798 11.3717 20.9005 11.3868 20.9179C11.402 20.9353 11.4209 20.949 11.4422 20.9578C11.4635 20.9667 11.4866 20.9705 11.5096 20.969C11.5326 20.9675 11.555 20.9607 11.5749 20.9491L11.743 20.83C11.7552 20.997 11.7735 21.165 11.798 21.3341L11.578 21.3585C11.5597 21.2791 11.5413 21.2027 11.5261 21.1263C11.4863 20.9369 11.2022 21.0164 11.2389 21.2058L11.2755 21.3891L10.5362 21.4441C10.561 21.4273 10.5803 21.4035 10.5917 21.3758C10.6031 21.3481 10.6061 21.3177 10.6003 21.2883C10.4231 20.0486 10.4293 18.7896 10.6187 17.5518C11.2666 16.3186 11.9805 15.1213 12.7573 13.965C12.8031 13.9008 12.739 13.8428 12.6779 13.8458C12.9589 13.4945 13.2553 13.1554 13.5425 12.8224C14.2836 11.9396 15.1219 11.1432 16.0416 10.4485C16.0905 10.4118 16.0416 10.3293 15.9927 10.366C15.0477 11.0418 14.1863 11.8274 13.4264 12.7063C12.687 13.5464 11.8591 14.4172 11.3794 15.4376C11.3714 15.4571 11.3683 15.4783 11.3704 15.4994C11.3725 15.5204 11.3798 15.5406 11.3916 15.5581C11.4034 15.5756 11.4193 15.59 11.4379 15.5999C11.4566 15.6097 11.4774 15.6149 11.4986 15.6148C11.2236 16.0649 10.9578 16.5191 10.7011 16.9774C10.7317 16.7605 10.7592 16.5466 10.7898 16.3297C10.8081 16.1739 10.5362 16.1372 10.5117 16.2931C10.4506 16.7483 10.3865 17.2096 10.3315 17.6587C9.84877 18.5753 9.39965 19.4918 8.98109 20.4511C8.96532 20.1271 8.97451 19.8023 9.00859 19.4796C9.03608 19.4368 9.06664 19.4002 9.09719 19.3574C9.10769 19.3429 9.11459 19.326 9.1173 19.3083C9.12002 19.2906 9.11848 19.2725 9.11281 19.2554C9.10714 19.2384 9.0975 19.223 9.08469 19.2105C9.07188 19.1979 9.05627 19.1886 9.03914 19.1832C9.1644 18.0406 9.43326 16.791 9.47909 16.5497C9.4826 16.5302 9.48167 16.5102 9.47638 16.4912C9.47109 16.4722 9.46157 16.4545 9.44853 16.4397L9.48519 16.3755C9.68073 16.0334 9.88848 15.6973 10.0962 15.3643C10.0987 15.3807 10.1046 15.3964 10.1135 15.4104C10.1224 15.4244 10.1341 15.4364 10.1479 15.4456C10.1618 15.4548 10.1773 15.461 10.1937 15.4638C10.21 15.4667 10.2268 15.4661 10.2429 15.462L10.3956 15.4254C10.4171 15.4187 10.4361 15.4059 10.4505 15.3886C10.4648 15.3713 10.4738 15.3502 10.4764 15.3279C10.479 15.3056 10.475 15.283 10.465 15.2629C10.455 15.2428 10.4394 15.226 10.4201 15.2146C11.413 13.3815 12.9223 11.3864 14.7646 10.3966C14.8715 10.3385 14.7646 10.1735 14.6668 10.2316C13.789 10.7365 13.0072 11.3922 12.3571 12.1686L12.2868 12.1502V12.3396C12.2868 12.4955 11.9385 12.6452 11.8102 12.8163C11.7762 12.7988 11.7377 12.7923 11.6999 12.7978C11.6621 12.8032 11.627 12.8204 11.5994 12.8468C10.555 14.1906 9.61829 15.6147 8.79778 17.1057C8.40977 17.8481 8.10731 18.6333 7.74069 19.3849C7.49933 19.8859 7.32519 20.1762 7.53294 20.7292C7.53984 20.7548 7.55331 20.7782 7.57202 20.7971C7.59074 20.816 7.61405 20.8296 7.63966 20.8367C7.66526 20.8438 7.69228 20.8441 7.71803 20.8376C7.74379 20.831 7.76739 20.8179 7.78652 20.7994C8.09217 20.5452 8.37438 20.264 8.62975 19.9593C8.59614 20.8514 8.75195 21.5418 9.34771 21.4869C9.53407 21.4655 9.54018 21.1813 9.34771 21.1813C9.15523 21.1813 9.0422 21.0072 9.00248 20.7078C9.02048 20.7184 9.04065 20.7248 9.06148 20.7264C9.08231 20.728 9.10323 20.7249 9.12267 20.7173C9.14211 20.7096 9.15955 20.6976 9.17366 20.6822C9.18777 20.6668 9.1982 20.6484 9.20412 20.6283C9.53408 19.8157 9.88543 19.0366 10.2582 18.2789C10.137 19.3081 10.1535 20.3489 10.307 21.3738C10.3091 21.3933 10.3157 21.412 10.3263 21.4284C10.337 21.4449 10.3513 21.4586 10.3681 21.4685L10.2093 21.4869C8.46782 21.7007 6.47585 22.0184 5.15295 20.5153C4.71107 19.8923 4.34781 19.2171 4.07142 18.505C4.12641 18.5997 4.2975 18.5386 4.25167 18.4286C4.07017 17.9723 3.98488 17.4835 4.00114 16.9927C4.36777 16.7605 4.73133 16.5252 5.09185 16.2839C5.03685 16.4489 5.0063 16.5955 4.97575 16.7483L4.95742 16.7391ZM72.816 28.6207L72.7213 28.8987C72.4689 29.016 72.2016 29.0982 71.9269 29.1431C70.3108 29.4487 68.4899 29.2348 66.8401 29.4028C64.011 29.6869 60.9191 29.8275 58.0839 30.4813C58.4506 29.7175 58.4567 28.6726 58.5483 27.9455C58.5487 27.8767 58.5308 27.8091 58.4964 27.7495C58.4621 27.6899 58.4125 27.6405 58.3528 27.6064L58.2917 27.5667C57.867 27.2917 57.4851 27.9638 57.8976 28.2419C57.7706 28.3547 57.6744 28.4981 57.6183 28.6585C57.5622 28.8189 57.5479 28.991 57.5768 29.1584C57.6072 29.3976 57.5465 29.6395 57.4067 29.836C57.2668 30.0324 57.0581 30.169 56.8221 30.2186C56.0522 30.7685 55.4473 30.6127 54.5369 30.6066C53.2583 30.6263 51.9816 30.712 50.7118 30.8632C49.3278 31.0007 47.9835 31.1687 46.6148 31.407C44.9171 31.7127 43.1708 31.6079 41.5218 31.1015C39.0196 30.4202 36.2577 29.8458 33.6578 29.8794C32.7412 29.8947 31.8247 29.9466 30.9081 29.9864C30.9129 29.9673 30.9129 29.9474 30.9081 29.9283L30.8165 29.0942C30.7981 28.9293 30.5384 28.9293 30.5568 29.0942L30.6484 29.9283C30.6519 29.9526 30.6614 29.9757 30.6759 29.9955C30.1168 30.0169 29.5547 30.0352 28.9956 30.0291C28.5098 30.0291 28.0271 30.0139 27.5413 29.9802L26.5148 28.4802C26.5917 28.1603 26.6387 27.8341 26.6553 27.5056C26.8091 27.5946 26.9733 27.6644 27.1441 27.7133C27.1728 28.3534 27.3006 28.9852 27.523 29.5861C27.578 29.7175 27.7949 29.6625 27.7399 29.5281C27.5227 28.9621 27.3909 28.367 27.3488 27.7622C27.6258 27.8056 27.9094 27.7707 28.1676 27.6614C28.3025 28.4089 28.5541 29.1306 28.9131 29.8C28.9925 29.9375 29.1972 29.8153 29.1269 29.6747C28.8076 28.993 28.5726 28.2748 28.4273 27.5361C29.1422 27.142 29.7746 26.3965 30.682 26.2193C31.7697 26.0055 33.3309 27.1603 34.4094 27.4628C35.2404 27.695 35.9369 27.7683 36.7466 27.3589C37.8464 26.8029 38.4422 25.5258 39.9545 25.8313C41.8243 26.204 41.6654 28.0036 42.6278 29.134C43.5443 30.1941 45.2094 30.075 46.294 29.3906C46.8663 28.9869 47.3464 28.4662 47.7024 27.863C48.0568 27.3528 48.3135 26.6898 48.839 26.5829C48.4968 27.3772 48.1607 28.0799 48.0568 28.0188C48.0263 28.0039 47.9915 28 47.9585 28.0078C47.9254 28.0156 47.8961 28.0347 47.8755 28.0618C47.8549 28.0888 47.8444 28.1222 47.8457 28.1561C47.847 28.1901 47.8601 28.2226 47.8827 28.248L48.0385 28.3977C48.0706 28.4296 48.114 28.4475 48.1592 28.4475C48.2044 28.4475 48.2478 28.4296 48.2799 28.3977C48.6307 27.9429 48.9033 27.4328 49.0864 26.8884L49.2025 26.5829C49.5114 26.6789 49.7959 26.8404 50.0366 27.0564C50.2199 27.2989 50.3825 27.5565 50.5224 27.8264C51.3075 28.8621 52.8535 29.7267 54.1886 29.247C54.9615 28.969 55.4107 28.2052 55.9881 27.6797C57.4026 26.4149 58.8172 26.7356 60.4853 27.0106C60.4836 27.0511 60.4954 27.091 60.5188 27.1241C60.5423 27.1572 60.576 27.1816 60.6148 27.1935C60.6535 27.2053 60.6951 27.204 60.7331 27.1897C60.771 27.1754 60.8031 27.149 60.8244 27.1145C60.8244 27.0992 60.8244 27.0839 60.8427 27.0687C62.6972 27.3436 63.2319 26.9617 64.509 25.7183C65.9968 24.2579 67.3564 25.15 69.0123 25.5991C69.1773 25.6724 69.3392 25.7427 69.5134 25.8008C69.5443 25.8126 69.5784 25.8137 69.61 25.8037C69.6417 25.7937 69.669 25.7733 69.6875 25.7458C70.5819 25.8819 71.4964 25.7764 72.3363 25.4402C72.6113 25.3394 72.8771 25.2172 73.146 25.092V25.1103C73.3598 26.4973 74.0625 27.9638 72.9474 28.7062C72.9474 28.6726 72.9688 28.6421 72.981 28.6115C73.0482 28.5657 72.8618 28.5168 72.8343 28.6299L72.816 28.6207ZM69.7211 30.9212C69.6508 31.1137 69.5745 31.3001 69.5042 31.4895C68.1407 31.9925 66.7303 32.3579 65.2941 32.5802C62.8281 32.987 60.3328 33.1914 57.8334 33.1912C57.7906 32.9957 57.7417 32.7971 57.6959 32.6016C57.8377 32.3312 57.9503 32.0465 58.032 31.7522C58.0502 31.6845 58.0527 31.6135 58.0392 31.5447C58.0256 31.4759 57.9965 31.4111 57.954 31.3554C57.9115 31.2996 57.8568 31.2543 57.794 31.223C57.7313 31.1917 57.6622 31.1752 57.5921 31.1748H57.5187C57.6207 31.1058 57.7131 31.0236 57.7937 30.9304C60.0148 30.4966 62.4926 30.6066 64.6953 30.4263C66.8981 30.246 69.1498 30.3377 71.3678 30.2247C71.3129 30.3713 71.2579 30.5302 71.2029 30.6768C70.7614 30.9318 70.3031 31.1564 69.8311 31.349C69.88 31.2268 69.935 31.1107 69.9839 30.9885C70.0327 30.8662 69.8067 30.7654 69.7394 30.9304L69.7211 30.9212ZM60.3998 36.2617C60.4405 36.4431 60.5063 36.6179 60.5953 36.7811C60.6076 36.8087 60.63 36.8306 60.6579 36.8423C60.6858 36.8541 60.7171 36.8548 60.7454 36.8443C60.7738 36.8338 60.7971 36.8129 60.8107 36.7858C60.8242 36.7588 60.8269 36.7276 60.8183 36.6986C60.7633 36.5305 60.7175 36.3534 60.6656 36.1884C61.4954 36.1821 62.3244 36.1342 63.1494 36.0448C62.5812 36.3197 62.1809 36.9247 61.4691 37.2394C60.2256 37.7923 59.6787 36.3381 58.5758 36.4786V36.4297C58.5757 36.417 58.5729 36.4045 58.5676 36.3929C58.5623 36.3813 58.5547 36.371 58.5453 36.3625C58.5269 36.2953 58.5147 36.2709 58.4964 36.2006C59.1899 36.225 59.8437 36.2617 60.3723 36.2617H60.3998ZM58.3742 36.5214C58.3467 36.5214 58.3192 36.5214 58.2886 36.5458C57.3446 36.888 56.6663 38.2567 55.7162 38.4461C55.0318 38.5806 53.9411 38.0826 53.5226 37.7007C53.2598 37.4624 53.1987 37.1355 52.8749 36.9369C51.9583 36.3778 51.0601 36.9613 50.2993 37.4929C48.9031 38.4675 47.8063 39.4085 46.1871 37.6213C45.8479 37.2424 45.6707 36.7475 45.1025 36.6436C44.8838 36.6174 44.6621 36.6373 44.4516 36.702C44.2411 36.7668 44.0466 36.8749 43.8804 37.0194C43.9476 36.8055 43.9598 36.5244 43.5749 36.5244C42.8447 36.5244 42.8386 37.2394 43.5504 37.2577C43.0372 37.6732 42.5331 38.1742 42.0229 38.3606C38.6622 39.6071 40.6144 36.1181 38.6408 36.0601C38.0756 36.0601 37.7823 36.6375 37.3851 36.9155C36.6213 37.4532 36.2394 38.8494 34.6843 37.1171C34.4063 36.8116 34.4949 36.2647 34.2383 35.9531C33.5264 35.0885 32.839 35.6476 32.1363 36.2586C30.8226 37.4165 29.3866 38.883 27.746 37.1752C27.3274 36.7444 27.303 36.0234 26.7042 35.724C26.4915 35.6063 26.2494 35.5521 26.0068 35.5678C25.7642 35.5835 25.5312 35.6685 25.3355 35.8126C25.2957 35.4276 25.2927 35.061 25.2866 34.9388C25.28 34.8814 25.2526 34.8285 25.2095 34.79C25.1664 34.7516 25.1106 34.7303 25.0529 34.7303C24.9951 34.7303 24.9394 34.7516 24.8963 34.79C24.8532 34.8285 24.8257 34.8814 24.8191 34.9388C24.7814 35.3747 24.7742 35.8126 24.7978 36.2495C24.5238 36.5346 24.2264 36.7962 23.9087 37.0316C21.3026 38.7119 21.4493 34.6669 19.7017 34.0864C19.573 34.0423 19.4376 34.0206 19.3015 34.0223L19.5673 33.6067C19.775 33.2829 19.2618 32.9957 19.0571 33.3012C18.7667 33.694 18.4975 34.1019 18.2505 34.5233C17.8298 34.9958 17.4901 35.5347 17.2454 36.1181C17.172 36.28 17.0529 36.8452 16.9398 36.9461C16.1638 37.5876 15.7941 36.5275 15.3022 36.0875C15.0379 35.8409 14.7382 35.6349 14.4132 35.4765C14.6759 35.3482 14.9234 35.171 15.1373 35.0641C16.0407 34.5582 16.9057 33.9863 17.725 33.3532C17.7785 33.3188 17.8205 33.2693 17.8457 33.2109C17.871 33.1526 17.8784 33.0881 17.8669 33.0256C17.8555 32.9631 17.8257 32.9054 17.7814 32.8598C17.7371 32.8142 17.6803 32.7828 17.6181 32.7696C17.8594 32.6383 18.0977 32.5038 18.3299 32.3541C18.7101 32.0625 19.0732 31.7493 19.4176 31.4162C19.4024 31.6912 19.4085 31.967 19.4359 32.2411C19.4359 32.3358 19.5887 32.3358 19.5795 32.2411C19.5505 31.926 19.5505 31.609 19.5795 31.294C19.6437 31.239 19.7109 31.1901 19.775 31.1443C20.0775 31.5124 20.4151 31.8501 20.7832 32.1525C20.7344 32.736 20.7038 33.3226 20.6977 33.9092C20.7022 33.9371 20.7165 33.9626 20.7381 33.9809C20.7596 33.9993 20.787 34.0093 20.8153 34.0093C20.8436 34.0093 20.871 33.9993 20.8926 33.9809C20.9141 33.9626 20.9284 33.9371 20.933 33.9092C20.933 33.3654 20.933 32.8277 20.933 32.29C21.2924 32.5713 21.67 32.8285 22.0634 33.0599C22.0374 33.4555 22.0313 33.8521 22.045 34.2483C21.767 35.3665 21.5287 36.7566 22.6561 37.1691C22.986 37.2882 23.1999 36.7689 22.8944 36.6039C21.9076 36.0814 22.5216 34.2606 22.6469 33.3837L22.8608 33.4876C22.8837 34.0822 22.9865 34.671 23.1663 35.2382C23.2091 35.3574 23.426 35.3513 23.4076 35.2046C23.3435 34.6883 23.2763 34.1781 23.2152 33.677L23.4932 33.8023C23.5513 34.3193 23.6535 34.8303 23.7987 35.3299C23.8384 35.4551 24.0553 35.4429 24.0401 35.2963C23.9942 34.8441 23.9179 34.3797 23.8323 33.9398C25.2752 34.5186 26.7771 34.9376 28.3112 35.1893C28.0851 35.171 27.8377 35.4154 28.0057 35.6354L28.412 36.17C28.6106 36.4267 29.0231 36.2067 28.8611 35.9073L28.5617 35.3512C28.5433 35.317 28.5177 35.2873 28.4865 35.264C28.4554 35.2408 28.4195 35.2247 28.3815 35.2168C28.7573 35.281 29.1269 35.336 29.4752 35.3757C31.9194 35.6598 34.1863 35.5407 36.2394 34.7005C37.9595 35.2657 39.5757 35.9776 41.4332 36.2098C43.8783 36.5343 46.3479 36.6366 48.8115 36.5153C50.4979 36.4206 52.7282 36.1028 54.598 35.2932C55.5145 35.9226 56.9382 36.1089 58.2642 36.1639C58.2947 36.277 58.3314 36.4145 58.3742 36.5214ZM9.35993 33.7717C9.29577 33.5762 9.23467 33.3776 9.17968 33.1943C9.12468 33.011 8.87416 33.0813 8.9261 33.2432C8.97804 33.4051 9.0483 33.5915 9.11246 33.7656H8.73362C8.61753 33.4601 8.49226 33.1546 8.367 32.8735C10.2217 32.9642 12.0803 32.8153 13.8969 32.4305C15.1407 32.2089 16.3223 31.7223 17.3615 31.0037C17.8839 30.6157 18.5071 30.2613 18.5163 29.5861C18.5154 29.5376 18.5017 29.4902 18.4766 29.4487C18.9196 29.4487 19.3595 29.4487 19.7964 29.4487C19.6664 29.8971 19.5644 30.3532 19.4909 30.8143C18.5744 31.5659 17.7495 32.2686 16.5518 32.6871C14.8982 33.2323 13.1853 33.578 11.4497 33.7167C10.7547 33.7753 10.0571 33.7957 9.35993 33.7778V33.7717ZM5.99923 33.6556C5.86786 33.4601 5.75177 33.1546 5.67539 33.0171L5.45541 32.6016C5.97785 32.6719 6.49723 32.7299 7.01966 32.7727C7.15409 33.0782 7.28241 33.3837 7.40768 33.6892L7.04716 33.6709C6.69276 33.6648 6.34447 33.6648 5.99313 33.6648L5.99923 33.6556ZM7.65819 33.7015L7.64292 33.6648C7.50849 33.3746 7.38017 33.0843 7.2488 32.7941C7.53599 32.8185 7.82624 32.8338 8.11342 32.8491C8.23257 33.1546 8.34256 33.4418 8.44949 33.7412L7.65819 33.7015ZM17.5264 26.699C17.062 25.6602 16.7107 24.5879 16.3044 23.5277C16.2524 23.3963 16.0355 23.4513 16.0874 23.5858C16.3043 24.1449 16.4907 24.7223 16.6985 25.2936C16.6307 25.212 16.5572 25.1355 16.4785 25.0645C16.0351 24.7092 15.4909 24.5029 14.9234 24.4748C14.842 24.4704 14.7604 24.4704 14.679 24.4748C14.3693 23.7479 14.1508 22.9854 14.0282 22.2048C14.3236 22.1885 14.6199 22.1763 14.9173 22.1682C14.9173 22.2843 15.0945 22.2843 15.1006 22.1682C17.515 22.0962 19.9311 22.2291 22.3231 22.5653C25.1644 22.9778 27.9935 23.0053 30.847 23.2252C33.5783 23.433 36.2791 23.8607 39.0104 24.0593C38.375 24.5237 37.7303 24.9759 37.0674 25.3975C36.9268 25.4861 37.0674 25.703 37.1957 25.6205C37.9791 25.1523 38.7369 24.6424 39.4657 24.0929C39.704 24.1082 39.9392 24.1265 40.1775 24.1357C41.4454 24.1907 42.7103 24.2273 43.9812 24.2518C43.5382 24.8628 42.5942 26.146 42.1237 26.3079C41.768 25.8612 41.313 25.5037 40.7948 25.264C40.2765 25.0242 39.7095 24.9088 39.1388 24.927C38.5309 24.9874 37.951 25.2124 37.4615 25.5777C36.3249 26.3263 35.8117 26.7387 34.3055 26.2804C32.7993 25.8221 31.5558 24.7253 29.958 25.4525C29.4325 25.6908 29.1208 26.2163 28.6351 26.4637C28.5128 26.5248 28.3967 26.5768 28.2868 26.6196V26.5951C28.2501 26.424 27.9812 26.4973 28.0271 26.6654V26.7082C27.7919 26.7854 27.542 26.8074 27.2969 26.7723C27.2837 26.7524 27.2637 26.7379 27.2406 26.7317C27.2175 26.7256 27.193 26.728 27.1716 26.7387C27.0284 26.6977 26.8946 26.6292 26.7775 26.5371C26.7775 26.3996 26.805 26.2682 26.8264 26.1429C26.8814 25.8191 26.4017 25.6724 26.3253 26.0055C26.076 25.5644 25.8048 25.1362 25.5127 24.7223C24.865 23.9188 24.0584 23.5399 23.2152 24.2976C22.6041 24.8506 22.4483 25.7519 21.8953 26.3476C21.1254 27.1786 19.4115 27.6736 18.3391 27.2917C18.0131 27.1836 17.7275 26.979 17.5203 26.7051L17.5264 26.699ZM9.56157 25.5227C9.33462 24.5845 9.18643 23.629 9.11857 22.6661C9.38437 22.6448 9.65323 22.6173 9.91903 22.5837C10.1023 23.0419 10.2246 23.5277 10.3712 23.9952C10.5912 24.6612 10.8264 25.318 11.08 25.9719H11.0525C10.2307 26.2713 9.8396 26.0055 9.55547 25.5289L9.56157 25.5227ZM11.3733 25.8527C11.0678 25.1133 10.7928 24.3709 10.5392 23.6194C10.4201 23.2558 10.3193 22.8983 10.1848 22.5501L11.4527 22.382C11.4986 22.6295 11.5413 22.88 11.5902 23.1305C11.6238 23.32 12.0607 24.9392 11.9477 25.0034C11.916 25.0208 11.8918 25.0494 11.88 25.0836C11.8681 25.1178 11.8693 25.1552 11.8833 25.1886C11.8973 25.222 11.9232 25.249 11.956 25.2644C11.9887 25.2799 12.026 25.2826 12.0607 25.2722L12.1554 25.2478C12.189 25.2389 12.2187 25.2191 12.2398 25.1914C12.2608 25.1637 12.272 25.1298 12.2715 25.095C12.1644 24.1696 12.0022 23.2514 11.7858 22.3454C11.9813 22.3209 12.1768 22.3026 12.3632 22.2873C12.526 23.1801 12.7485 24.0609 13.0292 24.9239C12.4793 25.2203 11.966 25.593 11.3672 25.8588L11.3733 25.8527ZM12.0638 21.3005C12.0363 21.0713 12.0179 20.8453 12.0057 20.6161C12.0224 20.6021 12.0359 20.5845 12.0451 20.5647C12.0543 20.545 12.0591 20.5234 12.0591 20.5016C12.0591 20.4797 12.0543 20.4582 12.0451 20.4384C12.0359 20.4186 12.0224 20.401 12.0057 20.387C12.0057 19.9684 12.0057 19.5499 12.0057 19.1283C12.079 18.9786 12.1463 18.8227 12.2013 18.7066C12.4793 18.0284 12.7634 17.3532 13.075 16.6872C13.1667 16.4886 13.2614 16.293 13.3592 16.0975C13.2553 17.7381 13.0537 19.611 13.7502 21.1355C13.7568 21.1486 13.7662 21.16 13.7777 21.1691C13.2033 21.2058 12.632 21.2496 12.0638 21.3005ZM11.7094 20.4817L11.5872 20.5611C11.5689 20.3123 11.6076 20.0626 11.7002 19.8309C11.6961 20.0489 11.6992 20.2658 11.7094 20.4817ZM13.2981 24.7864C13.0332 23.9614 12.816 23.1219 12.6473 22.272L13.7258 22.2109C13.8306 22.9957 14.0509 23.7606 14.3796 24.4809C13.9998 24.517 13.6294 24.6204 13.2858 24.7864H13.2981ZM44.2501 28.1196C45.4755 27.0294 46.4877 25.721 47.235 24.261C48.1515 24.261 49.0681 24.2365 49.9846 24.206C51.3931 24.1601 52.7954 24.1082 54.1916 24.0104C54.2289 25.3673 54.185 26.7252 54.0603 28.0769C53.7813 28.2748 53.4444 28.3744 53.1026 28.36C52.7609 28.3457 52.4335 28.2181 52.1722 27.9974C52.2245 27.8466 52.2623 27.6911 52.2852 27.533C52.4288 26.6501 52.6366 25.7763 52.8382 24.9056C52.8871 24.6856 52.548 24.6001 52.496 24.8109C52.3616 25.3914 52.2322 25.9719 52.108 26.5523C52.0534 26.9528 51.9666 27.3482 51.8483 27.7347C51.0876 27.0534 50.4093 26.0268 49.6272 25.7091C49.7677 25.3486 49.9022 24.985 50.0396 24.6215C50.1099 24.4351 49.8136 24.3557 49.7341 24.539C49.6913 24.649 49.5203 25.092 49.3064 25.6236C48.7962 25.5563 48.2371 25.8191 47.5802 26.6868C47.0547 27.3803 46.7065 28.2419 45.9457 28.7398C44.6595 29.5861 43.5016 28.6207 42.7805 27.5178C42.6903 27.3359 42.6127 27.1481 42.5484 26.9556C42.4934 26.8487 42.4292 26.7479 42.362 26.6501C43.1135 26.2865 44.0332 24.817 44.3967 24.2518C45.2613 24.2518 46.129 24.2701 46.9967 24.2518C46.2537 25.6433 45.2472 26.8771 44.0332 27.8844C43.8621 28.0188 44.0912 28.2541 44.2501 28.1196ZM64.8573 22.3606C65.3278 22.7914 65.7891 23.2436 66.2596 23.6805C65.8978 23.5589 65.5077 23.5492 65.1404 23.6528C64.773 23.7563 64.4454 23.9683 64.2004 24.261C64.0013 24.0291 63.7734 23.8238 63.5221 23.6499C63.0944 23.3444 62.6667 23.0389 62.2573 22.715C63.1413 22.5114 64.0212 22.3077 64.897 22.104C64.87 22.1106 64.8455 22.125 64.8267 22.1455C64.8079 22.166 64.7956 22.1916 64.7914 22.219C64.7871 22.2465 64.7911 22.2746 64.8028 22.2998C64.8146 22.325 64.8335 22.3462 64.8573 22.3606ZM61.8449 22.8158C62.0282 22.9686 62.2115 23.1214 62.4009 23.2619C62.9111 23.653 63.5771 24.0104 63.9468 24.5451C63.4122 25.205 63.2502 25.9046 62.0648 26.0513C61.6188 26.1063 61.0658 25.9199 60.6045 25.8435L60.4578 25.8191C60.4181 25.761 60.3845 25.7061 60.3539 25.6572C59.8679 24.8515 59.2322 24.1463 58.4811 23.5796C58.3222 23.4544 58.1023 23.7385 58.2642 23.8638C58.8626 24.3142 59.3793 24.8639 59.7918 25.4891L59.9537 25.7305C59.317 25.5897 58.6656 25.5261 58.0137 25.5411C56.2447 25.6511 55.6184 26.809 54.436 27.7714C54.5766 26.534 54.4727 25.1897 54.436 23.9768C55.7763 23.8828 57.1111 23.7217 58.4353 23.4941C59.5963 23.3047 60.7206 23.0694 61.8449 22.8281V22.8158ZM28.6595 30.9487C30.9173 31.0893 33.1842 30.7257 35.4389 30.9243C36.105 30.9823 36.7863 31.074 37.4706 31.187C37.0185 31.4712 36.5816 31.8928 36.2791 32.0211C34.669 32.6963 32.5274 32.9377 30.8134 33.0385C28.0882 33.1943 25.1674 32.3022 22.5094 31.2909C22.5094 31.2145 22.5094 31.1382 22.5094 31.0618C22.5094 30.8785 22.2406 30.8815 22.2284 31.0618C22.2284 31.1015 22.2284 31.1412 22.2284 31.184L21.049 30.7165C21.0765 30.4966 21.0979 30.2766 21.1315 30.0566C21.1315 29.9925 21.046 29.965 21.0338 30.0291C20.9991 30.2328 20.9686 30.4467 20.9421 30.6707L20.5511 30.5149H20.5297C20.5144 30.4658 20.4869 30.4213 20.4498 30.3857C20.4128 30.35 20.3673 30.3243 20.3176 30.3108C20.2679 30.2974 20.2157 30.2968 20.1657 30.309C20.1157 30.3211 20.0696 30.3457 20.0317 30.3805C19.8973 30.4844 19.7689 30.5913 19.6406 30.686C19.6773 30.4599 19.72 30.2338 19.775 30.0047C19.8086 29.8641 19.8423 29.6595 19.8942 29.4487C20.7854 29.4723 21.6728 29.5746 22.5461 29.7542C23.536 29.965 24.7153 30.2277 25.6654 29.7083C25.6899 29.7083 25.7113 29.6778 25.7357 29.6625C25.7585 29.8189 25.8114 29.9693 25.8915 30.1055C26.4231 30.961 27.7857 30.8937 28.6595 30.9487ZM56.2905 31.5751C56.4176 31.5654 56.544 31.5491 56.6694 31.5262C56.6694 31.7492 56.703 31.9753 56.7213 32.1983C56.4575 32.558 56.1553 32.8879 55.82 33.1821C55.7747 33.1906 55.7325 33.2113 55.6981 33.242C55.6636 33.2726 55.6382 33.3121 55.6245 33.3562C53.2354 35.2993 49.4622 35.5987 46.5537 35.6109C44.6678 35.6435 42.7816 35.566 40.9047 35.3787C40.7519 35.3604 40.5991 35.339 40.4433 35.3146C40.4639 35.3123 40.4831 35.3032 40.4978 35.2886C40.5125 35.2741 40.5218 35.255 40.5243 35.2345C40.5268 35.2139 40.5222 35.1932 40.5114 35.1756C40.5006 35.1579 40.4841 35.1445 40.4647 35.1374C40.2936 35.0763 40.1592 34.5508 40.0675 34.1261C40.3883 34.2422 40.7122 34.343 41.0421 34.4316C41.0757 34.5202 41.1124 34.6119 41.1491 34.7036C41.2071 34.8563 41.4546 34.7952 41.3965 34.6363L41.3507 34.5111C46.2665 35.7331 51.8728 34.2606 56.2905 32.2472C56.352 32.2152 56.4036 32.1669 56.4395 32.1077C56.4755 32.0484 56.4945 31.9804 56.4945 31.9111C56.4945 31.8418 56.4755 31.7738 56.4395 31.7146C56.4036 31.6553 56.352 31.607 56.2905 31.5751ZM57.0452 31.6973C57.0177 31.7461 56.9871 31.7889 56.9566 31.8378C56.9566 31.7095 56.9382 31.5842 56.926 31.459C57.0024 31.4376 57.0818 31.4192 57.1521 31.3917C57.0802 31.477 57.0422 31.5858 57.0452 31.6973ZM56.8863 33.8359C56.9566 34.3705 57.0391 34.9021 57.149 35.4307C56.4344 35.3735 55.7261 35.2549 55.0318 35.0763C55.684 34.7556 56.2827 34.3362 56.8069 33.8328L56.8863 33.8359ZM37.4004 34.1414C37.4922 34.3357 37.6006 34.5217 37.7242 34.6974C37.4187 34.618 37.1132 34.5386 36.7893 34.4652C36.9971 34.3614 37.1987 34.2514 37.4004 34.1383V34.1414ZM37.9381 34.618C37.8053 34.4329 37.6888 34.2366 37.5898 34.0314C37.8953 33.8481 38.2008 33.6495 38.4789 33.4204L38.7844 33.5793C38.9066 34.0834 39.0532 34.5783 39.2243 35.0702C38.7844 34.9663 38.3444 34.8533 37.9045 34.7402C37.9149 34.7342 37.9241 34.7262 37.9314 34.7166C37.9387 34.7071 37.9441 34.6962 37.9472 34.6846C37.9504 34.6729 37.9512 34.6608 37.9496 34.6488C37.948 34.6369 37.9441 34.6254 37.9381 34.615V34.618ZM39.3282 32.733C39.3731 32.6901 39.4112 32.6407 39.4412 32.5863L39.7467 33.6984C39.4993 33.622 39.2549 33.5365 39.0104 33.4418C38.983 33.3196 38.9524 33.2004 38.9249 33.0751C39.0654 32.9621 39.1968 32.8491 39.3282 32.7299V32.733ZM38.7416 33.344L38.6591 33.3104L38.7202 33.2585C38.7294 33.2737 38.7355 33.3012 38.7416 33.3287V33.344ZM39.5359 35.1557C39.4168 34.7188 39.2304 34.288 39.1082 33.8512L39.0807 33.7351C39.3343 33.8512 39.5879 33.9581 39.8445 34.0559C39.8842 34.1933 39.9239 34.3339 39.9606 34.4714C40.04 34.7922 40.0064 35.2107 40.3608 35.3146C40.0828 35.2565 39.8078 35.1924 39.5359 35.1404V35.1557ZM47.1128 34.1383C45.1422 34.3125 43.1105 34.398 41.1674 34.0528C41.0024 33.6006 40.8374 33.1362 40.6664 32.7024C40.5991 32.5313 40.3181 32.6077 40.3853 32.7818L40.8588 34.0039C40.5533 33.9428 40.2753 33.8725 39.9851 33.7901C39.9851 33.729 39.9606 33.677 39.9515 33.6434C39.8048 33.121 39.6643 32.5985 39.5237 32.0761C39.5184 32.0559 39.5075 32.0377 39.4923 32.0234C39.477 32.0092 39.4581 31.9996 39.4376 31.9958C39.4171 31.992 39.3959 31.994 39.3766 32.0017C39.3572 32.0095 39.3404 32.0225 39.3282 32.0394C39.2451 31.9569 39.138 31.9026 39.0222 31.8845C38.9064 31.8664 38.7879 31.8854 38.6835 31.9386C38.6702 31.9204 38.6517 31.9066 38.6305 31.899C38.6093 31.8914 38.5863 31.8903 38.5644 31.8958C38.6091 31.8603 38.6456 31.8155 38.6713 31.7645L38.7385 31.6392C38.7688 31.5834 38.7875 31.5221 38.7935 31.459C39.8445 31.6759 40.8894 31.9356 41.8762 32.2166C45.6157 33.286 49.5936 31.7492 53.4034 31.5445C54.0511 31.5109 54.931 31.63 55.7437 31.627C52.8932 32.9377 50.2932 33.8451 47.1128 34.1231V34.1383ZM38.4636 32.0333V32.0822C35.9003 34.1964 33.0437 34.6486 29.7716 34.3858C28.1065 34.2514 26.5209 33.7442 24.92 33.2982C24.5075 33.1821 24.0859 33.0599 23.6704 32.9285C23.6521 32.8246 23.6307 32.7177 23.6154 32.623C23.5879 32.4488 23.3282 32.5252 23.3527 32.6932C23.3527 32.7421 23.3527 32.791 23.374 32.8399L23.1296 32.7574C23.1052 32.5099 23.0838 32.2625 23.0655 32.0119C23.0655 31.8378 22.7813 31.8347 22.7936 32.0119C22.8058 32.1891 22.8149 32.4336 22.8241 32.6474L22.4269 32.4947C22.4453 32.1891 22.4636 31.8836 22.485 31.5781C24.9291 32.6688 27.4863 33.7809 30.1443 33.8328C31.7118 33.826 33.2739 33.6498 34.8035 33.3073C35.5581 33.1546 36.4013 33.0293 37.0918 32.678C37.1498 32.6505 37.8648 32.128 38.1275 31.9233C38.184 31.9533 38.2469 31.969 38.3108 31.969C38.3747 31.969 38.4377 31.9533 38.4941 31.9233C38.4827 31.9361 38.474 31.9511 38.4688 31.9674C38.4635 31.9838 38.4617 32.001 38.4636 32.018V32.0333ZM21.0307 30.9151L22.21 31.4376L22.1275 32.3541C21.7268 32.1797 21.3398 31.9754 20.9696 31.7431C20.9849 31.4467 21.0032 31.1748 21.0307 30.9151ZM20.8291 31.6362C20.5481 31.4544 20.2825 31.2501 20.0347 31.0251C20.1317 30.9753 20.2342 30.9373 20.3403 30.9121C20.3907 30.9045 20.4376 30.8817 20.4747 30.8468C20.5118 30.8118 20.5374 30.7664 20.548 30.7165C20.6702 30.7654 20.7955 30.8204 20.9207 30.8754C20.8841 31.1107 20.8535 31.3673 20.8291 31.6239V31.6362ZM13.738 34.2147C14.5464 34.0284 15.3407 33.7854 16.1149 33.4876C16.4571 33.3562 16.7962 33.2096 17.1262 33.0538C16.5152 33.5487 15.9041 34.0314 15.2503 34.4775C14.8457 34.7997 14.4223 35.0976 13.9824 35.3696L13.8938 35.3543C13.5112 35.3002 13.1212 35.3443 12.7604 35.4826C13.072 35.2647 13.3775 35.0447 13.6769 34.8227C13.7264 34.7896 13.768 34.7459 13.7986 34.6948C13.8293 34.6436 13.8482 34.5864 13.854 34.527C13.8599 34.4677 13.8525 34.4079 13.8324 34.3518C13.8124 34.2956 13.7801 34.2447 13.738 34.2025V34.2147ZM57.4271 35.4643C57.3262 34.9296 57.2438 34.395 57.1735 33.8573L57.7295 33.8848C57.8365 34.4255 57.9403 34.9663 58.0717 35.4948C57.8548 35.4765 57.6409 35.4674 57.4271 35.4521V35.4643ZM57.3507 33.2126C57.4179 33.121 57.479 33.0263 57.5371 32.9316C57.5584 33.0263 57.5768 33.1179 57.5951 33.2096L57.3507 33.2126ZM71.6123 30.2399L71.9453 30.2216C71.8017 30.3255 71.6398 30.4202 71.4962 30.5271C71.542 30.411 71.5756 30.3194 71.6123 30.2277V30.2399ZM73.4729 23.9463C72.1805 24.4534 71.099 25.1317 69.6356 24.7864C68.719 24.5665 67.8025 24.1754 66.9042 23.8699C66.2749 23.3169 65.6822 22.712 65.0711 22.1529C65.0448 22.1295 65.0115 22.1156 64.9764 22.1132L67.8483 21.438C68.4593 21.2913 69.0887 21.16 69.7089 21.0286C71.0623 21.9971 72.5349 22.7761 73.8395 23.8057C73.7234 23.8516 73.6042 23.8882 73.4729 23.9463ZM11.7277 15.2268C11.9157 14.8726 12.1323 14.5344 12.3754 14.2155C12.1524 14.5516 11.9385 14.8907 11.7277 15.2268ZM8.64808 19.504C8.37899 19.8359 8.08039 20.1426 7.75596 20.4206C7.6918 19.7515 8.24479 18.893 8.49837 18.3064C8.67251 17.9062 8.86194 17.5182 9.06358 17.1332C8.87701 17.9112 8.73825 18.6999 8.64808 19.4949V19.504ZM1.38591 23.4513C0.583418 23.0847 0.570187 22.6 1.3462 21.9971C1.86144 21.5351 2.47774 21.2003 3.1457 21.0194C3.47566 20.888 3.80256 20.778 4.11114 20.6314C4.3862 21.1336 4.76787 21.5695 5.22933 21.9085C6.27115 22.6753 7.5696 22.7853 8.89555 22.6967C8.93832 23.3077 8.99942 23.9035 9.09107 24.4901C8.84971 23.9035 8.55031 23.323 7.92705 23.0572C6.50639 22.4462 4.71911 23.543 3.34428 23.8332H3.27707L3.3229 23.6744C3.32631 23.6623 3.32731 23.6497 3.32586 23.6373C3.3244 23.6249 3.32052 23.6129 3.31442 23.6019C3.30832 23.591 3.30012 23.5814 3.29031 23.5737C3.28049 23.5659 3.26925 23.5601 3.25721 23.5567C3.24517 23.5533 3.23258 23.5523 3.22016 23.5538C3.20773 23.5552 3.19571 23.5591 3.18479 23.5652C3.17387 23.5713 3.16426 23.5795 3.1565 23.5893C3.14875 23.5991 3.143 23.6104 3.13959 23.6224C3.11209 23.708 3.08765 23.7935 3.06321 23.8791C2.88296 23.9157 2.73631 23.9432 2.60493 23.9585C2.64771 23.9157 2.68437 23.876 2.7302 23.8363C2.75254 23.8204 2.76813 23.7967 2.77394 23.7699C2.77974 23.7431 2.77532 23.7151 2.76155 23.6914C2.74779 23.6677 2.72566 23.65 2.69951 23.6418C2.67337 23.6335 2.64508 23.6353 2.62021 23.6469C2.45689 23.7255 2.30649 23.8285 2.17415 23.9524C1.87381 23.849 1.60324 23.6738 1.38591 23.4422V23.4513ZM3.01127 27.5086L1.88391 25.981C1.80951 25.5884 1.852 25.1826 2.00611 24.8139C2.27471 24.8273 2.54397 24.813 2.80963 24.7712C2.60187 25.6327 2.5255 26.5096 2.94101 27.3375C3.00516 27.4628 3.19153 27.3528 3.13043 27.2245C2.74853 26.4087 2.82491 25.5716 3.02349 24.7437C3.98282 24.5665 4.92381 24.1326 5.86786 23.9952C9.46381 23.4208 7.60015 26.9465 9.90987 27.2428C11.2022 27.4078 12.2868 26.2926 13.3683 25.816C14.3979 25.3639 15.3084 25.318 16.1485 26.4271C16.3593 26.702 16.4143 27.0839 16.6282 27.3681C16.8679 27.6823 17.1753 27.9386 17.5275 28.1179C17.8797 28.2972 18.2678 28.3949 18.6629 28.4038C20.0439 28.5199 21.6784 28.0035 22.5797 26.9159C23.481 25.8283 23.6185 24.0563 25.3019 25.9596C25.6074 26.314 25.8121 26.7173 26.1023 27.0626C25.8885 28.2846 25.6165 29.3142 23.7712 29.247C22.7997 29.2134 21.8923 28.749 20.9116 28.694L20.2639 28.6696C20.3368 28.5971 20.431 28.55 20.5327 28.5351C20.5847 28.5351 20.5877 28.4465 20.5327 28.4496C20.4527 28.4536 20.3744 28.4748 20.3032 28.5117C20.2321 28.5486 20.1697 28.6003 20.1203 28.6635C18.2322 28.6207 16.3196 28.7612 14.4346 28.7124C12.2043 28.6574 9.90681 28.1777 7.71319 27.7958C6.7739 27.6056 5.81801 27.5094 4.85966 27.5086C4.46554 27.4872 3.37484 27.6828 3.01127 27.4994V27.5086ZM2.78825 30.2308C2.83713 29.7175 3.31679 29.0515 3.90339 28.5932C4.69162 28.5688 5.50735 28.4496 6.11533 28.4985C8.04315 28.6604 10.0015 29.0637 11.9202 29.3509C13.8999 29.6564 15.9225 29.5067 17.9328 29.4609C17.2545 30.188 15.6933 30.8449 14.8256 31.1229C13.2299 31.6195 11.5742 31.897 9.90375 31.9478C8.36209 31.9778 6.82011 31.9084 5.28738 31.74C4.7732 31.7226 4.26178 31.6572 3.75979 31.5445C3.64675 31.239 3.54898 30.9335 3.45427 30.5943C3.439 30.5424 3.36261 30.5668 3.37178 30.6188C3.42983 30.9029 3.49704 31.1931 3.57342 31.4834C3.30959 31.4075 3.08326 31.2366 2.93822 31.0035C2.79318 30.7704 2.73975 30.4918 2.78825 30.2216V30.2308ZM2.48273 31.7156C2.87866 32.0385 3.34924 32.257 3.85144 32.3511C3.98851 32.6966 4.16593 33.0248 4.37999 33.3287C4.39581 33.3494 4.41866 33.3637 4.44423 33.3687C4.46981 33.3738 4.49634 33.3693 4.51886 33.3562C4.54138 33.3431 4.55832 33.3222 4.5665 33.2974C4.57469 33.2727 4.57355 33.2458 4.56331 33.2218C4.39286 32.9618 4.24075 32.6903 4.10808 32.4091C4.24862 32.4397 4.39221 32.4641 4.53275 32.4885C4.68857 32.8552 4.83827 33.2248 4.98186 33.5915C5.02464 33.6954 5.18656 33.6587 5.15295 33.5456C5.04602 33.2004 4.92076 32.8643 4.78633 32.5283L5.13156 32.5772C5.29654 32.8827 5.46458 33.1882 5.62345 33.4937C5.65099 33.5462 5.67547 33.6003 5.69677 33.6556C5.46458 33.6556 5.23239 33.6556 5.00325 33.6312C3.6162 33.5365 2.95628 32.8093 2.48578 31.7064L2.48273 31.7156ZM6.45446 35.3207C6.4243 35.3352 6.39867 35.3576 6.38036 35.3856C6.36205 35.4137 6.35174 35.4461 6.35058 35.4796C5.82814 35.4796 5.35154 35.8584 4.9452 36.1303C4.33417 36.5367 3.7934 37.1935 2.96544 37.166C1.45007 36.2576 1.06716 35.2453 1.81669 34.1292C2.06182 33.7936 2.28335 33.4414 2.47967 33.0751C2.49003 33.0936 2.50512 33.1089 2.52337 33.1196C2.54163 33.1303 2.56239 33.1359 2.58355 33.1359C2.6047 33.1359 2.62547 33.1303 2.64372 33.1196C2.66198 33.1089 2.67706 33.0936 2.68742 33.0751C2.93954 33.5483 3.35558 33.9133 3.85756 34.1017C4.95742 34.5416 6.40558 34.6486 7.78041 34.67C7.32824 34.8869 6.8883 35.1038 6.44224 35.3115L6.45446 35.3207ZM8.41588 38.1131C7.93316 37.3829 7.60931 36.057 6.88829 35.6232C7.64292 35.3329 8.37922 35.0121 9.11246 34.67H9.51575C9.51575 34.67 9.51574 34.6913 9.53102 34.7005C9.53883 34.7132 9.54906 34.7241 9.56113 34.7328C9.57319 34.7415 9.58685 34.7478 9.60132 34.7512C9.6158 34.7546 9.6308 34.7551 9.64548 34.7527C9.66015 34.7503 9.6742 34.745 9.68684 34.7372C9.71433 34.7188 9.74489 34.783 9.77238 34.7647C9.78449 34.7544 9.79939 34.748 9.81516 34.7463H9.89154C10.9489 34.7307 12.0024 34.6161 13.0384 34.4042C11.5108 35.4337 9.98319 36.5122 8.69696 37.8473C8.63891 37.6243 8.58392 37.3891 8.54115 37.1599C8.51365 37.0072 8.28451 37.0683 8.31201 37.218C8.36089 37.496 8.4281 37.7648 8.50143 38.0368L8.41588 38.1131ZM10.5301 37.5265C9.78154 38.4828 9.2805 38.715 8.89861 38.5653V38.5531C9.6954 37.7714 10.5547 37.0562 11.468 36.4145C11.1328 36.7658 10.8157 37.1339 10.5178 37.5174L10.5301 37.5265ZM9.61352 42.2865C9.63162 42.2891 9.65008 42.2869 9.66713 42.2803C9.68418 42.2737 9.69925 42.2628 9.71089 42.2487C9.72254 42.2346 9.73037 42.2178 9.73365 42.1998C9.73693 42.1818 9.73553 42.1633 9.72961 42.146C9.53102 41.3608 9.42409 40.5573 9.23467 39.769C9.21939 39.7018 9.19801 39.6346 9.17968 39.5674C9.3057 39.5643 9.43087 39.5458 9.55241 39.5124C9.93736 40.71 10.2826 41.9321 10.7745 43.087C10.3655 42.8441 9.97349 42.5736 9.60129 42.2773L9.61352 42.2865ZM68.5051 43.2306C67.0509 43.6277 65.45 43.3986 63.9529 43.4994C62.4559 43.6002 60.9314 43.7011 59.4129 43.7133C53.4034 43.7622 47.4611 43.8691 41.4607 44.2296C39.6276 44.3396 37.8159 44.419 35.9889 44.4801C35.0295 43.2978 34.3299 41.8771 33.5906 40.5542C33.5763 40.5329 33.5545 40.5178 33.5296 40.512C33.5046 40.5062 33.4784 40.5102 33.4562 40.523C33.434 40.5358 33.4176 40.5566 33.4102 40.5812C33.4028 40.6057 33.405 40.6321 33.4164 40.655C34.1252 41.9229 34.7515 43.3558 35.6742 44.4924L34.3513 44.5321C33.4622 43.9608 32.9276 43.09 32.4052 42.1796C31.7838 41.1382 31.2572 40.0431 30.8317 38.9075C30.7859 38.7761 30.572 38.8342 30.6209 38.9655C31.0802 40.2098 31.6465 41.412 32.3135 42.5584C32.6915 43.3117 33.21 43.9857 33.8411 44.5443L32.9795 44.5657C33.0476 44.5588 33.115 44.5466 33.1812 44.529C33.2108 44.5161 33.2348 44.493 33.2487 44.4638C33.2627 44.4347 33.2656 44.4015 33.2571 44.3703C33.2486 44.3391 33.2291 44.3121 33.2023 44.2941C33.1754 44.2761 33.143 44.2684 33.1109 44.2724C32.118 44.5076 31.18 42.7448 30.8195 42.0696C30.4223 41.3333 30.0527 40.5817 29.7013 39.821C29.6555 39.7171 29.5058 39.8057 29.5516 39.9065C30.0863 41.0767 30.5995 42.369 31.3847 43.3986C31.7574 43.8935 32.2188 44.5351 32.842 44.5687C31.8746 44.5891 30.9051 44.6074 29.9335 44.6237C29.9402 44.6078 29.9433 44.5906 29.9426 44.5733C29.942 44.556 29.9376 44.5391 29.9298 44.5237C29.9219 44.5083 29.9108 44.4947 29.8972 44.4841C29.8836 44.4734 29.8678 44.4658 29.851 44.4618C28.8123 44.2785 28.2715 42.5615 27.8743 41.7366C27.416 40.7834 26.9578 39.8393 26.4353 38.9136C26.4048 38.8586 26.3223 38.9136 26.3528 38.9625C27.0311 40.2334 27.5902 41.5472 28.186 42.8548C28.4731 43.4841 28.8398 44.3488 29.5119 44.6298H28.4487C28.4489 44.5017 28.4229 44.3749 28.3723 44.2571C28.3143 44.0921 28.0668 44.1593 28.1065 44.3304V44.3671C27.5199 43.0136 26.915 41.6694 26.4017 40.2854C26.3559 40.1632 26.1573 40.2182 26.2031 40.3404C26.7347 41.7885 27.3366 43.2061 27.914 44.6359H26.7225C26.527 44.2327 26.3956 43.7194 26.2734 43.4139C25.9862 42.6867 25.7265 41.9504 25.4607 41.2172C25.421 41.1133 25.253 41.1561 25.2927 41.263C25.6257 42.1796 25.9434 43.0961 26.2826 44.0127C26.3498 44.2021 26.4078 44.4282 26.4812 44.6451H24.8344C24.8561 44.6376 24.8746 44.6229 24.8868 44.6035C24.8991 44.584 24.9043 44.561 24.9016 44.5382L24.8497 44.0952C24.847 44.0721 24.8382 44.0501 24.8242 44.0315C24.8102 44.013 24.7916 43.9984 24.7701 43.9894C24.7487 43.9804 24.7252 43.9772 24.7022 43.9803C24.6791 43.9833 24.6573 43.9924 24.6389 44.0066C24.2693 43.1241 23.963 42.2165 23.7223 41.2905C23.6826 41.1683 23.4932 41.2203 23.5299 41.3425C23.8568 42.4484 24.092 43.5911 24.6603 44.6054C24.6739 44.6236 24.6917 44.6383 24.7122 44.6482H22.708C22.7714 44.4877 22.7945 44.3141 22.7753 44.1426C22.7561 43.9711 22.6952 43.8069 22.598 43.6644C22.54 43.5544 22.378 43.6644 22.43 43.7622C22.4086 44.1868 22.32 44.2235 22.1672 43.8752C22.0573 43.7133 21.9564 43.5483 21.8617 43.3803C21.6699 43.0379 21.4956 42.6862 21.3393 42.3262C20.9879 41.5288 20.6977 40.707 20.38 39.8974C20.3402 39.7965 20.1753 39.8393 20.215 39.9432C20.8505 41.5716 21.4034 43.2519 22.485 44.6512H22.1459C19.3107 44.6665 16.063 44.7581 13.2858 44.1074C12.4879 43.8972 11.7222 43.5797 11.0097 43.1633C11.0334 43.152 11.0521 43.1324 11.0623 43.1082C11.0724 43.0839 11.0733 43.0568 11.0647 43.032C10.637 41.8099 10.2276 40.6123 9.82737 39.3933C10.2725 39.1899 10.6684 38.8929 10.9883 38.5225C11.2205 39.4605 11.468 40.3923 11.746 41.318C12.0241 42.2437 12.2104 43.0809 12.7726 43.8416C12.7834 43.86 12.7987 43.8752 12.8172 43.8858C12.8357 43.8964 12.8567 43.902 12.878 43.902C12.8993 43.902 12.9202 43.8964 12.9387 43.8858C12.9572 43.8752 12.9726 43.86 12.9834 43.8416L13.0872 43.6766C13.1667 43.5483 12.9742 43.4444 12.8856 43.5605C12.6696 43.1799 12.4778 42.786 12.3112 42.3812C12.1554 41.8985 12.0057 41.4127 11.8621 40.93C11.6024 40.0715 11.3702 39.2099 11.1503 38.3423C12.0668 37.2546 12.8276 35.5101 14.6882 36.7536C15.3298 37.1813 15.6261 38.2567 16.4235 38.4828C17.5295 38.7883 17.8197 37.6457 18.1527 36.7444C18.2367 36.7334 18.3139 36.6923 18.37 36.6289C18.4262 36.5655 18.4575 36.4839 18.4583 36.3992C18.4583 36.2831 18.4583 36.17 18.4858 36.0601C18.4858 36.0387 18.5132 36.0173 18.5285 35.999C19.7139 34.5355 20.2547 36.2556 20.9207 37.1294C21.3045 37.6921 21.8423 38.1323 22.4697 38.3973C23.5299 38.7608 24.4311 37.7862 25.2652 37.2638C25.3296 37.3557 25.4137 37.432 25.5113 37.4871C25.609 37.5423 25.7178 37.5748 25.8298 37.5825C25.9417 37.5901 26.0539 37.5725 26.1581 37.5312C26.2624 37.4898 26.3561 37.4255 26.4323 37.3432C26.4753 37.3116 26.5062 37.266 26.5195 37.2142C26.5329 37.1624 26.528 37.1077 26.5056 37.0591C26.5929 37.1046 26.674 37.161 26.747 37.2271C27.358 37.7771 27.3824 38.4217 28.2226 38.7944C28.8234 39.0569 29.4919 39.1221 30.1321 38.9808C30.9264 38.8005 31.5711 38.2659 32.1516 37.7282C32.3043 37.5876 33.117 36.5428 33.3034 36.5642C33.7464 36.6191 34.0183 37.5754 34.2444 37.8534C34.5776 38.2891 35.0633 38.5825 35.6039 38.6749C36.1445 38.7673 36.7001 38.6517 37.159 38.3514C37.5684 38.104 37.8923 37.5449 38.2314 37.3096C38.2949 37.4939 38.3833 37.6687 38.4941 37.829C38.6897 38.1101 39.1479 37.8534 38.9585 37.5601C38.9096 37.4821 38.8647 37.4015 38.8241 37.3188C38.9117 37.3933 38.9897 37.4785 39.0563 37.5724C39.4901 38.1834 39.3771 38.8342 40.1195 39.2649C41.7173 40.1815 42.8691 38.5989 44.1462 37.9879C45.2338 37.4715 45.3255 38.0979 45.9793 38.883C46.1686 39.1358 46.4073 39.3474 46.681 39.5049C46.9546 39.6625 47.2574 39.7628 47.571 39.7996C48.3798 39.8578 49.1846 39.6426 49.8563 39.1886C50.9654 38.5103 51.5978 37.2882 52.9329 38.5042C53.3484 38.883 53.4767 39.4024 54.0572 39.6377C54.7843 39.9432 55.6551 39.6652 56.3119 39.3321C57.2285 38.8616 58.4017 37.2669 59.3335 37.7435C59.9659 38.0704 60.1095 38.5622 60.9864 38.4553C61.7135 38.3698 62.2634 37.8137 62.8195 37.3829C64.0232 36.4389 63.9132 37.4593 64.9398 37.8351C65.6027 38.0765 66.3604 37.8657 66.9776 37.6121C67.5275 37.386 67.9399 36.9674 68.4563 36.7139C68.6017 36.5338 68.7994 36.4033 69.0221 36.3404C69.2448 36.2775 69.4816 36.2852 69.6997 36.3625C69.7686 36.5329 69.8634 36.6916 69.9808 36.833C70.6285 37.1844 70.8974 37.331 71.6398 36.9949C71.937 36.8037 72.2171 36.5869 72.4769 36.3472C72.5349 39.048 71.2243 42.4729 68.4929 43.2214L68.5051 43.2306ZM74.9546 32.7482C75.0324 32.8422 75.1194 32.9282 75.2143 33.0049C75.1412 33.0339 75.0756 33.0793 75.0226 33.1375C74.9697 33.1958 74.9307 33.2653 74.9088 33.3409C74.8599 33.4876 74.808 33.6465 74.7499 33.8023C73.4545 34.5325 71.9086 34.8288 70.4727 35.1527C70.3893 35.1668 70.3111 35.2024 70.2458 35.2559C70.1804 35.3095 70.1301 35.3792 70.1 35.4582C70.0052 35.2993 69.8953 35.1741 69.4645 35.1343C68.8534 35.0793 68.3402 35.5682 67.8849 35.8829C67.4297 36.1975 66.7515 36.8422 66.1496 36.9491L64.5243 36.3014C64.4387 36.1858 64.3436 36.0775 64.2401 35.9776C64.1821 35.9623 64.1301 35.9562 64.0782 35.947C65.792 35.6921 67.4765 35.2684 69.107 34.6822C71.0929 33.9703 72.8649 33.344 74.1725 31.7645C74.4632 32.0674 74.725 32.3967 74.9546 32.7482ZM74.2642 29.082C74.42 29.6931 72.8527 31.5262 72.7366 31.63C71.9545 32.3694 71.0807 32.7146 70.1 33.0996C68.4094 33.8091 66.663 34.3773 64.8786 34.7983C63.9163 35.003 62.8347 35.1924 61.7165 35.3268C61.6203 34.9363 61.5469 34.5405 61.4966 34.1414C61.4969 34.1203 61.4926 34.0993 61.4841 34.08C61.4755 34.0607 61.4629 34.0434 61.4471 34.0294C61.4312 34.0154 61.4126 34.005 61.3923 33.9989C61.3721 33.9928 61.3508 33.9911 61.3298 33.994C61.3089 33.9969 61.2888 34.0043 61.271 34.0157C61.2532 34.027 61.2381 34.0421 61.2266 34.0599C61.2152 34.0777 61.2077 34.0977 61.2048 34.1186C61.2018 34.1395 61.2033 34.1609 61.2094 34.1811C61.273 34.5774 61.3618 34.9693 61.4752 35.3543C61.1299 35.394 60.7817 35.4246 60.4334 35.4521C60.3142 35.0366 60.1981 34.6211 60.082 34.2025C60.0731 34.1705 60.0518 34.1433 60.0229 34.127C59.994 34.1107 59.9597 34.1065 59.9277 34.1154C59.8957 34.1243 59.8686 34.1456 59.8522 34.1745C59.8359 34.2035 59.8317 34.2377 59.8407 34.2697C59.9506 34.67 60.0576 35.0702 60.1737 35.4704C59.5626 35.5101 58.9516 35.5254 58.3406 35.5162C58.2214 34.9816 58.1084 34.4469 57.9953 33.9123C60.9337 34.0142 63.8714 33.6921 66.7179 32.956C67.6 32.7215 68.4655 32.4286 69.3087 32.0792C69.2139 32.3266 69.1284 32.5741 69.0276 32.8185C68.9848 32.9254 69.1681 33.0018 69.2139 32.8979C69.3514 32.5924 69.4767 32.2686 69.6111 31.9539C70.1044 31.7366 70.583 31.4876 71.044 31.2084C70.8691 31.789 70.5687 32.3241 70.1641 32.7757C70.0847 32.8552 70.1916 32.9988 70.2894 32.9346C70.6774 32.6749 70.824 32.238 70.9982 31.8195C71.1051 31.5628 71.209 31.3001 71.3037 31.0373C71.6362 30.8154 71.9527 30.5704 72.2508 30.3041C72.2294 30.356 72.2111 30.408 72.1927 30.463C72.0094 30.961 71.9025 31.5689 71.6245 32.018C71.6147 32.0431 71.6142 32.0708 71.623 32.0962C71.6318 32.1215 71.6494 32.143 71.6726 32.1566C71.6957 32.1702 71.723 32.1751 71.7495 32.1704C71.7759 32.1658 71.7999 32.1518 71.817 32.1311C72.0158 31.6884 72.1763 31.2295 72.2966 30.7593L72.5166 30.133C73.4087 29.9711 73.9586 29.5861 74.2642 29.0545V29.082ZM78.0251 24.7589C76.9741 25.0461 76.1431 24.0074 75.2265 23.7752C74.9226 23.6889 74.6036 23.6701 74.2916 23.7202C73.0268 22.6539 71.542 21.8871 70.1733 20.9705C70.8301 20.83 71.487 20.6925 72.1439 20.5428C72.8847 20.427 73.613 20.2419 74.3192 19.9898C74.8103 20.2512 75.339 20.4346 75.8865 20.5336C76.7114 20.7444 77.7807 21.1202 78.2573 21.9115C78.6911 22.602 79.3816 24.3587 78.0251 24.7315V24.7589Z" fill="#515257"/>
<path d="M7.40082 21.444C7.41891 21.4561 7.44018 21.4626 7.46193 21.4626C7.48368 21.4626 7.50495 21.4561 7.52304 21.444L7.81021 21.2424C7.83412 21.2282 7.85141 21.2051 7.85829 21.1782C7.86516 21.1513 7.86106 21.1227 7.84688 21.0988C7.8327 21.0749 7.8096 21.0576 7.78267 21.0507C7.75574 21.0438 7.72719 21.048 7.70329 21.0621C7.54884 20.9342 7.40573 20.7931 7.27556 20.6405C7.13502 20.335 7.23584 19.837 7.27556 19.507C7.29694 19.2901 7.32444 19.0763 7.35194 18.8594L7.60552 18.783C7.63515 18.7701 7.65913 18.7469 7.67307 18.7178C7.68702 18.6886 7.69 18.6554 7.68146 18.6242C7.67293 18.5931 7.65345 18.566 7.6266 18.548C7.59975 18.5301 7.56732 18.5224 7.53525 18.5263C7.41915 18.5538 7.71856 17.7045 7.72773 17.6831C7.83466 17.4631 7.95686 17.2493 8.06991 17.0354C8.29599 16.6118 8.53735 16.1952 8.79398 15.7858C9.21865 15.1137 9.68304 14.466 10.1505 13.8214L10.2452 13.7297C11.1617 12.8131 12.0936 11.8783 12.9949 10.922C13.0468 10.8639 12.9613 10.7753 12.9063 10.8334C12.1027 11.6827 11.2748 12.5046 10.4407 13.3234C10.4307 13.3107 10.418 13.3004 10.4034 13.2933C10.3889 13.2863 10.3729 13.2826 10.3567 13.2826C10.3405 13.2826 10.3246 13.2863 10.31 13.2933C10.2955 13.3004 10.2827 13.3107 10.2727 13.3234L9.83275 13.9191C9.23407 14.4582 8.664 15.0283 8.1249 15.627L8.32654 14.9762C8.33383 14.9503 8.33052 14.9225 8.31735 14.899C8.30417 14.8755 8.28221 14.8582 8.25628 14.851C8.23035 14.8437 8.20258 14.847 8.17909 14.8601C8.15559 14.8733 8.13831 14.8953 8.13101 14.9212C7.99964 15.3184 7.87437 15.7186 7.75522 16.1189C7.69717 16.2044 7.63913 16.2899 7.58719 16.3785C7.58004 16.3908 7.57562 16.4044 7.57424 16.4184C7.57286 16.4325 7.57455 16.4467 7.5792 16.4601C7.58385 16.4735 7.59134 16.4856 7.60116 16.4958C7.61098 16.506 7.62289 16.514 7.63608 16.5191C7.39087 17.3313 7.20604 18.1605 7.08309 18.9999C6.98838 19.7087 6.68896 20.9552 7.40082 21.444ZM7.95076 16.1677C8.35418 15.6024 8.81601 15.0812 9.32864 14.6127C8.95896 15.1351 8.59846 15.6697 8.26544 16.2197C8.06991 16.5435 7.84994 16.8857 7.65441 17.2401C7.74912 16.8826 7.84383 16.5252 7.95076 16.1708V16.1677Z" fill="#515257"/>
<path d="M71.3669 19.3684C71.947 18.4586 72.4439 17.4985 72.8517 16.4995C72.9219 16.3468 72.6959 16.2124 72.6256 16.3682C72.2131 17.3648 71.7185 18.3254 71.1469 19.24C71.0552 19.3745 71.2752 19.4997 71.3669 19.3684Z" fill="#515257"/>
<path d="M54.5948 21.5778C55.4951 20.3985 56.3607 19.1957 57.1917 17.9696C57.2742 17.8474 57.0787 17.7343 56.9992 17.8565C56.1682 19.0786 55.3056 20.2823 54.4115 21.4678C54.329 21.5777 54.5123 21.6847 54.5948 21.5778Z" fill="#515257"/>
<path d="M52.7456 21.3173C52.5623 21.5739 52.3729 21.8214 52.1743 22.0658C51.994 22.4385 51.8504 22.3927 51.7466 21.9283C51.7954 21.7847 51.5755 21.7297 51.5205 21.8672C51.3433 22.3041 51.3402 22.6096 51.8077 22.7838C51.8305 22.7906 51.8549 22.7911 51.878 22.7852C51.9012 22.7793 51.9223 22.7672 51.939 22.7502C53.9524 20.416 55.5747 17.5044 56.9129 14.7364C56.974 14.6081 56.7845 14.4951 56.7204 14.6234C56.036 16.0379 55.2386 17.373 54.4229 18.7234C54.0563 19.3345 53.6896 19.9302 53.2986 20.5168C53.1214 20.7857 52.9381 21.0545 52.7456 21.3173Z" fill="#515257"/>
<path d="M50.7085 22.5074C51.8695 20.8484 52.8471 19.0856 53.8553 17.3136C53.8626 17.3013 53.8673 17.2878 53.8693 17.2737C53.8713 17.2597 53.8705 17.2453 53.8669 17.2316C53.8634 17.2178 53.8572 17.2049 53.8486 17.1935C53.8401 17.1822 53.8294 17.1726 53.8171 17.1654C53.8049 17.1582 53.7914 17.1534 53.7773 17.1515C53.7632 17.1495 53.7489 17.1503 53.7351 17.1538C53.7214 17.1574 53.7085 17.1636 53.6971 17.1721C53.6858 17.1807 53.6762 17.1914 53.669 17.2036C52.673 18.9634 51.6617 20.714 50.5221 22.3974C50.4458 22.5135 50.6291 22.6174 50.7085 22.5074Z" fill="#515257"/>
<path d="M48.3051 22.5465C48.189 22.6351 48.3417 22.8337 48.4609 22.7481C49.4324 22.0485 50.0679 21.0311 50.7034 20.0351C51.5374 18.7367 52.286 17.3832 53.0314 16.0298C53.1017 15.8984 52.9031 15.7823 52.8298 15.9137C52.1607 17.1113 51.4886 18.309 50.7584 19.4699C50.0587 20.582 49.3377 21.7277 48.3051 22.5465Z" fill="#515257"/>
<path d="M46.8191 21.8588C46.6571 21.8741 46.651 22.1215 46.8191 22.1154C47.6867 22.094 48.2519 20.8078 48.6522 20.1876C49.5076 18.8922 50.2775 17.5449 51.0688 16.2159C51.0791 16.1919 51.0802 16.165 51.072 16.1403C51.0638 16.1155 51.0469 16.0946 51.0244 16.0815C51.0018 16.0683 50.9753 16.0639 50.9497 16.0689C50.9242 16.074 50.9013 16.0882 50.8855 16.1089C50.2745 17.0927 49.7062 18.0826 49.0891 19.0541C48.8141 19.491 48.533 19.9248 48.2397 20.3526C47.9464 20.7803 47.4393 21.8068 46.8191 21.8588Z" fill="#515257"/>
<path d="M44.0117 22.0977C44.806 22.2321 45.0749 21.6089 45.4935 21.0406C46.3061 19.9346 47.0577 18.7859 47.7574 17.6066C47.7736 17.5794 47.7783 17.547 47.7706 17.5163C47.7628 17.4857 47.7432 17.4593 47.7161 17.4431C47.689 17.4269 47.6565 17.4222 47.6258 17.4299C47.5952 17.4376 47.5688 17.4572 47.5526 17.4844C47.0913 18.2573 46.6116 19.012 46.1045 19.7544C45.6981 20.3471 44.8396 21.9633 44.0422 21.8747C43.917 21.8594 43.8864 22.0763 44.0117 22.0977Z" fill="#515257"/>
<path d="M41.9651 22.0104C41.8521 21.879 41.8582 21.4849 41.8399 21.3383C41.8216 21.1916 41.6046 21.1977 41.6199 21.3383C41.6535 21.6438 41.6902 21.9493 41.7238 22.2395C41.7241 22.2576 41.7285 22.2754 41.7367 22.2915C41.7449 22.3076 41.7567 22.3216 41.7711 22.3325C41.7855 22.3434 41.8023 22.3509 41.82 22.3543C41.8377 22.3578 41.856 22.3572 41.8735 22.3526C42.5884 22.212 42.7076 21.7415 43.0406 21.1702C43.5844 20.2201 44.1893 19.3157 44.7026 18.3442C44.7729 18.2097 44.5682 18.0906 44.4979 18.225C44.0803 19.0153 43.6323 19.7893 43.1536 20.547C42.9917 20.8036 42.7931 21.0541 42.6526 21.323C42.5456 21.5246 42.2859 22.3862 41.9651 22.0104Z" fill="#515257"/>
<path d="M40.2471 21.9306C40.9284 21.9092 41.0323 21.3043 41.3164 20.7696C41.848 19.7675 42.401 18.7807 42.9265 17.7786C42.9876 17.6656 42.8135 17.5617 42.7524 17.6778C42.3857 18.356 42.015 19.0323 41.6403 19.7064C41.4203 20.0975 40.8154 21.6587 40.2471 21.6709C40.0791 21.674 40.0791 21.9367 40.2471 21.9306Z" fill="#515257"/>
<path d="M38.1792 21.5353C38.0631 21.4712 38.0692 21.0373 38.054 20.9243C38.0387 20.8112 37.7912 20.8174 37.8096 20.9579L37.8982 21.6484C37.8997 21.6827 37.914 21.7153 37.9383 21.7396C37.9626 21.7639 37.9952 21.7782 38.0295 21.7797C38.6711 21.8256 38.778 21.4253 39.0836 20.9548C39.6091 20.1422 40.1773 19.3845 40.6356 18.5107C40.7089 18.3671 40.4951 18.2388 40.4156 18.3824C40.0704 19.0329 39.6837 19.6605 39.2577 20.2613C39.063 20.4904 38.8824 20.7312 38.7169 20.9823C38.6742 21.0831 38.3748 21.6453 38.1792 21.5353Z" fill="#515257"/>
<path d="M36.6091 21.6959C36.5811 21.6793 36.5477 21.6745 36.5162 21.6825C36.4847 21.6905 36.4576 21.7107 36.441 21.7387C36.4244 21.7666 36.4196 21.8001 36.4276 21.8316C36.4356 21.8631 36.4558 21.8901 36.4838 21.9067L36.5938 21.9801C36.6232 21.996 36.6576 22.0002 36.6899 21.9917C36.7223 21.9832 36.7502 21.9626 36.7679 21.9342C37.5867 20.8221 38.1519 19.5665 38.7813 18.3474C38.8516 18.2069 38.6408 18.0816 38.5674 18.2222C38.4086 18.5308 36.8107 21.8028 36.6091 21.6959Z" fill="#515257"/>
<path d="M35.0072 21.9846C34.9827 22.0003 34.9652 22.0248 34.9583 22.0531C34.9514 22.0814 34.9557 22.1112 34.9703 22.1364C34.9848 22.1616 35.0085 22.1802 35.0365 22.1884C35.0644 22.1965 35.0944 22.1936 35.1202 22.1802C35.5846 21.9235 35.7313 21.4958 36.0093 21.0559C36.4125 20.3896 36.7817 19.7034 37.1153 18.9997C37.1794 18.8622 36.9747 18.7431 36.9106 18.8806C36.6478 19.4458 36.3637 20.0018 36.0521 20.5395C35.768 21.01 35.4838 21.6944 35.0072 21.9846Z" fill="#515257"/>
<path d="M33.1659 20.9861C33.0834 20.925 32.9796 21.0594 33.0559 21.1267L33.3248 21.3619C33.3451 21.3808 33.3719 21.3913 33.3997 21.3913C33.4274 21.3913 33.4542 21.3808 33.4745 21.3619C34.5744 20.3598 35.1732 18.9636 35.9034 17.6957C35.9168 17.6699 35.9197 17.6399 35.9116 17.6119C35.9035 17.584 35.8848 17.5603 35.8596 17.5457C35.8344 17.5311 35.8046 17.5268 35.7763 17.5337C35.748 17.5406 35.7235 17.5581 35.7078 17.5826C35.3443 18.212 35.0174 18.8628 34.6446 19.4891C34.4124 19.8771 33.667 21.3497 33.1659 20.9861Z" fill="#515257"/>
<path d="M29.1966 21.4435C29.0927 21.3793 28.9644 21.5351 29.0622 21.6146L29.1936 21.7245C29.2164 21.7469 29.2471 21.7595 29.2791 21.7595C29.3111 21.7595 29.3418 21.7469 29.3647 21.7245C30.7212 20.2519 31.485 18.3638 32.3893 16.598C32.4565 16.4635 32.2548 16.3474 32.1846 16.4788C31.9493 16.9187 29.6152 21.6909 29.1966 21.4435Z" fill="#515257"/>
<path d="M28.8671 19.7781C28.7968 19.9034 27.8833 21.4554 27.7795 21.2782C27.762 21.2529 27.7356 21.2351 27.7056 21.2284C27.6756 21.2216 27.6442 21.2264 27.6176 21.2419C27.5909 21.2573 27.5711 21.2822 27.5621 21.3116C27.553 21.341 27.5554 21.3727 27.5687 21.4004L27.6848 21.6235C27.6952 21.6399 27.7091 21.6537 27.7256 21.6641C27.742 21.6745 27.7605 21.681 27.7798 21.6834C27.7991 21.6857 27.8187 21.6837 27.8371 21.6776C27.8555 21.6715 27.8724 21.6613 27.8864 21.6479C28.7449 20.7986 29.2399 19.6132 29.7898 18.553C30.4589 17.2576 31.0974 15.9439 31.742 14.6332C31.8001 14.5171 31.626 14.4163 31.5679 14.5324C30.9569 15.7331 30.3703 16.9338 29.7501 18.1253C29.4445 18.6936 29.1482 19.2282 28.8671 19.7781Z" fill="#515257"/>
<path d="M26.6948 20.1769L26.5175 20.4519C26.3617 20.8491 26.2609 20.8155 26.212 20.3572C26.2701 20.1953 26.0195 20.1342 25.9584 20.29C25.7874 20.7207 25.7751 21.0354 26.2395 21.2065C26.2706 21.215 26.3036 21.213 26.3334 21.2008C26.3632 21.1887 26.3882 21.1671 26.4045 21.1393C27.6907 19.2145 28.6867 17.1279 29.7988 15.1023C29.8721 14.9648 29.6674 14.8456 29.5911 14.9801C29.0289 15.9883 28.4943 17.0148 27.9382 18.0352C27.6755 18.521 27.4066 19.0007 27.1255 19.4742C26.985 19.7105 26.8414 19.9447 26.6948 20.1769Z" fill="#515257"/>
<path d="M24.2359 21.0361C24.229 21.0109 24.2124 20.9896 24.1898 20.9767C24.1672 20.9638 24.1403 20.9604 24.1152 20.9673C24.0901 20.9742 24.0687 20.9908 24.0558 21.0134C24.043 21.036 24.0396 21.0629 24.0465 21.088C24.0493 21.264 24.1192 21.4323 24.242 21.5585C24.2524 21.5749 24.2664 21.5887 24.2828 21.5991C24.2992 21.6095 24.3178 21.6161 24.337 21.6184C24.3563 21.6207 24.3759 21.6188 24.3943 21.6126C24.4128 21.6065 24.4296 21.5963 24.4437 21.5829C25.2227 20.8405 25.6413 19.7926 26.1209 18.8333C26.732 17.6112 27.343 16.3891 27.9174 15.167C27.9663 15.0693 27.8196 14.9837 27.7707 15.0815C27.2208 16.1966 26.6678 17.3057 26.0965 18.4086C25.8368 18.9035 25.5741 19.3954 25.3113 19.8904C25.2013 20.092 24.4253 21.6257 24.2359 21.0361Z" fill="#515257"/>
<path d="M22.6504 21.1574C22.6504 21.2338 22.6504 21.3102 22.6504 21.3866C22.6499 21.4109 22.6575 21.4346 22.672 21.4542C22.6865 21.4737 22.707 21.4879 22.7304 21.4945C22.7538 21.5012 22.7787 21.4999 22.8013 21.4908C22.8238 21.4818 22.8428 21.4655 22.8551 21.4446C23.9153 19.9873 24.6882 18.3466 25.5192 16.7641C25.5773 16.651 25.4062 16.5502 25.3451 16.6632C24.5324 18.1603 23.7625 19.6726 22.8184 21.0933C22.8051 21.0795 22.7881 21.0699 22.7693 21.0657C22.7506 21.0616 22.7311 21.063 22.7132 21.0698C22.6953 21.0767 22.6798 21.0886 22.6686 21.1042C22.6575 21.1198 22.6511 21.1383 22.6504 21.1574Z" fill="#515257"/>
<path d="M20.967 18.9723C21.7033 17.7746 22.5098 16.6259 23.3164 15.4741C23.3989 15.3549 23.2003 15.2358 23.1178 15.358C22.3326 16.522 21.5352 17.6769 20.8386 18.8959C20.8285 18.9129 20.8256 18.9332 20.8304 18.9524C20.8353 18.9716 20.8476 18.9881 20.8646 18.9982C20.8816 19.0084 20.902 19.0113 20.9212 19.0064C20.9404 19.0016 20.9568 18.9893 20.967 18.9723Z" fill="#515257"/>
<path d="M19.3237 18.8772C19.2381 18.9994 19.4367 19.1094 19.5192 18.9902L20.4541 17.6612C20.4781 17.6603 20.501 17.6514 20.5193 17.6359C20.5376 17.6204 20.5501 17.5992 20.5549 17.5757C20.5549 17.5421 20.5733 17.5085 20.5855 17.4749L21.1965 16.595C21.2943 16.4544 21.0621 16.32 20.9674 16.4606L20.8146 16.6836C21.0804 15.8342 21.3768 14.9971 21.6731 14.1569C21.7312 13.995 21.4745 13.9248 21.4165 14.0836C20.9978 15.1497 20.6448 16.2404 20.3594 17.3496C20.0081 17.8568 19.672 18.367 19.3237 18.8772Z" fill="#515257"/>
<path d="M13.9397 16.8623C14.01 16.9876 14.2269 16.902 14.175 16.7615C13.9642 16.178 14.9571 14.8001 15.229 14.3357C15.8319 13.3477 16.4952 12.3978 17.2149 11.4913C17.3004 11.3783 17.1049 11.2255 17.0163 11.3385C16.0731 12.5098 15.2338 13.761 14.508 15.0781C14.2789 15.5303 13.6403 16.3338 13.9397 16.8623Z" fill="#515257"/>
<path d="M16.035 17.1213C16.035 17.1029 16.0503 17.0846 16.0564 17.0632C16.1928 18.0519 16.2744 19.0474 16.3008 20.0451C16.3008 20.0856 16.3169 20.1244 16.3455 20.1531C16.3742 20.1817 16.4131 20.1978 16.4536 20.1978C16.4941 20.1978 16.5329 20.1817 16.5616 20.1531C16.5902 20.1244 16.6063 20.0856 16.6063 20.0451C16.6797 18.9635 16.4719 17.8728 16.3283 16.8066C16.3236 16.7731 16.3083 16.742 16.2846 16.7178C16.261 16.6937 16.2303 16.6777 16.1969 16.6722C16.8522 14.9081 17.7147 13.2282 18.7663 11.6678C18.8366 11.5608 18.6655 11.4631 18.5922 11.5669C17.4251 13.3115 16.3405 15.004 15.76 17.0418C15.758 17.0751 15.7674 17.1081 15.7866 17.1353C15.8058 17.1625 15.8337 17.1824 15.8657 17.1916C15.8977 17.2009 15.9319 17.199 15.9627 17.1862C15.9935 17.1734 16.019 17.1505 16.035 17.1213Z" fill="#515257"/>
<path d="M17.3556 17.338C17.3638 17.3586 17.3782 17.3761 17.3968 17.3882C17.4154 17.4002 17.4373 17.4062 17.4594 17.4052C17.61 18.4982 17.8491 19.5772 18.1744 20.6315C18.1843 20.6631 18.2061 20.6897 18.2352 20.7056C18.2643 20.7215 18.2984 20.7255 18.3304 20.7168C18.3624 20.7081 18.3898 20.6874 18.4068 20.659C18.4239 20.6305 18.4293 20.5966 18.4218 20.5643C18.1163 19.4339 17.9025 18.2851 17.7008 17.1333C17.6978 17.1044 17.6844 17.0776 17.663 17.0579C17.6416 17.0382 17.6138 17.027 17.5847 17.0264C17.6153 16.3878 18.321 15.1444 18.5013 14.7319C18.9259 13.7573 19.3964 12.8072 19.873 11.8601C19.9372 11.7318 19.7478 11.6218 19.6836 11.747C19.0268 13.0455 18.4188 14.3592 17.8139 15.6791C17.6092 16.1495 17.1203 16.8064 17.3556 17.338Z" fill="#515257"/>
<path d="M18.549 18.2852C18.5538 18.3162 18.5695 18.3445 18.5933 18.365C18.6171 18.3854 18.6475 18.3966 18.6789 18.3966C18.7102 18.3966 18.7406 18.3854 18.7644 18.365C18.7882 18.3445 18.8039 18.3162 18.8087 18.2852C18.8729 17.61 19.2578 16.8493 19.5053 16.226C19.7772 15.5386 20.0644 14.8604 20.3638 14.1852C20.431 14.0355 20.211 13.9041 20.1407 14.0569C19.8352 14.7504 19.5297 15.447 19.2242 16.1527C18.9187 16.8585 18.5398 17.5398 18.549 18.2852Z" fill="#515257"/>
<path d="M22.6002 16.1012L22.9759 14.7141C22.9808 14.681 22.9734 14.6473 22.9552 14.6192C22.937 14.5911 22.9091 14.5707 22.8769 14.5617C22.8446 14.5527 22.8102 14.5558 22.7801 14.5703C22.75 14.5849 22.7262 14.61 22.7132 14.6408L22.3466 16.0309C22.3373 16.0646 22.3417 16.1005 22.3589 16.1309C22.3761 16.1612 22.4046 16.1835 22.4382 16.1928C22.4719 16.2022 22.5078 16.1977 22.5382 16.1806C22.5685 16.1634 22.5908 16.1348 22.6002 16.1012Z" fill="#515257"/>
<path d="M19.6035 20.1555V20.4916C20.5201 20.4916 20.5201 20.1555 19.6035 20.1555Z" fill="#515257"/>
<path d="M12.691 39.9115C12.639 39.7618 12.3854 39.8291 12.4527 39.9788C12.8175 41.0955 13.2542 42.1875 13.7603 43.2478C13.8336 43.3944 14.0658 43.2661 13.9772 43.1225C13.4796 42.0811 13.05 41.0085 12.691 39.9115Z" fill="#515257"/>
<path d="M15.0395 43.9088C14.7126 44.0432 13.2675 39.3718 13.1178 38.9044C13.0842 38.8005 12.9161 38.8463 12.9497 38.9502C13.3316 40.1295 13.6891 41.318 14.0985 42.4881C14.297 43.0564 14.404 43.8049 14.9295 44.1684C14.9484 44.1798 14.9701 44.1857 14.9921 44.1857C15.0142 44.1857 15.0358 44.1798 15.0547 44.1684L15.1281 44.1196C15.232 44.0524 15.1678 43.8568 15.0395 43.9088Z" fill="#515257"/>
<path d="M14.941 39.3373C15.3504 40.4188 15.9797 41.6164 16.1417 42.7621C16.1661 42.9363 16.4289 42.863 16.4044 42.6888C16.2395 41.534 15.6131 40.3547 15.1824 39.267C15.1365 39.1081 14.8799 39.1662 14.941 39.3373Z" fill="#515257"/>
<path d="M17.5634 42.9372C17.3536 42.3706 17.1771 41.7921 17.0349 41.2049C16.8088 40.5297 16.5918 39.8545 16.3749 39.1763C16.3322 39.0357 16.1091 39.0938 16.1519 39.2374C16.4269 40.1264 16.7049 41.0124 16.9951 41.8954C17.1784 42.4545 17.1632 43.1174 17.6367 43.5238C17.6579 43.5441 17.6851 43.5569 17.7142 43.5603C17.7433 43.5637 17.7728 43.5575 17.798 43.5426C17.8233 43.5277 17.843 43.505 17.8541 43.4779C17.8653 43.4508 17.8672 43.4208 17.8597 43.3924C17.8292 43.2519 17.7986 43.1113 17.765 42.9708C17.7604 42.9493 17.7494 42.9296 17.7334 42.9144C17.7175 42.8992 17.6973 42.8892 17.6756 42.8856C17.6539 42.8819 17.6316 42.8849 17.6116 42.8941C17.5916 42.9033 17.5748 42.9183 17.5634 42.9372Z" fill="#515257"/>
<path d="M19.4335 43.6792C19.4244 43.6636 19.4117 43.6503 19.3966 43.6402C19.3815 43.6302 19.3643 43.6238 19.3463 43.6215C19.3284 43.6191 19.3101 43.6209 19.2929 43.6267C19.2757 43.6324 19.2601 43.642 19.2472 43.6548C19.0389 43.2162 18.8553 42.7664 18.6972 42.3074C18.1901 41.1281 17.7563 39.9183 17.301 38.7145C17.2521 38.5923 17.0505 38.6443 17.0994 38.7695C17.6249 40.1596 18.129 41.5528 18.7033 42.9215C18.8653 43.3034 19.0303 44.0672 19.4519 44.2261C19.568 44.2689 19.6413 44.1253 19.5985 44.0336L19.4335 43.6792Z" fill="#515257"/>
<path d="M19.3191 41.0218C19.7543 42.0215 20.265 42.9867 20.8467 43.9089C20.8566 43.9261 20.8709 43.9403 20.888 43.9501C20.9052 43.96 20.9246 43.9652 20.9444 43.9652C20.9642 43.9652 20.9837 43.96 21.0008 43.9501C21.018 43.9403 21.0323 43.9261 21.0422 43.9089L21.0941 43.7928C21.1033 43.7738 21.1064 43.7524 21.1031 43.7315C21.0998 43.7107 21.0902 43.6913 21.0756 43.676C21.061 43.6607 21.0421 43.6503 21.0214 43.6461C21.0007 43.6418 20.9791 43.644 20.9597 43.6523C20.4296 42.7646 19.9521 41.8465 19.5299 40.9026C19.4596 40.7682 19.261 40.8843 19.3191 41.0218Z" fill="#515257"/>
<path d="M22.1878 41.1963C22.1328 41.0864 21.9678 41.1963 22.0228 41.2911C22.2061 41.6638 22.3833 42.0365 22.5574 42.4123C22.6338 42.5742 22.7072 42.7331 22.7805 42.895C22.7988 42.9378 22.8294 42.9989 22.863 43.0661L23.1013 43.6771C23.1093 43.7005 23.1252 43.7203 23.1462 43.7332C23.1671 43.7462 23.1919 43.7515 23.2164 43.7483C23.2408 43.745 23.2634 43.7334 23.2803 43.7155C23.2972 43.6975 23.3073 43.6742 23.309 43.6496C23.309 43.2769 23.028 42.9683 22.8783 42.6414C22.6552 42.1526 22.423 41.6729 22.1878 41.1963Z" fill="#515257"/>
<path d="M24.1675 40.9106C24.6197 41.9646 25.0841 43.0095 25.5852 44.0452C25.634 44.1491 25.8112 44.0757 25.7715 43.9658L25.7165 43.8069C25.7123 43.7942 25.7055 43.7825 25.6966 43.7725C25.6877 43.7625 25.6768 43.7544 25.6646 43.7488C25.1635 42.7987 24.7297 41.818 24.2989 40.8342C24.2592 40.7425 24.1278 40.822 24.1675 40.9106Z" fill="#515257"/>
<path d="M27.9073 38.8906C27.8676 38.802 27.7393 38.8906 27.779 38.9639C28.332 40.1585 28.7811 41.4081 29.3952 42.566C29.7618 43.2656 30.1254 44.0478 30.8892 44.3747C30.909 44.3851 30.9311 44.3902 30.9534 44.3897C30.9758 44.3892 30.9976 44.383 31.0169 44.3717C31.0361 44.3603 31.0522 44.3443 31.0635 44.325C31.0749 44.3058 31.0811 44.284 31.0817 44.2616L31.1122 44.0172C31.1305 43.8828 30.8984 43.8522 30.8739 43.9867C30.8495 44.1211 30.2018 43.5009 30.1712 43.4612C30.049 43.2992 29.9451 43.1343 29.8382 42.9632C29.5999 42.569 29.3708 42.1597 29.1691 41.7411C28.7139 40.8123 28.3503 39.8316 27.9073 38.8906Z" fill="#515257"/>
<path d="M36.9605 43.957C36.099 43.2879 35.714 41.6564 35.3627 40.749C35.3107 40.6085 35.0847 40.6665 35.1366 40.8101C35.3993 41.5434 35.6407 42.2858 35.9707 42.9915C36.2212 43.5292 36.4931 44.1372 37.0552 44.4061C37.0835 44.4214 37.1156 44.4281 37.1476 44.4254C37.1796 44.4227 37.2101 44.4108 37.2355 44.391C37.2608 44.3712 37.2798 44.3444 37.2901 44.314C37.3004 44.2836 37.3016 44.2508 37.2936 44.2197C37.2783 44.1403 37.263 44.0608 37.2447 43.9783C37.2357 43.9488 37.2181 43.9227 37.194 43.9034C37.17 43.8842 37.1407 43.8726 37.1099 43.8703C37.0792 43.868 37.0485 43.875 37.0218 43.8905C36.9951 43.9059 36.9738 43.9291 36.9605 43.957Z" fill="#515257"/>
<path d="M38.0325 44.0201C38.1852 43.8673 37.5039 42.9752 37.4214 42.85C37.1495 42.3948 36.8898 41.9334 36.6362 41.4629C36.569 41.3377 36.3827 41.4629 36.4468 41.5729C36.8746 42.4039 37.3634 43.2044 37.7728 44.0415C37.8706 44.2401 38.0783 44.4723 38.228 44.1759C38.2405 44.1497 38.2437 44.1201 38.2372 44.0919C38.2307 44.0636 38.2148 44.0384 38.1922 44.0203C38.1695 44.0022 38.1414 43.9924 38.1124 43.9923C38.0834 43.9923 38.0552 44.0021 38.0325 44.0201Z" fill="#515257"/>
<path d="M39.291 43.8163C39.1169 43.8682 38.7014 42.9761 38.6311 42.8356C38.4478 42.4567 38.292 42.0626 38.1301 41.6777C38.0781 41.5524 37.8704 41.6043 37.9223 41.7327C38.2523 42.5545 38.5517 43.3763 39.12 44.0699C39.1404 44.0905 39.1673 44.1035 39.1962 44.1068C39.225 44.1101 39.2542 44.1036 39.2788 44.0882L39.3796 44.024C39.4059 44.0114 39.4262 43.9892 39.4365 43.962C39.4467 43.9347 39.4461 43.9046 39.4347 43.8778C39.4232 43.851 39.402 43.8297 39.3752 43.8182C39.3484 43.8068 39.3183 43.8061 39.291 43.8163Z" fill="#515257"/>
<path d="M42.0436 43.8889C40.8888 43.449 40.4274 42.1902 39.8775 41.1881C39.8103 41.0659 39.627 41.1881 39.6911 41.2981C40.2472 42.3674 40.7269 43.7239 41.9703 44.1547C42.1414 44.2128 42.2086 43.95 42.0436 43.8889Z" fill="#515257"/>
<path d="M43.0678 43.5205C43.058 43.489 43.0371 43.4621 43.0091 43.4448C42.981 43.4274 42.9477 43.4207 42.9151 43.4258C42.7668 43.1406 42.6332 42.8479 42.5148 42.549C42.249 41.9838 41.9955 41.4155 41.7602 40.8381C41.6991 40.6914 41.4547 40.7525 41.5127 40.9053C41.748 41.5163 41.9985 42.106 42.2582 42.6987C42.4324 43.0959 42.5637 43.6152 42.8937 43.9055C43.0006 43.9941 43.1992 43.9055 43.1534 43.7527C43.1228 43.6763 43.0953 43.5969 43.0678 43.5205Z" fill="#515257"/>
<path d="M44.1986 42.7241V42.9349C43.6853 42.5377 43.4684 41.7372 43.1995 41.1873C43.1384 41.062 42.9551 41.172 43.0132 41.2973C43.3187 41.9511 43.5662 43.0571 44.3177 43.3351C44.3389 43.3407 44.361 43.3414 44.3825 43.3371C44.4039 43.3328 44.4241 43.3237 44.4415 43.3104C44.4589 43.2972 44.473 43.2801 44.4828 43.2606C44.4926 43.241 44.4978 43.2195 44.498 43.1976L44.4338 42.7241C44.4247 42.5713 44.1894 42.5591 44.1986 42.7241Z" fill="#515257"/>
<path d="M45.5403 43.3609C45.2254 42.8081 44.9398 42.239 44.6848 41.6561C44.6329 41.5431 44.4679 41.6409 44.5168 41.7539C44.7795 42.3649 45.0667 42.9515 45.3814 43.529C45.3946 43.5491 45.4138 43.5646 45.4362 43.5734C45.4587 43.5821 45.4833 43.5837 45.5067 43.5779H45.5555C45.6716 43.5412 45.6441 43.3793 45.5403 43.3609Z" fill="#515257"/>
<path d="M47.4026 43.0723C47.1458 42.5397 46.956 41.9773 46.8374 41.3981C46.8293 41.3689 46.81 41.3441 46.7836 41.3292C46.7573 41.3143 46.7261 41.3105 46.6969 41.3186C46.6677 41.3267 46.643 41.3461 46.6281 41.3724C46.6132 41.3988 46.6093 41.43 46.6174 41.4592C46.7855 42.1435 46.8833 42.9043 47.3171 43.4817C47.3336 43.5088 47.3584 43.5299 47.3879 43.5416C47.4174 43.5534 47.4499 43.5553 47.4806 43.5471C47.5112 43.5388 47.5384 43.5208 47.5579 43.4958C47.5775 43.4708 47.5884 43.4401 47.589 43.4084L47.6134 43.1884C47.6257 43.057 47.5035 43.0234 47.4026 43.0723Z" fill="#515257"/>
<path d="M48.6318 41.7995L48.7234 42.716C48.7234 42.8871 49.0106 42.8902 48.9923 42.716L48.9006 41.7995C48.8823 41.6284 48.6134 41.6284 48.6318 41.7995Z" fill="#515257"/>
<path d="M3.79287 27.3219L3.89981 27.2914C3.92608 27.2829 3.94859 27.2655 3.9635 27.2423C3.9784 27.2191 3.98478 27.1914 3.98153 27.164C3.97828 27.1365 3.96562 27.1111 3.9457 27.092C3.92578 27.0729 3.89984 27.0613 3.87231 27.0592C3.85614 26.3261 3.9509 25.5947 4.15338 24.89C4.18393 24.7586 3.98535 24.7036 3.9548 24.835C3.76232 25.6263 3.52096 26.4115 3.64928 27.2364C3.65787 27.2662 3.6775 27.2916 3.70417 27.3075C3.73084 27.3234 3.76255 27.3286 3.79287 27.3219Z" fill="#515257"/>
<path d="M5.36701 26.3105C5.30591 25.9408 5.24176 25.5711 5.18065 25.2015C5.15621 25.0609 4.94234 25.122 4.96679 25.2595C5.02789 25.6322 5.08594 26.0019 5.14704 26.3716C5.17148 26.5182 5.39146 26.4571 5.36701 26.3105Z" fill="#515257"/>
<path d="M12.2715 29.9966V30.2502C12.577 30.2593 12.577 29.9966 12.2715 29.9966Z" fill="#515257"/>
<path d="M18.9654 26.7022C18.6446 26.3142 18.5591 25.6176 18.4369 25.144C18.2811 24.533 18.1314 23.9403 17.9878 23.3384C17.9743 23.3051 17.9492 23.2779 17.917 23.2619C17.8848 23.2459 17.8479 23.2423 17.8133 23.2517C17.7786 23.2611 17.7486 23.2829 17.729 23.313C17.7093 23.3431 17.7014 23.3793 17.7067 23.4148C17.8961 24.1908 18.0764 24.9668 18.278 25.7367C18.3819 26.137 18.4338 26.6227 18.7668 26.9008C18.7935 26.9254 18.8287 26.9387 18.8649 26.9379C18.9012 26.9372 18.9358 26.9225 18.9615 26.8968C18.9871 26.8712 19.0019 26.8366 19.0026 26.8003C19.0033 26.764 18.99 26.7289 18.9654 26.7022Z" fill="#515257"/>
<path d="M19.9189 25.749C19.7695 25.0914 19.6805 24.4216 19.6531 23.7478C19.6531 23.5706 19.369 23.5676 19.3751 23.7478C19.4062 24.4469 19.5086 25.1409 19.6806 25.8192C19.702 25.9842 19.9556 25.9139 19.9189 25.749Z" fill="#515257"/>
<path d="M21.0739 26.7119C21.0739 26.8463 21.2695 26.8432 21.2847 26.7119C21.3687 26.0662 21.3749 25.4128 21.3031 24.7657C21.3031 24.6099 21.0373 24.6068 21.0556 24.7657C21.1258 25.4122 21.132 26.0641 21.0739 26.7119Z" fill="#515257"/>
<path d="M29.3718 28.0602C29.3351 27.88 29.0663 27.9564 29.0938 28.1397L29.3779 29.432C29.4176 29.6062 29.6834 29.5328 29.6437 29.3587C29.552 28.9279 29.4787 28.4941 29.3718 28.0602Z" fill="#515257"/>
<path d="M48.7784 39.8858C48.7143 39.7422 48.5004 39.8674 48.5676 40.011C49.0503 41.0864 49.6003 42.1191 50.028 43.222C50.086 43.3748 50.3335 43.3137 50.2785 43.1518C49.8997 42.0152 49.2734 40.9765 48.7784 39.8858Z" fill="#515257"/>
<path d="M50.3902 40.4449C50.4666 40.6923 50.4666 40.9459 50.543 41.1965H50.4605V41.4684C50.4605 41.4684 50.601 41.4684 50.6285 41.4684C50.8728 42.2339 51.1636 42.9838 51.4992 43.7139C51.5512 43.827 51.7589 43.7475 51.7223 43.6253C51.3893 42.5346 50.9707 41.4867 50.6438 40.3807C50.6328 40.3499 50.6107 40.3243 50.5819 40.3089C50.5531 40.2935 50.5195 40.2895 50.4878 40.2975C50.4561 40.3055 50.4286 40.325 50.4105 40.3523C50.3925 40.3796 50.3852 40.4126 50.3902 40.4449Z" fill="#515257"/>
<path d="M52.7161 41.3867C52.699 41.3535 52.671 41.3273 52.6368 41.3123C52.6026 41.2974 52.5643 41.2948 52.5284 41.3048C52.4925 41.3149 52.4611 41.337 52.4397 41.3675C52.4182 41.3981 52.4079 41.435 52.4106 41.4723C52.5786 42.0558 52.7405 42.6393 52.9024 43.2229C52.9071 43.2399 52.915 43.2559 52.9258 43.2699C52.9366 43.2839 52.95 43.2956 52.9653 43.3044C52.9806 43.3132 52.9976 43.3189 53.0151 43.3211C53.0326 43.3234 53.0504 43.3222 53.0674 43.3176C53.0845 43.313 53.1005 43.305 53.1144 43.2943C53.1284 43.2835 53.1402 43.27 53.149 43.2547C53.1578 43.2394 53.1634 43.2225 53.1657 43.205C53.168 43.1875 53.1668 43.1697 53.1621 43.1526C53.0216 42.5599 52.875 41.9733 52.7161 41.3867Z" fill="#515257"/>
<path d="M53.8013 41.0577C53.8624 41.8581 53.8961 42.6616 53.9205 43.4652C53.9251 43.4939 53.9397 43.52 53.9619 43.5389C53.984 43.5577 54.0121 43.5681 54.0412 43.5681C54.0703 43.5681 54.0984 43.5577 54.1205 43.5389C54.1426 43.52 54.1573 43.4939 54.1619 43.4652C54.1863 42.6621 54.1649 41.8583 54.0977 41.0577C54.0855 40.8652 53.7861 40.8652 53.8013 41.0577Z" fill="#515257"/>
<path d="M55.2939 41.5738C55.2664 41.3843 54.9884 41.4638 55.0067 41.6532C55.1198 42.3009 55.2511 42.9455 55.41 43.5871C55.4467 43.7338 55.6605 43.6696 55.633 43.526C55.5047 42.8783 55.3917 42.2184 55.2939 41.5738Z" fill="#515257"/>
<path d="M41.6016 33.3247V33.6119C42.2126 33.6119 42.2126 33.3247 41.6016 33.3247Z" fill="#515257"/>
<path d="M70.5864 38.9506C70.1923 39.693 69.7921 40.4354 69.3827 41.1717C69.3002 41.3245 69.5324 41.4589 69.6149 41.3092C70.0243 40.5729 70.4276 39.8305 70.837 39.0881C70.9042 38.9323 70.6689 38.7948 70.5864 38.9506Z" fill="#515257"/>
<path d="M68.8082 39.1651C68.4749 40.328 67.9889 41.4416 67.3631 42.4769C67.2745 42.6113 67.4853 42.7305 67.577 42.6022C68.2949 41.5787 68.6982 40.4238 69.0862 39.2415C69.1351 39.0734 68.8662 39.0001 68.8082 39.1651Z" fill="#515257"/>
<path d="M67.0562 39.4497C66.9126 39.9935 66.7507 40.5281 66.5613 41.0567C66.3474 41.6433 66.1916 42.404 65.4798 42.5079C65.3392 42.5293 65.3698 42.7676 65.5134 42.7554C65.7197 42.746 65.9186 42.6757 66.085 42.5534C66.2514 42.431 66.3778 42.2621 66.4483 42.068C66.8155 41.2477 67.1011 40.3932 67.3006 39.5169C67.304 39.4865 67.2965 39.4559 67.2794 39.4306C67.2622 39.4053 67.2366 39.387 67.2071 39.3789C67.1777 39.3708 67.1463 39.3734 67.1186 39.3864C67.091 39.3994 67.0688 39.4218 67.0562 39.4497Z" fill="#515257"/>
<path d="M65.0527 40.0121C64.7655 40.7423 64.5547 41.5397 63.9559 42.0835C63.8428 42.1874 64.0078 42.3524 64.1209 42.2485C64.7502 41.6772 64.958 40.8339 65.2452 40.064C65.291 39.9449 65.0985 39.8929 65.0527 40.0121Z" fill="#515257"/>
<path d="M63.2617 39.8177C63.042 40.5368 62.7662 41.2376 62.4368 41.9135C62.3604 42.0724 62.5987 42.2191 62.6751 42.051C63.0117 41.3529 63.2936 40.6297 63.5183 39.888C63.5672 39.726 63.3106 39.6558 63.2617 39.8177Z" fill="#515257"/>
<path d="M61.4147 40.2791C61.1489 41.0704 60.9839 41.9564 60.3393 42.5369C60.214 42.6499 60.3942 42.821 60.5195 42.7172C61.2191 42.1367 61.3902 41.1682 61.6652 40.3494C61.7171 40.1905 61.4666 40.1203 61.4147 40.2791Z" fill="#515257"/>
<path d="M59.0149 42.312V42.0278C58.4039 42.0278 58.4039 42.312 59.0149 42.312Z" fill="#515257"/>
<path d="M15.3274 11.8011V11.627C14.7164 11.627 14.7164 11.8011 15.3274 11.8011Z" fill="#515257"/>
<path d="M10.7441 40.2571V40.5626C11.0497 40.5595 11.0497 40.2571 10.7441 40.2571Z" fill="#515257"/>
<path d="M58.8533 34.1403C58.9205 34.51 58.9846 34.8766 59.0518 35.2463C59.0702 35.3532 59.2291 35.3074 59.2107 35.2035L59.0396 34.0884C59.0182 33.9693 58.8319 34.0181 58.8533 34.1403Z" fill="#515257"/>
</svg>
