<svg width="80" height="55" viewBox="0 0 80 55" fill="none" xmlns="http://www.w3.org/2000/svg">
<path d="M37.6498 37.9814C37.0349 37.8825 36.4696 37.584 36.0411 37.132C35.5972 36.6044 35.5489 35.9127 35.5006 35.2532C35.4749 34.896 34.928 34.8864 34.9376 35.2532C34.9537 36.0736 35.0052 36.8618 35.5006 37.5503C35.9776 38.1791 36.6714 38.608 37.4471 38.7535C37.9361 38.8758 38.1517 38.1004 37.6498 37.9814Z" fill="#515257"/>
<path d="M42.9748 37.7367C42.792 37.9086 42.562 38.0219 42.3143 38.062C42.0666 38.1021 41.8126 38.0673 41.5849 37.962L41.8165 37.904C42.3892 37.7528 42.1383 36.8423 41.572 37.0161C41.2617 37.1201 40.9446 37.2029 40.6229 37.2638C40.3802 37.0074 40.1716 36.7209 40.002 36.4112C39.9151 36.2472 39.6803 36.3951 39.7511 36.5592C39.8888 36.823 40.0561 37.0701 40.2497 37.296C40.0942 37.2979 39.9393 37.2774 39.7897 37.2349C39.5452 37.1673 39.4937 37.1544 39.3779 36.9131C39.2834 36.681 39.2059 36.4423 39.1462 36.1989C39.1154 36.1279 39.0601 36.0704 38.9904 36.0369C38.9206 36.0034 38.8412 35.9961 38.7665 36.0164C38.6919 36.0368 38.627 36.0833 38.5839 36.1475C38.5408 36.2118 38.5223 36.2894 38.5317 36.3662C38.6572 36.9871 38.6379 37.6531 39.2846 37.9394C39.8643 38.1747 40.5029 38.2242 41.112 38.081C41.7747 38.496 42.5372 38.6086 43.2032 37.978C43.3641 37.8204 43.1292 37.6016 42.9748 37.7367Z" fill="#515257"/>
<path d="M25.166 36.6459C24.5131 36.4181 23.8829 36.1294 23.2839 35.7837C23.2191 35.7457 23.1418 35.7351 23.0691 35.7541C22.9964 35.7731 22.9342 35.8202 22.8963 35.885C22.8583 35.9499 22.8476 36.0272 22.8666 36.0999C22.8856 36.1726 22.9328 36.2348 22.9976 36.2727C23.3193 36.4593 23.6411 36.6298 23.9628 36.7875C23.9478 36.8147 23.9401 36.8453 23.9405 36.8763C23.9408 36.9073 23.9491 36.9377 23.9647 36.9646C23.9802 36.9914 24.0024 37.0138 24.0291 37.0296C24.0558 37.0454 24.0862 37.0539 24.1172 37.0545C24.1549 37.0565 24.1921 37.0454 24.2226 37.0231C24.2531 37.0009 24.2749 36.9688 24.2845 36.9323C24.5226 37.0352 24.7639 37.1382 25.0116 37.2283C25.3687 37.3602 25.5328 36.7907 25.166 36.6459Z" fill="#515257"/>
<path d="M33.7268 16.6833C30.1524 16.2008 26.4171 16.2844 22.8234 16.4807C19.0689 16.6898 15.3369 16.3423 11.5952 16.59C11.4569 16.59 11.4536 16.8153 11.5952 16.812C15.2339 16.6801 18.7954 17.2978 22.4535 17.1338C26.1115 16.9697 29.9722 16.7863 33.6496 17.2528C33.9681 17.2882 34.0324 16.7252 33.7268 16.6833Z" fill="#515257"/>
<path d="M64.5228 18.8942C62.6375 18.6948 60.7714 18.8621 58.8829 18.9168C56.9172 18.9747 54.9546 18.8299 52.9889 18.7816C51.1615 18.7366 49.3308 18.8717 47.5195 18.7816C46.6927 18.7366 45.8691 18.6272 45.039 18.6079C44.209 18.5886 42.9317 18.891 42.1177 18.5757C42.0244 18.5403 41.9665 18.6883 42.0502 18.7366C43.0153 19.306 44.8363 19.0004 45.9559 19.1355C47.9541 19.3301 49.9617 19.4107 51.969 19.3768C53.9251 19.3961 55.8812 19.5602 57.8373 19.5506C60.0894 19.5506 62.2964 19.3286 64.5356 19.454C64.8799 19.4605 64.867 18.9296 64.5228 18.8942Z" fill="#515257"/>
<path d="M68.9991 18.5781C68.6774 18.5781 68.6774 18.7165 68.9991 18.7165V18.5781Z" fill="#515257"/>
<path d="M54.57 9.85041C53.5267 9.4355 52.524 8.925 51.5747 8.32543C51.1785 8.04139 50.812 7.71802 50.4808 7.36025C51.6069 7.85571 52.7876 8.171 53.9362 8.64716C54.1549 8.73402 54.2579 8.37691 54.0327 8.29004C52.6782 7.75276 51.2883 7.44068 49.9821 6.76827C49.9672 6.76004 49.9508 6.75459 49.9339 6.75219C49.6636 6.43046 49.4062 6.10873 49.1553 5.76449C49.0363 5.61006 48.7724 5.76449 48.8915 5.9157C49.5226 6.84061 50.2709 7.6798 51.1178 8.4123C52.083 9.18766 53.2509 9.6799 54.3705 10.1947C54.5989 10.2944 54.7984 9.95658 54.57 9.85041Z" fill="#515257"/>
<path d="M28.053 29.5383C27.5576 27.5082 27.4096 25.4298 27.2712 23.3515C27.2712 23.1745 26.9817 23.1745 26.9946 23.3515C27.1297 25.4588 27.2745 27.5596 27.7667 29.6155C27.7769 29.6535 27.8018 29.6858 27.8359 29.7054C27.87 29.725 27.9105 29.7303 27.9485 29.72C27.9865 29.7098 28.0188 29.6849 28.0384 29.6508C28.058 29.6167 28.0633 29.5762 28.053 29.5383Z" fill="#515257"/>
<path d="M29.4358 24.8104C29.4358 24.598 29.0948 24.598 29.1141 24.8104C29.2074 26.4608 29.1141 28.1177 29.2041 29.7714C29.2041 29.987 29.5548 29.9902 29.5452 29.7714C29.4744 28.1049 29.5291 26.4608 29.4358 24.8104Z" fill="#515257"/>
<path d="M30.6975 25.2964C30.6975 25.2537 30.6805 25.2128 30.6504 25.1826C30.6202 25.1524 30.5793 25.1355 30.5366 25.1355C30.494 25.1355 30.453 25.1524 30.4229 25.1826C30.3927 25.2128 30.3758 25.2537 30.3758 25.2964C30.3565 26.8117 30.3758 28.2562 30.4819 29.7716C30.4819 29.9646 30.8036 29.9678 30.7876 29.7716C30.72 28.2659 30.6878 26.8181 30.6975 25.2964Z" fill="#515257"/>
<path d="M32.4237 28.4898C32.4327 28.4786 32.4393 28.4657 32.4432 28.4519C32.4471 28.4381 32.4481 28.4236 32.4462 28.4094C32.4141 28.0877 32.3851 27.7466 32.3562 27.412L32.3368 27.145C32.3368 26.9777 32.0634 26.9745 32.073 27.145C32.073 27.1868 32.073 27.2254 32.073 27.264C32.0642 27.289 32.0642 27.3163 32.073 27.3412L32.102 28.107C32.1406 28.6668 32.1824 29.2233 32.2339 29.7832C32.2339 29.9569 32.5267 29.9569 32.5074 29.7832C32.4784 29.3456 32.443 28.9177 32.4237 28.4898Z" fill="#515257"/>
<path d="M43.2372 30.5098C42.9476 29.7097 42.6892 28.899 42.4618 28.0775C42.4507 28.0349 42.4232 27.9983 42.3851 27.976C42.3471 27.9537 42.3018 27.9474 42.2592 27.9585C42.2165 27.9696 42.18 27.9972 42.1577 28.0352C42.1353 28.0732 42.129 28.1185 42.1401 28.1612C42.3685 28.9816 42.6259 29.7923 42.9187 30.5934C43.0023 30.7832 43.308 30.6996 43.2372 30.5098Z" fill="#515257"/>
<path d="M46.8416 30.508C46.5222 29.4262 46.292 28.3201 46.1531 27.2007C46.1241 27.0044 45.8313 27.0881 45.8571 27.2811C45.9851 28.4023 46.2111 29.51 46.5327 30.5917C46.597 30.7847 46.9027 30.7043 46.8416 30.508Z" fill="#515257"/>
<path d="M79.4803 26.3722C79.9562 24.987 80.1081 23.511 79.9243 22.0579C79.8954 21.8359 79.8664 21.5721 79.8342 21.2954H79.5125C79.4991 21.0206 79.4184 20.7532 79.2776 20.5168C79.2086 20.4142 79.1239 20.323 79.0267 20.2466C78.9228 19.8803 78.7656 19.5312 78.5602 19.2106C77.1961 17.1612 74.6223 16.3151 72.3348 15.7778C72.2409 15.7518 72.1416 15.7528 72.0483 15.7807C71.955 15.8086 71.8714 15.8622 71.8071 15.9354C71.1122 15.7488 70.4109 15.5719 69.6966 15.4303C67.792 15.0603 65.9196 14.7032 64.0503 14.3011C64.0212 14.2696 63.9829 14.2482 63.9409 14.2399C62.9758 14.0115 61.9655 13.6898 60.9714 13.6705C60.7873 13.5528 60.5655 13.5091 60.3505 13.5482C60.3278 13.5578 60.3073 13.5719 60.2901 13.5895C60.273 13.6072 60.2596 13.6282 60.2507 13.6512C59.9644 13.4839 59.6748 13.3294 59.4078 13.1396C58.9858 12.8705 58.5933 12.5578 58.2367 12.2066C57.9172 11.9148 57.6721 11.5509 57.5215 11.1452C57.371 10.7395 57.3195 10.3037 57.3713 9.8741C57.2979 9.67839 57.2108 9.4881 57.1107 9.30464C56.3707 6.1292 54.643 3.24331 53.4173 0.296294C53.3999 0.236972 53.3695 0.182314 53.3281 0.13637C53.2868 0.0904258 53.2356 0.0543751 53.1785 0.0308903C53.1213 0.00740553 53.0596 -0.00291075 52.9979 0.000705711C52.9362 0.00432217 52.8761 0.0217784 52.8221 0.0517812C51.7732 0.695235 51.1459 1.72476 50.0295 2.36178C49.1286 2.87654 48.1506 3.32696 47.5297 4.20849C47.0374 4.89699 47.0471 5.38923 47.1532 6.18389C47.3431 7.60592 47.475 8.69336 46.9248 9.66498C46.8676 9.52091 46.8266 9.37092 46.8026 9.21777C46.78 9.08265 46.5773 9.14056 46.5966 9.27569C46.6306 9.49627 46.69 9.71219 46.7736 9.91914C46.4569 10.3535 46.0646 10.7273 45.6154 11.0227C45.2376 11.2807 44.8755 11.5611 44.5312 11.8624C44.4707 11.8262 44.4042 11.8012 44.3349 11.7884C40.7187 11.1449 36.9802 12.4318 33.3254 12.4318C31.5601 12.3748 29.7941 12.5205 28.062 12.8662C27.0417 13.0845 26.0108 13.2499 24.9734 13.3616C24.9058 13.3616 24.8351 13.3809 24.7643 13.3938C23.709 13.4774 22.657 13.5482 21.5985 13.5997C18.2525 13.767 14.9323 13.7252 11.5863 13.7316C9.31817 13.7316 7.14009 14.182 4.94269 14.5359C4.92658 14.492 4.8964 14.4546 4.85683 14.4296C4.81727 14.4045 4.77054 14.3933 4.72392 14.3976C2.87078 14.4233 1.18493 14.6196 0.280878 16.3923C-0.282144 17.4861 0.0202821 18.5543 1.01763 18.9661C1.01763 19.3522 1.01763 19.735 1.01763 20.1211C1.06268 20.9962 1.20102 21.8584 1.27501 22.7303C1.32649 23.3126 1.20745 24.0687 1.44875 24.606C1.57798 24.8859 1.76428 25.1357 1.99569 25.3395C1.44232 25.6612 0.966161 26.1406 0.879295 26.7326C0.760256 27.5626 1.52274 28.4989 1.55813 29.2742C1.59352 30.0496 1.26536 30.8346 1.59996 31.5778C1.78044 31.9468 2.06437 32.2553 2.41715 32.4657C3.18607 33.0416 3.22468 32.6716 2.8 33.7784C2.41071 34.7886 2.15654 35.86 2.87399 36.7769C2.76369 37.6959 2.72282 38.6218 2.75174 39.5469C2.77426 40.4574 2.39784 41.8698 2.79356 42.6934C3.14424 43.427 4.3282 43.6136 4.99096 43.9031C6.38404 44.508 7.85432 44.894 9.27313 45.4345C12.1075 46.5123 14.7425 47.8797 17.6541 48.7902C21.0194 49.839 24.3267 51.0648 27.7403 51.9431C34.1748 53.5871 40.4549 55.2697 47.15 54.9384C53.5916 54.5949 59.9506 53.3283 66.0322 51.1774C69.1947 50.0738 72.7884 49.0121 75.5585 47.0593C78.3286 45.1064 76.6234 42.5294 76.8808 39.6596C76.8824 39.636 76.8824 39.6123 76.8808 39.5888C77.2477 39.4204 77.5812 39.1872 77.8653 38.9003C78.7564 37.9351 79.1715 35.8085 79.223 34.557C79.3034 32.559 78.01 30.4421 77.2926 28.6404C77.8037 28.4501 78.2656 28.1475 78.6442 27.755C79.0229 27.3624 79.3086 26.8899 79.4803 26.3722ZM62.4288 14.6131L61.6438 14.8963C61.5137 14.6777 61.3497 14.4811 61.158 14.3139C61.5737 14.4639 62.0057 14.5643 62.4449 14.6131H62.4288ZM47.8964 10.6366C48.1142 10.9031 48.3542 11.1507 48.6139 11.3766C48.3048 11.2175 48.0145 11.0243 47.7484 10.8007C47.7967 10.7492 47.8675 10.6977 47.8964 10.6366ZM45.2197 12.6989C45.7087 12.2002 46.4551 11.9396 47.0117 11.5213C47.2162 11.3656 47.4067 11.1923 47.5811 11.0034C47.9076 11.2584 48.2629 11.4744 48.6396 11.6468C48.9067 11.7755 49.1769 11.8945 49.4471 12.0039C49.9944 12.3346 50.5889 12.5798 51.2102 12.731C51.2445 12.7388 51.2804 12.7368 51.3136 12.7251C51.3468 12.7134 51.376 12.6926 51.3979 12.665C51.4198 12.6374 51.4334 12.6042 51.4372 12.5692C51.441 12.5342 51.4348 12.4988 51.4193 12.4672C51.674 12.4794 51.9293 12.4675 52.1818 12.4318C52.3684 12.4029 52.3266 12.0683 52.1336 12.1101C51.4044 12.1817 50.6682 12.1185 49.9619 11.9235C49.2284 11.558 48.5846 11.0351 48.0766 10.3921C48.4162 9.84065 48.6253 9.2189 48.6879 8.57432C48.7471 7.95024 48.7091 7.32074 48.5753 6.70831C48.2761 5.21871 48.8198 4.44013 50.0713 3.65834C50.6311 3.36441 51.1688 3.02999 51.6799 2.65777C52.214 2.20735 52.5293 1.62502 52.9443 1.10383C53.5395 2.20735 53.6714 3.38165 54.1733 4.5463C54.8263 5.92814 55.3915 7.34977 55.8656 8.80275C55.7917 8.88483 55.7533 8.9928 55.7587 9.1031C55.7642 9.2134 55.813 9.31707 55.8946 9.39151C55.9616 9.44941 56.0201 9.51657 56.0683 9.59098C56.1962 10.1454 56.2802 10.7091 56.3192 11.2768C56.3258 11.3752 56.3593 11.4698 56.416 11.5504C56.4728 11.6309 56.5506 11.6944 56.641 11.7337V11.7691C56.9276 12.3846 57.3409 12.9328 57.8539 13.3777C58.4684 13.9472 59.2502 14.3171 59.8711 14.8673C60.4019 15.3402 60.4599 15.0314 60.1478 15.5107C59.9547 15.8035 58.803 15.9547 58.4973 16.0352C56.4415 16.5853 54.4082 16.3183 52.317 16.492C51.3518 16.5757 50.3866 16.6657 49.4021 16.6529C48.6074 16.6529 47.2112 16.8363 46.5291 16.3923C46.4487 16.3408 46.3811 16.4631 46.4551 16.5178C46.5291 16.5724 46.5967 16.6143 46.6674 16.6593C44.618 16.7172 43.8555 14.0952 45.2197 12.6989ZM1.43588 18.0492C0.284094 17.129 1.86377 15.6941 2.50079 15.4078C2.94077 15.2304 3.39791 15.0988 3.86492 15.0153L4.02256 15.1054C6.41942 14.9606 8.81307 14.4909 11.226 14.5552C14.572 14.6453 17.889 14.7515 21.2381 14.6517C22.2355 14.6228 23.2296 14.5713 24.2238 14.5134C25.0007 14.5608 25.7805 14.5067 26.5434 14.3525C27.367 14.285 28.1907 14.2174 29.0143 14.1402C28.7859 14.1402 28.5574 14.1402 28.3322 14.1595C28.284 14.1595 28.2421 14.1595 28.2003 14.1595H28.329C30.1693 14.1112 32.0063 14.1917 33.8434 14.0855C35.7738 13.9729 37.7267 13.8764 39.6506 13.6415C40.9085 13.4871 42.3241 13.6029 43.5563 13.2973C43.4187 13.7766 43.4187 14.285 43.5563 14.7643C43.8555 15.9258 44.47 16.714 45.3516 17.0164C45.2229 17.0164 45.165 17.1934 45.3033 17.2256L45.9468 17.3768C45.9764 17.3841 46.0077 17.3811 46.0355 17.3684C46.0632 17.3557 46.0859 17.3339 46.0997 17.3067C46.1135 17.2794 46.1176 17.2483 46.1115 17.2184C46.1053 17.1885 46.0892 17.1615 46.0658 17.1419C46.3612 17.1499 46.6565 17.1196 46.9441 17.0518C46.9811 17.0423 47.0142 17.0213 47.0385 16.9918C47.0627 16.9623 47.077 16.9259 47.0792 16.8877C48.8262 17.6663 51.5834 17.2609 53.2854 17.2931C55.8592 17.3414 58.3751 17.7081 60.8363 16.5306C61.7017 16.1156 61.9623 15.6105 61.7371 15.0635C64.2787 15.6555 66.7914 16.0866 69.4006 16.5371C70.2661 16.6883 71.1154 16.8845 71.9744 17.1033C72.2222 17.084 72.4667 17.0776 72.7144 17.0615C74.4003 17.5795 76.6298 18.4063 77.5725 19.8219C77.1768 19.9055 77.0738 20.5812 77.5339 20.6423C77.6819 20.6616 77.8556 20.6745 78.0068 20.697C78.5248 22.1383 77.2797 21.9453 76.0765 21.7169C75.4974 21.6107 75.536 21.3951 74.9247 21.3662C74.1718 21.3211 73.7311 21.6396 73.0973 22.0096C71.2892 23.0295 71.2667 20.8836 69.7031 20.7227C68.0719 20.549 67.6955 23.0166 67.1292 24.0204C66.8568 24.509 66.5332 24.9674 66.1641 25.3878C66.3452 24.9514 66.5031 24.5057 66.637 24.0526C67.0295 22.8075 67.4156 21.5592 67.8145 20.3173C67.8628 20.1694 67.6311 20.1082 67.5829 20.253C67.3834 20.8675 66.045 26.2242 65.2986 26.0988C65.2699 26.091 65.2394 26.0936 65.2124 26.1062C65.1855 26.1188 65.1639 26.1406 65.1515 26.1677C65.1392 26.1947 65.1368 26.2253 65.1449 26.2539C65.153 26.2826 65.171 26.3074 65.1957 26.324C63.587 27.6109 61.5698 28.0517 60.2379 25.5229C59.7295 24.5577 59.7585 22.5855 58.5906 22.0836C57.0142 21.3501 56.3707 23.8917 54.6237 23.2804C53.9192 23.0359 53.3754 22.1769 52.6258 21.8842C52.2585 21.7116 51.8505 21.6443 51.4473 21.6898C51.044 21.7352 50.6613 21.8916 50.3416 22.1415C49.875 22.5304 49.4863 23.0042 49.1962 23.5378C48.6911 24.3325 48.038 26.1889 46.365 24.7958C45.7602 24.2939 45.506 23.2547 45.2229 22.5437C44.8497 21.6236 44.4893 19.9281 43.0995 20.2691C42.1343 20.5039 41.7321 21.7201 41.4555 22.5212C41.0983 23.5732 40.8796 24.6317 40.3069 25.6065C39.1229 27.6109 36.9159 27.9873 35.3523 26.6264C35.3685 26.6382 35.3877 26.6453 35.4076 26.647C35.4276 26.6486 35.4477 26.6448 35.4656 26.6358C35.4835 26.6268 35.4986 26.6131 35.5093 26.5961C35.52 26.5792 35.5257 26.5596 35.526 26.5395C35.5807 24.5287 35.748 22.5115 35.9185 20.5072C35.9185 20.356 35.6965 20.356 35.6805 20.5072C35.4939 22.4697 35.14 24.5706 35.2976 26.5395C35.2991 26.5638 35.3094 26.5867 35.3266 26.6039C35.003 26.314 34.7253 25.9766 34.503 25.6033C34.4097 23.3158 34.4 21.0605 34.503 18.757C34.503 18.6765 34.3807 18.6765 34.3775 18.757C34.2777 20.919 34.2617 23.0488 34.297 25.1915C33.5249 23.5217 33.763 21.4949 32.3345 20.1307C32.0106 19.7663 31.5617 19.5366 31.0766 19.4873C30.8036 19.5012 30.535 19.561 30.2819 19.6642C29.1526 20.0181 28.5574 20.3817 27.3477 20.3978C26.4083 20.3978 25.4174 20.8257 24.5198 20.7967C22.8597 20.7452 23.0173 19.5774 21.8462 19.2299C19.9577 18.6637 19.3882 21.2117 17.8439 21.6396C14.8873 22.46 15.3152 18.3291 13.2143 17.9655C12.5708 17.8529 12.0528 18.3066 11.6636 18.7602C11.5016 18.9662 11.3513 19.181 11.2132 19.4036C11.1713 19.2685 10.9493 19.2782 10.959 19.4326C10.959 19.5323 10.959 19.6321 10.959 19.7286C10.5028 20.3356 9.89468 20.8116 9.19592 21.1088C9.25383 20.6455 9.30853 20.1854 9.36001 19.7254C9.37931 19.5645 9.13157 19.5677 9.11227 19.7254C9.05114 20.2112 8.98681 20.6905 8.92246 21.1764C8.68983 21.2186 8.45032 21.2022 8.22562 21.1286C8.00091 21.0551 7.79811 20.9266 7.63556 20.7549C7.70634 20.1887 7.76425 19.6192 7.78034 19.0433C7.78034 18.9146 7.58408 18.9146 7.57765 19.0433C7.55834 19.5452 7.50687 20.0439 7.43931 20.5361C7.39748 20.4846 7.35243 20.4364 7.31061 20.3753C6.44838 19.1237 7.1594 16.9843 4.93948 17.2384C4.09334 17.3575 2.21124 18.6669 1.43588 18.0492ZM12.78 19.5581C12.5194 21.8359 12.0336 24.1652 12.0818 26.4655C12.0786 26.4804 12.0786 26.4957 12.0818 26.5106C11.5992 26.3175 11.1166 26.1181 10.6308 25.9379C10.6083 24.2456 11.0459 22.5984 11.1906 20.9318C11.3451 20.742 11.4738 20.5393 11.6153 20.327C11.7569 20.1147 11.937 19.5613 12.1268 19.4551C12.484 19.246 13.5682 19.2943 13.8095 19.4551C14.0508 19.616 14.2084 20.06 14.3693 20.4203C14.3453 20.4264 14.3237 20.4394 14.3071 20.4577C14.2905 20.476 14.2797 20.4988 14.276 20.5233C14.009 22.563 13.8191 24.6092 13.5843 26.6361C13.5843 26.7776 13.8063 26.8098 13.832 26.6714C14.202 24.696 14.2599 22.6466 14.4755 20.6487L14.5237 20.7324C14.7747 21.1168 15.0718 21.469 15.4085 21.7812C15.3441 23.6279 15.3441 25.4736 15.4085 27.3181C15.4085 27.5079 15.7141 27.5079 15.7045 27.3181C15.6358 25.5379 15.6219 23.7598 15.6626 21.9839H15.6787C16.1642 22.3632 16.7646 22.5652 17.3806 22.5566C17.416 24.3679 17.4225 26.1889 17.5415 27.9937C16.2427 27.7791 14.9602 27.4749 13.7033 27.0833C13.24 26.932 12.7832 26.7615 12.3263 26.5685C12.3525 26.5564 12.3744 26.5367 12.3893 26.5121C12.4042 26.4874 12.4114 26.4589 12.41 26.4302C12.41 24.1234 12.8346 21.8102 13.0759 19.5227C13.092 19.3683 12.7993 19.3715 12.78 19.5581ZM4.39899 21.5914C4.56123 20.6005 4.77602 19.6189 5.04244 18.6508C5.40976 18.6936 5.75704 18.841 6.043 19.0755C6.07973 19.1268 6.10297 19.1866 6.11057 19.2492C5.70842 21.0798 5.36416 23.0778 5.55398 24.9084C5.57329 25.1111 5.8757 25.1175 5.8757 24.9084C5.7989 23.2737 5.92208 21.6358 6.24247 20.031C6.32242 20.3434 6.454 20.6403 6.63177 20.9093C6.80113 21.1646 7.01992 21.3834 7.27522 21.5528C7.04291 22.7598 6.90202 23.9826 6.85376 25.2108C5.99641 25.196 5.14403 25.0772 4.31533 24.8569C4.19629 24.8215 4.08368 24.7861 3.97751 24.7475C3.87778 23.747 4.24134 22.4793 4.39899 21.5914ZM3.69761 24.6639C3.31916 24.5499 2.98318 24.3259 2.73243 24.0204C2.75817 23.2483 2.83861 22.4826 2.93834 21.704C3.05738 20.7774 3.28903 19.7447 3.33085 18.7731C3.58244 18.6794 3.84352 18.6136 4.10942 18.5768C4.34989 18.5555 4.59211 18.5652 4.8301 18.6058C4.49773 19.7934 4.23136 20.9985 4.03221 22.2155C3.90996 22.9748 3.66866 23.8531 3.69761 24.6639ZM7.50364 21.6718C7.90823 21.8819 8.35719 21.9922 8.81307 21.9935C8.67151 23.0617 8.54282 24.133 8.49134 25.2108C8.49134 25.4103 8.79376 25.4135 8.81307 25.2108C8.85489 24.1298 8.97072 23.052 9.10263 21.9935C9.76359 21.9511 10.3937 21.6986 10.9011 21.2729C10.7338 22.8011 10.3606 24.3261 10.3606 25.8639C9.88531 25.6926 9.39823 25.556 8.90316 25.4553C8.32473 25.3531 7.73995 25.2907 7.15297 25.2687C7.17651 24.0625 7.29374 22.8599 7.50364 21.6718ZM1.96672 20.9769C1.85734 20.372 1.78013 19.7543 1.72222 19.1302C2.17717 19.1484 2.63062 19.0671 3.05095 18.8921C2.99304 19.9345 2.72922 21.0412 2.60374 22.0289C2.54262 22.489 2.48471 22.9491 2.4461 23.4091C2.43002 23.348 2.41071 23.2965 2.39785 23.2322C2.23055 22.4858 2.09863 21.7201 1.96672 20.9704V20.9769ZM2.86434 31.0019C2.30132 30.1686 2.66487 29.5252 2.43001 28.5986C2.14046 27.45 1.34901 26.4173 2.52331 25.7224C3.19838 26.0677 3.93126 26.2858 4.68532 26.3658C4.08691 28.0742 3.60431 29.8308 3.59788 31.626C3.31087 31.4738 3.06054 31.2608 2.86434 31.0019ZM4.98452 34.5216C4.66279 34.4315 4.64349 33.7816 4.7014 33.1317C4.86732 33.2641 5.06082 33.3575 5.26764 33.4052C5.21617 33.7848 5.17756 34.1677 5.16148 34.5537C5.1615 34.5894 5.17314 34.6241 5.19461 34.6525C5.21609 34.6809 5.24624 34.7016 5.28051 34.7114C5.76954 34.8497 5.95936 34.5666 6.07197 34.1098C6.07866 34.0712 6.07076 34.0315 6.04982 33.9985C6.02888 33.9654 5.99639 33.9413 5.95866 33.9309C5.92094 33.9204 5.88069 33.9244 5.84573 33.942C5.81078 33.9596 5.78362 33.9896 5.76954 34.0261C5.47999 34.3092 5.39634 34.2481 5.52181 33.8427C5.54111 33.7076 5.5572 33.5725 5.57329 33.4406C5.83947 33.4327 6.09986 33.3609 6.33257 33.2315C6.33257 33.3151 6.29394 33.3923 6.27786 33.476C6.14595 34.1194 5.98188 34.7178 6.22317 35.3581C6.23667 35.403 6.26687 35.441 6.30757 35.4644C6.34826 35.4877 6.39635 35.4946 6.44194 35.4835C6.62844 35.4273 6.79779 35.325 6.93441 35.1861C7.07103 35.0473 7.17052 34.8763 7.22374 34.6889C7.27843 34.5441 7.03392 34.4379 6.96958 34.5827C6.94158 34.6969 6.87833 34.7994 6.78882 34.8756C6.69931 34.9518 6.58809 34.9979 6.47091 35.0074C6.41922 34.6966 6.43567 34.3782 6.51915 34.0744C6.57706 33.7527 6.64464 33.3988 6.71542 33.0609C6.71542 33.0255 6.71541 32.9902 6.74115 32.9515C6.92781 32.791 7.08939 32.6034 7.22052 32.395C7.32668 32.2277 7.0661 32.0732 6.95672 32.2405C6.93098 32.2791 6.90202 32.3145 6.87306 32.3531C6.94384 32.0314 7.0114 31.7097 7.0854 31.4137C7.3653 32.1858 7.81572 32.9773 8.53961 33.2604C8.5203 33.3698 8.501 33.4792 8.48492 33.5821C8.44425 33.8244 8.43128 34.0705 8.44629 34.3157C8.12457 34.5698 7.80284 34.853 7.50364 35.0975C7.20443 35.342 6.88271 35.638 6.56098 35.8954L5.86928 36.4359L5.75024 36.4101C5.73756 36.407 5.7243 36.407 5.71163 36.4101C3.9121 36.024 3.29224 35.328 3.85205 34.3221C4.01251 33.946 4.19293 33.5787 4.39254 33.2218C4.37794 33.6939 4.42116 34.1661 4.52123 34.6277C4.5289 34.6524 4.54264 34.6748 4.56119 34.6928C4.57974 34.7107 4.60251 34.7238 4.62741 34.7307L4.91374 34.7854C5.07782 34.8015 5.15825 34.5409 4.98452 34.5055V34.5216ZM3.73944 31.7161C3.73944 31.5167 3.73944 31.3461 3.73944 31.2593C3.73944 31.1209 3.73944 30.9858 3.76196 30.8475C3.79956 31.1753 3.86961 31.4986 3.97108 31.8126C3.97108 31.8416 3.98718 31.8673 3.99683 31.8931C3.92283 31.8159 3.83274 31.7579 3.73944 31.7V31.7161ZM4.45367 42.2945C3.7684 41.7765 4.13195 42.2527 3.81022 41.4934C3.29224 40.332 3.26007 38.704 3.36302 37.2402C3.5862 37.4043 3.83372 37.5324 4.09656 37.6198C4.27351 39.296 4.41829 40.9754 4.94914 42.584C4.77474 42.498 4.60885 42.3956 4.45367 42.2784V42.2945ZM75.536 45.6372C74.2265 47.085 71.7557 47.6512 70.0119 48.3269C67.5958 49.2599 65.186 50.1285 62.7345 50.9007C63.2589 50.0352 63.4519 48.9703 63.6996 48.0051C64.0585 46.6503 64.3007 45.2672 64.4235 43.871C64.4235 43.7069 64.1854 43.7069 64.1694 43.871C64.0458 45.1738 63.8188 46.4648 63.4905 47.7317C63.4133 48.018 62.5253 51.0519 62.2647 50.8556C62.1135 50.7366 61.898 50.9425 62.0492 51.0712C61.3543 51.2771 60.6561 51.4798 59.9515 51.6664C52.6644 53.5968 44.869 54.3432 37.4114 52.9533C33.082 52.1264 28.8035 51.0522 24.597 49.736C24.6167 49.7354 24.636 49.7305 24.6536 49.7218C24.6713 49.7131 24.6869 49.7007 24.6994 49.6855C24.7119 49.6703 24.721 49.6525 24.726 49.6335C24.7311 49.6145 24.7321 49.5946 24.7289 49.5752C24.5005 48.3912 23.8088 47.278 23.3744 46.1649C22.8918 44.9198 22.4671 43.6586 22.0875 42.3846C22.0489 42.2591 21.8527 42.3106 21.8913 42.4361C22.2838 43.723 22.702 44.9777 23.1782 46.2228C23.6028 47.3456 24.2592 48.4749 24.4972 49.6459C24.5034 49.6708 24.5169 49.6932 24.5358 49.7103C23.9439 49.5269 23.3519 49.3435 22.7599 49.1537C22.0214 46.3586 21.1158 43.6104 20.0478 40.9239C20.0027 40.8081 19.8097 40.8596 19.8579 40.9786C20.892 43.6195 21.7581 46.3231 22.4511 49.0733C20.2151 48.3558 17.9952 47.5998 15.8042 46.8212C14.4208 46.3354 13.0663 45.7788 11.7118 45.2126C11.0845 42.5422 11.1134 39.6885 10.9268 36.9667C10.9268 36.7769 10.6051 36.7769 10.6308 36.9667C10.8174 39.6435 10.7949 42.4361 11.3805 45.0742C9.8426 44.4308 8.30795 43.7873 6.73793 43.205C6.27786 43.0377 5.72771 42.8833 5.22904 42.6934C4.64028 41.0687 4.47297 39.37 4.28959 37.6648C4.75571 37.7871 5.2455 37.7871 5.71163 37.6648C5.77771 39.3427 6.00395 41.0104 6.38725 42.6452C6.39536 42.675 6.41499 42.7005 6.44184 42.7159C6.46869 42.7312 6.50056 42.7353 6.53042 42.7272C6.56029 42.7191 6.58571 42.6995 6.6011 42.6726C6.61648 42.6458 6.62057 42.6139 6.61247 42.584C6.32654 41.5378 6.11686 40.4723 5.9851 39.3957C5.9304 38.8038 5.9111 38.2086 5.88536 37.6134C5.91432 37.6134 5.94648 37.6134 5.97543 37.5876C7.1047 37.1565 7.98302 35.9436 8.94176 35.3355C8.96325 35.3338 8.98403 35.3271 9.00246 35.3159C9.0209 35.3048 9.03648 35.2895 9.04794 35.2712C9.75574 34.8626 10.515 34.8111 11.448 35.6766C12.2941 36.4616 13.0373 37.3656 13.9221 38.1024C14.0097 40.337 14.2246 42.5648 14.5655 44.775C14.5913 44.9101 14.7875 44.8522 14.7682 44.7203C14.5977 43.4656 14.3371 42.2398 14.2535 40.9722C14.1923 40.0714 14.1602 39.1673 14.1183 38.2633C14.5071 38.5751 14.9328 38.8377 15.3859 39.0451C15.7296 39.2021 16.0934 39.3104 16.467 39.3668C16.9688 41.6189 17.4514 43.8999 18.008 46.1552C17.9921 46.1674 17.9815 46.1852 17.9785 46.205C17.9755 46.2249 17.9803 46.2451 17.9919 46.2614L18.0627 46.3643C18.076 46.3863 18.0968 46.4027 18.1213 46.4105C18.1457 46.4183 18.1722 46.4169 18.1957 46.4067C18.2193 46.3965 18.2383 46.3781 18.2494 46.355C18.2604 46.3318 18.2627 46.3054 18.2558 46.2807C17.6123 43.9964 17.1233 41.6929 16.6021 39.3861C17.7796 39.5116 18.8188 39.0644 20.1185 38.7426C22.4028 38.1764 23.1653 40.0295 25.0088 40.8467C26.6174 41.5577 28.1939 41.0269 29.7832 40.525C30.8095 40.2033 31.8487 39.8815 32.9297 40.1614C34.0944 40.4574 35.1142 41.2392 36.2145 41.7025C37.8907 42.4135 39.6731 42.7224 41.4587 42.2945C42.3788 42.0757 43.2249 41.6124 44.1387 41.3904C45.6186 41.0301 46.4776 41.503 47.7613 41.9663C49.6337 42.6484 51.2392 42.5133 53.0601 41.799C54.3471 41.2875 55.0516 40.8692 56.567 41.2811C57.3713 41.4966 58.0823 41.8473 58.9252 41.947C61.4379 42.2495 63.4294 40.4896 65.8391 40.8371C68.1652 41.1588 70.4752 40.9304 72.7948 40.6247C73.7921 40.5103 74.7786 40.3167 75.7451 40.0456C75.7387 41.68 76.5784 44.479 75.536 45.6372ZM77.7881 33.003C78.3221 34.6792 77.7495 37.6809 76.0475 38.4306C74.2265 39.2317 72.2061 39.37 70.2564 39.5662C68.3068 39.7625 66.5952 39.3153 64.7292 39.3571C63.0755 39.3957 61.7789 40.644 60.1285 40.7438C58.478 40.8435 57.2329 39.8429 55.6565 39.7593C54.2023 39.6853 52.9089 40.7985 51.5705 41.1845C49.3474 41.828 47.9447 40.4092 45.921 40.0681C44.5119 39.8301 43.0802 40.6859 41.7836 41.0912C39.3482 41.8569 37.2119 41.0912 35.0531 39.9427L34.5158 39.6692C34.6895 39.4987 34.6735 39.1158 34.3807 39.0708C32.431 38.7491 31.675 36.9281 31.4272 35.1843C31.3854 34.898 30.8803 34.9623 30.9157 35.2519C31.0766 36.5581 31.5592 38.0895 32.5501 38.9904C32.194 38.9314 31.832 38.9162 31.4723 38.9453C30.1403 39.0515 28.9499 39.7142 27.6566 39.9652C25.353 40.4092 24.4393 38.7265 22.6731 37.771C22.0931 37.4679 21.4305 37.3607 20.7845 37.4654C20.2826 36.1785 19.7389 34.9109 19.3046 33.5854C19.41 33.5552 19.5077 33.5025 19.5909 33.4309C19.7431 33.3108 19.8621 33.1538 19.9365 32.9747C20.0108 32.7956 20.038 32.6004 20.0156 32.4078C19.9887 32.2428 19.9072 32.0916 19.7841 31.9784C19.661 31.8652 19.5035 31.7966 19.3368 31.7837C19.0504 31.7837 19.0472 32.2405 19.3368 32.2341C19.4783 32.2341 19.5877 32.4239 19.6038 32.5558C19.6041 32.6579 19.5837 32.759 19.5439 32.853C19.5041 32.947 19.4457 33.032 19.3721 33.1028C19.3122 33.1709 19.2322 33.2182 19.1437 33.2379C19.1195 33.2226 19.0921 33.2132 19.0636 33.2104C19.0351 33.2076 19.0063 33.2115 18.9796 33.2218C18.8957 33.1897 18.823 33.1338 18.7705 33.0609C18.7162 32.9696 18.6833 32.8671 18.6744 32.7612C18.6655 32.6553 18.6808 32.5488 18.719 32.4497C18.7577 32.2438 18.4488 32.1537 18.3973 32.3628C18.3169 32.7328 18.2815 33.077 18.5775 33.3666C18.6733 33.4649 18.7914 33.5388 18.9217 33.5821C19.2209 34.5634 19.5652 35.5125 19.9512 36.4519C19.298 36.2993 18.6704 36.0522 18.0885 35.7184C17.9662 35.3967 17.8504 35.0396 17.7346 34.6985C17.6734 34.5055 17.3678 34.5891 17.4321 34.7822C17.4965 34.9752 17.5801 35.2358 17.6573 35.461C17.4772 35.3484 17.297 35.2294 17.1136 35.1071C17.1987 35.0421 17.2663 34.9568 17.3101 34.859C17.3539 34.7613 17.3726 34.6541 17.3646 34.5473C17.3485 34.3285 17.001 34.3285 17.0235 34.5473C17.0277 34.6246 17.01 34.7016 16.9725 34.7693C16.9349 34.837 16.879 34.8928 16.8112 34.9302C16.7539 34.9213 16.6954 34.9309 16.6439 34.9575C16.5924 34.9841 16.5508 35.0263 16.5249 35.0782C16.4316 35.1136 16.3383 35.1425 16.245 35.1715C16.1259 34.7854 16.0101 34.3993 15.8911 34.0165C15.8795 33.9738 15.8515 33.9375 15.8132 33.9154C15.7749 33.8934 15.7294 33.8875 15.6868 33.899C15.6441 33.9106 15.6078 33.9385 15.5857 33.9769C15.5637 34.0152 15.5578 34.0607 15.5693 34.1033L15.9168 35.2648H15.8782C15.6948 35.3259 15.772 35.6187 15.9618 35.5575H16.0037C16.1388 36.0112 16.2707 36.468 16.409 36.9217C16.5474 37.3753 16.6182 37.8064 17.001 38.0734C17.026 38.0882 17.0544 38.0961 17.0834 38.0964C17.1124 38.0966 17.1409 38.0891 17.1661 38.0747C17.1913 38.0604 17.2122 38.0396 17.2267 38.0145C17.2412 37.9894 17.2488 37.9609 17.2487 37.9319L17.2294 37.6616C17.2282 37.6364 17.2202 37.612 17.2064 37.5909C17.1925 37.5698 17.1733 37.5528 17.1506 37.5416C17.128 37.5305 17.1028 37.5256 17.0776 37.5274C17.0524 37.5293 17.0282 37.5379 17.0075 37.5522C16.8168 37.1225 16.6681 36.6754 16.5635 36.2171C16.483 35.9661 16.4058 35.7152 16.3254 35.4642L16.5023 35.4128C16.5245 35.4623 16.5588 35.5055 16.6021 35.5382C17.0528 35.8914 17.5268 36.2138 18.0209 36.5034C18.1946 36.9603 18.3812 37.4107 18.5968 37.8514C18.6933 38.0413 18.9764 37.874 18.8831 37.6842C18.7351 37.3624 18.5968 37.0407 18.4649 36.7351C18.8825 36.9371 19.3234 37.0873 19.7775 37.1823C19.8519 37.1991 19.9296 37.1923 20 37.1629C20.0703 37.1335 20.1298 37.0829 20.17 37.0182L20.392 37.5426C20.0037 37.625 19.6211 37.7324 19.2467 37.8643C18.302 38.2275 17.2709 38.3025 16.2836 38.0799C16.2128 37.7775 16.1452 37.4718 16.0744 37.1694C16.0744 37.0954 15.9425 37.1276 15.9586 37.2016C16.0262 37.4815 16.0873 37.7646 16.1516 38.0445C15.1916 37.7214 14.3248 37.1693 13.6261 36.4359C13.6556 36.4297 13.6832 36.4164 13.7065 36.3972L13.8931 36.2299C14.0315 36.1109 13.8449 35.8632 13.6969 35.9758C13.4105 36.1946 13.1017 34.2835 13.0727 34.1226C13.0212 33.8202 12.9762 33.521 12.928 33.2186C13.0395 33.3882 13.205 33.5152 13.3977 33.5789C13.5267 33.6278 13.6656 33.6452 13.8027 33.6295C13.9398 33.6138 14.0712 33.5656 14.1859 33.4888C14.3886 34.306 14.572 35.1329 14.8454 35.934C15.0224 36.4391 15.1961 37.0375 15.5886 37.4139C15.7238 37.5426 15.9715 37.3721 15.8557 37.2112C15.0707 36.1399 14.839 34.6149 14.5173 33.3505C14.5127 33.3296 14.5038 33.3099 14.491 33.2927C14.4782 33.2755 14.462 33.2612 14.4433 33.2508C14.8197 32.7553 14.6846 31.8384 14.4433 31.3011C14.0572 30.4453 13.1145 30.7284 12.8121 31.4941C12.7639 31.6264 12.7294 31.7633 12.7092 31.9027L12.6609 31.6035C12.6255 31.3912 12.3102 31.4813 12.3392 31.6904C12.5033 32.736 12.6448 33.7848 12.825 34.8272C12.8679 35.1992 12.9565 35.5644 13.0888 35.9147C12.5226 35.3002 11.863 34.4958 11.1199 34.039C10.9654 33.2829 10.8786 32.5172 10.7981 31.7451C10.7756 31.5713 10.5021 31.5681 10.5214 31.7451C10.6051 32.4561 10.6823 33.1639 10.8046 33.8653C10.6491 33.7945 10.4861 33.7416 10.3187 33.7076C10.0367 33.6661 9.74923 33.6812 9.47305 33.7519C9.19688 33.8226 8.93753 33.9475 8.71011 34.1194C8.69643 33.8586 8.70505 33.597 8.73586 33.3376C8.91843 33.3786 9.1066 33.3884 9.29244 33.3666C9.49834 33.3441 9.50478 33.0223 9.29244 33.0449C9.12041 33.059 8.94725 33.0426 8.7809 32.9966C8.89994 32.2631 9.10263 31.5231 9.22489 30.9086C9.25384 30.7445 8.99966 30.6705 8.97071 30.841C8.84202 31.5327 8.6876 32.2244 8.56213 32.9194C7.83824 32.5977 7.43609 31.6936 7.19479 30.9311C7.19054 30.9156 7.18284 30.9013 7.17227 30.8893L7.21087 30.722C7.25592 30.5193 6.94384 30.4324 6.88915 30.6383C6.72185 31.3494 6.56743 32.0636 6.39369 32.7778C6.15611 32.948 5.87723 33.0513 5.58615 33.077C5.64728 32.7103 5.7245 32.3467 5.81137 31.9832C5.99154 31.2335 6.21031 30.4903 6.413 29.7311C6.41887 29.6944 6.411 29.6568 6.39093 29.6255C6.37085 29.5942 6.33996 29.5714 6.30415 29.5615C6.26834 29.5515 6.23011 29.5551 6.19678 29.5716C6.16344 29.588 6.13734 29.6162 6.12344 29.6506C5.78424 30.7676 5.50396 31.9017 5.28373 33.0481C5.06584 33.0146 4.86238 32.9185 4.69819 32.7714C4.75288 32.3403 4.82688 31.9574 4.84618 31.8062C4.95766 30.9753 5.12098 30.1523 5.3352 29.3418C5.34006 29.3238 5.34133 29.3051 5.33895 29.2866C5.33657 29.2682 5.33058 29.2504 5.32132 29.2343C5.31206 29.2181 5.29971 29.204 5.28498 29.1926C5.27025 29.1813 5.25342 29.1729 5.23547 29.168C5.21751 29.1632 5.19878 29.1619 5.18033 29.1643C5.16188 29.1667 5.14408 29.1727 5.12795 29.1819C5.11181 29.1912 5.09767 29.2035 5.08631 29.2183C5.07495 29.233 5.0666 29.2498 5.06174 29.2678C4.77331 30.2947 4.55829 31.3408 4.41829 32.3982C4.38167 32.3251 4.34944 32.2499 4.32176 32.173C4.00416 31.3881 3.87736 30.5391 3.95178 29.6957C3.95582 29.6782 3.95309 29.6599 3.94413 29.6443C3.93517 29.6288 3.92066 29.6173 3.90352 29.612C3.92283 29.5155 3.93891 29.419 3.95821 29.3257C4.17109 28.3342 4.45055 27.3583 4.7947 26.4044C4.7947 26.4044 4.7947 26.4044 4.7947 26.3819C5.98509 26.5363 7.2173 26.5235 8.04414 26.6168C10.0131 26.8355 11.7955 27.8522 13.6776 28.4056C15.4052 28.9139 17.1908 29.1391 18.9635 29.4351C22.2966 29.9949 25.5236 31.0437 28.9113 31.2174C36.3883 31.6132 43.8684 32.3242 51.3646 32.2244C58.3751 32.1311 66.0193 31.9928 72.7241 29.7697C73.8115 29.4093 74.9762 29.2806 76.0636 29.0329C76.1053 29.1229 76.1695 29.2005 76.2502 29.2581C76.7746 30.471 77.402 31.7644 77.7881 33.003ZM13.314 31.4652C13.362 31.3803 13.4252 31.305 13.5006 31.2432C13.7902 31.0308 14.009 31.211 14.1441 31.507C14.1042 31.5131 14.0669 31.5302 14.0361 31.5562C14.0053 31.5823 13.9824 31.6163 13.9697 31.6546C13.9571 31.6928 13.9552 31.7339 13.9644 31.7731C13.9736 31.8124 13.9935 31.8483 14.0218 31.877C14.153 32.0101 14.2352 32.1837 14.255 32.3694C14.2749 32.5552 14.2313 32.7423 14.1312 32.9001C14.0896 32.9759 14.0284 33.0391 13.954 33.0832C13.8795 33.1272 13.7946 33.1505 13.7081 33.1505C13.6217 33.1505 13.5368 33.1272 13.4623 33.0832C13.3879 33.0391 13.3267 32.9759 13.2851 32.9001C13.1632 32.6665 13.1086 32.4036 13.1274 32.1408C13.1682 31.9488 13.2308 31.762 13.314 31.5842C13.3245 31.5661 13.33 31.5456 13.33 31.5247C13.33 31.5038 13.3245 31.4833 13.314 31.4652ZM77.2218 27.5208C76.9726 27.6389 76.7131 27.7336 76.4465 27.8039C76.5494 27.5176 76.6427 27.228 76.7457 26.9417C77.0674 26.0537 77.3891 25.1658 77.6722 24.2649C77.7301 24.0815 77.4438 24.0043 77.3859 24.1877C77.1328 24.9727 76.8636 25.7535 76.5784 26.5299C76.4175 26.9707 76.2856 27.4436 76.1022 27.8844C75.3655 28.0388 74.5997 28.0806 73.8694 28.2061H73.8372C74.3557 27.4531 74.8058 26.6552 75.1821 25.8221C75.2432 25.7063 75.0695 25.6065 75.0083 25.7191C74.545 26.5942 74.159 27.5337 73.4962 28.2929C72.9794 28.4167 72.4693 28.567 71.968 28.7434C72.5326 27.934 73.0052 27.0643 73.3772 26.1502C73.4576 25.9765 73.2002 25.8285 73.1198 25.999C72.6888 27.019 72.1495 27.9898 71.5112 28.8946C71.2345 28.9879 70.9546 29.078 70.6747 29.1616C70.9364 28.3401 71.1937 27.5176 71.4468 26.694C71.5047 26.5106 71.212 26.4302 71.1605 26.6168L70.4334 29.226C70.2403 29.2807 70.0473 29.3353 69.8511 29.3804C66.5784 30.0667 63.2601 30.514 59.9226 30.7188C59.6374 30.1137 59.3872 29.4928 59.173 28.8592C59.1183 28.6983 58.8512 28.7659 58.9188 28.93C59.1231 29.5441 59.3583 30.1476 59.6234 30.7381C57.9858 30.8475 56.3418 30.9215 54.7074 30.9665C54.7263 30.9599 54.7436 30.9494 54.7582 30.9356C54.7728 30.9218 54.7842 30.905 54.7918 30.8865C54.7994 30.8679 54.803 30.848 54.8023 30.8279C54.8016 30.8079 54.7967 30.7882 54.7878 30.7702C54.0189 29.2517 53.739 27.598 53.4076 25.9443C53.3786 25.8124 53.1792 25.8671 53.2049 25.999C53.5267 27.6752 53.8033 29.3546 54.5497 30.9054C54.5554 30.9191 54.5637 30.9315 54.5742 30.942C54.5847 30.9525 54.5972 30.9608 54.6109 30.9665L53.0022 31.0019C52.2977 29.1616 51.918 27.1766 51.4644 25.2623C51.4322 25.1368 51.2424 25.1915 51.2681 25.317C51.7025 27.2119 52.0628 29.1777 52.7255 31.0083L50.9528 31.0308C50.9649 31.0257 50.9758 31.0181 50.9849 31.0085C50.9939 30.999 51.0009 30.9877 51.0054 30.9753C51.0099 30.9629 51.0119 30.9498 51.0111 30.9367C51.0104 30.9235 51.007 30.9107 51.0011 30.8989C50.4494 29.439 49.9916 27.9453 49.6305 26.4269C49.6224 26.3971 49.6028 26.3716 49.5759 26.3563C49.5491 26.3409 49.5172 26.3368 49.4874 26.3449C49.4575 26.353 49.4321 26.3726 49.4167 26.3995C49.4013 26.4263 49.3972 26.4582 49.4053 26.4881C49.7602 28.0109 50.2137 29.509 50.763 30.9729C50.7752 31.0017 50.7967 31.0255 50.8241 31.0405H50.2804C48.646 31.0405 47.0181 31.0212 45.3902 30.9633C45.3958 30.9383 45.3959 30.9123 45.3903 30.8873C45.3847 30.8623 45.3737 30.8388 45.358 30.8185C44.5794 29.8308 44.544 28.2447 44.4282 27.0446C44.4089 26.842 44.0872 26.8387 44.1065 27.0446C44.2255 28.2962 44.2641 29.8984 45.0524 30.9472C41.2399 30.8056 37.4403 30.4485 33.6311 30.2394C33.5957 28.856 33.541 27.6205 33.5378 26.0119H33.216C33.216 27.6205 33.2482 28.8463 33.3158 30.2233C32.8171 30.1944 32.3184 30.204 31.8165 30.1815C29.9125 30.0983 28.0146 29.9093 26.1316 29.6152C26.137 29.5985 26.137 29.5805 26.1316 29.5638C26.0898 27.8779 26.0126 26.1953 25.9257 24.5094C25.9257 24.3293 25.6362 24.3293 25.6426 24.5094C25.7198 26.1953 25.7681 27.8844 25.826 29.5702C25.3337 29.4898 24.8415 29.4093 24.3493 29.3128C24.3525 29.2991 24.3525 29.2847 24.3493 29.271C24.1594 27.3889 23.9793 25.5068 23.7766 23.6279C23.7605 23.451 23.4806 23.4477 23.4999 23.6279C23.6929 25.5068 23.8634 27.3889 24.0951 29.2646C23.4967 29.1455 22.8983 29.0233 22.287 28.8849L22.1197 28.8495C22.1251 28.8273 22.1251 28.8042 22.1197 28.782C21.888 26.8741 21.7787 24.9566 21.6146 23.0424C21.6146 22.8815 21.3508 22.8815 21.3604 23.0424C21.5116 24.9727 21.5921 26.8774 21.8301 28.782C21.2403 28.6554 20.6483 28.5418 20.0542 28.4409C19.533 26.8001 19.7325 24.7443 19.6649 23.0327C19.6649 22.8751 19.4075 22.8719 19.414 23.0327C19.4526 24.0397 19.4783 25.0499 19.5169 26.0569C19.5459 26.8291 19.5169 27.6463 19.7582 28.3895L17.8279 28.0677C17.7925 26.2275 17.712 24.3872 17.6541 22.5501C18.5225 22.3711 19.3054 21.9054 19.8773 21.2278C20.6172 20.4332 20.7523 19.8348 22.2838 20.5844C22.628 20.7517 22.879 21.1603 23.2489 21.3437C24.2141 21.8102 25.0538 21.5206 26.0254 21.3437C27.1772 21.1217 28.0974 21.5721 29.2427 21.1474C29.9505 20.8868 30.9479 20.3463 31.6943 20.8064C32.5822 21.3533 32.6595 22.785 32.8525 23.7019C33.1742 25.362 33.9496 27.0125 35.3266 27.9101C35.3019 27.9248 35.283 27.9475 35.273 27.9744C35.2631 28.0014 35.2627 28.0309 35.2719 28.0581C35.4392 28.6082 35.5936 29.1584 35.7706 29.7085C35.7795 29.7418 35.8013 29.7702 35.8312 29.7874C35.8611 29.8046 35.8965 29.8092 35.9298 29.8002C35.9631 29.7913 35.9914 29.7695 36.0086 29.7396C36.0258 29.7097 36.0305 29.6743 36.0215 29.641L35.5679 28.0549C36.0154 28.3055 36.505 28.4723 37.0124 28.5471C39.1229 28.8688 40.6125 27.524 41.5166 25.7513C42.0314 24.7411 42.1954 23.6376 42.5686 22.5791C42.7649 22.0225 43.1349 21.2632 43.8845 21.8037C44.2673 22.0804 44.5279 23.5539 44.7467 24.014C45.3902 25.4553 46.6771 26.9739 48.4273 26.0827C49.2316 25.6709 49.4439 24.9309 49.9844 24.2746C50.8306 23.2483 52.1175 22.5823 53.2918 23.5378C53.6401 23.8905 54.0352 24.1937 54.4661 24.4387C54.7523 24.5721 55.0636 24.6428 55.3793 24.6461C55.695 24.6495 56.0078 24.5853 56.2967 24.458C57.3745 23.9947 57.8153 22.5276 58.5488 24.1362C59.4271 26.0666 59.7456 27.8329 62.1618 28.3348C64.0921 28.7401 65.8552 27.8136 67.0456 26.324C67.9464 25.1979 68.2682 23.8563 68.9953 22.6659C69.8897 21.1924 70.4527 22.8011 71.4919 23.2708C72.6115 23.7791 72.7144 23.4284 73.686 22.9716C75.1306 22.2927 75.8802 23.3158 76.9998 23.4992C76.9516 23.6762 77.2347 23.7534 77.2958 23.57V23.525C77.4274 23.5265 77.5588 23.5158 77.6883 23.4928C77.9413 23.4551 78.1822 23.3597 78.3925 23.2141C78.6028 23.0686 78.7769 22.8766 78.9012 22.6531C78.9012 22.6853 78.9012 22.7142 78.9012 22.7432C78.9945 24.3325 78.8111 26.7454 77.2218 27.5208Z" fill="#515257"/>
<path d="M23.1612 34.7103C23.0694 34.5889 22.9412 34.5001 22.7954 34.4567C22.6495 34.4133 22.4936 34.4176 22.3504 34.469C22.0705 34.5751 22.0705 34.8711 22.0641 35.1124C22.0576 35.3537 22.4373 35.3634 22.4662 35.1124C22.4701 35.0475 22.4787 34.983 22.492 34.9194C22.492 34.8969 22.5306 34.8293 22.492 34.8486C22.5788 34.781 22.833 34.8486 22.8426 34.9676C22.8523 35.0867 22.6786 35.2636 22.6078 35.3376C22.4877 35.4629 22.3243 35.5377 22.1509 35.5467C21.9676 35.5693 21.9579 35.8685 22.1509 35.846C22.2981 35.8397 22.4426 35.804 22.5757 35.741C22.7089 35.678 22.8281 35.589 22.9263 35.4792C23.1354 35.2861 23.3381 34.9869 23.1612 34.7103Z" fill="#515257"/>
<path d="M28.6856 32.4359C28.6589 32.433 28.6318 32.436 28.6063 32.4447C28.5808 32.4535 28.5576 32.4677 28.5382 32.4865C28.5189 32.5052 28.5039 32.528 28.4944 32.5531C28.4848 32.5783 28.4809 32.6053 28.483 32.6321V32.6933C28.4892 32.7422 28.513 32.7872 28.55 32.8199C28.587 32.8525 28.6347 32.8705 28.684 32.8705C28.7334 32.8705 28.781 32.8525 28.818 32.8199C28.8551 32.7872 28.8789 32.7422 28.8851 32.6933V32.6321C28.8865 32.6057 28.8823 32.5793 28.8728 32.5546C28.8632 32.5299 28.8485 32.5076 28.8297 32.489C28.8108 32.4705 28.7882 32.4561 28.7634 32.447C28.7385 32.4378 28.712 32.434 28.6856 32.4359Z" fill="#515257"/>
<path d="M29.3128 34.6103C29.2195 34.0151 28.576 34.1245 28.1932 34.3626C28.1458 34.3903 28.1114 34.4357 28.0975 34.4888C28.0836 34.5419 28.0914 34.5984 28.1192 34.6457C28.1469 34.6931 28.1923 34.7275 28.2454 34.7413C28.2985 34.7552 28.3549 34.7474 28.4023 34.7197C28.4924 34.6747 28.6758 34.5653 28.7851 34.591C29.0715 34.6521 28.8463 35.064 28.7465 35.1894C28.5116 35.4299 28.2122 35.5975 27.8843 35.672C27.1862 35.8811 27.0768 35.2409 27.2409 34.7229C27.3731 34.3305 27.6294 33.9917 27.9712 33.7578C28.0709 33.6805 27.9712 33.51 27.8714 33.5872C27.5894 33.7672 27.3546 34.0122 27.1867 34.3016C27.0187 34.591 26.9226 34.9164 26.9062 35.2506C26.9256 36.0903 27.6173 36.1353 28.2607 35.9133C28.8077 35.7171 29.4157 35.2763 29.3128 34.6103Z" fill="#515257"/>
<path d="M48.5502 33.7817C47.865 33.7174 47.4789 34.6504 47.1861 35.1137C47.0446 35.3453 47.4049 35.5512 47.5497 35.326C47.7524 35.0043 47.9325 34.5281 48.2543 34.3222C48.8591 33.9297 48.9878 35.7603 48.8977 36.111C48.7079 36.8928 47.6108 36.8413 47.1668 36.3234C46.8855 35.9359 46.6612 35.5101 46.5009 35.059C46.4462 34.9303 46.2177 35.0236 46.2692 35.1555C46.533 35.799 46.7968 36.6194 47.4693 36.9411C48.1417 37.2628 49.1905 36.8703 49.2934 36.1014C49.3739 35.5416 49.332 33.8557 48.5502 33.7817Z" fill="#515257"/>
<path d="M50.235 37.1957C50.0677 37.1313 49.9487 37.3694 50.0677 37.4852C50.4538 37.8649 50.872 38.267 50.872 38.8622C50.8823 38.9536 50.8669 39.0461 50.8276 39.1292C50.7883 39.2124 50.7266 39.283 50.6495 39.3331C50.5723 39.3831 50.4828 39.4108 50.3908 39.4129C50.2989 39.4149 50.2082 39.3914 50.1288 39.3448C49.8114 39.1636 49.5352 38.9182 49.3181 38.6241C49.1894 38.4858 48.9963 38.6885 49.1154 38.8236C49.4371 39.1936 49.7846 39.6794 50.3122 39.7727C50.4938 39.7858 50.675 39.7408 50.8294 39.6442C50.9838 39.5476 51.1035 39.4045 51.1712 39.2354C51.464 38.534 50.9235 37.4563 50.235 37.1957Z" fill="#515257"/>
<path d="M57.1007 34.1332C57.0686 34.1142 57.0319 34.1042 56.9945 34.1042C56.9572 34.1042 56.9205 34.1142 56.8884 34.1332C56.6788 34.2366 56.5091 34.4062 56.4058 34.6158C56.383 34.6021 56.3572 34.5944 56.3307 34.5934C56.3041 34.5923 56.2778 34.598 56.254 34.6099C56.2303 34.6218 56.2099 34.6394 56.1948 34.6613C56.1798 34.6831 56.1704 34.7084 56.1677 34.7348C56.1148 35.043 56.1051 35.357 56.1388 35.6678C56.1482 35.8989 56.2241 36.1224 56.3575 36.3113C56.4891 36.4474 56.6678 36.5279 56.8569 36.5363C57.046 36.5447 57.2311 36.4803 57.3742 36.3563C58.1849 35.7418 57.7989 34.6351 57.1007 34.1332ZM57.2423 35.9864C57.1868 36.0593 57.1127 36.116 57.0278 36.1505C56.9429 36.185 56.8503 36.1961 56.7597 36.1826C56.5441 36.1247 56.5216 35.9413 56.4798 35.7611C56.4349 35.5498 56.4219 35.3329 56.4412 35.1177C56.4677 35.1305 56.4967 35.1372 56.5261 35.1373C56.5556 35.1374 56.5847 35.1309 56.6112 35.1182C56.6378 35.1056 56.6612 35.0871 56.6796 35.0642C56.6981 35.0412 56.7112 35.0144 56.7179 34.9858C56.7564 34.8226 56.8509 34.678 56.9849 34.5772C57.3838 34.915 57.6573 35.5456 57.2423 35.9864Z" fill="#515257"/>
<path d="M58.6977 37.7573C58.4854 37.8217 58.5079 38.1884 58.746 38.1659C58.746 38.1659 58.746 38.1659 58.746 38.1852C58.7412 38.2376 58.7412 38.2904 58.746 38.3429C58.746 38.449 58.7106 38.5584 58.6881 38.6646C58.6546 38.7809 58.5978 38.8891 58.521 38.9826C58.4442 39.0761 58.3491 39.153 58.2415 39.2084C58.134 39.2638 58.0162 39.2967 57.8955 39.305C57.7748 39.3133 57.6536 39.2968 57.5395 39.2566C57.4977 39.2473 57.454 39.2544 57.4173 39.2763C57.3806 39.2983 57.3537 39.3336 57.3421 39.3748C57.3306 39.416 57.3353 39.46 57.3552 39.4979C57.3752 39.5357 57.4089 39.5645 57.4494 39.5783C57.6158 39.6378 57.7928 39.6617 57.969 39.6482C58.1452 39.6348 58.3165 39.5844 58.4719 39.5003C58.6273 39.4162 58.7633 39.3004 58.8709 39.1603C58.9786 39.0201 59.0555 38.8589 59.0967 38.6871C59.1642 38.3557 59.2833 37.5611 58.6977 37.7573Z" fill="#515257"/>
<path d="M65.7915 36.3944C65.3057 37.0958 64.2151 37.855 63.3046 37.5623C63.0137 37.4546 62.7715 37.2455 62.6225 36.9735C62.8545 36.9478 63.0772 36.868 63.2728 36.7406C63.4683 36.6132 63.6313 36.4418 63.7485 36.24C63.8618 36.0146 63.9081 35.7614 63.8819 35.5105C63.8556 35.2596 63.758 35.0215 63.6006 34.8244C63.4526 34.6056 63.1051 34.8019 63.2434 35.0335C63.3692 35.1895 63.4433 35.3809 63.4554 35.5809C63.4675 35.781 63.417 35.9798 63.311 36.1499C63.2115 36.2764 63.087 36.3811 62.9453 36.4575C62.8036 36.5338 62.6478 36.5803 62.4874 36.5939C62.4716 36.5983 62.4565 36.6048 62.4423 36.6132C62.2962 36.2009 62.2413 35.7618 62.2815 35.3263C62.3008 35.159 62.0466 35.1622 62.0241 35.3263C61.9115 36.1885 62.2171 37.6234 63.1984 37.9001C64.3084 38.2218 65.5116 37.469 66.0939 36.5842C66.2419 36.3815 65.9266 36.1981 65.7915 36.3944Z" fill="#515257"/>
<path d="M69.6711 33.9933C69.5842 33.7166 69.1435 33.8356 69.2335 34.1123C69.3236 34.389 69.4041 34.5917 69.4684 34.8362C69.5135 35.0196 69.6421 35.5601 69.4137 35.6855C69.1853 35.811 68.7703 35.3349 68.6062 35.1901C68.5846 35.1695 68.558 35.1551 68.529 35.1483C68.6776 35.073 68.8099 34.9691 68.9183 34.8426C68.9356 34.8367 68.9511 34.8265 68.9635 34.813C68.9759 34.7995 68.9847 34.7832 68.9891 34.7654C69.0051 34.7107 69.0244 34.656 69.0405 34.6013C69.0496 34.5649 69.0455 34.5265 69.0288 34.4929C69.0121 34.4593 68.984 34.4328 68.9495 34.4181C68.915 34.4034 68.8764 34.4014 68.8406 34.4126C68.8048 34.4238 68.7742 34.4473 68.7542 34.4791C68.352 35.1997 67.123 35.1225 66.4377 35.1515C66.4028 35.1615 66.372 35.1826 66.3501 35.2116C66.3282 35.2406 66.3164 35.276 66.3164 35.3123C66.3164 35.3487 66.3282 35.3841 66.3501 35.4131C66.372 35.4421 66.4028 35.4632 66.4377 35.4732C67.0308 35.5146 67.6265 35.4515 68.1976 35.2866C68.2383 35.2733 68.2781 35.2572 68.3166 35.2383C68.3007 35.2705 68.2955 35.307 68.3019 35.3423C68.3083 35.3777 68.3258 35.41 68.352 35.4346C68.6512 35.7274 69.1403 36.2936 69.6132 36.0298C70.3081 35.6502 69.8448 34.5402 69.6711 33.9933Z" fill="#515257"/>
<path d="M69.6963 33.1025C69.2016 32.9842 68.6959 32.9185 68.1874 32.9062C68.1413 32.9063 68.0971 32.9246 68.0646 32.9571C68.032 32.9897 68.0137 33.0339 68.0137 33.08C68.0137 33.1261 68.032 33.1702 68.0646 33.2028C68.0971 33.2354 68.1413 33.2537 68.1874 33.2537C68.6635 33.2697 69.1368 33.3343 69.5998 33.4468C69.825 33.5014 69.9183 33.154 69.6963 33.1025Z" fill="#515257"/>
<path d="M8.38896 43.1623C7.92742 41.1867 7.59215 39.1836 7.38518 37.1654C7.38518 37.0367 7.1664 37.0334 7.18249 37.1654C7.36916 39.2036 7.684 41.228 8.12514 43.2267C8.12937 43.244 8.13698 43.2603 8.14751 43.2747C8.15804 43.2891 8.17129 43.3013 8.18653 43.3105C8.20176 43.3198 8.21869 43.326 8.23631 43.3287C8.25393 43.3314 8.2719 43.3306 8.28923 43.3264C8.30655 43.3222 8.32287 43.3146 8.33726 43.3041C8.35164 43.2935 8.36381 43.2803 8.37308 43.265C8.38234 43.2498 8.38851 43.2329 8.39124 43.2153C8.39396 43.1976 8.39319 43.1797 8.38896 43.1623Z" fill="#515257"/>
<path d="M10.3322 43.6493C9.57936 40.9629 9.36701 38.18 9.2544 35.4163C9.2544 35.2587 9.00345 35.2555 9.00989 35.4163C9.13214 38.2153 9.33163 41.0079 10.0716 43.7201C10.0821 43.7534 10.105 43.7813 10.1357 43.7981C10.1663 43.8149 10.2022 43.8191 10.2359 43.8099C10.2696 43.8008 10.2984 43.779 10.3164 43.749C10.3343 43.7191 10.34 43.6833 10.3322 43.6493Z" fill="#515257"/>
<path d="M13.4621 44.3259C12.7639 41.9645 12.6191 39.5 12.3553 37.071C12.3553 36.9294 12.1205 36.9262 12.1333 37.071C12.3746 39.5354 12.4904 42.0127 13.1693 44.4064C13.18 44.4452 13.2056 44.4782 13.2406 44.4981C13.2579 44.508 13.277 44.5143 13.2968 44.5168C13.3166 44.5193 13.3367 44.5178 13.3559 44.5125C13.3751 44.5073 13.3931 44.4982 13.4088 44.486C13.4246 44.4738 13.4378 44.4586 13.4476 44.4412C13.4575 44.4239 13.4638 44.4048 13.4663 44.385C13.4688 44.3652 13.4673 44.3452 13.4621 44.3259Z" fill="#515257"/>
<path d="M15.2221 41.1565C15.1996 40.9634 14.9004 40.9602 14.9004 41.1565C15.0259 42.408 15.2028 43.6531 15.3798 44.8982C15.4087 45.1105 15.7337 45.0204 15.7015 44.8081C15.5342 43.592 15.354 42.379 15.2221 41.1565Z" fill="#515257"/>
<path d="M18.3545 44.5737C18.0327 43.6086 17.711 42.6209 17.4375 41.6332C17.434 41.6246 17.4274 41.6175 17.4191 41.6134C17.4107 41.6093 17.4011 41.6083 17.3921 41.6106C17.3831 41.613 17.3753 41.6185 17.37 41.6262C17.3648 41.6339 17.3625 41.6432 17.3635 41.6525C17.6499 42.6402 17.9587 43.6182 18.2773 44.5963C18.5797 45.5196 19.0076 46.4462 19.1942 47.3985C19.1942 47.4725 19.3164 47.4403 19.3035 47.3696C19.1749 46.4012 18.673 45.481 18.3545 44.5737Z" fill="#515257"/>
<path d="M21.0317 48.1241C20.2756 45.7594 19.4809 43.4075 18.7635 41.03C18.7535 41.0074 18.7357 40.9891 18.7133 40.9786C18.6909 40.968 18.6655 40.9659 18.6417 40.9725C18.6179 40.9792 18.5973 40.9942 18.5836 41.0147C18.5699 41.0353 18.5641 41.0602 18.5672 41.0847C19.2654 43.4687 20.0375 45.8269 20.7743 48.1948C20.8418 48.375 21.0864 48.2881 21.0317 48.1241Z" fill="#515257"/>
<path d="M26.0053 48.5121C25.304 46.7469 24.6509 44.9645 24.046 43.165C23.9913 43.0073 23.7243 43.0749 23.7951 43.2357C24.3742 44.9688 24.9919 46.6911 25.6482 48.4027C25.6381 48.4271 25.6349 48.4537 25.6389 48.4798C25.6428 48.5059 25.6538 48.5304 25.6707 48.5507L25.7576 48.6568C25.8477 48.7694 26.06 48.6472 26.0053 48.5121Z" fill="#515257"/>
<path d="M28.0259 49.9848C27.4693 48.2507 26.6553 46.6099 25.9669 44.9305C25.9154 44.805 25.7127 44.8597 25.7642 44.9852C26.4559 46.671 27.2087 48.3215 27.7943 50.0491C27.8425 50.1875 28.071 50.1264 28.0259 49.9848Z" fill="#515257"/>
<path d="M29.8124 50.7473C29.0049 48.2829 28.1298 45.6898 26.8526 43.4248C26.7721 43.28 26.5501 43.4248 26.6306 43.5567C27.8789 45.8088 28.6896 48.3826 29.5261 50.8309C29.5744 51.0208 29.8736 50.95 29.8124 50.7473Z" fill="#515257"/>
<path d="M29.4712 43.9509C29.4294 43.8222 29.2235 43.8769 29.2653 44.0088C29.645 45.2024 30.0214 46.396 30.4364 47.58C30.8 48.6191 31.2311 49.6326 31.4949 50.7039C31.4826 50.7162 31.4729 50.7307 31.4663 50.7467C31.4597 50.7627 31.4562 50.7799 31.4562 50.7972C31.4562 50.8146 31.4597 50.8317 31.4663 50.8477C31.4729 50.8637 31.4826 50.8783 31.4949 50.8905L31.5753 50.9613C31.599 50.9836 31.6292 50.9978 31.6615 51.0015C31.6939 51.0053 31.7265 50.9986 31.7547 50.9823C31.7829 50.9661 31.8051 50.9412 31.818 50.9113C31.8309 50.8814 31.8338 50.8482 31.8263 50.8165C31.2665 48.4905 30.2209 46.2287 29.4712 43.9509Z" fill="#515257"/>
<path d="M33.2072 50.6502C32.5798 48.5687 31.9203 46.4935 31.2382 44.4313C31.1899 44.2833 30.9519 44.3444 31.0033 44.4956C31.679 46.5643 32.3128 48.6427 32.9337 50.7307C32.9489 50.7611 32.9742 50.7852 33.0054 50.7988C33.0365 50.8124 33.0715 50.8145 33.1041 50.805C33.1367 50.7954 33.1649 50.7746 33.1837 50.7463C33.2026 50.718 33.2109 50.684 33.2072 50.6502Z" fill="#515257"/>
<path d="M35.1698 51.1323C34.298 48.8513 33.5387 46.5316 32.7215 44.2313C32.6571 44.0543 32.3772 44.1283 32.4384 44.3085C33.2427 46.6121 33.9633 48.9478 34.8545 51.2192C34.9317 51.4122 35.2438 51.3286 35.1698 51.1323Z" fill="#515257"/>
<path d="M36.9101 51.1349C36.1508 48.7573 35.6232 46.309 34.8446 43.9411C34.7931 43.7834 34.5454 43.851 34.5968 44.0119C35.3465 46.3894 35.8838 48.8378 36.6141 51.2153C36.6752 51.4051 36.9712 51.3247 36.9101 51.1349Z" fill="#515257"/>
<path d="M38.3832 49.8533C38.1386 49.1262 37.9553 48.3733 37.7397 47.6366C37.3279 46.176 36.9257 44.7121 36.5139 43.2515C36.5028 43.2118 36.4764 43.1781 36.4405 43.1579C36.4046 43.1377 36.3622 43.1326 36.3225 43.1437C36.2828 43.1548 36.2492 43.1812 36.229 43.2171C36.2087 43.253 36.2036 43.2954 36.2147 43.3351C36.5718 44.622 36.9225 45.9089 37.2828 47.1958C37.4437 47.7814 37.6046 48.3637 37.7751 48.9492C37.9263 49.4736 38.4185 50.4903 38.2545 51.034C38.2429 51.0767 38.2488 51.1222 38.2709 51.1605C38.2929 51.1988 38.3292 51.2268 38.3719 51.2383C38.4145 51.2498 38.4601 51.2439 38.4984 51.2219C38.5367 51.1999 38.5647 51.1636 38.5762 51.1209C38.7338 50.6029 38.5537 50.3552 38.3832 49.8533Z" fill="#515257"/>
<path d="M40.3065 51.0414C39.8689 49.4778 39.4024 47.9239 38.9359 46.3732C38.9254 46.3398 38.9025 46.3119 38.8718 46.2951C38.8412 46.2784 38.8053 46.2741 38.7716 46.2833C38.7379 46.2924 38.7091 46.3143 38.6911 46.3442C38.6732 46.3742 38.6675 46.4099 38.6753 46.4439C39.1386 47.9979 39.5987 49.5518 40.0298 51.1154C40.0436 51.1473 40.0684 51.1731 40.0996 51.1882C40.1309 51.2033 40.1665 51.2067 40.2 51.1977C40.2336 51.1887 40.2627 51.168 40.2823 51.1393C40.3018 51.1106 40.3104 51.0759 40.3065 51.0414Z" fill="#515257"/>
<path d="M40.2901 44.9161C40.2812 44.8836 40.2597 44.8561 40.2304 44.8395C40.2012 44.8229 40.1665 44.8186 40.1341 44.8276C40.1017 44.8365 40.0741 44.858 40.0575 44.8873C40.0409 44.9165 40.0366 44.9512 40.0456 44.9836C40.6971 47.2543 41.2117 49.562 41.5867 51.8943C41.6156 52.0745 41.8891 51.9973 41.8601 51.8203C41.4739 49.4899 40.9496 47.1844 40.2901 44.9161Z" fill="#515257"/>
<path d="M42.7455 49.4049C42.4688 48.2274 42.1889 47.0498 41.8479 45.8884C41.8372 45.8576 41.8152 45.832 41.7863 45.8168C41.7575 45.8016 41.7239 45.798 41.6925 45.8065C41.661 45.8151 41.634 45.8353 41.6169 45.8631C41.5997 45.8908 41.5938 45.924 41.6002 45.956C41.8833 46.9469 42.1278 47.9442 42.3594 48.948C42.5911 49.9518 42.9707 51.065 42.8742 52.1492C42.8755 52.1761 42.8861 52.2017 42.9042 52.2216C42.9223 52.2416 42.9469 52.2545 42.9735 52.2584C43.0002 52.2622 43.0273 52.2566 43.0503 52.2425C43.0733 52.2285 43.0906 52.2069 43.0994 52.1814C43.3085 51.2323 42.9611 50.325 42.7455 49.4049Z" fill="#515257"/>
<path d="M43.3831 46.2822C43.3728 46.2589 43.3546 46.2401 43.3317 46.2292C43.3088 46.2182 43.2827 46.2158 43.2582 46.2224C43.2337 46.229 43.2123 46.2442 43.1981 46.2652C43.1838 46.2862 43.1775 46.3117 43.1804 46.3369C43.6983 48.4506 44.2163 50.5515 44.3322 52.7328C44.3322 52.8808 44.5734 52.884 44.567 52.7328C44.4737 50.5354 43.9171 48.4056 43.3831 46.2822Z" fill="#515257"/>
<path d="M45.8634 50.8427C45.7733 50.4149 45.6929 49.9805 45.606 49.5558C45.5869 49.282 45.5329 49.0117 45.4451 48.7515C45.3583 48.314 45.265 47.8796 45.1813 47.4453C45.146 47.2491 44.8596 47.3327 44.8821 47.5257C44.9465 47.8668 45.0205 48.2046 45.088 48.5424C45.0666 48.5619 45.0521 48.5878 45.0469 48.6163C45.0416 48.6448 45.0459 48.6742 45.0591 48.7C45.2464 49.1796 45.3159 49.697 45.2618 50.2089C45.2618 50.3183 45.3583 50.3762 45.4516 50.3666C45.4902 50.5532 45.5256 50.743 45.5642 50.9328C45.6028 51.1227 45.9052 51.039 45.8634 50.8427Z" fill="#515257"/>
<path d="M74.7769 42.1926C74.5228 42.9454 74.2525 43.6886 73.9533 44.4254C73.6541 45.1621 73.3838 46.2077 72.6986 46.5938C72.5795 46.6614 72.6599 46.8769 72.7951 46.8222C73.4868 46.5359 73.6155 45.9857 73.8825 45.3198C74.2911 44.3063 74.6868 43.2993 75.0246 42.2601C75.0761 42.1025 74.8316 42.0382 74.7769 42.1926Z" fill="#515257"/>
<path d="M73.4229 41.7063C73.1591 42.6071 72.8856 43.5048 72.5864 44.3959C72.448 44.8078 72.3 45.2163 72.1553 45.6249C72.0877 45.8083 71.8078 47.1177 71.3027 46.7027C71.1676 46.5933 70.981 46.7735 71.1097 46.8958L71.3896 47.1531C71.4132 47.1755 71.4433 47.19 71.4756 47.1946C71.5078 47.1992 71.5407 47.1937 71.5697 47.1789C72.255 46.8571 72.2936 46.0754 72.5349 45.4158C72.9499 44.2126 73.3199 42.9964 73.6674 41.7707C73.6759 41.7382 73.6712 41.7037 73.6543 41.6748C73.6374 41.6458 73.6097 41.6248 73.5773 41.6162C73.5449 41.6077 73.5104 41.6124 73.4814 41.6293C73.4525 41.6462 73.4314 41.6739 73.4229 41.7063Z" fill="#515257"/>
<path d="M71.4602 41.7031C71.1672 42.8516 70.816 43.9844 70.4082 45.0973C70.2666 45.4866 69.2275 48.5044 68.8382 48.2438C68.7159 48.1666 68.5744 48.35 68.6837 48.4465L68.8704 48.617C68.8989 48.6432 68.9362 48.6578 68.9749 48.6578C69.0136 48.6578 69.051 48.6432 69.0795 48.617C69.8806 47.9961 70.1219 46.7574 70.4565 45.847C70.9584 44.516 71.3827 43.1572 71.7273 41.7771C71.7371 41.7417 71.7324 41.7038 71.7143 41.6719C71.6962 41.6399 71.6662 41.6164 71.6308 41.6066C71.5953 41.5968 71.5575 41.6014 71.5255 41.6195C71.4935 41.6376 71.4701 41.6677 71.4602 41.7031Z" fill="#515257"/>
<path d="M69.1181 42.6742C68.8511 43.7037 68.6098 44.7429 68.2784 45.7563C68.1433 46.1617 68.005 46.5671 67.8473 46.966C67.754 47.1945 67.1106 49.0154 66.7728 48.0245C66.7589 47.9914 66.7334 47.9645 66.7011 47.9487C66.6689 47.933 66.632 47.9295 66.5973 47.939C66.5627 47.9484 66.5327 47.9701 66.5128 48.0001C66.493 48.03 66.4848 48.0661 66.4896 48.1017C66.5245 48.2583 66.5914 48.4061 66.6861 48.5356C66.7808 48.6652 66.9012 48.7738 67.0398 48.8546C67.078 48.8762 67.1231 48.8822 67.1656 48.8714C67.2082 48.8606 67.2449 48.8339 67.2682 48.7967C68.4618 47.0079 68.8768 44.8008 69.398 42.7514C69.4083 42.7143 69.4034 42.6746 69.3844 42.6411C69.3653 42.6077 69.3338 42.5831 69.2967 42.5729C69.2596 42.5626 69.2199 42.5675 69.1864 42.5865C69.1529 42.6056 69.1284 42.6371 69.1181 42.6742Z" fill="#515257"/>
<path d="M66.3021 44.3308C65.842 45.9394 65.5074 47.9438 64.5777 49.3658C64.5634 49.392 64.559 49.4225 64.5652 49.4516C64.5714 49.4808 64.5878 49.5068 64.6114 49.525C64.635 49.5432 64.6643 49.5524 64.6941 49.5509C64.7239 49.5495 64.7522 49.5375 64.7739 49.517C65.2661 48.9797 65.4367 48.2301 65.6554 47.5416C65.9772 46.5057 66.2764 45.4536 66.5691 44.4048C66.579 44.3694 66.5743 44.3315 66.5562 44.2995C66.5381 44.2676 66.508 44.2441 66.4726 44.2343C66.4372 44.2245 66.3994 44.2291 66.3674 44.2472C66.3354 44.2653 66.3119 44.2954 66.3021 44.3308Z" fill="#515257"/>
<path d="M62.0234 44.5147C61.8473 45.6567 61.611 46.7886 61.3156 47.9057C61.2545 48.1245 60.4309 50.8656 60.2153 50.6694C60.0705 50.5407 59.8582 50.7466 59.9998 50.8849L60.1799 51.0651C60.2104 51.0938 60.2507 51.1098 60.2925 51.1098C60.3344 51.1098 60.3747 51.0938 60.4051 51.0651C61.0486 50.4377 61.158 49.5111 61.3961 48.6907C61.78 47.3432 62.0745 45.9718 62.2776 44.5855C62.3098 44.4311 62.0556 44.3571 62.0234 44.5147Z" fill="#515257"/>
<path d="M59.9997 44.2375C59.7262 45.4182 59.4334 46.5925 59.102 47.7572C58.9573 48.2687 58.7996 48.7738 58.6549 49.2822C58.5101 49.7905 58.0693 51.7273 57.8763 49.813C57.8763 49.6907 57.6704 49.6843 57.68 49.813C57.6991 50.2645 57.8236 50.7052 58.0436 51.0999C58.0559 51.1185 58.0726 51.1337 58.0923 51.1443C58.1119 51.1548 58.1339 51.1603 58.1562 51.1603C58.1785 51.1603 58.2004 51.1548 58.2201 51.1443C58.2397 51.1337 58.2565 51.1185 58.2688 51.0999C58.7546 50.1347 58.9927 49.0409 59.2886 48.0017C59.6361 46.7791 59.9321 45.5437 60.2249 44.3018C60.2603 44.1538 60.0351 44.0895 59.9997 44.2375Z" fill="#515257"/>
<path d="M57.6693 46.9627C57.4248 47.8207 57.1771 48.6786 56.9261 49.5366C56.6655 50.4149 56.4886 51.3801 55.9996 52.1586C55.8998 52.3163 56.1508 52.4611 56.2473 52.3034C56.6816 51.586 56.8393 50.7752 57.0677 49.9741C57.3476 48.9864 57.6179 47.9987 57.8849 47.0078C57.8848 46.982 57.8758 46.9571 57.8595 46.9371C57.8432 46.9172 57.8205 46.9034 57.7953 46.8981C57.7701 46.8929 57.7438 46.8964 57.7209 46.9082C57.698 46.9199 57.6798 46.9392 57.6693 46.9627Z" fill="#515257"/>
<path d="M55.8136 44.8358C55.6013 46.1227 55.3761 47.3806 55.0801 48.6418C54.9385 49.237 54.7873 49.8322 54.6361 50.4306C54.575 50.6751 54.2146 52.3127 53.9669 52.0843C53.9448 52.0668 53.9171 52.058 53.8889 52.0595C53.8608 52.061 53.8342 52.0727 53.814 52.0925C53.7939 52.1122 53.7817 52.1386 53.7796 52.1667C53.7775 52.1948 53.7858 52.2227 53.8028 52.2451L54.0023 52.4768C54.0173 52.4902 54.035 52.5002 54.0542 52.506C54.0734 52.5119 54.0936 52.5135 54.1135 52.5108C54.1335 52.508 54.1525 52.501 54.1694 52.4901C54.1863 52.4792 54.2006 52.4648 54.2114 52.4478C54.8806 51.4827 54.9836 50.1957 55.2474 49.0697C55.5691 47.6895 55.82 46.2996 56.0452 44.8873C56.0678 44.7328 55.8393 44.6685 55.8136 44.8358Z" fill="#515257"/>
<path d="M54.1505 44.5134C53.3847 47.3607 52.7348 50.2401 51.5477 52.9523C51.4898 53.0874 51.686 53.2065 51.7471 53.0681C53.0051 50.3656 53.6292 47.4476 54.3982 44.581C54.4046 44.549 54.3986 44.5158 54.3815 44.4881C54.3643 44.4603 54.3373 44.4401 54.3059 44.4315C54.2744 44.423 54.2409 44.4266 54.212 44.4418C54.1832 44.457 54.1612 44.4826 54.1505 44.5134Z" fill="#515257"/>
<path d="M36.8197 23.1537C36.7746 24.2262 36.6803 25.2846 36.5366 26.3292C36.514 26.4965 36.7682 26.5737 36.7939 26.4C36.9548 25.3244 37.0547 24.2406 37.0931 23.1537C37.1028 22.98 36.8293 22.98 36.8197 23.1537Z" fill="#515257"/>
<path d="M49.1991 30.7613C48.8002 30.2562 48.6586 29.4744 48.4785 28.831C48.2983 28.1875 48.1374 27.6116 47.9894 26.9971C47.9476 26.8202 47.6677 26.8942 47.7192 27.0711C47.9154 27.8754 48.131 28.6797 48.3787 29.4648C48.5364 29.9666 48.6072 30.5651 49.0222 30.9093C49.0427 30.9297 49.07 30.9417 49.0989 30.9429C49.1277 30.9442 49.156 30.9346 49.1782 30.9161C49.2004 30.8975 49.2148 30.8714 49.2187 30.8427C49.2226 30.8141 49.2156 30.7851 49.1991 30.7613Z" fill="#515257"/>
<path d="M56.2317 30.3322C55.8628 29.1556 55.6117 27.9454 55.482 26.7192C55.4595 26.5616 55.1828 26.5969 55.2021 26.7546C55.3694 28.0415 55.4499 29.3895 56.0097 30.5799C56.0212 30.5993 56.037 30.6157 56.0558 30.628C56.0747 30.6403 56.0961 30.6482 56.1184 30.651C56.1408 30.6538 56.1634 30.6514 56.1847 30.6441C56.206 30.6368 56.2254 30.6248 56.2413 30.6089L56.3153 30.5477C56.4118 30.4609 56.3314 30.3579 56.2317 30.3322Z" fill="#515257"/>
<path d="M57.5384 29.3417C57.3036 28.3766 57.0526 27.4114 56.8499 26.4237C56.8113 26.2371 56.5282 26.3175 56.5636 26.5041C56.7631 27.4693 57.0076 28.4345 57.2392 29.4254C57.2843 29.6184 57.5835 29.5348 57.5384 29.3417Z" fill="#515257"/>
<path d="M61.8179 29.9281L61.6249 29.0497C61.5798 28.8567 61.2838 28.9403 61.3289 29.1334L61.5219 30.0085C61.5637 30.2015 61.8597 30.1211 61.8179 29.9281Z" fill="#515257"/>
<path d="M64.4453 23.7018C64.0914 24.7056 63.7407 25.7158 63.316 26.6939C63.2549 26.8354 63.4576 26.9577 63.5251 26.8161C63.9795 25.8257 64.3812 24.8119 64.7284 23.779C64.7895 23.6021 64.5096 23.5248 64.4453 23.7018Z" fill="#515257"/>
<path d="M62.2422 25.4348V25.7565C62.5639 25.7469 62.5639 25.4348 62.2422 25.4348Z" fill="#515257"/>
<path d="M44.0067 36.4716C43.9874 36.7482 43.833 37.1504 43.5274 37.1954C43.2732 37.2373 42.9997 36.9638 42.8517 36.7901C42.5447 36.3619 42.2837 35.9025 42.0731 35.4195C41.9766 35.2361 41.7032 35.397 41.7965 35.5804C42.1568 36.2785 42.4238 37.0796 43.1541 37.4753C43.5113 37.6684 43.6753 37.6652 43.9649 37.3756C44.0872 37.2601 44.183 37.1195 44.2458 36.9634C44.3085 36.8074 44.3367 36.6396 44.3284 36.4716C44.3185 36.4366 44.2974 36.4058 44.2683 36.3839C44.2393 36.3621 44.2039 36.3502 44.1676 36.3502C44.1312 36.3502 44.0959 36.3621 44.0668 36.3839C44.0378 36.4058 44.0167 36.4366 44.0067 36.4716Z" fill="#515257"/>
<path d="M44.4888 34.4972C44.3022 34.3299 44.0287 34.6066 44.2153 34.7707C44.2998 34.8434 44.3678 34.9334 44.4148 35.0345C44.3044 35.0265 44.1959 35.0016 44.0931 34.9605C43.9193 34.8929 43.7971 35.1857 43.9644 35.2629C44.1734 35.3674 44.407 35.413 44.64 35.3948C44.6884 35.394 44.7345 35.3744 44.7687 35.3402C44.803 35.306 44.8225 35.2598 44.8234 35.2114C44.8176 35.0762 44.7851 34.9434 44.7277 34.8208C44.6702 34.6982 44.589 34.5882 44.4888 34.4972Z" fill="#515257"/>
<path d="M38.8214 34.1054C38.6944 34.213 38.5412 34.2851 38.3774 34.3146C38.2039 34.3059 38.0331 34.2678 37.8723 34.2019C37.6921 34.1473 37.6213 34.4207 37.7951 34.4851C37.9927 34.5749 38.2056 34.6262 38.4224 34.6363C38.6314 34.6109 38.8283 34.5248 38.9887 34.3885C39.156 34.2663 38.9983 33.9832 38.8214 34.1054Z" fill="#515257"/>
<path d="M26.7842 39.1297C26.3263 38.178 25.9704 37.1804 25.7225 36.1538C25.7118 36.1141 25.6858 36.0803 25.6502 36.0598C25.6146 36.0392 25.5724 36.0337 25.5327 36.0444C25.493 36.055 25.4592 36.081 25.4387 36.1166C25.4181 36.1522 25.4126 36.1945 25.4233 36.2342C25.6619 37.292 26.0247 38.318 26.5043 39.2906C26.604 39.474 26.8807 39.3131 26.7842 39.1297Z" fill="#515257"/>
<path d="M29.3946 38.2624C29.266 37.9696 29.1373 37.6768 29.0053 37.3841C28.9314 37.2168 28.6836 37.3615 28.7608 37.5288C28.8895 37.8216 29.0182 38.1144 29.1501 38.4039C29.2241 38.5745 29.4686 38.4265 29.3946 38.2624Z" fill="#515257"/>
<path d="M64.8998 20.1408C64.8998 20.4143 64.9802 21.4728 64.4076 21.2057C64.0569 21.0384 64.0858 20.3371 64.0279 20.0089C64.0054 19.8513 63.7641 19.9188 63.7866 20.0765C63.8542 20.5398 63.8606 21.402 64.4623 21.5082C65.2634 21.6497 65.2505 20.6556 65.2505 20.1408C65.2448 20.0984 65.2238 20.0595 65.1916 20.0314C65.1593 20.0032 65.118 19.9877 65.0752 19.9877C65.0323 19.9877 64.991 20.0032 64.9587 20.0314C64.9265 20.0595 64.9056 20.0984 64.8998 20.1408Z" fill="#515257"/>
<path d="M66.206 18.3478L65.7202 18.7371C65.5272 18.8948 65.8007 19.165 65.9937 19.0106L66.4795 18.6213C66.6693 18.454 66.3959 18.1966 66.206 18.3478Z" fill="#515257"/>
<path d="M67.712 17.2605C67.3903 17.2605 67.3903 17.5822 67.712 17.5822V17.2605Z" fill="#515257"/>
<path d="M53.1501 45.0057C52.6064 47.0712 52.2621 49.4133 51.2197 51.2954C51.2046 51.3308 51.2029 51.3704 51.215 51.4069C51.2271 51.4434 51.252 51.4742 51.2852 51.4936C51.3184 51.5129 51.3576 51.5195 51.3953 51.5121C51.433 51.5046 51.4667 51.4836 51.49 51.4531C52.0466 50.5876 52.2782 49.5774 52.5452 48.5929C52.867 47.4283 53.1501 46.2604 53.4525 45.0925C53.4611 45.0534 53.4544 45.0125 53.4339 44.978C53.4134 44.9436 53.3806 44.9183 53.342 44.9072C53.3035 44.8962 53.2622 44.9002 53.2266 44.9185C53.1909 44.9368 53.1636 44.968 53.1501 45.0057Z" fill="#515257"/>
<path d="M50.5924 44.8996C50.2289 47.1517 49.4857 49.2912 49.0353 51.5143C48.9902 51.7492 49.3377 51.8361 49.3956 51.6141C49.9554 49.4231 50.5989 47.2354 50.9528 44.9994C50.9882 44.7645 50.631 44.6648 50.5924 44.8996Z" fill="#515257"/>
<path d="M49.0508 49.1484V49.5088C49.3725 49.5088 49.3725 49.1484 49.0508 49.1484Z" fill="#515257"/>
<path d="M39.7975 16.0409C39.6715 15.7937 39.4963 15.5747 39.2827 15.3975C39.2753 15.3844 39.2651 15.373 39.2529 15.3641C39.2407 15.3552 39.2267 15.3491 39.2119 15.346C39.0463 15.2245 38.8463 15.1589 38.6409 15.1589C38.4355 15.1589 38.2354 15.2245 38.0698 15.346C37.7481 15.5519 37.2462 15.8511 37.3395 16.3112C37.358 16.4667 37.4346 16.6095 37.5539 16.7109C37.6732 16.8123 37.8265 16.8649 37.983 16.8581C38.3539 17.0551 38.7696 17.1526 39.1894 17.1412C39.8747 17.1187 40.1256 16.6329 39.7975 16.0409ZM39.3374 16.7648C39.001 16.8242 38.6549 16.7942 38.3336 16.678C38.3398 16.6469 38.339 16.6149 38.3314 16.5841C38.3237 16.5534 38.3094 16.5248 38.2895 16.5002C38.2695 16.4756 38.2444 16.4557 38.2159 16.442C38.1874 16.4282 38.1561 16.4209 38.1245 16.4206C38.0309 16.4293 37.9373 16.4042 37.8607 16.3498C37.8376 16.2978 37.8288 16.2407 37.835 16.1842C37.8412 16.1276 37.8623 16.0738 37.8961 16.0281L38.1824 15.8061C38.4655 15.5809 38.739 15.4843 39.0318 15.7385C39.2602 15.9412 39.8843 16.6393 39.3374 16.7648Z" fill="#515257"/>
<path d="M41.1108 13.8138C40.8607 13.7067 40.5962 13.6373 40.3257 13.6079C40.2864 13.6006 40.2458 13.6043 40.2083 13.6184C40.1709 13.6326 40.1381 13.6568 40.1134 13.6884C40.0856 13.6952 40.0613 13.7122 40.0452 13.736C40.0292 13.7598 40.0225 13.7886 40.0265 13.817C40.0293 13.9763 40.0648 14.1332 40.1306 14.2782C40.1965 14.4232 40.2913 14.5531 40.4094 14.66C40.5517 14.7476 40.7194 14.7844 40.8853 14.7646C41.0512 14.7447 41.2055 14.6693 41.3231 14.5506C41.3679 14.4912 41.3982 14.4222 41.4118 14.3491C41.4253 14.2759 41.4216 14.2006 41.401 14.1291C41.3804 14.0577 41.3435 13.992 41.2931 13.9372C41.2427 13.8825 41.1803 13.8403 41.1108 13.8138ZM40.551 14.3736C40.4541 14.2901 40.3874 14.1771 40.3611 14.0519L40.6217 14.0937C40.7118 14.113 40.9917 14.1516 41.0271 14.2642C41.0786 14.4444 40.6443 14.4508 40.5477 14.3736H40.551Z" fill="#515257"/>
<path d="M35.3192 15.9649C34.8463 16.0131 34.354 16.1676 33.9036 15.9874C33.6977 15.907 33.6173 16.2351 33.8136 16.3091C34.3026 16.5118 34.8109 16.3735 35.3192 16.3316C35.5412 16.3188 35.5412 15.9391 35.3192 15.9649Z" fill="#515257"/>
</svg>
