<svg width="157" height="97" viewBox="0 0 157 97" fill="none" xmlns="http://www.w3.org/2000/svg">
<path d="M117.003 37.5898C117.039 38.3345 117.039 38.7601 117.039 38.8663C117.039 39.3628 116.897 40.0011 116.613 40.7456C116.365 41.4903 116.046 41.845 115.656 41.845C115.266 41.845 114.167 41.7742 113.741 41.7742C113.067 41.7742 111.791 41.845 109.982 41.9514C108.174 42.0579 106.755 42.1288 105.727 42.1288C105.692 42.1288 105.408 42.1643 104.876 42.235C104.344 42.2705 103.919 42.306 103.599 42.306C102.642 42.306 102.146 42.0934 102.146 41.6678L102.323 40.3559C102.323 40.0011 102.358 39.469 102.394 38.7601C102.465 38.0507 102.5 37.5189 102.5 37.1288C102.5 37.0934 102.394 36.5971 102.146 35.6396C101.933 34.682 101.826 33.9376 101.826 33.4055C101.826 32.3773 102.252 31.8455 103.068 31.8455C103.387 31.8455 104.202 31.9517 104.45 31.9517C104.911 31.9517 105.124 31.7742 105.124 31.4554C105.124 31.207 102.713 31.1006 97.9259 31.1006C96.8622 31.1006 96.3301 31.2425 96.3301 31.4907C96.3301 31.9162 98.2805 31.81 98.2805 33.583C98.2805 34.3273 98.2096 35.4268 98.0323 36.8804C97.8904 38.3346 97.8195 39.4337 97.8195 40.1784C97.8195 40.604 97.8904 41.2423 97.9968 42.0934C98.1033 42.8732 98.1743 43.5117 98.1743 43.9018C98.1743 44.1498 98.1388 44.7527 98.1388 44.93C98.1388 44.9655 98.1743 45.4621 98.2805 46.4194C98.3869 47.3767 98.4576 48.4404 98.5643 49.6461C98.6706 50.8164 98.706 51.7382 98.706 52.3413C98.706 54.6461 97.004 52.7668 97.004 54.2913C97.004 54.5043 97.2523 54.6461 97.7133 54.7169C98.245 54.6814 99.0607 54.6461 100.16 54.6461C100.692 54.6461 101.508 54.6461 102.607 54.6814C103.706 54.7169 104.521 54.7169 105.053 54.7169C105.621 54.7169 106.082 54.4333 106.082 54.1851C106.082 54.0433 105.55 53.9013 104.45 53.7241C103.387 53.5527 102.855 53.3399 102.855 53.0918C102.855 52.5599 102.713 51.4309 102.429 49.6933C102.181 47.9264 102.039 46.9395 102.039 46.7623C102.039 45.8754 102.004 44.3566 102.004 43.9312C102.004 43.2278 102.146 43.2278 102.784 43.2278C103.103 43.2278 103.812 43.2987 104.911 43.4053C106.011 43.5057 106.755 43.5768 107.075 43.5768C107.394 43.5768 108.351 43.5057 109.947 43.4053C111.578 43.2633 112.535 43.1925 112.819 43.1925C114.628 43.1925 115.762 43.2278 116.294 43.3344L116.436 44.8176C116.542 45.5566 116.578 46.1593 116.578 46.5494C116.578 46.9749 116.72 47.8911 116.968 49.2739C117.252 50.6509 117.394 51.6377 117.394 52.2407C117.394 53.5526 116.649 53.8659 114.947 53.8659C114.77 53.8659 114.273 53.8305 114.131 53.8305C113.706 53.8305 113.493 53.9367 113.493 54.1497C113.493 54.4333 113.812 54.6814 114.237 54.6814C114.379 54.6814 115.124 54.6814 116.507 54.6461H119.876C120.549 54.6461 121.471 54.6814 121.649 54.6814C122.322 54.6814 122.393 54.6461 122.393 54.256C122.393 53.866 120.088 54.6461 120.088 52.3413C120.088 51.7382 120.124 50.8164 120.23 49.6461C120.337 48.4762 120.408 47.4122 120.514 46.4549C120.62 45.4976 120.656 45.0008 120.656 44.9655C120.656 44.3626 120.691 43.5471 120.798 42.5189C120.904 41.4549 120.975 40.6747 120.975 40.1784C120.975 39.4337 120.904 38.3346 120.727 36.9159C120.585 35.4268 120.514 34.3631 120.514 33.6184C120.514 31.7742 122.322 31.81 122.322 31.5262C122.322 31.1361 121.861 30.9233 120.904 30.9233C120.372 30.9233 119.202 31.0299 118.918 31.0299L116.436 31.0653C115.337 31.0299 114.521 31.0299 113.989 31.0299C113.528 31.0299 113.209 31.4199 113.209 31.7388C113.067 32.1289 116.01 32.0581 116.294 32.4127C116.755 32.8737 117.003 33.902 117.003 35.4976V37.5898ZM99.4153 34.8949C99.4153 35.9941 99.4507 36.8097 99.5217 37.3414L99.7697 38.8309C99.9472 39.6465 100.018 40.2846 100.018 40.8167C100.018 41.2777 99.9827 41.9514 99.8763 42.8732C99.8054 43.7599 99.7697 44.4335 99.7697 44.8945C99.7697 45.4263 99.9472 46.7029 99.9472 47.235C99.9472 47.696 99.7343 48.7243 99.6988 48.9725C99.6633 48.2987 99.4862 47.0221 99.2378 45.1428C98.9897 43.2633 98.8832 41.7388 98.8832 40.6393C98.8832 40.1075 98.9186 39.1856 99.0252 37.8735C99.1316 36.5616 99.167 35.3914 99.167 34.3986C99.167 33.6184 99.1316 33.0509 99.0252 32.6609C99.2733 32.909 99.4153 33.6539 99.4153 34.8949ZM119.06 41.0648C119.06 40.7456 119.096 40.2139 119.202 39.5048C119.308 38.8309 119.344 38.2991 119.344 37.9799C119.344 37.6606 119.308 37.1998 119.273 36.5616C119.237 35.9231 119.202 35.4268 119.202 35.1075C119.202 34.2211 119.379 33.4764 119.698 32.909C119.521 33.583 119.45 34.3986 119.45 35.3559C119.45 35.9586 119.521 36.8451 119.663 38.0154C119.84 39.1856 119.911 40.0366 119.911 40.6393C119.911 41.3841 119.805 42.4477 119.627 43.7599C119.45 45.072 119.379 45.8873 119.344 46.2774C119.273 44.611 119.06 42.5897 119.06 41.0648ZM101.401 36.4551V37.6606C101.436 38.2282 101.436 38.6181 101.436 38.8309C101.436 39.0793 101.401 39.9303 101.33 41.3132C101.295 42.7315 101.259 43.5117 101.224 43.6179C100.94 41.4904 100.798 38.37 100.798 34.2211C100.798 33.7956 100.834 33.441 100.94 33.1929C101.259 34.2211 101.401 34.9658 101.401 35.4621V36.4551ZM118.244 52.6602C117.784 49.8945 117.571 47.0576 117.571 44.1144C118.032 44.8236 118.244 47.6606 118.244 52.6602ZM101.082 44.3981C101.117 44.7174 101.224 46.0648 101.33 48.5115C101.472 50.9228 101.614 52.3058 101.72 52.6602C101.295 52.1283 101.082 50.9935 101.082 49.2561V44.3981ZM99.9472 51.632C99.9472 51.9866 99.8763 52.3058 99.7697 52.5539C99.8054 52.3767 99.8054 52.093 99.8054 51.7029C99.8054 51.2065 99.8054 50.8873 99.7697 50.6747C99.8763 51.2065 99.9472 51.5256 99.9472 51.5965V51.632ZM123.595 54.6461C125.828 54.6107 130.084 55.2488 130.013 54.5043C130.013 54.1142 129.871 53.9012 129.552 53.9012C129.304 53.9012 128.559 53.9367 128.275 53.9367C127.282 53.9367 127.212 53.0503 128.524 50.1071C129.197 48.6534 129.587 47.8023 129.658 47.5893L130.226 45.7456C131.396 45.6038 132.566 45.5329 133.807 45.5329C136.325 45.5329 138.701 45.5683 140.899 45.6392L141.325 47.1285L141.715 48.4762C141.892 49.0789 142.601 50.6038 142.92 51.7737C143.098 52.3767 143.168 52.9439 143.168 53.5466C143.168 53.795 142.956 53.9367 142.566 54.0433C142.176 54.1142 141.998 54.1851 141.998 54.2913C141.998 54.6814 142.176 54.8587 142.495 54.8587C142.672 54.8587 143.204 54.8233 144.126 54.7523C145.048 54.6814 145.97 54.6461 146.892 54.6461C147.956 54.6461 148.487 54.4333 148.487 54.008C148.487 53.6886 148.31 53.5466 147.955 53.5466C147.778 53.5466 147.388 53.6179 147.282 53.6179C145.473 48.1806 143.949 43.9018 142.672 40.8167C142.211 39.6465 141.431 38.1925 140.367 36.5262C139.339 34.824 138.629 33.6184 138.311 32.9445C138.027 32.3773 137.601 31.81 137.069 31.207C136.537 30.6043 136.148 30.2852 135.864 30.2852C135.332 30.2852 134.516 31.207 133.452 33.0865C132.389 34.9658 131.715 36.4196 131.396 37.5189C131.289 37.9445 131.041 38.5826 130.722 39.3983C130.403 40.2139 130.155 40.8522 130.048 41.2423L129.162 44.2209C128.807 45.5329 128.524 46.5198 128.311 47.1936C127.991 48.1452 127.424 49.4156 126.644 50.9699C125.9 52.5539 125.297 53.4049 124.836 53.5112C123.843 53.795 122.779 53.7596 122.779 54.2913C122.779 54.5397 123.063 54.6461 123.595 54.6461ZM131.892 40.143L132.495 38.3346L133.133 36.8097C133.701 35.4268 134.268 34.3986 135.084 33.37C137.779 38.8663 139.268 41.9514 139.516 42.5544C139.658 42.9443 140.296 43.7599 140.438 44.1855C137.637 44.1498 135.474 44.1144 133.949 44.1144C132.956 44.1144 131.857 44.1855 130.616 44.2918C130.935 43.1216 131.219 42.2351 131.396 41.6678L131.892 40.143ZM140.58 42.0934C139.587 40.7813 138.559 38.8309 137.956 37.5189L136.857 34.8949C136.431 33.831 136.112 33.0154 135.864 32.4836C136.396 32.9445 137.105 33.9376 138.027 35.533C138.984 37.1288 139.552 38.37 139.764 39.2919C139.906 39.8946 140.225 40.7102 140.757 41.7387C141.289 42.767 141.644 43.5471 141.821 44.0789C141.715 43.7954 141.289 43.1216 140.58 42.0934ZM141.892 41.1003C142.034 41.4903 142.353 42.1288 142.885 43.0861C143.417 44.008 143.736 44.7527 143.878 45.2846C143.878 45.3201 143.949 45.8164 144.126 46.845C143.949 46.1003 143.381 44.8945 142.424 43.1925C141.502 41.4549 140.934 40.143 140.686 39.2564C140.58 38.8309 140.296 38.0507 139.835 36.9517C140.615 38.2282 141.289 39.611 141.892 41.1003ZM142.849 48.4404C142.849 48.405 142.105 45.072 142.034 44.5399C143.133 46.845 143.771 49.0789 143.949 51.3128C143.878 51.0648 143.665 50.6038 143.346 49.9298C143.027 49.2561 142.849 48.7596 142.849 48.4404Z" fill="white"/>
<path d="M78.6506 40.2177C78.1896 38.3383 77.9414 37.2035 77.9414 36.8845C78.048 34.225 79.7145 32.6646 81.771 31.9199C83.2251 31.3527 84.1824 31.2107 85.2106 31.069C86.8419 30.8917 88.4377 30.7852 89.9626 30.7852C90.5652 30.7852 91.3454 30.8562 92.2318 30.9981C93.1183 31.1398 93.7921 31.2107 94.2531 31.2107C94.6076 31.2107 94.7849 31.3172 94.7849 31.5653C94.7849 32.3809 94.0402 32.2393 93.3666 32.4519C93.0829 33.3028 92.9412 34.225 92.9412 35.2532C92.9412 35.7851 93.012 36.6362 93.1538 37.771C93.26 38.87 93.3309 39.7211 93.3309 40.3241C93.3309 40.7497 93.26 41.3878 93.1538 42.2387C93.0474 43.0544 92.9765 43.6929 92.9765 44.0829C92.9765 44.331 93.012 44.9339 93.012 45.1112C93.012 45.1466 92.9765 45.6429 92.8699 46.6003C92.7637 47.5579 92.6928 48.6216 92.5864 49.8273C92.4799 50.9975 92.4446 51.9194 92.4446 52.5221C92.4446 53.3023 92.8345 53.6923 93.6501 53.6923C93.8276 53.6923 94.2531 53.657 94.3948 53.657C94.8558 53.657 95.1042 53.8342 95.1042 54.1534C95.1042 54.508 94.5721 54.6853 93.473 54.6853C93.0474 54.6853 92.3027 54.6498 91.239 54.5789C90.1752 54.5434 89.4304 54.508 88.9694 54.508C88.3667 54.508 87.0194 54.6498 86.5938 54.6498C86.2745 54.6144 86.1328 54.4017 86.1328 53.9762C86.1328 53.8342 86.2745 53.7633 86.5583 53.7633C86.7355 53.7633 87.4447 53.7987 87.7283 53.7987C88.8985 53.7987 89.4659 52.9831 89.4659 51.3876C89.4659 50.9975 89.4304 50.5365 89.395 50.0045C89.3241 49.4727 89.2886 49.1534 89.2886 49.0826C89.2886 48.4799 89.1469 46.707 88.8985 43.7991C86.7355 43.9764 85.5653 44.0829 85.4236 44.0829C84.2888 44.0829 83.2251 45.2174 82.6932 46.7423C81.8777 49.0117 81.0621 50.6429 79.75 52.3095C78.3669 53.9762 76.4167 54.898 74.1117 54.898C73.9345 54.898 73.8281 54.7918 73.8281 54.5789C73.8281 54.3308 74.0762 54.1888 74.5372 54.0824C76.4876 53.7633 78.5797 51.5293 80.8137 47.4513C80.9201 47.2387 81.2038 46.8132 81.5938 46.2105L82.6221 44.5085C82.9059 44.0117 83.0476 43.6929 83.0476 43.5508C83.2251 43.4799 79.1116 42.7352 78.6506 40.2177ZM87.232 32.2746C86.8064 32.2746 85.4943 32.1329 84.9626 32.1329C83.7923 32.1329 82.9059 32.8774 82.5866 33.9767C82.2678 35.0761 82.1611 35.6433 82.1258 36.3169C82.0548 37.3455 82.6931 42.4517 85.459 42.5581C85.8844 42.5934 86.4873 42.5934 87.232 42.5581C87.9767 42.5226 88.473 42.4517 88.7923 42.3453C88.6503 40.6077 88.5794 39.331 88.5794 38.5512C88.5794 38.1256 88.6148 37.5935 88.6503 36.9909C88.6503 36.8845 88.6503 36.4944 88.6859 35.7851C88.7214 35.0761 88.7568 34.4023 88.8278 33.7996C88.8631 33.1611 88.9694 32.6646 89.1469 32.2746C89.0049 32.2746 88.5439 32.2393 88.3667 32.2393C88.0476 32.2393 87.4802 32.2746 87.232 32.2746ZM89.7496 37.9482C89.7496 38.5157 89.8205 39.473 89.998 40.8559C90.1397 42.2388 90.2814 43.0898 90.4234 43.4799C90.4589 43.3028 90.4943 42.8063 90.4943 41.9552C90.4943 37.4872 90.3881 34.5085 90.2106 33.0547C89.8913 34.3668 89.7496 35.1115 89.7496 35.3596V37.9482ZM91.7 35.608C91.7 36.849 91.7 38.6574 91.6646 40.9623C91.6289 43.2673 91.6289 45.0403 91.6289 46.2105C91.6289 46.3522 91.6646 46.8132 91.6646 46.955C92.0545 43.6219 92.2673 41.5651 92.2673 40.785C92.2673 40.1821 92.1963 39.331 92.0545 38.1611C91.8772 36.9909 91.8064 36.1043 91.8064 35.5016C91.8064 34.8986 91.8417 34.2604 91.9481 33.6221C91.7709 34.083 91.7 34.7214 91.7 35.608ZM81.5584 33.4448C80.9555 34.083 80.6365 35.1824 80.6365 36.7779C80.6365 38.7283 80.8491 39.9695 81.3101 40.5722C81.1328 39.544 81.0621 38.6219 81.0621 37.8065C81.0621 35.9626 81.3809 34.3668 82.0548 33.0547C81.8777 33.1611 81.7002 33.3028 81.5584 33.4448ZM79.5372 36.849C79.5372 35.8206 80.0335 34.7214 80.1401 34.2604C79.3953 34.8631 79.0407 35.5725 79.0407 36.3169C79.0407 36.7779 79.1471 37.5226 79.3953 38.4799C79.608 39.4376 79.8209 40.1112 79.998 40.4658C79.998 40.3596 79.9273 39.7922 79.7854 38.7638C79.608 37.7001 79.5372 37.0616 79.5372 36.849ZM90.2814 51.6712C90.2814 50.9621 90.3168 49.8982 90.4234 48.5152C90.4943 47.1323 90.5298 46.2105 90.5298 45.7493C90.5298 45.1466 90.4589 44.7211 90.3523 44.4018C90.2461 45.0757 90.2106 46.3876 90.1751 48.3735C90.1397 50.3236 90.1042 51.7777 90.0333 52.6641C90.2106 52.4159 90.2814 52.0967 90.2814 51.6712Z" fill="white"/>
<path fill-rule="evenodd" clip-rule="evenodd" d="M6.19426 46.771C6.19426 46.9481 6.3361 47.9352 6.58434 49.7021C6.86803 51.4398 7.00988 52.5685 7.00988 53.1005C7.00988 53.3487 7.54165 53.5615 8.60551 53.7328C9.70483 53.9101 10.2366 54.0519 10.2366 54.1938C10.2366 54.442 9.77576 54.7257 9.20837 54.7257C8.67644 54.7257 7.86081 54.7257 6.76165 54.6902C5.66232 54.6548 4.8467 54.6548 4.31493 54.6548C3.21577 54.6548 2.40014 54.6902 1.86821 54.7257C1.40737 54.6548 1.15914 54.5129 1.15914 54.3001C1.15914 52.7753 2.86115 54.6548 2.86115 52.3499C2.86115 51.747 2.82552 50.8252 2.7193 49.6549C2.61291 48.4494 2.54199 47.3855 2.4356 46.4281C2.32922 45.4707 2.29376 44.9743 2.29376 44.9388C2.29376 44.7615 2.32922 44.1586 2.32922 43.9104C2.32922 43.5203 2.25829 42.8822 2.15191 42.102C2.04552 41.2509 1.9746 40.6126 1.9746 40.1872C1.9746 39.4425 2.04552 38.3434 2.18737 36.8896C2.36468 35.4356 2.4356 34.3363 2.4356 33.5918C2.4356 31.8187 0.485352 31.9252 0.485352 31.4995C0.485352 31.2514 1.01712 31.1096 2.08099 31.1096C4.09891 31.1096 5.69437 31.1285 6.86543 31.1688C6.98532 31.1634 7.12945 31.16 7.31619 31.1514C7.73442 31.1319 8.36525 31.0862 9.19519 31.0139C10.0253 30.9419 11.0545 30.843 11.8991 30.7691C12.7437 30.6951 13.4036 30.6456 13.8843 30.6164C14.3653 30.5871 14.6669 30.5777 14.962 30.5838C15.2571 30.5899 15.5457 30.6113 16.0434 30.6878C16.5412 30.7641 17.2482 30.8954 17.8595 30.966C18.2299 31.0087 18.5655 31.0292 18.87 31.0405C19.3339 31.0435 19.9077 31.0522 20.5909 31.0741L23.073 31.0387C23.3567 31.0387 24.527 30.9323 25.0588 30.9323C26.0162 30.9323 26.4771 31.145 26.4771 31.5351C26.4771 31.8187 24.6687 31.7832 24.6687 33.6272C24.6687 34.3718 24.7396 35.4356 24.8814 36.925C25.0588 38.3434 25.1297 39.4425 25.1297 40.1872C25.1297 40.6835 25.0588 41.4637 24.9524 42.5275C24.846 43.5558 24.8105 44.3714 24.8105 44.9743C24.8105 45.0097 24.7752 45.5062 24.6687 46.4635C24.5623 47.421 24.4915 48.4847 24.385 49.6549C24.2786 50.8252 24.2433 51.747 24.2433 52.3499C24.2433 54.6548 26.5482 53.8746 26.5482 54.2645C26.5482 54.6548 26.4771 54.6902 25.8035 54.6902C25.6262 54.6902 24.7041 54.6548 24.0304 54.6548H20.6618C19.2789 54.6902 18.5342 54.6902 18.3924 54.6902C17.9668 54.6902 17.6477 54.442 17.6477 54.1583C17.6477 53.9455 17.8605 53.8391 18.286 53.8391C18.4278 53.8391 18.9243 53.8746 19.1015 53.8746C20.8036 53.8746 21.5483 53.5615 21.5483 52.2494C21.5483 51.6465 21.4063 50.6596 21.1228 49.2826C20.8746 47.8997 20.7327 46.9836 20.7327 46.558C20.7327 46.1681 20.6973 45.5652 20.5909 44.8266L20.449 43.343C20.5744 42.0361 20.5985 42.1638 20.7682 40.7546C20.8635 39.9634 21.1937 39.3716 21.1937 38.8751C21.1937 38.7687 21.1937 38.3434 21.1581 37.5987V35.5066C21.1581 34.0108 20.9401 33.0136 20.5331 32.5149C20.4892 32.5001 20.444 32.4646 20.3857 32.4311C20.2574 32.3574 20.0658 32.2933 19.8035 32.2416C19.5412 32.1897 19.2083 32.1504 18.7382 32.0985L18.5463 32.0775L18.361 32.0575C17.9732 32.016 17.5533 31.973 17.2337 31.9438C16.8059 31.9046 16.5573 31.8902 16.1828 31.9028C15.8084 31.9153 15.308 31.9545 14.6027 32.0054C13.8973 32.0563 12.9874 32.1188 12.3172 32.1482C11.6469 32.1775 11.2169 32.1736 10.6013 32.1351C9.9856 32.0967 9.18462 32.0231 8.61673 31.9716C8.04902 31.9198 7.71441 31.8898 7.50668 31.8743C7.36613 31.8637 7.28382 31.8597 7.18069 31.8548C6.39272 31.8728 5.98148 32.4038 5.98148 33.4145C5.98148 33.9464 6.08787 34.6909 6.30064 35.6484C6.54888 36.6059 6.65526 37.1022 6.65526 37.1376C6.65526 37.5277 6.6198 38.0597 6.54887 38.7687C6.51341 39.478 6.47795 40.0099 6.47795 40.3644L6.30064 41.6765C6.30064 43.7806 6.19426 44.4859 6.19426 46.771ZM23.2149 41.0738C23.2149 40.7546 23.2504 40.2227 23.3567 39.5134C23.4631 38.8397 23.4984 38.3077 23.4984 37.9886C23.4984 37.6696 23.4631 37.2086 23.4277 36.5703C23.3922 35.9319 23.3567 35.4356 23.3567 35.1165C23.3567 34.2301 23.5339 33.4854 23.8532 32.918C23.6759 33.5918 23.605 34.4072 23.605 35.3647C23.605 35.9676 23.6759 36.854 23.8176 38.0242C23.9951 39.1943 24.0658 40.0454 24.0658 40.6481C24.0658 41.3928 23.9596 42.4566 23.7821 43.7686C23.605 45.0805 23.5339 45.8961 23.4984 46.2862C23.4277 44.6196 23.2149 42.5985 23.2149 41.0738ZM22.3993 52.669C21.9383 49.9032 21.7255 47.0664 21.7255 44.1232C22.1865 44.8324 22.3993 47.6692 22.3993 52.669ZM3.57023 34.9037C3.57023 36.003 3.60569 36.8185 3.67661 37.3504L3.92484 38.8397C4.10215 39.6553 4.17308 40.2936 4.17308 40.8255C4.17308 41.2864 4.13762 41.9602 4.03123 42.8822C3.96031 43.7686 3.92484 44.4423 3.92484 44.9033C3.92484 45.4353 4.10216 46.7118 4.10216 47.2437C4.10216 47.7045 3.88938 48.7331 3.85392 48.9812C3.81846 48.3074 3.64115 47.0309 3.39292 45.1516C3.14485 43.2721 3.03829 41.7474 3.03829 40.6481C3.03829 40.1163 3.07376 39.1943 3.18031 37.8823C3.28653 36.5703 3.322 35.4002 3.322 34.4072C3.322 33.6272 3.28653 33.0598 3.18031 32.6698C3.42838 32.918 3.57023 33.6627 3.57023 34.9037ZM5.5561 36.4639V37.6696C5.59156 38.237 5.59157 38.6269 5.59157 38.8397C5.59157 39.0879 5.5561 39.939 5.48501 41.322C5.44955 42.7402 5.41409 43.5203 5.37863 43.6267C5.09509 41.4992 4.95325 38.3788 4.95325 34.2301C4.95325 33.8044 4.98871 33.4499 5.0951 33.2017C5.41409 34.2301 5.5561 34.9746 5.5561 35.4711V36.4639ZM5.23694 44.4069C5.2724 44.726 5.37863 46.0736 5.48501 48.5201C5.62702 50.9314 5.76871 52.3144 5.87526 52.669C5.44955 52.1371 5.23694 51.0023 5.23694 49.2649V44.4069ZM4.10216 51.6406C4.10216 51.9953 4.03123 52.3144 3.92484 52.5627C3.96031 52.3853 3.96031 52.1017 3.96031 51.7116C3.96031 51.2151 3.96031 50.8959 3.92484 50.6832C4.03123 51.2151 4.10216 51.5343 4.10216 51.6052V51.6406Z" fill="white"/>
<path d="M35.5742 31.5418C33.5174 32.2157 31.7799 33.5277 30.326 35.4779C28.9076 37.4283 28.1982 39.5204 28.1982 41.7544C28.1982 45.4068 29.2623 48.3498 31.4253 50.5839C31.6024 50.832 32.4181 51.7539 32.9498 52.2859C33.1982 52.534 33.4819 52.7115 33.73 52.8533C34.6876 53.3851 35.9285 53.9527 37.4535 54.5199C38.9784 55.0873 40.1483 55.371 40.9639 55.371C41.7796 55.371 43.056 55.1226 44.7582 54.6617C46.4602 54.2007 47.7721 53.5626 48.6587 52.7824C49.2617 52.2507 49.8999 51.3285 50.5027 49.9809C51.8503 46.9315 52.5239 44.3075 52.5239 42.1445C52.5239 40.0167 51.9565 37.9246 50.8572 35.868C50.5382 35.3006 49.6518 34.4142 49.2263 33.9177C48.3395 32.8893 47.2049 32.0028 45.751 31.3292C44.3327 30.6554 42.8789 30.3008 41.4249 30.3008C40.4675 30.3008 39.2972 30.549 38.4817 30.7262C37.7372 30.9036 36.1769 31.4001 35.5742 31.5418ZM40.6804 53.9881C39.8648 53.9881 38.9071 53.7752 37.7727 53.3851C36.6379 52.9596 35.7513 52.4633 35.1486 51.8959C34.652 51.435 34.2976 50.6194 34.0493 49.4492C34.0493 49.4137 33.9429 48.669 33.7655 47.2152C33.6947 46.506 33.3399 45.5486 33.3399 44.8392C33.3399 43.811 33.6947 42.3571 33.6947 41.2224C33.6947 40.9387 33.5883 40.2295 33.5883 39.946C33.5883 37.8537 34.2621 35.9745 35.6096 34.3078C36.9925 32.6413 38.6236 31.7902 40.5384 31.7902C42.4533 31.7902 44.0846 32.712 45.432 34.5204C46.8148 36.3288 47.4885 38.2083 47.4885 40.1586C47.4885 40.4423 47.3821 41.1517 47.3821 41.4351C47.3821 42.57 47.7368 44.0236 47.7368 45.0522C47.7368 45.7613 47.3821 46.7187 47.3113 47.4278C47.134 48.8819 47.0275 49.6263 47.0275 49.6621C46.9212 50.1584 46.7086 50.7611 46.4247 51.435C46.1411 52.1086 45.8575 52.5695 45.6091 52.7824C45.29 52.995 44.5098 53.2434 43.269 53.5626C42.0278 53.8461 41.1414 53.9881 40.6804 53.9881ZM32.3117 49.6263C31.6734 48.3144 31.3544 46.8606 31.3544 45.2293C31.3544 39.343 32.5601 35.4425 34.9357 33.4922C33.7655 34.8043 33.1982 36.01 33.1982 37.0735C33.1982 37.3574 33.0918 37.8184 32.8791 38.4919C32.6665 39.1303 32.5601 39.5914 32.5601 39.875C32.5601 40.1586 32.6665 40.8324 32.6665 41.1162C32.6665 41.6834 32.631 42.3927 32.5244 43.2082C32.4181 44.0236 32.3826 44.6266 32.3826 44.9458C32.3826 47.2507 32.7727 49.3428 33.5883 51.1512C32.9856 50.6903 32.5601 50.1584 32.3117 49.6263ZM47.9851 36.8964C48.5878 38.5984 49.0133 40.1586 49.2263 41.5418C49.4743 42.9246 49.5805 44.5912 49.5805 46.5414C49.5805 47.7824 49.3325 48.9881 48.8716 50.0875C48.4106 51.1866 47.7722 51.8959 47.0275 52.2859C48.1269 50.2648 48.6942 47.8888 48.6942 45.1586C48.6942 44.8392 48.6587 44.2366 48.5523 43.4209C48.4461 42.6053 48.4106 41.8961 48.4106 41.3288C48.4106 41.045 48.517 40.3715 48.517 40.0877C48.517 39.8396 48.3041 38.9174 47.8785 37.2865C47.8785 36.9673 47.8431 36.6835 47.7368 36.4354L47.9851 36.8964ZM50.4671 38.2083C50.9283 39.2366 51.1409 40.5487 51.1409 42.0735C51.1409 43.1018 50.9992 44.272 50.68 45.5839C50.68 42.6408 50.1126 39.6266 48.9779 36.5063C48.8362 36.2226 48.2332 35.3361 47.914 34.6623C48.0206 34.8751 48.4461 35.407 49.1197 36.2581C49.8289 37.109 50.2899 37.7475 50.4671 38.2083ZM30.2196 44.7685C30.2196 45.4777 30.2905 46.1513 30.3967 46.7897C29.794 45.3713 29.4749 43.9174 29.4749 42.4636C29.4749 40.1231 30.2905 37.9246 31.8863 35.868C30.7868 38.1376 30.2196 41.1162 30.2196 44.7685ZM45.9992 33.0314C46.212 33.3502 46.4248 33.8112 46.6732 34.4142C46.2831 33.8112 45.751 33.244 45.0774 32.6766C45.5029 32.7475 45.8221 32.8539 45.9992 33.0314Z" fill="white"/>
<path fill-rule="evenodd" clip-rule="evenodd" d="M66.1839 43.8378C66.4321 46.7455 66.574 48.5185 66.574 49.1213C66.574 49.1923 66.6094 49.5114 66.6804 50.0432C66.7158 50.5751 66.7513 51.0361 66.7513 51.4262C66.7513 53.0218 66.1839 53.8375 65.0138 53.8375C64.7301 53.8375 64.0209 53.802 63.8436 53.802C63.5599 53.802 63.4182 53.8729 63.4182 54.0148C63.4182 54.4402 63.5599 54.6531 63.879 54.6884C64.3046 54.6884 65.652 54.5467 66.2548 54.5467C66.7158 54.5467 67.4605 54.5822 68.5242 54.6176C69.5881 54.6884 70.3326 54.7238 70.7584 54.7238C71.8575 54.7238 72.3894 54.5467 72.3894 54.1921C72.3894 53.8729 72.141 53.6956 71.6802 53.6956C71.5384 53.6956 71.1128 53.7311 70.9355 53.7311C70.12 53.7311 69.73 53.341 69.73 52.561C69.73 51.9581 69.7654 51.0361 69.8718 49.866C69.9782 48.6603 70.049 47.5965 70.1555 46.6392C70.2619 45.6818 70.2973 45.1854 70.2973 45.1499C70.2973 44.9724 70.2619 44.3697 70.2619 44.1215C70.2619 43.7314 70.3326 43.0933 70.4392 42.2776C70.5456 41.4266 70.6163 40.7882 70.6163 40.3629C70.6163 39.76 70.5456 38.9091 70.4392 37.8098C70.2973 36.675 70.2264 35.8239 70.2264 35.2921C70.2264 34.2637 70.3681 33.3419 70.6518 32.4908C71.3256 32.278 72.0703 32.4199 72.0703 31.6042C72.0703 31.356 71.893 31.2498 71.5384 31.2498C71.0775 31.2498 70.4036 31.1788 69.5172 31.037C68.6306 30.8951 67.8506 30.8242 67.2478 30.8242C65.7231 30.8242 64.1273 30.9306 62.4962 31.1078C61.4678 31.2498 60.5321 31.4511 59.0565 31.9588C53.134 33.9969 59.5402 42.0255 56.5068 47.587C54.2805 51.6687 53.3164 53.4702 51.3704 53.8134C50.9048 53.8954 50.6611 54.0615 50.6611 54.3097C50.6611 54.5225 50.7675 54.6288 50.9447 54.6288C53.2497 54.6288 55.2214 53.7241 56.5828 52.0403C57.9162 50.3911 57.5839 49.1518 58.3862 46.878C58.9057 45.4055 59.3423 42.5347 59.0414 39.8435C58.6282 36.1507 58.8882 32.1716 62.248 32.1716C62.7799 32.1716 64.0918 32.3135 64.5174 32.3135C64.7656 32.3135 65.3328 32.278 65.652 32.278C65.8295 32.278 66.2903 32.3135 66.4321 32.3135C66.2548 32.7035 66.1484 33.2 66.113 33.8383C66.0422 34.4412 66.0068 35.1148 65.9711 35.8239C65.9357 36.5333 65.9357 36.9232 65.9357 37.0296C65.9002 37.6324 65.8648 38.1642 65.8648 38.5899C65.8648 40.5678 66.1611 42.9983 66.1839 43.8378ZM58.0002 40.0034C58.0002 36.8544 57.8661 35.0675 57.5757 34.6209C57.5757 36.4746 57.7098 38.2612 58.0002 40.0034ZM67.035 37.9871C67.035 38.5545 67.1059 39.5118 67.2832 40.8948C67.4249 42.2776 67.5669 43.1286 67.7086 43.5187C67.7442 43.3415 67.7797 42.845 67.7797 41.9939C67.7797 37.5261 67.6732 34.5474 67.496 33.0936C67.1769 34.4056 67.035 35.1503 67.035 35.3985V37.9871ZM68.9853 35.6467C68.9853 36.8877 68.9853 38.6961 68.9498 41.0012C68.9143 43.306 68.9143 45.079 68.9143 46.2492C68.9143 46.3909 68.9498 46.8519 68.9498 46.9938C69.3399 43.6605 69.5526 41.6039 69.5526 40.8237C69.5526 40.221 69.4817 39.3699 69.3399 38.1997C69.1626 37.0296 69.0916 36.143 69.0916 35.5403C69.0916 34.9375 69.1271 34.2992 69.2335 33.661C69.0562 34.122 68.9853 34.7602 68.9853 35.6467ZM67.5669 51.7099C67.5669 51.0008 67.6024 49.937 67.7086 48.5539C67.7797 47.1711 67.8152 46.2492 67.8152 45.7881C67.8152 45.1854 67.7442 44.7598 67.6379 44.4407C67.5315 45.1144 67.496 46.4264 67.4605 48.4121C67.4249 50.3623 67.3896 51.8163 67.3187 52.7027C67.496 52.4546 67.5669 52.1354 67.5669 51.7099Z" fill="white"/>
<path fill-rule="evenodd" clip-rule="evenodd" d="M113.916 62.5806L113.918 66.9501L113.93 71.5158L113.91 76.7189C101.966 76.6283 90.0593 76.2112 78.1507 75.4264C77.4963 75.3833 76.9036 75.2896 76.3341 75.1995C75.8764 75.1272 75.4337 75.0572 74.9859 75.0177C73.6844 74.9034 73.3914 75.0312 72.9982 75.2028C72.7408 75.3151 72.4405 75.4462 71.7866 75.5404C71.5727 75.9366 71.5146 76.1305 71.4871 76.2222C71.4736 76.267 71.4675 76.2875 71.4541 76.2952C71.4428 76.3017 71.4264 76.2994 71.3964 76.295C71.3191 76.2837 71.1514 76.2592 70.7477 76.3383C70.6633 76.5241 70.6259 76.6415 70.5993 76.725C70.58 76.7854 70.5664 76.8282 70.5447 76.8663C70.4923 76.9586 70.3927 77.0242 70.0523 77.2482C69.9995 77.2829 69.941 77.3214 69.876 77.3644C69.5607 77.7864 68.9957 78.2198 68.388 78.686C68.0813 78.9212 67.7638 79.1647 67.462 79.4194C39.4658 103.044 27.0932 90.7881 5.43366 67.225C7.26906 66.0175 103.245 62.8739 113.916 62.5806ZM145.009 76.3724C145 78.5717 118.283 77.0661 116.9 76.7663C116.056 76.4921 116.184 74.3737 116.279 72.798C116.309 72.287 116.337 71.8332 116.327 71.5177C116.307 70.9269 116.281 70.3462 116.255 69.7693C116.195 68.4071 116.135 67.0665 116.165 65.666C115.695 64.7153 115.597 63.9578 115.894 62.7646C121.368 61.698 138.351 62.0472 144.621 62.3758C145.382 64.4016 146.302 74.7827 145.009 76.3724ZM1.14844 65.028C0.705775 67.5009 3.14317 69.6132 4.95955 71.1873C5.52605 71.6782 6.03215 72.1168 6.37162 72.4976C7.91194 73.7639 9.20386 75.1705 10.4997 76.7942C33.7412 105.919 49.3083 94.6772 62.1225 85.4232C67.3012 81.6833 72.0303 78.268 76.6346 77.9733C77.0447 77.9718 77.9238 77.9629 79.1502 77.9504C87.4089 77.8666 111.417 77.6228 114.021 78.4185C116.117 78.0832 121.303 78.3983 126.981 78.7432C135.855 79.2823 145.929 79.8943 147.28 78.2106L147.183 76.1603C146.574 75.325 147.242 66.3203 147.478 63.7019C147.539 63.3278 147.613 62.9703 147.683 62.6329C148.037 60.9136 148.284 59.7159 146.156 59.4922C137.746 59.8013 123.82 59.985 107.811 60.1962C66.4186 60.7424 11.0951 61.4723 1.14844 65.028Z" fill="white"/>
<path fill-rule="evenodd" clip-rule="evenodd" d="M85.7672 16.4528C86.5965 17.9732 86.1986 19.4303 85.0243 20.7697L85.7672 16.4528ZM60.5714 21.0944C60.1771 20.4689 59.4412 19.9292 59.3494 18.7401C60.5969 19.3175 60.5335 19.5541 60.5714 21.0944ZM89.9693 17.211C92.7304 17.2305 95.8205 21.1069 96.717 22.7413C95.0813 21.8762 94.5143 21.3885 92.8659 20.2028C91.7477 19.3981 90.1248 18.7763 89.9693 17.211ZM78.5147 18.5924C78.8339 17.3636 79.0585 16.8383 79.5521 15.7056C80.1037 14.4394 79.8686 14.0955 81.3051 13.4473C81.6162 16.1858 80.1616 17.8553 78.5147 18.5924ZM71.9947 17.3876C71.467 15.7739 71.6627 13.6156 72.3822 12.4281C73.1923 13.3759 73.3205 15.163 72.7212 16.5761C72.1776 17.8577 72.3106 17.155 71.9947 17.3876ZM59.8838 15.9827C60.635 14.5311 62.0323 13.8455 63.8141 13.5626L64.5251 17.0039C63.5509 16.1936 61.6732 16.1918 59.8838 15.9827ZM64.9791 14.3106C66.8989 15.6397 67.214 18.3027 66.5705 19.557C65.7939 18.5322 65.2016 15.6744 64.9791 14.3106ZM87.1549 13.8356C87.8443 12.4582 89.2836 12.6686 90.7057 12.8353C89.7142 13.4634 88.5819 13.7731 87.1549 13.8356ZM57.2214 12.4054C55.9846 12.0991 56.3708 11.357 55.7648 9.85959C56.6764 10.527 57.2155 11.2935 57.2214 12.4054ZM82.2102 10.2798C81.815 9.65186 81.4145 11.3373 81.8031 8.77751L82.3488 7.53667C82.3767 7.36473 82.4793 7.34553 82.689 7.27005L82.2102 10.2798ZM73.429 3.90864C73.7743 4.96388 73.9507 5.31346 73.8274 6.51494C73.645 8.29178 72.8052 8.39865 72.4299 8.55221L73.429 3.90864ZM64.9859 8.89886C64.5928 7.45988 64.0413 5.29816 64.4091 3.64153C65.5932 4.45049 65.8374 6.36154 65.6615 7.52382C65.4417 8.97532 65.5253 8.29552 64.9859 8.89886ZM71.2053 10.4506L67.6233 10.9282C68.0542 9.6055 67.9031 9.50188 69.2521 9.43584C70.2007 7.93895 70.2532 5.26205 67.617 6.48436C66.2548 7.75058 68.4814 9.00265 66.183 10.5399C65.3806 8.36873 68.4938 2.4882 63.4708 1.15447C63.0474 2.18824 63.2607 2.5845 63.3039 3.87334L63.409 5.41187L63.9078 7.97734C64.3345 12.7247 64.5083 11.7012 63.1084 12.4358C62.0536 12.9892 60.2856 13.9722 59.5397 14.2541C59.768 12.124 63.1165 10.5552 59.9838 9.88692C58.3645 10.9952 59.4838 11.6835 58.6124 12.7156C58.477 13.7658 58.1558 11.5595 57.5589 10.5858C56.7975 9.34328 55.6654 7.52121 54.333 8.53692C55.1566 10.6009 57.6928 15.2879 56.6841 17.2214C56.1159 18.3106 55.2877 19.9902 54.4117 20.86L54.5386 23.1026L55.3346 22.4758C55.5843 20.9682 56.3552 18.79 57.6599 17.9456C58.1453 18.5548 60.5172 23.1787 61.1214 24.5656C62.6913 23.6314 62.107 22.0743 61.5603 20.5226C61.05 19.0739 60.1626 18.3742 59.8163 17.0257C63.9463 17.224 61.1406 18.0853 63.4708 19.528C64.4508 18.9611 64.6538 18.9102 64.7997 17.5588L66.339 22.8454C69.5729 22.1835 67.0016 14.7812 65.9833 12.6238C67.5608 12.0184 69.3297 11.5128 71.1978 11.6283L71.0643 20.2664C73.3987 19.9811 73.7338 15.0367 74.0572 12.589C76.4094 13.6409 74.9052 14.4383 74.9174 16.6436C76.1376 16.8765 76.6476 16.7696 77.613 16.3579C77.2389 13.7947 75.8769 13.3396 75.1248 11.6185C77.0804 11.4933 78.463 11.6623 80.0389 12.5495L76.4316 21.2478C75.7321 22.9347 79.526 19.6047 80.4689 18.1925C82.5413 16.0106 82.0191 16.4422 82.3443 13.1759C85.9821 13.9044 85.0793 16.2655 84.3669 19.3802C84.2875 20.9467 83.8656 23.0969 84.7806 24.373C86.5888 23.5709 86.9451 18.965 87.1691 15.6002C88.5368 16.2013 88.2795 16.5967 88.9423 17.9223C89.9735 19.9842 96.4349 24.4138 98.352 24.4399C98.3199 21.7651 95.3572 19.4086 93.4626 17.6786C91.9898 16.3339 90.0903 15.9761 88.3894 15.2811L88.9729 14.8026C90.5178 13.813 94.8617 13.5742 96.4453 13.9519C96.3524 10.7065 89.806 11.0472 87.4834 12.0314C86.0389 12.6432 85.8871 14.1261 84.0261 12.4041L86.7931 10.296L87.0985 8.0847C85.2732 7.96986 86.06 7.74814 85.2401 8.76954L84.9086 10.6363L82.8599 11.1058C83.5393 9.49098 84.0242 3.18736 81.873 3.25634C81.2611 6.45963 80.8552 8.39182 80.1081 11.1335L73.5627 10.1919L74.3891 7.50918C74.5638 5.8301 74.6526 4.80625 74.3876 3.11205C73.9087 0.0518991 73.2819 0.750236 72.5283 0.589844C72.1637 4.10319 71.5219 7.15895 71.2053 10.4506Z" fill="white"/>
<path fill-rule="evenodd" clip-rule="evenodd" d="M7.99147 87.4878C6.4139 90.4845 6.50695 91.3887 9.15375 92.7079C12.1251 92.7256 13.7632 91.9827 12.934 88.3259C11.3465 86.8741 10.4125 86.9782 7.99147 87.4878Z" fill="white"/>
<path fill-rule="evenodd" clip-rule="evenodd" d="M127.828 74.257C127.081 75.5447 126.061 76.6174 124.722 76.6174C123.171 76.6174 122.561 74.9129 122.323 73.2441C119.831 78.2083 115.634 84.4603 110.462 84.4603C109.641 84.4603 108.826 84.3512 108.035 84.1319C105.224 83.3531 103.079 81.3088 101.654 78.822C99.8414 75.6593 99.1797 71.8393 99.1797 68.2317C99.1797 64.5255 99.8732 60.6516 101.499 57.3008C102.889 54.4354 105.036 51.847 108.014 50.5611C109.301 50.0057 110.666 49.7305 112.066 49.7305C115.945 49.7305 118.402 52.4178 118.402 56.2446C118.402 57.5611 118.154 58.9143 117.764 60.1695C117.009 62.6022 114.972 66.591 111.977 66.591C111.322 66.591 110.677 66.3178 110.677 65.5581C110.677 64.9157 111.138 64.5251 111.754 64.5251C113.671 64.5251 115.073 61.5626 115.59 60.0598C115.997 58.8733 116.292 57.5032 116.292 56.2446C116.292 53.623 114.75 51.8408 112.066 51.8408C109.089 51.8408 106.581 54.2063 105.033 56.5348C102.785 59.9169 101.736 64.1998 101.736 68.2317C101.736 71.7212 102.654 75.4152 104.599 78.3413C105.87 80.2537 108 82.35 110.462 82.35C113.419 82.35 116.128 79.1523 117.681 76.9538C118.908 75.216 119.977 73.3217 120.907 71.409C121.246 70.7123 121.57 70.0058 121.87 69.2914C122.005 68.9688 122.162 68.6064 122.271 68.2683C122.36 67.4361 122.593 66.174 123.652 66.174C124.445 66.174 124.953 66.6093 124.953 67.4296V67.4589L124.951 67.4882C124.858 68.6885 124.73 69.8256 124.73 71.0391C124.73 71.6319 124.768 73.6836 125.025 74.4317C125.274 74.2765 125.546 73.9231 125.655 73.7677C126.12 73.1089 126.485 72.2816 126.775 71.5316C127.106 70.6765 127.388 69.7813 127.612 68.8907C127.627 67.5118 127.766 66.214 127.967 64.8713C127.504 64.9543 127.037 65.0241 126.584 65.0717L126.544 65.0758H126.504C125.903 65.0758 125.472 64.6444 125.472 64.0428C125.472 63.4579 125.866 63.1081 126.417 63.0214C127.01 62.9035 127.7 62.8073 128.313 62.6637C128.836 60.4634 130.208 55.7465 132.609 55.7465C133.484 55.7465 133.731 56.6555 133.731 57.3587C133.731 58.5874 133.242 60.4389 132.788 61.938C134.295 61.6517 135.836 61.3679 137.331 61.1884L137.377 61.1829H137.422C137.965 61.1829 138.5 61.6016 138.5 62.1713C138.5 62.7589 138.134 63.1914 137.549 63.2828C135.726 63.62 133.879 63.8654 132.049 64.1804C131.847 64.8406 131.626 65.4959 131.406 66.1497C131.108 67.0361 130.801 67.9248 130.538 68.8221C130.394 69.3127 130.167 70.0834 130.167 70.5935C130.167 72.6245 130.24 80.3894 133.59 80.3894C136.016 80.3894 138.064 75.7349 138.798 73.8928C139.499 72.1342 140.08 70.2889 140.545 68.4507C140.322 67.5868 140.311 66.5618 140.311 65.6918C140.311 64.2253 140.633 61.6739 142.444 61.3459C142.552 61.3264 142.661 61.3166 142.77 61.3166C144.097 61.3166 144.694 62.3903 144.694 63.5973C144.694 64.7848 144.429 65.9348 143.996 67.0358C143.844 67.4205 143.673 67.7938 143.493 68.1655C143.448 68.2582 143.383 68.378 143.328 68.4931C143.429 68.5706 143.607 68.5802 143.706 68.5802C144.098 68.5802 144.566 68.1362 144.856 67.7893V66.36C144.856 64.7789 145.202 61.7623 147.36 61.7623C148.844 61.7623 149.017 63.4571 149.017 64.5777C149.017 65.7995 148.176 67.4019 147.422 68.432C147.496 70.4135 147.619 72.3928 147.663 74.375C149.363 73.3036 151.137 72.2422 152.727 71.0352C153.376 70.5425 154.972 69.2821 154.972 68.3654C154.972 67.7819 155.431 67.3771 156.005 67.3771C156.583 67.3771 156.993 67.8537 156.993 68.41C156.993 70.3531 155.072 71.9058 153.64 72.9407C151.716 74.3314 149.628 75.5149 147.656 76.851C147.616 77.682 147.625 78.5463 147.598 79.3725C147.546 80.9833 147.454 82.5982 147.269 84.1996C146.983 86.6791 146.183 92.3923 142.77 92.3923C139.735 92.3923 139.375 88.524 139.375 86.2795C139.375 82.3852 141.997 78.009 145.168 75.7191V75.2726C145.168 73.6226 145.063 71.9743 144.974 70.3263C144.58 70.546 144.154 70.6905 143.706 70.6905C143.176 70.6905 142.651 70.6283 142.181 70.4452C141.001 74.7567 138.196 82.4995 133.59 82.4995C132.876 82.4995 132.177 82.3736 131.527 82.0705C129.011 80.8969 128.148 77.3647 127.828 74.257ZM123.742 62.2079C124.572 62.2079 125.309 62.9513 125.309 63.7755C125.309 64.6886 124.655 65.3432 123.742 65.3432C122.874 65.3432 122.174 64.6453 122.174 63.7755C122.174 62.8547 122.807 62.2079 123.742 62.2079ZM145.137 78.4747C143.159 80.4902 141.485 83.7537 141.485 86.2795C141.485 87.0346 141.515 90.282 142.814 90.282C142.848 90.282 142.88 90.2781 142.913 90.2694C143.46 90.1243 143.909 88.8298 144.052 88.3669C144.486 86.9547 144.698 85.3467 144.844 83.8781C144.99 82.4065 145.07 80.9247 145.115 79.4467C145.125 79.1225 145.132 78.7986 145.137 78.4747Z" fill="#F282C9"/>
</svg>
