<svg width="12" height="13" viewBox="0 0 12 13" fill="none" xmlns="http://www.w3.org/2000/svg">
<path fill-rule="evenodd" clip-rule="evenodd" d="M7.0605 6.54692L11.4797 2.04438C11.7686 1.75 11.7686 1.27846 11.4797 0.984068C11.183 0.681795 10.696 0.681795 10.3993 0.984068L6 5.46641L1.60066 0.984068C1.30399 0.681795 0.817015 0.681795 0.52034 0.984068C0.231404 1.27846 0.231404 1.75 0.52034 2.04438L4.9395 6.54692L0.52034 11.0495C0.231404 11.3439 0.231404 11.8154 0.52034 12.1098C0.817015 12.4121 1.30399 12.4121 1.60066 12.1098L6 7.62743L10.3993 12.1098C10.696 12.4121 11.183 12.4121 11.4797 12.1098C11.7686 11.8154 11.7686 11.3439 11.4797 11.0495L7.0605 6.54692Z" fill="#515257"/>
</svg>
