<svg width="10" height="10" viewBox="0 0 10 10" fill="none" xmlns="http://www.w3.org/2000/svg">
<path opacity="0.5" fill-rule="evenodd" clip-rule="evenodd" d="M5.88375 5L9.55813 1.32562C9.80217 1.08158 9.80217 0.685916 9.55812 0.441875C9.31408 0.197834 8.91842 0.197834 8.67437 0.441875L5 4.11625L1.32562 0.441875C1.08158 0.197834 0.685916 0.197834 0.441875 0.441875C0.197834 0.685916 0.197834 1.08158 0.441875 1.32563L4.11625 5L0.441875 8.67437C0.197834 8.91842 0.197834 9.31408 0.441875 9.55812C0.685916 9.80217 1.08158 9.80217 1.32563 9.55812L5 5.88375L8.67437 9.55813C8.91842 9.80217 9.31408 9.80217 9.55812 9.55812C9.80217 9.31408 9.80217 8.91842 9.55812 8.67437L5.88375 5Z" fill="#515257"/>
</svg>
